<svg width="50" height="50" viewBox="0 0 50 50" fill="none" xmlns="http://www.w3.org/2000/svg">
<path d="M24.9998 45.8337C36.5058 45.8337 45.8332 36.5063 45.8332 25.0003C45.8332 13.4944 36.5058 4.16699 24.9998 4.16699C13.4939 4.16699 4.1665 13.4944 4.1665 25.0003C4.1665 36.5063 13.4939 45.8337 24.9998 45.8337Z" stroke="white" stroke-width="1.5" stroke-linecap="round" stroke-linejoin="round"/>
<path d="M45.8332 27.6337C43.8731 27.2672 41.8834 27.0831 39.8894 27.0837C28.7394 27.0837 18.8207 32.7962 12.4998 41.667M39.5832 10.417C33.0623 18.0566 23.2665 22.917 12.3123 22.917C9.50817 22.917 6.78109 22.5982 4.1665 21.9982" stroke="white" stroke-width="1.5" stroke-linecap="round" stroke-linejoin="round"/>
<path d="M30.4538 45.8333C30.9844 43.256 31.251 40.6314 31.2497 38C31.2497 24.8458 24.6538 13.2229 14.583 6.25" stroke="white" stroke-width="1.5" stroke-linecap="round" stroke-linejoin="round"/>
</svg>
