<svg width="50" height="50" viewBox="0 0 50 50" fill="none" xmlns="http://www.w3.org/2000/svg">
<path d="M18.8332 44.8753C20.8332 45.4795 22.854 45.8337 24.9998 45.8337C30.5252 45.8337 35.8242 43.6387 39.7312 39.7317C43.6382 35.8247 45.8332 30.5257 45.8332 25.0003C45.8332 22.2645 45.2943 19.5554 44.2473 17.0278C43.2004 14.5001 41.6658 12.2035 39.7312 10.2689C37.7967 8.33438 35.5 6.79981 32.9724 5.75284C30.4448 4.70586 27.7357 4.16699 24.9998 4.16699C22.264 4.16699 19.5549 4.70586 17.0273 5.75284C14.4996 6.79981 12.203 8.33438 10.2684 10.2689C6.36144 14.1759 4.1665 19.475 4.1665 25.0003C4.1665 33.8545 9.729 41.4587 17.5832 44.4587C17.3957 42.8337 17.2082 40.1462 17.5832 38.292L19.979 28.0003C19.979 28.0003 19.3748 26.792 19.3748 24.8753C19.3748 22.0003 21.1665 19.8545 23.2082 19.8545C24.9998 19.8545 25.8332 21.167 25.8332 22.8545C25.8332 24.6462 24.6457 27.2087 24.0415 29.667C23.6873 31.7087 25.1248 33.5003 27.2082 33.5003C30.9165 33.5003 33.7915 29.542 33.7915 23.9587C33.7915 18.9587 30.2082 15.542 25.0623 15.542C19.1873 15.542 15.729 19.917 15.729 24.5212C15.729 26.3128 16.3123 28.1253 17.2707 29.3128C17.4582 29.4378 17.4582 29.6045 17.3957 29.917L16.7915 32.1878C16.7915 32.542 16.5623 32.667 16.2082 32.417C13.5415 31.2503 11.9998 27.4587 11.9998 24.3962C11.9998 17.8128 16.6665 11.8337 25.6665 11.8337C32.8332 11.8337 38.4165 16.9795 38.4165 23.8128C38.4165 30.9795 33.979 36.7295 27.6248 36.7295C25.604 36.7295 23.6248 35.6462 22.9165 34.3753L21.5207 39.3128C21.0415 41.1045 19.729 43.5003 18.8332 44.9378V44.8753Z" fill="white"/>
</svg>
