<svg width="50" height="50" viewBox="0 0 50 50" fill="none" xmlns="http://www.w3.org/2000/svg">
<path d="M46.7918 12.4997C45.1877 13.2288 43.4585 13.708 41.6668 13.9372C43.5002 12.833 44.9168 11.083 45.5835 8.97884C43.8543 10.0205 41.9377 10.7497 39.9168 11.1663C38.271 9.37467 35.9585 8.33301 33.3335 8.33301C28.4377 8.33301 24.4377 12.333 24.4377 17.2705C24.4377 17.9788 24.521 18.6663 24.6668 19.3122C17.2502 18.9372 10.646 15.3747 6.25016 9.97884C5.47933 11.2913 5.04183 12.833 5.04183 14.458C5.04183 17.5622 6.60433 20.3122 9.021 21.8747C7.54183 21.8747 6.16683 21.458 4.9585 20.833V20.8955C4.9585 25.2288 8.04183 28.8538 12.1252 29.6663C10.8144 30.0266 9.43774 30.0766 8.10433 29.8122C8.67018 31.5882 9.77837 33.1422 11.2731 34.2558C12.7679 35.3694 14.574 35.9865 16.4377 36.0205C13.2786 38.5216 9.36268 39.8734 5.3335 39.8538C4.62516 39.8538 3.91683 39.8122 3.2085 39.7288C7.16683 42.2705 11.8752 43.7497 16.9168 43.7497C33.3335 43.7497 42.3543 30.1247 42.3543 18.3122C42.3543 17.9163 42.3543 17.5413 42.3335 17.1455C44.0835 15.8955 45.5835 14.3122 46.7918 12.4997Z" fill="white"/>
</svg>
