<svg width="50" height="50" viewBox="0 0 50 50" fill="none" xmlns="http://www.w3.org/2000/svg">
<path d="M20.8332 31.2503L31.6457 25.0003L20.8332 18.7503V31.2503ZM44.9165 14.9378C45.1873 15.917 45.3748 17.2295 45.4998 18.8962C45.6457 20.5628 45.7082 22.0003 45.7082 23.2503L45.8332 25.0003C45.8332 29.5628 45.4998 32.917 44.9165 35.0628C44.3957 36.9378 43.1873 38.1462 41.3123 38.667C40.3332 38.9378 38.5415 39.1253 35.7915 39.2503C33.0832 39.3962 30.604 39.4587 28.3123 39.4587L24.9998 39.5837C16.2707 39.5837 10.8332 39.2503 8.68734 38.667C6.81234 38.1462 5.604 36.9378 5.08317 35.0628C4.81234 34.0837 4.62484 32.7712 4.49984 31.1045C4.354 29.4378 4.2915 28.0003 4.2915 26.7503L4.1665 25.0003C4.1665 20.4378 4.49984 17.0837 5.08317 14.9378C5.604 13.0628 6.81234 11.8545 8.68734 11.3337C9.6665 11.0628 11.4582 10.8753 14.2082 10.7503C16.9165 10.6045 19.3957 10.542 21.6873 10.542L24.9998 10.417C33.729 10.417 39.1665 10.7503 41.3123 11.3337C43.1873 11.8545 44.3957 13.0628 44.9165 14.9378Z" fill="white"/>
</svg>
