<svg width="125" height="50" viewBox="0 0 125 50" fill="none" xmlns="http://www.w3.org/2000/svg">
<path d="M24.8951 0.795898H13.5916L0.409485 49.9581H8.05128L19.2433 8.18296L30.4354 49.9581H38.0612L24.8951 0.795898Z" fill="white"/>
<path d="M43.1717 0.795898V49.974H50.5428V0.795898H43.1717Z" fill="white"/>
<path d="M58.7588 0.794922V49.973H66.1299V0.794922H58.7588Z" fill="white"/>
<path d="M74.3286 0.763672V8.56467H81.7316V0.763672H74.3286Z" fill="white"/>
<path d="M117.218 0.779888V35.2953L97.2861 0.748047L97.2383 0.779888H89.8672V49.9421H97.2383V15.4426L117.171 49.9739L117.218 49.958H124.59V0.779888H117.218Z" fill="white"/>
<path d="M81.7475 14.3916V16.3498H81.7157V49.9578H74.3445V16.3498H74.3286V14.3916H81.7475Z" fill="white"/>
</svg>
