<svg width="146" height="115" viewBox="0 0 146 115" fill="none" xmlns="http://www.w3.org/2000/svg">
<path d="M145.886 82.0961C145.914 82.1221 145.917 82.167 145.892 82.1957C144.498 83.778 142.342 83.3311 141.028 82.7815V81.5747C141.796 80.8729 143.834 80.2025 145.886 82.0961Z" fill="white"/>
<path fill-rule="evenodd" clip-rule="evenodd" d="M64.8165 95.0336C66.3608 94.3433 68.0201 94.5185 69.4126 95.1153C69.5971 95.226 70.1947 95.5398 70.8197 96.2353C71.9702 97.6108 72.3435 99.1806 71.4998 100.837C70.8606 102.085 69.301 102.32 68.0431 101.456C67.8278 101.342 67.6381 101.185 67.4855 100.995C67.3329 100.804 67.2207 100.585 67.1556 100.35C67.0905 100.115 67.074 99.8696 67.107 99.628C67.1375 99.4054 67.2094 99.1907 67.3189 98.995C67.3353 98.9657 67.3704 98.9526 67.4019 98.964C67.9086 99.1488 68.0164 99.5009 68.1159 99.8259C68.2008 100.103 68.2797 100.361 68.5952 100.478C68.5987 100.479 68.6023 100.48 68.6059 100.481C68.767 100.511 68.9329 100.507 69.0922 100.468C69.2534 100.429 69.4039 100.354 69.5335 100.251C69.663 100.147 69.7683 100.016 69.8421 99.8677C69.9158 99.7191 69.9563 99.5562 69.9606 99.3903C70.103 98.4245 69.6541 97.7467 68.6742 97.3519C68.6628 97.3473 68.6503 97.3457 68.6381 97.3473C67.2196 97.5342 66.0287 98.1395 66.1 99.7687C66.1716 101.405 67.363 102.407 68.8663 102.765C70.3697 103.123 71.4231 102.474 72.0674 101.078C73.2057 98.6019 72.2496 96.0345 69.7028 94.82C69.6942 94.8159 69.6869 94.8104 69.6799 94.8039C69.487 94.6232 68.3015 94.2308 67.6643 94.1209C67.2979 94.0577 66.9202 94.0677 66.5614 93.9775C66.5178 93.9666 66.4969 93.9179 66.5169 93.8777C66.7749 93.3585 67.0011 92.8241 67.1943 92.2775C67.4306 91.3366 67.3664 90.3454 67.0105 89.4429C66.6547 88.5405 66.0251 87.7721 65.2102 87.2458C63.6455 86.2436 62.0808 86.1464 60.5774 87.2969C60.1291 87.5949 59.7835 88.0238 59.5876 88.5252C59.3918 89.0266 59.3553 89.5762 59.4832 90.0991C59.7439 91.2138 60.6746 91.4798 61.6308 91.5565C62.587 91.6332 63.6659 91.6434 63.9114 90.3753C64.0415 89.7441 63.0165 89.5162 62.3774 89.5264C62.1901 89.5294 62.0006 89.5671 61.8114 89.6047C61.3548 89.6955 60.6596 89.943 60.6596 89.3462C60.7056 88.0014 60.5774 87.9463 61.4007 87.4759C62.9501 86.5913 64.6477 87.0106 65.7778 88.5446C67.0357 90.2525 66.9437 92.349 65.558 93.6274C63.0268 95.9591 58.3275 94.5887 57.4838 91.265C57.2087 90.2622 57.2169 89.2028 57.5076 88.2045C57.7983 87.2061 58.3599 86.3079 59.1303 85.6095C59.9904 84.7094 61.0929 84.0778 62.3044 83.7911C63.5158 83.5043 64.7844 83.5747 65.9568 83.9936C69.7147 85.2633 72.2727 87.9718 74.1783 91.2269C74.1887 91.2446 74.1908 91.2667 74.1845 91.2862C73.0365 94.8637 73.0424 95.2277 74.2424 99.2141C74.2477 99.2316 74.2463 99.2511 74.2384 99.2675C72.8775 102.063 72.5389 104.995 73.8853 107.791C73.8934 107.808 73.8948 107.827 73.8888 107.845C73.7623 108.215 73.5355 108.469 73.3155 108.715C73.0442 109.018 72.7833 109.31 72.7338 109.794C72.7326 109.805 72.7343 109.817 72.7386 109.828L74.6377 114.551C74.6621 114.611 74.7483 114.611 74.772 114.55L76.6701 109.645C76.6792 109.621 76.6753 109.595 76.6597 109.575C76.4692 109.33 76.2833 109.094 76.095 108.854L76.092 108.851L76.0914 108.85C75.8744 108.574 75.654 108.294 75.4194 107.992C75.4022 107.97 75.3996 107.939 75.4123 107.914C76.9253 104.948 76.4672 102.028 75.0899 99.1723C75.08 99.1519 75.0802 99.1278 75.0906 99.1076C75.7007 97.9117 76.0257 96.5906 76.0398 95.2478C76.0539 93.9054 75.7568 92.5782 75.1722 91.3701C75.162 91.349 75.1625 91.3244 75.1737 91.3039C76.8043 88.3129 79.3199 85.8987 82.3761 84.3925C83.6655 83.7472 85.1245 83.5216 86.5486 83.7472C87.9727 83.9728 89.2905 84.6382 90.3173 85.6504C91.125 86.4103 91.6943 87.3887 91.9558 88.4664C92.2173 89.5441 92.1597 90.6746 91.79 91.7201C91.1508 93.7348 89.4787 94.5478 87.4947 94.7575C85.209 95.008 83.092 93.6121 82.775 91.6894C82.656 90.7267 82.8688 89.7522 83.3782 88.9266C83.8876 88.1011 84.6633 87.474 85.5771 87.1487C87.5042 86.6075 89.1361 87.8173 88.7606 89.4964C88.7534 89.5288 88.7232 89.552 88.69 89.552C86.0701 89.5576 85.3287 89.9491 85.5362 90.7894C85.8038 91.8727 87.7091 91.5354 88.9825 91.2457C88.9861 91.2449 88.9895 91.2438 88.9929 91.2425C89.3384 91.1049 89.6272 90.8543 89.8121 90.5316C89.998 90.2072 90.0679 89.8293 90.0105 89.4599C89.9616 88.858 89.7382 88.2834 89.3676 87.8066C88.997 87.3298 88.4954 86.9714 87.9242 86.7754C87.3414 86.5353 86.7071 86.4473 86.081 86.5198C85.4548 86.5922 84.8574 86.8227 84.3448 87.1896C82.0726 88.652 81.5934 90.9308 82.9367 93.9516C82.9571 93.9974 82.9265 94.0507 82.8764 94.054C82.705 94.0652 82.5348 94.0723 82.3659 94.0793L82.3655 94.0794C81.9703 94.0959 81.5818 94.1121 81.2 94.1797C77.8353 94.7831 76.0252 98.163 77.4519 101.134C78.1217 102.525 79.1904 103.149 80.7091 102.724C82.2278 102.3 83.3374 101.333 83.3374 99.6255C83.3272 98.0863 82.3655 97.1046 80.9494 97.3142C80.4963 97.4045 80.0971 97.67 79.8386 98.053C79.5814 98.434 79.4841 98.9006 79.5675 99.3525C79.5684 99.3572 79.5688 99.362 79.5687 99.3668C79.5677 99.5272 79.6006 99.6861 79.6654 99.8328C79.7311 99.9818 79.8282 100.115 79.9499 100.223C80.0717 100.331 80.2153 100.412 80.371 100.46C80.5249 100.507 80.6871 100.521 80.8467 100.501C80.8504 100.5 80.8542 100.499 80.8577 100.498C81.2284 100.386 81.3079 100.068 81.3862 99.7549C81.4679 99.4284 81.5481 99.1073 81.9552 99.031C81.9886 99.0248 82.0213 99.0458 82.0321 99.0781C82.5553 100.642 82.1273 101.435 80.5506 101.84C79.1342 102.208 77.953 101.436 77.6359 99.9016C76.9763 96.7262 80.2898 93.7143 83.5829 94.7882C86.4936 95.7367 89.1728 96.0892 91.8332 93.777C91.8843 93.7326 91.9638 93.7743 91.9513 93.8408C91.8566 94.3453 91.6863 94.8331 91.5235 95.2995C91.0629 96.6195 90.4994 98.4971 92.2042 98.6335C93.2845 98.7199 93.7485 98.0154 94.1484 97.3675C94.2927 97.1337 94.4359 96.9018 94.6116 96.7055C94.6394 96.6746 94.6875 96.6752 94.7148 96.7065C94.9335 96.958 95.1066 97.2489 95.2773 97.5357C95.6799 98.2121 96.0689 98.8656 97.0092 98.9245C97.0136 98.9248 97.0183 98.9247 97.0227 98.9241C98.8359 98.695 98.9848 97.3383 97.369 93.8452C97.3461 93.7958 97.3851 93.7381 97.4395 93.7403C101.176 93.8909 102.031 92.1241 101.408 91.4542C100.85 90.9625 100.16 90.8481 99.4614 90.7322C98.9754 90.6515 98.4848 90.5702 98.031 90.3606C97.9613 90.3284 97.9907 90.2348 98.0672 90.2413C101.417 90.5275 104.406 89.8295 107.069 87.5833C108.48 86.397 110.377 85.9112 112.208 85.5379C112.859 85.3846 113.533 85.3645 114.192 85.4788C114.85 85.5931 115.479 85.8394 116.04 86.2029C116.601 86.5664 117.082 87.0397 117.455 87.5941C117.828 88.1486 118.086 88.7728 118.211 89.4293C118.419 90.1774 118.383 90.9725 118.107 91.6983C117.831 92.4242 117.33 93.0428 116.677 93.4638C115.965 93.9698 115.118 94.2522 114.245 94.275C113.371 94.2978 112.511 94.0598 111.773 93.5916C110.417 92.8141 109.691 91.6074 110.053 89.9312C110.058 89.9113 110.07 89.8939 110.088 89.8841C110.342 89.7445 110.621 89.6553 110.909 89.6214C111.208 89.5863 111.51 89.6114 111.799 89.6952C112.428 89.8682 112.565 90.3696 112.701 90.8657C112.806 91.2494 112.835 91.7568 113.241 91.853C113.576 91.9324 114.079 91.5437 114.361 91.1968C114.643 90.85 114.79 90.4129 114.775 89.9662C114.775 88.9384 114.069 88.4577 113.241 88.11C111.942 87.5628 110.725 87.6549 109.82 88.8105C108.726 90.1861 108.833 91.6536 109.82 93.0445C110.44 93.8778 111.293 94.5078 112.272 94.8538C113.251 95.1999 114.311 95.2465 115.317 94.9876C116.271 94.7374 117.132 94.2167 117.797 93.4883C118.462 92.7599 118.902 91.8548 119.064 90.8821C119.226 89.9094 119.103 88.9105 118.711 88.0059C118.318 87.1012 117.672 86.3294 116.851 85.7833C115.976 85.2761 115.07 84.826 114.137 84.436C114.079 84.4116 114.078 84.3291 114.136 84.3038C117.018 83.0484 119.705 83.3682 122.328 84.7198C124.225 85.7016 126.152 86.6066 128.285 86.8981C131.749 87.3698 133.291 86.0252 133.231 82.5099C133.23 82.4654 133.269 82.4293 133.314 82.435C134.434 82.5798 135.563 82.5378 136.692 82.4956C137.942 82.4491 139.193 82.4024 140.434 82.6086L141.028 82.7815V81.5747L140.434 81.6159H5.91699C5.89897 81.6159 5.88204 81.6095 5.86856 81.5975C5.08542 80.9025 3.06472 80.2603 1.03081 82.1373C1.00262 82.1633 0.999866 82.2081 1.02523 82.2369C2.41486 83.8139 4.56072 83.3752 5.8758 82.8282C5.88463 82.8245 5.89391 82.8227 5.90347 82.8227H16.2165C16.2605 82.8227 16.2941 82.8626 16.2882 82.9062C15.9709 85.2303 16.76 86.4783 18.8874 86.8623C19.9411 87.0369 21.0191 86.9986 22.0577 86.7498C23.6643 86.3955 25.1219 85.6987 26.5803 85.0015C26.9739 84.8133 27.3676 84.6251 27.7643 84.4436C30.471 83.2106 33.0106 83.2157 35.1569 84.4252C35.2094 84.4548 35.2034 84.5319 35.1472 84.554C34.3362 84.8735 33.5473 85.2466 32.7858 85.6709C32.1759 86.0487 31.6513 86.5491 31.245 87.1404C30.8387 87.7317 30.5596 88.4009 30.4255 89.1056C30.2914 89.8103 30.3051 90.5353 30.4658 91.2344C30.6265 91.9336 30.9307 92.5917 31.3591 93.1672C31.7926 93.7171 32.3319 94.1745 32.9451 94.5126C33.5583 94.8506 34.233 95.0623 34.9294 95.1352C35.6258 95.2082 36.3297 95.1408 36.9996 94.9372C37.6696 94.7335 38.2919 94.3977 38.8299 93.9496C40.5224 92.6098 41.1643 90.3409 39.6992 88.8361C36.6721 86.4389 34.7985 88.3516 34.6675 89.9304C34.6414 90.1615 34.6627 90.3955 34.73 90.6182C34.7973 90.8409 34.9092 91.0475 35.059 91.2255C35.2087 91.4034 35.3931 91.5491 35.601 91.6534C35.7645 91.7355 35.9398 91.7908 36.1201 91.8173C36.1798 91.8261 36.216 91.7569 36.1835 91.7061C34.5284 89.126 38.3286 88.2979 39.4815 90.1018C39.4868 90.1101 39.4903 90.1195 39.4918 90.1291C39.6068 90.8822 39.4621 91.6521 39.0812 92.3122C38.6979 92.9766 38.0984 93.4895 37.3828 93.7655C35.6084 94.5785 33.834 94.4711 32.3563 93.1314C31.1035 91.9809 30.9245 90.4928 31.4358 88.9128C32.2744 86.4583 34.5755 85.0163 37.0606 85.5277C39.5458 86.039 41.9338 86.8776 43.8973 88.5958C45.0829 89.5828 46.5685 90.138 48.1108 90.1707C48.9198 90.2105 49.7266 90.1987 50.6302 90.1855C51.0364 90.1795 51.4622 90.1733 51.9165 90.1713C51.9914 90.171 52.014 90.2656 51.9454 90.2957C51.4004 90.5344 50.8346 90.6197 50.2918 90.7015C49.288 90.8529 47.7938 90.9377 47.7938 92.0678C47.7938 93.913 49.6296 93.8601 50.9725 93.7682C51.3841 93.7401 51.7969 93.7118 52.1874 93.7403C52.2397 93.7442 52.2689 93.8015 52.2425 93.8468L52.2039 93.913C51.5658 95.0076 50.9912 95.9934 50.9181 97.2068C50.8643 98.0992 51.4908 98.8125 52.4521 98.9301C53.2625 99.0292 53.7285 98.2948 54.1057 97.6965C54.3254 97.348 54.5467 96.997 54.8754 96.7501C54.9085 96.7252 54.9553 96.7354 54.9764 96.771C55.0462 96.8887 55.1131 97.0086 55.1797 97.1278C55.6049 97.8892 56.0194 98.6317 57.1105 98.705C58.6703 98.696 58.4085 96.5966 57.9471 95.3409C57.7559 94.8208 57.5607 94.2894 57.514 93.7613C57.5083 93.6979 57.5833 93.6638 57.6308 93.7062C59.8575 95.6922 62.1819 96.1878 64.8165 95.0336ZM74.7678 90.3306C74.7375 90.3699 74.6774 90.3677 74.65 90.3264C73.1666 88.0927 71.2778 86.1563 69.0811 84.6175C64.9597 81.8204 60.4905 82.4801 57.4377 86.3305C54.881 89.5622 48.9852 90.7025 45.4467 88.652C43.4452 87.4879 42.9987 85.5896 44.275 83.3696C44.2788 83.363 44.2842 83.3565 44.2898 83.3515C45.1429 82.5951 45.1416 84.3748 44.7472 84.8939C44.5888 85.119 44.4305 85.3439 44.378 85.5584C44.295 85.8971 45.9478 85.8856 46.5768 85.4408C47.623 84.7007 47.2889 83.896 46.9037 82.968C46.8647 82.8739 46.8251 82.7785 46.7864 82.6819V82.6819C46.7741 82.6513 46.7966 82.6181 46.8295 82.6181H102.476C102.516 82.6181 102.549 82.6505 102.547 82.6903C102.537 82.9308 102.481 83.1666 102.423 83.4065C102.296 83.9332 102.164 84.4795 102.515 85.1386C102.517 85.1422 102.519 85.1458 102.522 85.1491C102.803 85.5052 103.195 85.7577 103.636 85.8665C104.079 85.9758 104.624 86.1633 104.962 85.7476C105.22 85.4307 104.842 85.1234 104.649 84.8126C104.316 84.2782 103.997 83.7637 105.105 83.3596C105.817 83.1794 106.087 87.4094 104.083 88.606C100.59 90.6974 94.6177 89.598 92.0763 86.4021C88.9367 82.4545 84.4982 81.8 80.2847 84.6686C78.0927 86.1586 76.4295 88.1724 74.7678 90.3306ZM106.224 82.6335C106.172 82.6335 106.137 82.6874 106.157 82.7354C106.693 83.9789 106.927 85.3319 106.838 86.683C106.834 86.738 106.891 86.7775 106.941 86.7544C107.377 86.5541 107.803 86.3631 108.221 86.1758L108.223 86.1751C109.219 85.7292 110.167 85.3046 111.083 84.8271C115.496 82.5516 119.848 82.0556 124.327 84.7862C126.005 85.7792 127.955 86.211 129.895 86.0186C129.967 86.012 130.043 86.0073 130.121 86.0024C130.752 85.9632 131.529 85.9149 131.4 84.778C131.395 84.7341 131.351 84.7057 131.308 84.7174C130.481 84.9453 129.293 84.9372 129.343 83.9476C129.368 83.795 129.398 83.6147 129.43 83.4202L129.431 83.4128L129.432 83.4049C129.468 83.1867 129.507 82.9512 129.544 82.7171C129.552 82.6733 129.518 82.6335 129.473 82.6335H106.224ZM17.8555 84.8756C17.8305 84.8295 17.8628 84.7737 17.9152 84.7735C18.1791 84.773 18.4322 84.8084 18.6652 84.841C19.2346 84.9207 19.6797 84.7209 19.8794 84.4641C20.195 84.0583 20.1148 83.6932 20.0356 83.3324C19.9837 83.0958 19.9322 82.8611 19.9929 82.618C20.0005 82.5874 20.0287 82.567 20.0602 82.567H43.1689C43.2131 82.567 43.247 82.6064 43.2397 82.6501C43.1744 83.0422 43.0764 83.4241 42.9783 83.8065C42.7457 84.713 42.5124 85.6219 42.7125 86.6754C42.7236 86.7338 42.6646 86.782 42.6104 86.7579C41.9189 86.4506 41.2532 86.1593 40.606 85.876L40.6055 85.8758L40.6051 85.8757C39.25 85.2826 37.976 84.7251 36.718 84.1317C33.1079 82.434 29.5592 82.3983 26.036 84.3874C24.3084 85.4008 22.3565 85.97 20.3549 86.0441C20.3213 86.0455 20.2874 86.047 20.2534 86.0486C19.4404 86.0847 18.5333 86.125 17.8555 84.8756ZM74.6194 100.5C74.6405 100.437 74.7278 100.434 74.753 100.495C75.7502 102.924 75.9426 104.848 74.7475 107.008C74.7195 107.058 74.6459 107.056 74.6214 107.004C73.609 104.842 73.8064 102.92 74.6194 100.5ZM74.8229 97.184C74.7999 97.2413 74.7209 97.2429 74.6954 97.1866C74.1038 95.8754 74.0604 94.5524 74.628 92.8911C74.6487 92.8303 74.7316 92.8264 74.7573 92.8852C75.0513 93.5587 75.2093 94.2843 75.2215 95.0202C75.2339 95.7613 75.0982 96.4969 74.8229 97.184ZM93.0486 94.184C93.0355 94.1247 92.9596 94.1106 92.9256 94.161C92.3862 94.9606 92.0672 95.8879 92 96.8494C91.9957 96.9118 92.0745 96.9389 92.1108 96.8879V96.8879C92.7819 95.9469 93.2814 95.2465 93.0486 94.184ZM54.1899 94.8472C54.2256 94.7971 54.3018 94.8147 54.3112 94.8755C54.4585 95.827 54.018 96.4851 53.5057 97.1163C53.4624 97.1696 53.3784 97.1374 53.3836 97.069C53.4451 96.2691 53.7237 95.5008 54.1899 94.8472ZM56.3721 94.3069C56.3704 94.2414 56.4492 94.2097 56.492 94.2593C57.0539 94.9106 57.3848 95.73 57.4323 96.5895C57.4357 96.6503 57.3662 96.6843 57.32 96.6447C56.5886 96.0189 56.3988 95.3508 56.3721 94.3069ZM96.2959 97.4107C96.3116 97.4787 96.2329 97.5256 96.183 97.4768C95.8824 97.1826 95.6396 96.8339 95.468 96.4485C95.2883 96.0449 95.1906 95.6102 95.1801 95.1697C95.1787 95.1073 95.252 95.0768 95.2954 95.1217C95.9165 95.7647 96.0756 96.4546 96.2807 97.3446C96.2857 97.3665 96.2908 97.3885 96.2959 97.4107Z" fill="white"/>
<path d="M36.033 71.5713V70.5369L37.4615 70.4137L37.8925 70.0566V56.1661L37.4615 55.809L36.033 55.6612V54.6514H48.1134V58.3334H46.6972L46.3401 56.1907L45.9953 55.809H40.1583V62.1878H44.2959L44.653 61.8307L44.8993 59.9958H46.0938V65.5496H44.8993L44.653 63.7271L44.2959 63.3453H40.1583V70.4137H46.9189L47.276 70.0074L47.707 67.4583H49.0123V71.5713H36.033ZM49.6034 59.4417H55.071V60.3776L53.741 60.4761L53.4332 60.8825L56.3886 69.1207L59.615 60.8825L59.4056 60.4761L58.051 60.3776V59.4417H62.5088V60.3776L61.0311 60.5746L56.6103 71.5713H55.1941L51.1427 60.5253L49.6034 60.3776V59.4417ZM71.2397 63.8748V63.4808C71.2397 62.4628 71.0139 61.6829 70.5624 61.1411C70.1191 60.5992 69.4705 60.3283 68.6167 60.3283C67.7793 60.3283 67.0528 60.6649 66.4371 61.3381C65.8296 62.0031 65.4889 62.8486 65.415 63.8748H71.2397ZM73.4932 68.8991V70.2906C72.7461 70.7832 71.9703 71.1567 71.1658 71.4112C70.3613 71.6657 69.5526 71.7929 68.7399 71.7929C67.0733 71.7929 65.7188 71.2224 64.6761 70.0813C63.6417 68.9319 63.1245 67.4378 63.1245 65.5988C63.1245 63.7106 63.6664 62.1714 64.75 60.981C65.8419 59.7824 67.2416 59.1831 68.9492 59.1831C70.3448 59.1831 71.449 59.6305 72.2618 60.5253C73.0827 61.412 73.4932 62.6229 73.4932 64.1581C73.4932 64.3633 73.4891 64.5193 73.4809 64.626C73.4809 64.7327 73.4727 64.8354 73.4563 64.9339H65.2919V65.2171C65.2919 66.8015 65.6736 68.0576 66.4371 68.9853C67.2006 69.9048 68.2309 70.3645 69.528 70.3645C70.1273 70.3645 70.7471 70.2454 71.3874 70.0074C72.036 69.7693 72.7379 69.3999 73.4932 68.8991ZM75.328 71.5713V70.66L76.6949 70.5369L77.1259 70.1305V61.0056H75.328V60.2175L78.2588 59.3185H79.2194V60.6977C80.2291 60.1395 81.0419 59.7495 81.6576 59.5279C82.2733 59.298 82.8151 59.1831 83.2831 59.1831C84.3832 59.1831 85.2246 59.5115 85.8075 60.1682C86.3904 60.825 86.6818 61.7773 86.6818 63.0251V70.1305L87.1128 70.5369L88.4674 70.66V71.5713H82.9506V70.66L84.1574 70.5369L84.5884 70.1305V63.4561C84.5884 62.5121 84.3914 61.843 83.9973 61.4489C83.6115 61.0549 82.9588 60.8578 82.0393 60.8578C81.6371 60.8578 81.202 60.9276 80.734 61.0672C80.2661 61.1985 79.7612 61.4038 79.2194 61.6829V70.1305L79.6504 70.5369L80.8572 70.66V71.5713H75.328ZM91.1273 60.9563H89.5388V60.1682L91.2012 59.4417L92.2849 57.0896H93.2207V59.7742H97.0628V60.9563H93.2207V67.6061C93.2207 68.6979 93.3726 69.4327 93.6764 69.8103C93.9801 70.1798 94.5261 70.3645 95.3142 70.3645C95.5851 70.3645 95.8642 70.3481 96.1516 70.3152C96.4471 70.2824 96.7508 70.229 97.0628 70.1551V71.091C96.4881 71.2716 95.9217 71.4112 95.3634 71.5097C94.8052 71.6 94.2675 71.6452 93.7503 71.6452C92.7815 71.6452 92.1001 71.4646 91.7061 71.1033C91.3202 70.7339 91.1273 70.0648 91.1273 69.0961V60.9563ZM101.114 59.3185H102.099V70.1305L102.53 70.5369L103.885 70.66V71.5713H98.2204V70.66L99.5503 70.5369L99.9813 70.1305V61.0056H98.2204V60.2175L101.114 59.3185ZM101.213 53.7155C101.623 53.7155 101.968 53.8592 102.247 54.1465C102.534 54.4339 102.678 54.7787 102.678 55.1809C102.678 55.5832 102.534 55.9239 102.247 56.203C101.968 56.4821 101.623 56.6217 101.213 56.6217C100.81 56.6217 100.466 56.4821 100.178 56.203C99.8992 55.9239 99.7596 55.5832 99.7596 55.1809C99.7596 54.7704 99.8992 54.4256 100.178 54.1465C100.466 53.8592 100.81 53.7155 101.213 53.7155Z" fill="white"/>
<path fill-rule="evenodd" clip-rule="evenodd" d="M58.4837 47.9561C55.1682 46.431 48.4973 41.5505 48.3382 34.2298C48.1847 27.171 48.3157 25.2169 48.3364 24.9078L48.3382 24.88C48.4045 23.8191 47.821 21.6175 44.9563 21.2993C43.9617 21.2329 42.2111 22.1348 43.166 25.4768C43.3649 26.0736 43.9617 26.6704 45.3542 25.6758C45.951 25.2779 45.394 24.6413 44.7574 24.4822C43.9617 24.2832 46.1499 22.8907 46.5478 24.6811C46.8661 26.1134 45.6786 26.8548 44.9563 27.0683C43.5638 27.4798 41.5347 26.6704 42.1713 22.6918C42.3304 21.6971 43.0864 20.5035 45.1553 20.5035C47.7414 20.5035 49.1339 23.4875 49.1339 23.8854C49.1339 23.9671 49.1515 23.7935 49.1862 23.4513C49.3204 22.1275 49.7105 18.2803 50.3275 16.9228C51.3222 14.7345 53.1126 12.162 55.8976 14.1377C56.4725 14.5456 57.4891 15.9281 57.4891 17.5196C57.4891 19.111 56.0965 21.2993 54.3061 21.6971C53.7093 21.8297 52.3964 21.8165 51.919 20.7025C51.4415 19.5884 51.72 18.4858 52.3168 17.7185C52.781 17.1217 53.9083 16.2066 54.704 17.3206C55.4789 18.4055 53.8012 19.6414 52.6105 19.889C52.5615 19.8992 52.532 19.9505 52.552 19.9964C52.9863 20.9964 54.2308 21.4432 56.0965 19.111C56.627 18.4479 57.076 15.9554 54.9029 14.7481C53.1126 13.7535 51.9853 15.3976 51.1232 16.9228C50.7256 17.7843 49.8909 20.3015 49.731 23.4816C49.7308 23.4855 49.7304 23.4892 49.7296 23.4931C49.6575 23.8562 49.584 24.4812 49.5114 25.0986C49.4508 25.6136 49.3908 26.1235 49.3328 26.4715C49.3234 26.5283 49.3135 26.5871 49.3032 26.648L49.303 26.6489L49.3027 26.6511C49.0968 27.8716 48.7457 29.9533 48.935 34.0309C49.0823 37.2034 50.0359 38.7939 50.5978 39.3004C50.6471 39.3449 50.7188 39.3051 50.7148 39.2387C50.5968 37.2972 50.6808 34.13 51.9127 35.8127C51.9166 35.818 51.9201 35.8241 51.9225 35.8302C52.3216 36.8285 53.1126 38.926 53.1126 39.4021C53.1126 37.9432 53.3513 35.5428 54.3061 37.6117C54.7037 38.473 55.0319 39.1706 55.3013 39.7431C55.8407 40.8893 56.1442 41.5344 56.2955 41.9882C56.4918 42.5771 56.6235 44.5868 56.4995 45.723C56.4964 45.7512 56.5075 45.7777 56.5303 45.7947C57.6013 46.5927 59.9735 48.1315 61.24 48.1548L59.2029 48.1359L39.8033 47.9563C39.7907 47.9562 39.7791 47.9588 39.7676 47.964C38.7802 48.4095 34.4677 46.292 32.4236 45.1711C31.759 44.8395 30.0726 44.4151 28.6439 45.37C27.2152 46.3249 27.6508 46.9615 28.0471 47.1604C29.3753 47.827 31.0653 46.6188 31.7366 46.0454C31.78 46.0083 31.8469 46.0272 31.8625 46.0822C32.0123 46.6094 31.9105 46.9354 31.6279 47.3593C30.8322 48.5529 29.4397 48.9508 28.445 48.7518C27.5393 48.5707 26.2568 47.5583 27.0525 45.9668C27.7991 44.4735 29.7717 44.1479 30.834 44.1682C30.9056 44.1695 30.9464 44.0837 30.8978 44.0312C30.1529 43.2268 28.4974 41.5427 26.8535 40.1978C25.1029 38.7655 22.5434 38.6726 21.4824 38.8053C20.2888 39.0042 17.7823 39.9591 17.3048 42.1871C16.8274 44.4151 17.769 46.1657 18.2995 46.7625C19.0952 47.6246 21.3232 48.9906 23.8696 47.5583C26.4159 46.126 26.1229 44.4541 25.66 43.5796C23.8696 40.1978 20.2888 40.9935 19.692 42.386C19.2443 43.4307 19.9279 44.0906 20.3975 44.3327C20.4429 44.3561 20.4964 44.3276 20.5075 44.2777C20.669 43.5545 21.2128 42.6078 22.2781 43.9775C23.3921 45.4098 22.0792 45.9005 21.2835 45.9668C19.2146 46.126 18.8963 44.5743 18.6973 43.5796C18.379 41.1924 20.4877 40.4741 21.8803 40.3967C24.2674 40.2641 25.3553 41.5311 26.0578 42.585C26.7209 43.5796 27.3708 46.0464 24.6653 47.9561C21.9598 49.8659 19.2941 48.7518 18.2995 47.9561C17.0396 46.8952 15.1166 43.8581 17.5038 40.1978C19.8645 36.578 24.6245 37.9775 26.7819 39.1633C26.8218 39.1852 26.8706 39.1691 26.8909 39.1284L27.0311 38.8481C27.0442 38.8218 27.0419 38.7909 27.0265 38.7658C26.8395 38.4601 26.6043 37.6191 26.1542 36.0092C25.8092 34.7755 25.3379 33.09 24.6653 30.848C24.0685 28.8587 21.2835 25.4768 19.0952 27.864C18.631 28.3282 17.8618 29.8931 19.2941 30.848C20.6878 31.7771 21.755 30.333 22.0559 29.5214C22.0699 29.4838 22.1096 29.4608 22.1476 29.4738C23.0348 29.7767 22.2209 32.2357 19.8909 32.0416C17.4909 31.8416 17.7025 29.4561 18.1005 28.2619C18.4984 27.0683 20.0103 25.8349 22.0792 26.4715C24.1481 27.1081 25.2491 29.5896 25.66 31.6437C26.0578 33.633 26.9331 37.6515 27.2514 37.8106C27.4207 37.8952 27.5179 37.4759 27.6504 36.9048C27.8293 36.1333 28.0724 35.0849 28.6439 34.6277C29.7508 33.7422 31.6279 33.0362 33.6172 34.8266C34.4122 35.6216 35.0086 37.9256 31.8359 39.1995C31.8327 39.2008 31.8293 39.2019 31.8259 39.2028C31.8244 39.2032 31.8228 39.2035 31.8213 39.2038L31.8176 39.2044C31.3505 39.2675 30.4343 39.1162 30.4343 38.0095C30.4343 36.617 31.23 36.617 31.429 36.8159C31.5808 36.9677 32.1066 37.8556 32.385 38.34C32.4066 38.3776 32.4541 38.3909 32.4915 38.3691C33.2253 37.9416 34.3441 36.8568 33.4183 35.6224C32.4634 34.3492 31.5626 34.0837 30.8322 34.2298C30.1691 34.3624 29.1354 34.7155 28.6439 35.8213C27.8482 37.6117 27.6493 38.4074 29.8375 41.5903C31.5861 44.1337 36.3913 46.4919 38.583 47.3564C38.5882 47.3584 38.593 47.3597 38.5985 47.3607C40.1938 47.6262 43.7254 48.115 45.1553 47.9561C46.5876 47.797 51.4548 47.8898 53.7093 47.9561C51.8527 47.1604 47.7414 45.6087 46.1499 45.7679C44.1606 45.9668 37.198 44.5743 36.9991 42.1871C36.8399 40.2774 39.0547 40.1978 40.182 40.3967C41.0628 40.6719 42.7295 41.2305 43.4524 41.5944C41.9361 40.5256 35.5951 35.771 35.2125 35.23L35.2101 35.2268L35.2081 35.2243L35.2059 35.2219L35.2026 35.2187C33.4111 33.4918 30.1972 29.6526 31.6279 28.0629C33.0602 26.4715 35.4076 28.726 36.4023 30.0523C37.7285 32.1742 40.4207 36.4977 40.5798 36.8159C40.7721 37.2005 43.3807 40.7448 45.1716 41.3404C45.2386 41.3627 45.2919 41.2913 45.2549 41.2312C43.9041 39.0345 41.4629 34.3705 41.7734 32.0416C41.8397 30.7817 42.2509 28.7393 43.3649 30.6491C44.4789 32.5588 45.1553 35.9539 45.3542 37.4127C45.6858 40.5293 48.7758 47.0012 58.4837 47.9561ZM43.7628 41.7892C43.8183 41.8448 43.6993 41.7685 43.4524 41.5944C43.6003 41.6689 43.7087 41.7352 43.7628 41.7892ZM38.5905 35.4371C38.7895 36.2328 33.7365 29.9863 33.4183 28.8723C33.0204 27.4798 36.8001 31.0606 38.5905 35.4371ZM44.7574 38.421C44.1606 37.0948 42.967 31.8563 43.3648 32.2541C43.9616 33.1825 45.3542 39.0178 44.7574 38.421ZM52.1179 41.2061C51.919 41.405 51.6675 38.0545 51.9189 38.2221C52.5158 38.62 52.7147 40.0125 52.1179 41.2061ZM53.7093 43.3943C53.3115 43.3943 54.1072 39.4157 54.3061 39.4157C54.5051 39.4157 54.903 43.3943 53.7093 43.3943ZM55.5219 42.4669C55.323 42.268 55.323 45.252 55.5219 45.053C55.9197 44.4562 55.9197 43.6605 55.5219 42.4669ZM46.3488 44.5879C46.7467 44.9858 38.9088 42.4792 38.5905 42.0018C38.1926 41.405 40.5798 40.6093 46.3488 44.5879Z" fill="white"/>
<path d="M8.72805 48.1322C7.66886 47.0549 6.2225 44.3175 8.75073 41.7892C11.2971 39.2429 14.5198 40.7946 15.1166 42.386C15.5968 43.6666 15.7092 46.034 11.2053 45.9731C11.1266 45.972 11.0934 45.8682 11.1584 45.8239C12.5806 44.8536 14.8071 42.5247 12.7294 41.3914C11.7347 40.9935 8.75073 41.7892 8.15395 44.5743C7.95502 45.2374 8.07438 46.8819 10.1433 48.1551H8.78369C8.76259 48.1551 8.74285 48.1472 8.72805 48.1322Z" fill="white"/>
<path fill-rule="evenodd" clip-rule="evenodd" d="M89.7026 47.9561C93.0181 46.431 99.6889 41.5505 99.8481 34.2298C100.002 27.171 99.8706 25.2169 99.8499 24.9078L99.8481 24.88C99.7818 23.8191 100.365 21.6175 103.23 21.2993C104.225 21.2329 105.975 22.1348 105.02 25.4768C104.821 26.0736 104.225 26.6704 102.832 25.6758C102.235 25.2779 102.792 24.6413 103.429 24.4822C104.225 24.2832 102.036 22.8907 101.638 24.6811C101.32 26.1134 102.508 26.8548 103.23 27.0683C104.622 27.4798 106.652 26.6704 106.015 22.6918C105.856 21.6971 105.1 20.5035 103.031 20.5035C100.445 20.5035 99.0524 23.4875 99.0524 23.8854C99.0524 23.9671 99.0348 23.7935 99.0001 23.4513C98.8659 22.1275 98.4758 18.2803 97.8588 16.9228C96.8641 14.7345 95.0737 12.162 92.2887 14.1377C91.7138 14.5456 90.6972 15.9281 90.6972 17.5196C90.6972 19.111 92.0897 21.2993 93.8801 21.6971C94.4769 21.8297 95.7899 21.8165 96.2673 20.7025C96.7447 19.5884 96.4662 18.4858 95.8694 17.7185C95.4053 17.1217 94.278 16.2066 93.4823 17.3206C92.7073 18.4055 94.3851 19.6414 95.5758 19.889C95.6248 19.8992 95.6542 19.9505 95.6343 19.9964C95.1999 20.9964 93.9555 21.4432 92.0897 19.111C91.5593 18.4479 91.1102 15.9554 93.2833 14.7481C95.0737 13.7535 96.201 15.3976 97.063 16.9228C97.4607 17.7843 98.2954 20.3015 98.4553 23.4816C98.4555 23.4855 98.4559 23.4892 98.4567 23.4931C98.5288 23.8562 98.6023 24.4812 98.6749 25.0986C98.7355 25.6136 98.7954 26.1235 98.8534 26.4715C98.8629 26.5283 98.8728 26.5871 98.8831 26.648L98.8832 26.6489L98.8836 26.6511C99.0895 27.8716 99.4406 29.9533 99.2513 34.0309C99.104 37.2034 98.1504 38.7939 97.5885 39.3004C97.5392 39.3449 97.4675 39.3051 97.4715 39.2387C97.5894 37.2972 97.5054 34.13 96.2736 35.8127C96.2697 35.818 96.2662 35.8241 96.2637 35.8302C95.8647 36.8285 95.0737 38.926 95.0737 39.4021C95.0737 37.9432 94.835 35.5428 93.8801 37.6117C93.4826 38.473 93.1543 39.1706 92.8849 39.7431C92.3456 40.8893 92.0421 41.5344 91.8908 41.9882C91.6945 42.5771 91.5628 44.5868 91.6868 45.723C91.6899 45.7512 91.6788 45.7777 91.656 45.7947C90.585 46.5927 88.2128 48.1315 86.9463 48.1548L88.9833 48.1359L108.383 47.9563C108.396 47.9562 108.407 47.9588 108.419 47.964C109.406 48.4095 113.719 46.292 115.763 45.1711C116.427 44.8395 118.114 44.4151 119.542 45.37C120.971 46.3249 120.535 46.9615 120.139 47.1604C118.811 47.827 117.121 46.6188 116.45 46.0454C116.406 46.0083 116.339 46.0272 116.324 46.0822C116.174 46.6094 116.276 46.9354 116.558 47.3593C117.354 48.5529 118.747 48.9508 119.741 48.7518C120.647 48.5707 121.93 47.5583 121.134 45.9668C120.387 44.4735 118.415 44.1479 117.352 44.1682C117.281 44.1695 117.24 44.0837 117.289 44.0312C118.033 43.2268 119.689 41.5427 121.333 40.1978C123.083 38.7655 125.643 38.6726 126.704 38.8053C127.897 39.0042 130.404 39.9591 130.881 42.1871C131.359 44.4151 130.417 46.1657 129.887 46.7625C129.091 47.6246 126.863 48.9906 124.317 47.5583C121.77 46.126 122.063 44.4541 122.526 43.5796C124.317 40.1978 127.897 40.9935 128.494 42.386C128.942 43.4307 128.258 44.0906 127.789 44.3327C127.743 44.3561 127.69 44.3276 127.679 44.2777C127.517 43.5545 126.973 42.6078 125.908 43.9775C124.794 45.4098 126.107 45.9005 126.903 45.9668C128.972 46.126 129.29 44.5743 129.489 43.5796C129.807 41.1924 127.699 40.4741 126.306 40.3967C123.919 40.2641 122.831 41.5311 122.128 42.585C121.465 43.5796 120.816 46.0464 123.521 47.9561C126.226 49.8659 128.892 48.7518 129.887 47.9561C131.147 46.8952 133.07 43.8581 130.683 40.1978C128.322 36.578 123.562 37.9775 121.404 39.1633C121.364 39.1852 121.316 39.1691 121.295 39.1284L121.155 38.8481C121.142 38.8218 121.144 38.7909 121.16 38.7658C121.347 38.4601 121.582 37.6191 122.032 36.0092C122.377 34.7755 122.848 33.09 123.521 30.848C124.118 28.8587 126.903 25.4768 129.091 27.864C129.555 28.3282 130.324 29.8931 128.892 30.848C127.498 31.7771 126.431 30.333 126.13 29.5214C126.116 29.4838 126.077 29.4608 126.039 29.4738C125.151 29.7767 125.965 32.2357 128.295 32.0416C130.695 31.8416 130.484 29.4561 130.086 28.2619C129.688 27.0683 128.176 25.8349 126.107 26.4715C124.038 27.1081 122.937 29.5896 122.526 31.6437C122.128 33.633 121.253 37.6515 120.935 37.8106C120.766 37.8952 120.668 37.4759 120.536 36.9048C120.357 36.1333 120.114 35.0849 119.542 34.6277C118.436 33.7422 116.558 33.0362 114.569 34.8266C113.774 35.6216 113.178 37.9256 116.35 39.1995C116.354 39.2008 116.357 39.2019 116.36 39.2028C116.362 39.2032 116.363 39.2035 116.365 39.2038L116.369 39.2044C116.836 39.2675 117.752 39.1162 117.752 38.0095C117.752 36.617 116.956 36.617 116.757 36.8159C116.605 36.9677 116.08 37.8556 115.801 38.34C115.78 38.3776 115.732 38.3909 115.695 38.3691C114.961 37.9416 113.842 36.8568 114.768 35.6224C115.723 34.3492 116.624 34.0837 117.354 34.2298C118.017 34.3624 119.051 34.7155 119.542 35.8213C120.338 37.6117 120.537 38.4074 118.349 41.5903C116.6 44.1337 111.795 46.4919 109.603 47.3564C109.598 47.3584 109.593 47.3597 109.588 47.3607C107.992 47.6262 104.461 48.115 103.031 47.9561C101.599 47.797 96.7315 47.8898 94.4769 47.9561C96.3336 47.1604 100.445 45.6087 102.036 45.7679C104.026 45.9668 110.988 44.5743 111.187 42.1871C111.346 40.2774 109.132 40.1978 108.004 40.3967C107.124 40.6719 105.457 41.2305 104.734 41.5944C106.25 40.5256 112.591 35.771 112.974 35.23L112.976 35.2268L112.978 35.2243L112.98 35.2219L112.984 35.2187C114.775 33.4918 117.989 29.6526 116.558 28.0629C115.126 26.4715 112.779 28.726 111.784 30.0523C110.458 32.1742 107.766 36.4977 107.606 36.8159C107.414 37.2005 104.806 40.7448 103.015 41.3404C102.948 41.3627 102.894 41.2913 102.931 41.2312C104.282 39.0345 106.723 34.3705 106.413 32.0416C106.347 30.7817 105.935 28.7393 104.821 30.6491C103.707 32.5588 103.031 35.9539 102.832 37.4127C102.501 40.5293 99.4104 47.0012 89.7026 47.9561ZM104.424 41.7892C104.368 41.8448 104.487 41.7685 104.734 41.5944C104.586 41.6689 104.478 41.7352 104.424 41.7892ZM109.596 35.4371C109.397 36.2328 114.45 29.9863 114.768 28.8723C115.166 27.4798 111.386 31.0606 109.596 35.4371ZM103.429 38.421C104.026 37.0948 105.219 31.8563 104.821 32.2541C104.225 33.1825 102.832 39.0178 103.429 38.421ZM96.0684 41.2061C96.2673 41.405 96.5187 38.0545 96.2674 38.2221C95.6705 38.62 95.4716 40.0125 96.0684 41.2061ZM94.4769 43.3943C94.8748 43.3943 94.0791 39.4157 93.8801 39.4157C93.6812 39.4157 93.2833 43.3943 94.4769 43.3943ZM92.6644 42.4669C92.8633 42.268 92.8633 45.252 92.6644 45.053C92.2665 44.4562 92.2665 43.6605 92.6644 42.4669ZM101.837 44.5879C101.44 44.9858 109.278 42.4792 109.596 42.0018C109.994 41.405 107.606 40.6093 101.837 44.5879Z" fill="white"/>
<path d="M139.458 48.1322C140.517 47.0549 141.964 44.3175 139.436 41.7892C136.889 39.2429 133.667 40.7946 133.07 42.386C132.589 43.6666 132.477 46.034 136.981 45.9731C137.06 45.972 137.093 45.8682 137.028 45.8239C135.606 44.8536 133.379 42.5247 135.457 41.3914C136.452 40.9935 139.436 41.7892 140.032 44.5743C140.231 45.2374 140.112 46.8819 138.043 48.1551H139.403C139.424 48.1551 139.443 48.1472 139.458 48.1322Z" fill="white"/>
<path d="M71.7299 8.18246L72.3765 5.38747L70.2081 3.50756L73.0727 3.25889L74.1867 0.623047L75.3008 3.25889L78.1654 3.50756L75.997 5.38747L76.6435 8.18246L74.1867 6.70041L71.7299 8.18246Z" fill="white"/>
<path d="M79.6304 6.85924L80.3434 5.44823L79.3889 4.15715L80.9986 4.40044L81.9488 3.13604L82.2259 4.69319L83.7721 5.20266L82.3377 5.92394L82.337 7.50485L81.1729 6.38882L79.6304 6.85924Z" fill="white"/>
<path d="M85.0915 8.89009L85.9217 8.02219L85.5135 6.87273L86.6297 7.40553L87.5999 6.69664L87.457 7.88972L88.4682 8.60195L87.2661 8.80899L86.916 9.95788L86.3167 8.88928L85.0915 8.89009Z" fill="white"/>
<path d="M63.0541 8.89009L62.2239 8.02219L62.6321 6.87273L61.5159 7.40553L60.5457 6.69664L60.6886 7.88972L59.6775 8.60195L60.8796 8.80899L61.2297 9.95788L61.829 8.88928L63.0541 8.89009Z" fill="white"/>
<path d="M66.1799 7.59344L66.1226 6.01357L64.6633 5.34414L66.1902 4.77961L66.4114 3.21353L67.4063 4.44309L69.0062 4.14229L68.0986 5.46673L68.8617 6.8513L67.3033 6.43642L66.1799 7.59344Z" fill="white"/>
<mask id="path-9-inside-1_134_933" fill="white">
<path fill-rule="evenodd" clip-rule="evenodd" d="M84.6774 47.8999C90.7799 44.3022 94.8744 37.6617 94.8744 30.0649C94.8744 18.6387 85.6117 9.37598 74.1855 9.37598C62.7593 9.37598 53.4966 18.6387 53.4966 30.0649C53.4966 37.6617 57.5911 44.3022 63.6937 47.8999H5.75304V49.091H66.0455C68.5438 50.1612 71.2955 50.7538 74.1855 50.7538C77.0756 50.7538 79.8272 50.1612 82.3255 49.091H141.425V47.8999H84.6774Z"/>
</mask>
<path d="M84.6774 47.8999L84.3108 47.2781L82.0316 48.6218H84.6774V47.8999ZM63.6937 47.8999V48.6218H66.3394L64.0602 47.2781L63.6937 47.8999ZM5.75304 47.8999V47.1781H5.0312V47.8999H5.75304ZM5.75304 49.091H5.0312V49.8128H5.75304V49.091ZM66.0455 49.091L66.3297 48.4274L66.1936 48.3691H66.0455V49.091ZM82.3255 49.091V48.3691H82.1774L82.0413 48.4274L82.3255 49.091ZM141.425 49.091V49.8128H142.146V49.091H141.425ZM141.425 47.8999H142.146V47.1781H141.425V47.8999ZM94.1526 30.0649C94.1526 37.3958 90.2023 43.8048 84.3108 47.2781L85.044 48.5217C91.3576 44.7996 95.5963 37.9276 95.5963 30.0649H94.1526ZM74.1855 10.0978C85.213 10.0978 94.1526 19.0374 94.1526 30.0649H95.5963C95.5963 18.2401 86.0103 8.65414 74.1855 8.65414V10.0978ZM54.2184 30.0649C54.2184 19.0374 63.158 10.0978 74.1855 10.0978V8.65414C62.3607 8.65414 52.7748 18.2401 52.7748 30.0649H54.2184ZM64.0602 47.2781C58.1687 43.8048 54.2184 37.3958 54.2184 30.0649H52.7748C52.7748 37.9276 57.0135 44.7996 63.3271 48.5217L64.0602 47.2781ZM5.75304 48.6218H63.6937V47.1781H5.75304V48.6218ZM6.47487 49.091V47.8999H5.0312V49.091H6.47487ZM66.0455 48.3691H5.75304V49.8128H66.0455V48.3691ZM74.1855 50.032C71.395 50.032 68.7399 49.4599 66.3297 48.4274L65.7612 49.7545C68.3478 50.8625 71.196 51.4756 74.1855 51.4756V50.032ZM82.0413 48.4274C79.6311 49.4599 76.9761 50.032 74.1855 50.032V51.4756C77.1751 51.4756 80.0233 50.8625 82.6098 49.7545L82.0413 48.4274ZM141.425 48.3691H82.3255V49.8128H141.425V48.3691ZM140.703 47.8999V49.091H142.146V47.8999H140.703ZM84.6774 48.6218H141.425V47.1781H84.6774V48.6218Z" fill="white" mask="url(#path-9-inside-1_134_933)"/>
<circle cx="74.1855" cy="30.0654" r="18.1213" stroke="white" stroke-width="0.360919"/>
<circle cx="74.1857" cy="30.0647" r="19.1344" stroke="white" stroke-width="0.721838" stroke-dasharray="1.44 1.44"/>
<path d="M67.0651 37.3535V36.3191L68.4936 36.196L68.9246 35.8389V21.9483L68.4936 21.5912L67.0651 21.4434V20.4336H79.1455V24.1156H77.7293L77.3722 21.9729L77.0274 21.5912H71.1904V27.97H75.328L75.6852 27.6129L75.9314 25.7781H77.1259V31.3318H75.9314L75.6852 29.5093L75.328 29.1275H71.1904V36.196H77.951L78.3081 35.7896L78.7391 33.2405H80.0444V37.3535H67.0651Z" fill="white"/>
</svg>
