<svg width="131" height="58" viewBox="0 0 131 58" fill="none" xmlns="http://www.w3.org/2000/svg">
<path d="M91.2861 1.16113H69.6542L98.5852 27.7033H120.881L91.2861 1.16113Z" fill="white"/>
<path d="M67.2646 1.16113H44.3056L73.9001 27.7033H96.1956L67.2646 1.16113Z" fill="white"/>
<rect x="34.8839" y="11.5117" width="4.77759" height="4.77759" fill="white"/>
<rect x="34.8839" y="17.6172" width="4.77759" height="4.77759" fill="white"/>
<rect x="41.7845" y="11.5127" width="4.77759" height="4.77759" fill="white"/>
<rect x="41.7845" y="17.6172" width="4.77759" height="4.77759" fill="white"/>
<path d="M67.3975 25.9783L41.3862 2.75391L10.4645 25.9783H67.3975Z" stroke="white" stroke-width="2.88931"/>
<path d="M61.8486 52.6518H51.6042L54.5146 48.1396H64.8753L61.8486 52.6518Z" fill="white"/>
<path d="M16.9571 51.1154L16.9582 51.0876V51.0598C16.9582 49.5665 17.2876 48.5311 18.0819 47.8183C18.9223 47.064 20.5781 46.3997 23.8709 46.3997C26.9802 46.3997 28.6599 47.0552 29.5558 47.8336C30.4071 48.5733 30.7836 49.6308 30.7836 51.0598C30.7836 52.1628 30.5818 52.942 30.2902 53.5017C30.0045 54.0503 29.5944 54.4623 29.0493 54.7822C27.892 55.4613 26.1411 55.7198 23.8709 55.7198C21.6096 55.7198 19.8028 55.447 18.616 54.7552C18.0556 54.4285 17.6469 54.0158 17.3744 53.4831C17.0974 52.9417 16.9158 52.1872 16.9571 51.1154Z" stroke="white" stroke-width="2.88931"/>
<path d="M69.8688 57.1655H66.0066V50.8197H77.1104C77.4553 50.8197 78.4208 50.3121 78.4208 49.2774C78.4208 48.4496 77.4782 48.3175 76.9725 48.2485H65.9376L68.4205 44.9561H77.7311C80.076 45.232 82.6968 46.3965 82.4899 49.3021C82.3329 51.5068 81.1106 52.9127 79.5933 53.1871L83.4555 57.1655H78.2139L75.5242 54.0102H69.9378L69.8688 57.1655Z" fill="white"/>
<path d="M37.2293 57.1645H33.2898V50.7885C36.8218 50.7885 44.0216 50.8187 44.2933 50.8187C44.6329 50.8187 45.5838 50.3111 45.5838 49.2764C45.5838 48.4486 44.6556 48.3165 44.1575 48.2475H33.2898L35.735 44.9551H44.9046C47.214 45.231 49.7951 46.3955 49.5913 49.3011C49.4367 51.5058 48.2328 52.9118 46.7385 53.1861L50.5422 57.1645H45.3801L42.7311 54.0092H37.2293V57.1645Z" fill="white"/>
<path d="M84.5172 57.4307V49.7998H97.826L95.7573 52.644L88.3099 52.5747V54.2396H98.5846L96.24 57.4307H84.5172Z" fill="white"/>
<path d="M98.5156 45.2207H84.5172V48.4118H96.1711L98.5156 45.2207Z" fill="white"/>
<path d="M102.962 56.9614H99.6464V46.5473C99.9712 44.7079 101.902 44.8342 102.826 45.1272L110.471 52.0248V45.1272H130.701L128.4 48.1703H124.138V56.9614H120.349V48.1703H113.787V55.2708C113.733 55.6495 113.493 56.195 113.381 56.4204C112.298 57.6647 110.99 57.0741 110.471 56.6233L102.962 50.0637V56.9614Z" fill="white"/>
<path d="M119.154 45.0879H114.738L113.713 48.1402H118.779L119.154 45.0879Z" fill="white"/>
<path d="M0.378662 57.1655V44.9561H14.446L11.9702 48.1215H4.20498V49.5911H10.7322L9.49431 52.3043H4.20498V57.1655H0.378662Z" fill="white"/>
</svg>
