<svg width="137" height="63" viewBox="0 0 137 63" fill="none" xmlns="http://www.w3.org/2000/svg">
<mask id="path-1-inside-1_134_889" fill="white">
<path d="M72.163 28.6056C71.6547 27.9437 70.8771 27.5684 70.0398 27.5684C69.2025 27.5684 68.4249 27.9437 67.9165 28.6056C67.1889 29.5539 67.1889 30.8677 67.9165 31.816L70.0398 34.5621L72.163 31.816C72.8907 30.8677 72.8907 29.5539 72.163 28.6056V28.6056ZM70.0398 28.7636C70.8074 28.7636 71.4354 29.3859 71.4354 30.1465C71.4354 30.9072 70.8073 31.5295 70.0398 31.5295C69.2722 31.5295 68.6442 30.9072 68.6442 30.1465C68.6442 29.3859 69.2722 28.7636 70.0398 28.7636Z"/>
</mask>
<path d="M72.163 28.6056C71.6547 27.9437 70.8771 27.5684 70.0398 27.5684C69.2025 27.5684 68.4249 27.9437 67.9165 28.6056C67.1889 29.5539 67.1889 30.8677 67.9165 31.816L70.0398 34.5621L72.163 31.816C72.8907 30.8677 72.8907 29.5539 72.163 28.6056V28.6056ZM70.0398 28.7636C70.8074 28.7636 71.4354 29.3859 71.4354 30.1465C71.4354 30.9072 70.8073 31.5295 70.0398 31.5295C69.2722 31.5295 68.6442 30.9072 68.6442 30.1465C68.6442 29.3859 69.2722 28.7636 70.0398 28.7636Z" fill="white"/>
<path d="M67.9165 28.6056L66.0153 27.1451L66.0145 27.1461L67.9165 28.6056ZM67.9165 31.816L66.0145 33.2755L66.0199 33.2824L67.9165 31.816ZM70.0398 34.5621L68.1431 36.0286L70.0398 38.4816L71.9365 36.0286L70.0398 34.5621ZM72.163 31.816L74.0597 33.2824L74.0651 33.2755L72.163 31.816ZM74.0643 27.1451C73.092 25.8793 71.6051 25.1709 70.0398 25.1709V29.9658C70.0987 29.9658 70.143 29.9786 70.1751 29.9943C70.2066 30.0096 70.2357 30.0321 70.2618 30.0661L74.0643 27.1451ZM70.0398 25.1709C68.4744 25.1709 66.9876 25.8793 66.0153 27.1451L69.8178 30.0661C69.8439 30.0321 69.8729 30.0096 69.9045 29.9943C69.9365 29.9786 69.9809 29.9658 70.0398 29.9658V25.1709ZM66.0145 27.1461C64.6263 28.9552 64.6263 31.4663 66.0145 33.2755L69.8186 30.3565C69.7515 30.269 69.7515 30.1525 69.8186 30.0651L66.0145 27.1461ZM66.0199 33.2824L68.1431 36.0286L71.9365 33.0956L69.8132 30.3495L66.0199 33.2824ZM71.9365 36.0286L74.0597 33.2824L70.2664 30.3495L68.1431 33.0956L71.9365 36.0286ZM74.0651 33.2755C75.4533 31.4663 75.4533 28.9552 74.0651 27.1461L70.261 30.0651C70.3281 30.1525 70.3281 30.269 70.261 30.3565L74.0651 33.2755ZM70.0398 31.1611C69.5038 31.1611 69.0379 30.7305 69.0379 30.1465H73.8328C73.8328 28.0414 72.1109 26.3661 70.0398 26.3661V31.1611ZM69.0379 30.1465C69.0379 29.5626 69.5038 29.132 70.0398 29.132V33.9269C72.1109 33.9269 73.8328 32.2517 73.8328 30.1465H69.0379ZM70.0398 29.132C70.5757 29.132 71.0417 29.5626 71.0417 30.1465H66.2468C66.2468 32.2517 67.9687 33.9269 70.0398 33.9269V29.132ZM71.0417 30.1465C71.0417 30.7305 70.5757 31.1611 70.0398 31.1611V26.3661C67.9687 26.3661 66.2468 28.0413 66.2468 30.1465H71.0417Z" fill="white" mask="url(#path-1-inside-1_134_889)"/>
<ellipse cx="70.0396" cy="30.2321" rx="1.50131" ry="1.49866" fill="#202020"/>
<path d="M68.7397 33.9688H57.2886C56.2198 33.9688 54.545 34.1035 54.545 36.2549C54.545 38.9983 57.2886 38.5411 58.6628 38.5411H68.7397C69.3504 38.5411 70.6635 38.9069 71.0299 40.37C71.488 42.1989 69.6558 43.1134 68.7397 43.1134C68.0068 43.1134 65.3807 43.1134 64.1593 43.1134" stroke="white" stroke-width="0.308248" stroke-linecap="round"/>
<path d="M3.62367 8.2068C2.80062 8.2068 2.0736 7.90555 1.4426 7.30305C0.811595 6.70055 0.496094 6.09448 0.496094 5.16335C0.496094 4.2596 0.781178 3.88214 1.41218 3.33442C2.07062 2.7593 2.82806 1.96272 3.62367 1.96272C4.47415 1.96272 5.21489 2.23658 5.84589 2.78431C6.50433 3.33204 6.83355 4.07147 6.83355 5.0026C6.83355 5.87896 6.51805 6.63209 5.88705 7.26197C5.25604 7.89186 4.50159 8.2068 3.62367 8.2068ZM1.77182 60.8707V18.8053H5.55783V60.8707H1.77182Z" fill="white"/>
<path d="M34.971 3.87202V60.8707H30.9381V3.87202H13.901V0.133789H52.0081V3.87202H34.971Z" fill="white"/>
<path d="M109.575 40.2488L125.152 60.8707H120.337L107.394 43.1244H107.229L105.748 45.4659C105.556 45.7945 105.322 46.1642 105.048 46.575L94.8315 60.8707H90.2225L105.213 40.331L90.4694 18.8053H94.9138L105.213 33.8815C106.42 35.8259 107.147 37.0309 107.394 37.4965H107.558L109.657 34.0458L120.367 18.8053H124.812L109.575 40.2488Z" fill="white"/>
<path d="M132.939 8.2068C132.116 8.2068 131.388 7.90555 130.757 7.30305C130.126 6.70055 129.811 5.93374 129.811 5.0026C129.811 4.09885 130.126 3.37311 130.757 2.82539C131.416 2.25028 132.143 1.96272 132.939 1.96272C133.789 1.96272 134.339 2.27766 134.97 2.82539C135.628 3.37311 136.01 4.07147 136.01 5.0026C136.01 5.87896 135.833 6.63209 135.202 7.26197C134.571 7.89186 133.816 8.2068 132.939 8.2068ZM131.087 60.8707V18.8053H134.873V60.8707H131.087Z" fill="white"/>
<path fill-rule="evenodd" clip-rule="evenodd" d="M83.8533 39.4657C83.8578 39.2855 83.8601 39.1047 83.8601 38.9233C83.8601 27.3073 74.4268 17.8906 62.7901 17.8906C51.1535 17.8906 41.7202 27.3073 41.7202 38.9233C41.7202 49.1427 49.0215 57.6598 58.701 59.5602L58.6671 59.5737L58.9517 59.6078C59.8068 59.7649 60.68 59.8705 61.5679 59.9212L81.5691 62.3171L83.5516 42.5295C83.7205 41.5539 83.822 40.5552 83.8513 39.5385L83.8596 39.4555L83.8533 39.4657ZM62.7901 55.8521C53.4241 55.8521 45.8314 48.2728 45.8314 38.9233C45.8314 29.5738 53.4241 21.9946 62.7901 21.9946C72.1562 21.9946 79.7489 29.5738 79.7489 38.9233C79.7489 48.2728 72.1562 55.8521 62.7901 55.8521Z" fill="white"/>
<path d="M58.1956 40.6479C58.1916 40.5299 58.2327 40.7344 58.2094 40.6193C58.1814 40.4792 57.8951 40.3716 57.7923 40.3704C57.7201 40.3704 57.6479 40.3704 57.5759 40.3704C57.262 40.3677 56.9482 40.3862 56.6375 40.4258C56.542 40.4377 56.3597 40.4206 56.2917 40.5206C56.2536 40.5765 56.2547 40.8326 56.2519 40.8991C56.2463 41.0261 56.3772 40.7737 56.3791 40.8991C56.3791 40.9278 56.4071 40.9538 56.4312 40.9439L56.4592 40.9343C56.4698 40.9877 56.4872 41.0358 56.5373 41.0521C56.6403 41.0853 56.7862 41.0491 56.8931 41.0471C57.0363 41.0447 57.1794 41.0442 57.3223 41.0459C57.6085 41.0494 57.8942 41.0595 58.1796 41.0763C58.1942 41.0763 58.2098 41.0607 58.2093 41.0439L58.1956 40.6479Z" fill="white"/>
<path d="M63.3982 44.5289C63.3982 44.5289 63.7452 42.8471 62.1362 42.5406L60.5273 42.2352C60.5273 42.2352 59.423 41.0097 58.6659 40.9468C57.9088 40.8838 55.6373 40.6956 55.0063 41.1353C54.3753 41.575 53.9336 42.5406 53.9336 42.5406C53.9336 42.5406 52.4194 42.5932 52.1669 43.0584C51.9145 43.5236 51.9777 44.5289 51.9777 44.5289H63.3982Z" fill="white"/>
<path d="M60.2233 42.5699C60.2233 42.5699 59.1982 41.4428 58.5038 41.3737C57.8093 41.3045 55.6443 41.1938 55.3379 41.4279C55.0315 41.662 54.491 42.5482 54.491 42.5482L60.2233 42.5699Z" fill="#202020"/>
<path d="M57.4567 42.889H57.8121C57.8386 42.889 57.8639 42.8785 57.8826 42.8599C57.9013 42.8413 57.9118 42.816 57.9118 42.7897C57.9118 42.7634 57.9013 42.7381 57.8826 42.7195C57.8639 42.7009 57.8386 42.6904 57.8121 42.6904H57.4567C57.4303 42.6904 57.4049 42.7009 57.3862 42.7195C57.3676 42.7381 57.3571 42.7634 57.3571 42.7897V42.7897C57.3571 42.816 57.3676 42.8413 57.3862 42.8599C57.4049 42.8785 57.4303 42.889 57.4567 42.889V42.889Z" fill="white"/>
<path d="M54.5296 42.889H54.885C54.8981 42.889 54.9111 42.8865 54.9232 42.8815C54.9354 42.8765 54.9464 42.8692 54.9557 42.86C54.9649 42.8508 54.9723 42.8398 54.9773 42.8278C54.9824 42.8157 54.9849 42.8028 54.9849 42.7897V42.7897C54.9849 42.7766 54.9824 42.7637 54.9773 42.7517C54.9723 42.7396 54.9649 42.7286 54.9557 42.7194C54.9464 42.7102 54.9354 42.7029 54.9232 42.6979C54.9111 42.6929 54.8981 42.6904 54.885 42.6904H54.5296C54.5032 42.6904 54.4778 42.7009 54.4591 42.7195C54.4404 42.7381 54.4299 42.7634 54.4299 42.7897C54.4299 42.816 54.4404 42.8413 54.4591 42.8599C54.4778 42.8785 54.5032 42.889 54.5296 42.889Z" fill="white"/>
<path d="M52.0187 44.8464H63.4839C63.5428 44.8464 63.5992 44.8231 63.6409 44.7817C63.6825 44.7402 63.7059 44.684 63.7059 44.6254C63.7059 44.5667 63.6825 44.5105 63.6409 44.469C63.5992 44.4276 63.5428 44.4043 63.4839 44.4043H52.0187C51.9598 44.4043 51.9034 44.4276 51.8618 44.469C51.8201 44.5105 51.7968 44.5667 51.7968 44.6254V44.6254C51.7968 44.684 51.8201 44.7402 51.8618 44.7817C51.9034 44.8231 51.9598 44.8464 52.0187 44.8464V44.8464Z" fill="white"/>
<path d="M52.1686 43.0596C52.2101 42.9904 52.268 42.9324 52.3372 42.8906H52.7185C52.782 42.8906 52.8428 42.9157 52.8877 42.9605C52.9326 43.0052 52.9578 43.0658 52.9578 43.1291C52.9578 43.1923 52.9326 43.2529 52.8877 43.2976C52.8428 43.3424 52.782 43.3675 52.7185 43.3675H52.0562C52.0804 43.2605 52.1182 43.1571 52.1686 43.0596Z" fill="white"/>
<path d="M61.8617 42.9866C62.0014 43.1425 62.7215 43.0568 63.0387 43.0104C63.0026 42.9708 62.9641 42.9333 62.9235 42.8981C62.7359 42.7354 62.481 42.6074 62.1362 42.542L62.0611 42.5276L61.8783 42.4932C61.8143 42.6339 61.7449 42.8558 61.8617 42.9866Z" fill="white"/>
<path d="M61.8617 42.9866C62.0014 43.1425 62.7215 43.0568 63.0387 43.0104C63.0026 42.9708 62.9641 42.9333 62.9235 42.8981C62.3075 42.9839 62.1177 42.6839 62.0611 42.5276L61.8783 42.4932C61.8143 42.6339 61.7449 42.8558 61.8617 42.9866Z" fill="white"/>
<path d="M57.112 42.7842H57.3571V41.2014H57.112V42.7842Z" fill="white"/>
<path d="M57.2326 42.7842V44.0704" stroke="white" stroke-width="0.0616496" stroke-miterlimit="10" stroke-linecap="round"/>
<path d="M58.6036 41.165C58.6036 41.165 59.5439 41.4092 60.4625 42.492" stroke="white" stroke-width="0.0616496" stroke-miterlimit="10" stroke-linecap="round"/>
<path d="M61.0262 46.0051C61.642 45.863 62.0256 45.2506 61.883 44.6372C61.7404 44.0238 61.1255 43.6417 60.5096 43.7838C59.8938 43.9258 59.5102 44.5383 59.6528 45.1517C59.7954 45.7651 60.4103 46.1472 61.0262 46.0051Z" fill="white"/>
<path d="M60.8917 45.3958C61.1708 45.3281 61.342 45.0479 61.274 44.7699C61.206 44.4919 60.9246 44.3214 60.6455 44.3891C60.3664 44.4568 60.1953 44.7371 60.2632 45.0151C60.3312 45.2931 60.6126 45.4636 60.8917 45.3958Z" fill="#202020"/>
<path d="M54.7206 46.0184C55.3448 45.9188 55.7698 45.3341 55.6698 44.7124C55.5698 44.0906 54.9827 43.6674 54.3585 43.767C53.7343 43.8665 53.3094 44.4513 53.4094 45.073C53.5093 45.6947 54.0964 46.118 54.7206 46.0184Z" fill="white"/>
<path d="M55.0185 45.0932C55.1297 44.8294 55.0051 44.5258 54.7402 44.415C54.4753 44.3043 54.1705 44.4284 54.0593 44.6922C53.9481 44.956 54.0727 45.2597 54.3376 45.3704C54.6025 45.4812 54.9073 45.3571 55.0185 45.0932Z" fill="#202020"/>
<ellipse cx="3.7024" cy="5.16352" rx="3.2063" ry="3.20063" fill="white"/>
<ellipse cx="132.87" cy="5.16352" rx="3.2063" ry="3.20063" fill="white"/>
</svg>
