<svg width="172" height="90" viewBox="0 0 172 90" fill="none" xmlns="http://www.w3.org/2000/svg">
<path d="M74.2367 0.385779C72.6279 0.787983 71.505 1.67619 70.8682 3.05038C70.3655 4.10617 70.3655 5.09492 70.8179 6.58643C71.4883 8.74828 73.2312 11.8318 74.3205 12.7368C74.7562 13.1223 74.8903 13.1558 75.2589 12.9882C76.2645 12.5189 78.6944 8.31256 79.281 6.01664C79.5659 4.82679 79.4486 3.80452 78.862 2.64818C78.4766 1.9108 77.5046 1.00584 76.7505 0.687432C76.1471 0.436054 74.7227 0.268469 74.2367 0.385779ZM76.4823 2.09515C77.2365 2.44708 77.9571 3.48611 78.1079 4.40782C78.2587 5.41334 77.8398 6.46912 77.0018 7.22326C75.0243 8.99966 71.8235 7.54167 71.8067 4.84355C71.8067 3.5699 72.8625 2.09515 73.9518 1.86053C74.2032 1.81025 74.4881 1.74322 74.5718 1.7097C74.8567 1.59239 75.879 1.81025 76.4823 2.09515Z" fill="white"/>
<path d="M74.0186 14.9493C73.3818 15.4856 73.231 16.0722 73.5661 16.776C74.0521 17.7983 75.2252 18.0162 76.0129 17.2285C76.3648 16.8598 76.4989 16.5749 76.4989 16.1224C76.4989 15.67 76.3648 15.3851 76.0129 15.0164C75.3928 14.3963 74.689 14.3796 74.0186 14.9493Z" fill="white"/>
<path d="M75.3259 25.0871C71.8568 25.4893 69.1252 26.897 66.4941 29.6622C65.0529 31.1872 64.1144 32.7458 63.3938 34.8238C62.8575 36.3656 62.8408 36.4661 62.8408 39.3319C62.8408 42.1976 62.8575 42.2981 63.377 43.8567C64.9021 48.3815 68.6224 51.951 73.164 53.2414C74.7561 53.7107 77.7223 53.8615 79.4652 53.5766C84.0068 52.856 88.1964 49.6383 90.2409 45.3314C90.794 44.1751 91.4978 41.3596 91.2967 41.1585C91.2297 41.0915 90.7102 40.9742 90.1739 40.8904L89.1852 40.7563L89.1516 39.3319C89.1014 37.2538 88.917 36.2818 88.5818 36.3656C88.431 36.3991 88.3472 36.5332 88.3807 36.6672C88.4143 36.8013 88.4813 37.8403 88.5316 38.9967C88.5651 40.153 88.6824 41.1418 88.783 41.2088C88.8667 41.2591 89.3527 41.3596 89.8555 41.4267C90.375 41.4937 90.7437 41.611 90.7437 41.7451C90.7437 41.8456 90.6264 42.3819 90.4923 42.9182C89.5036 46.6721 86.7552 50.0238 83.1353 51.8505C81.9622 52.437 79.8171 53.0738 78.9792 53.0738C78.5267 53.0738 78.51 53.0403 78.51 52.2527V51.4315L79.7836 51.1466C81.1411 50.845 83.7722 49.6216 84.2917 49.0518C84.6436 48.6496 84.543 48.3815 83.6213 47.2922C83.1856 46.7894 83.0013 46.6721 82.8504 46.8229C82.6996 46.9737 82.8169 47.2084 83.3029 47.7949L83.9397 48.5826L83.5375 48.9177C82.5153 49.7557 80.4037 50.5601 78.6105 50.8114L77.7894 50.9288L77.9067 52.1018L78.0072 53.2917L76.3481 53.1912C75.4264 53.1409 74.203 52.9733 73.6165 52.8225C71.3373 52.2192 68.8906 50.7947 67.198 49.0686C66.2427 48.0798 66.1589 48.3312 68.1867 46.6386L69.5107 45.5493L70.6 46.538C71.6055 47.4597 73.3986 48.549 73.9349 48.549C74.4879 48.549 74.0522 48.0798 72.9294 47.51C71.7228 46.8899 70.0302 45.3984 69.4939 44.4767C69.0749 43.7729 68.7062 44.0913 69.0414 44.8789C69.1252 45.0968 68.7565 45.4822 67.5834 46.4375L66.0249 47.7111L65.7232 47.3257C65.321 46.8062 63.9301 44.041 63.9301 43.7561C63.9301 43.5215 64.282 43.3371 65.1367 43.1193C65.5556 43.0187 65.6059 43.069 65.8573 43.8734C66.1254 44.6443 66.4774 45.0465 66.7287 44.8119C66.8125 44.7113 66.1589 42.9349 65.9076 42.583C65.807 42.4322 65.5054 42.4489 64.768 42.65C64.215 42.8009 63.729 42.8847 63.6954 42.8344C63.6452 42.7841 63.5279 42.1976 63.4105 41.5105C63.1759 39.9854 63.31 37.1365 63.6787 35.7288C64.0306 34.4216 64.768 32.796 65.0026 32.796C65.1032 32.796 65.5221 32.9804 65.9076 33.215C66.6114 33.6172 66.9466 33.634 66.9466 33.2988C66.9466 33.1982 66.5779 32.9469 66.1087 32.7122C65.6562 32.4776 65.2707 32.2262 65.2707 32.1424C65.2707 32.0587 65.6897 31.4553 66.2092 30.785C68.2705 28.1539 71.6725 26.1429 74.8399 25.6904L75.6108 25.5731L75.7281 26.3608C75.8454 27.2657 75.7783 27.4333 75.2756 27.4333C74.5885 27.4333 73.65 27.7852 73.65 28.0198C73.65 28.1539 73.7003 28.2712 73.7841 28.2545C73.8511 28.2545 74.4377 28.1539 75.0745 28.0366L76.2476 27.8355L76.2979 26.6959L76.3481 25.5396L78.1413 25.6401C80.2026 25.7407 81.6606 26.1429 83.5375 27.1149C84.8447 27.7852 87.5596 29.9638 87.5596 30.3325C87.5596 30.4498 87.1909 30.8353 86.7217 31.1872C86.2021 31.5894 85.934 31.8911 86.0178 32.0251C86.0848 32.1257 86.353 32.5446 86.6211 32.9301C86.8892 33.3155 87.0736 33.6675 87.0401 33.701C87.0065 33.7345 86.1686 34.1702 85.1966 34.7065L83.4202 35.645L82.9845 34.9914C82.4817 34.2205 81.3924 33.3155 80.3869 32.8128C79.5993 32.4106 79.5825 32.3268 80.0182 31.204C80.2026 30.718 80.2193 30.7012 80.8729 31.0364C81.3589 31.3045 81.6941 31.2542 81.6941 30.9358C81.6941 30.7347 80.2361 30.0644 79.9847 30.1482C79.8842 30.1817 79.6328 30.6677 79.4149 31.204L79.0463 32.2095L78.4094 32.1257C76.8341 31.9246 74.9069 32.1257 75.0242 32.4776C75.0577 32.5949 75.8454 32.662 77.0185 32.6787C78.8116 32.7122 79.0127 32.7458 80.035 33.2485C81.074 33.768 82.1131 34.6897 82.951 35.8796L83.2862 36.3656L84.2749 35.8126C85.381 35.1925 85.381 35.1925 85.7999 36.5667C86.1854 37.7733 86.3027 39.9016 86.0513 41.0915C85.7161 42.7673 85.6826 42.7003 86.8054 43.069C87.3585 43.2533 87.8445 43.4209 87.8612 43.4544C87.9618 43.5215 86.7552 45.7336 86.3865 46.1861C86.001 46.6386 86.2189 46.7391 84.1744 45.0465C83.437 44.4432 82.9175 43.8902 82.9845 43.7896C83.3197 43.2031 83.4035 43.2031 84.2917 43.7058C84.9117 44.0578 85.2134 44.1415 85.2972 44.0242C85.448 43.7729 85.3139 43.6388 84.2246 43.0355L83.3197 42.5495L82.046 43.8399C81.3422 44.5605 80.588 45.2476 80.3702 45.3817L79.968 45.6331L80.521 46.6051C80.9735 47.3927 81.0238 47.6106 80.8394 47.7279C80.3534 48.0463 78.8787 48.3982 77.6553 48.4988L76.3816 48.5993L76.5157 47.6944C76.7336 46.1861 76.7503 46.2364 75.7951 46.052C73.6668 45.5995 71.9406 44.2924 70.9854 42.3651C70.7005 41.8121 70.3653 41.3429 70.248 41.3429C70.1475 41.3429 69.6447 41.4602 69.1587 41.5775C68.17 41.8456 68.2202 41.8959 68.0024 40.6725L67.8516 39.9184L66.7287 39.9687L65.6059 40.0357V39.0302C65.6059 38.0582 65.8573 36.3488 66.0249 36.1645C66.1087 36.0975 66.6617 36.2148 67.9689 36.6002C68.17 36.6505 68.3711 36.3824 68.7565 35.5612C69.0582 34.9579 69.4269 34.2708 69.5944 34.0529L69.9129 33.6507L71.5217 35.0082L73.1137 36.3488L72.7953 36.8683C72.6277 37.17 72.4769 37.5387 72.4769 37.6895C72.4769 38.1252 72.9294 38.0582 73.0467 37.6057C73.3484 36.4326 75.108 35.159 76.6498 35.0249C79.2809 34.7903 81.3589 36.7008 81.3589 39.3151C81.3422 41.8456 79.5322 43.6891 77.1023 43.6891C74.9237 43.6723 73.2646 42.3149 72.7953 40.1865L72.611 39.2983L71.4546 39.4156L70.2983 39.533V38.8123C70.3151 38.4101 70.4491 37.6895 70.6167 37.2035C70.8681 36.4494 70.8848 36.3153 70.667 36.2315C70.5329 36.1812 70.3989 36.1645 70.3821 36.1812C70.2815 36.2986 69.7955 37.8571 69.7955 38.0582C69.7955 38.2258 69.5777 38.2425 68.8403 38.142C68.304 38.075 67.8013 38.075 67.7175 38.1588C67.4494 38.4269 67.8013 38.6615 68.4549 38.6615C69.3933 38.6615 69.628 38.7956 69.628 39.3319C69.628 39.9687 69.8291 40.0692 71.0524 40.019L72.0915 39.9854L72.4602 40.9909C73.1137 42.8176 74.5214 43.9069 76.6833 44.2756C77.3536 44.3929 77.5045 44.7281 77.5045 45.9682C77.5045 46.6218 77.6888 46.7726 78.3424 46.6218C78.9289 46.4877 79.0127 46.0855 78.4765 46.0017C78.1413 45.9515 78.091 45.8342 78.0407 45.1135L77.9905 44.2589L78.8954 43.8902C80.6383 43.1528 81.8114 41.5607 81.979 39.6503L82.0795 38.695L82.8002 38.5107C83.9397 38.2258 83.9062 38.1923 83.8559 39.6167C83.8057 40.6893 83.8392 40.9239 84.0403 40.9239C84.2414 40.9239 84.3084 40.6223 84.3419 39.3654C84.3922 37.5554 84.3419 37.4884 82.9677 37.8906C82.465 38.0414 82.0293 38.1588 81.979 38.1588C81.9287 38.1588 81.7946 37.8906 81.6941 37.5722C81.4427 36.8013 80.1356 35.3768 79.2809 34.9411C78.8284 34.7065 78.158 34.5557 77.3201 34.5054C76.1805 34.4384 75.9292 34.4886 75.1415 34.8741C74.6388 35.1087 74.0355 35.4439 73.7841 35.6115C73.3148 35.8964 73.3148 35.8964 72.6948 35.2763L72.0747 34.6562L72.5272 34.3043C72.9964 33.9356 73.1305 33.4664 72.7786 33.4664C72.6613 33.4664 72.3764 33.6675 72.125 33.9021C71.5887 34.4048 71.7563 34.4886 69.7285 32.796L68.4381 31.7067L69.2928 30.9023C69.762 30.4666 70.2145 30.1147 70.2983 30.1147C70.3821 30.1147 70.6837 30.4331 70.9854 30.8185C71.2871 31.2207 71.5887 31.6062 71.639 31.6732C71.706 31.757 72.2088 31.5727 72.745 31.2878C74.1025 30.5839 75.3259 30.2822 76.8844 30.2822C78.3592 30.2822 78.3927 30.2487 78.5938 28.7405C78.6943 27.9528 78.6943 27.9528 79.2306 28.0366C80.7556 28.3047 83.3532 29.4443 83.9565 30.1147C84.2414 30.4163 84.2079 30.4834 83.5375 31.2878L82.8169 32.1592L83.504 32.8463C84.057 33.3993 84.2414 33.4999 84.409 33.3323C84.5766 33.1647 84.5095 33.0139 84.0738 32.5949L83.5375 32.0587L84.3419 31.2375L85.1296 30.4163L84.4928 29.8633C83.1521 28.7069 80.1523 27.4333 78.7111 27.4333C78.2586 27.4333 78.2083 27.5003 78.1078 28.0534C77.8229 29.7125 77.9737 29.5616 76.4654 29.6957C74.9572 29.813 73.3484 30.2655 72.4937 30.785C72.192 30.9861 71.9239 31.1202 71.9071 31.0867C71.8904 31.0531 71.639 30.7347 71.3541 30.3493L70.8178 29.6789L71.3206 29.3773C71.706 29.1594 71.7898 29.0254 71.6557 28.8913C71.3876 28.6232 70.5832 29.0924 69.142 30.299C67.9018 31.338 67.6337 31.757 68.0024 32.0419C68.1365 32.1257 68.5051 32.4441 68.8403 32.7458L69.4604 33.282L68.9576 34.0362C68.6727 34.4384 68.3376 35.0584 68.2035 35.3768C67.9353 36.0137 67.7845 36.0472 66.6449 35.6282C65.8908 35.3433 65.6394 35.4439 65.4383 36.0975C65.1199 37.2203 64.8853 39.6167 65.0529 40.1195C65.2037 40.572 65.2372 40.5887 66.3098 40.5385L67.3991 40.4714L67.5164 41.1753C67.7175 42.4489 67.818 42.516 68.8236 42.2478C69.3095 42.1305 69.7955 42.0132 69.9129 42.0132C70.0134 42.0132 70.3318 42.4154 70.6 42.9014C71.5384 44.5605 73.7338 46.2364 75.2923 46.4877C75.594 46.538 75.8956 46.6888 75.9459 46.7894C76.0297 47.0408 75.5772 50.5433 75.4264 50.6774C75.2588 50.845 73.4489 50.3757 72.3261 49.873C71.7395 49.6048 70.9016 49.1356 70.4659 48.8172C69.8626 48.3815 69.6112 48.2809 69.4939 48.4317C69.1084 48.901 71.9574 50.5265 74.1025 51.0796C76.1135 51.5823 75.9459 51.6996 76.2643 49.6216L76.3314 49.1021L77.8061 49.0015C79.4317 48.901 81.6941 48.1804 81.6941 47.7781C81.6941 47.6441 81.4595 47.1246 81.1746 46.6218C80.8897 46.1191 80.7221 45.7001 80.8227 45.7001C80.9064 45.7001 81.3254 45.3984 81.7444 45.0298L82.4985 44.3594L84.1744 45.7839C85.0961 46.5715 85.9675 47.2084 86.1016 47.2084C86.5373 47.2084 88.5651 43.9069 88.5651 43.2031C88.5651 43.1193 88.0623 42.8847 87.459 42.6836L86.3697 42.3149L86.5038 41.7786C86.5708 41.4937 86.6379 40.3206 86.6211 39.1643C86.6211 37.4214 86.5541 36.9186 86.2524 36.1477C86.0513 35.645 85.8837 35.1757 85.8837 35.1087C85.8837 35.0417 86.3027 34.74 86.8054 34.4551C87.3082 34.1702 87.7272 33.8518 87.7272 33.7513C87.7272 33.6675 87.4925 33.215 87.2077 32.7625L86.6714 31.9413L87.2412 31.4553C87.5596 31.1872 87.8947 30.9693 87.9785 30.9526C88.2132 30.9526 89.1684 32.4441 89.7382 33.701C90.308 34.9244 90.5594 35.8293 90.8107 37.4717C90.928 38.2425 91.0956 38.7453 91.2297 38.7956C91.6319 38.9296 91.347 36.5835 90.7437 34.7903C90.0398 32.6787 89.1181 31.1704 87.5093 29.4946C84.7274 26.5954 81.8449 25.2714 77.8396 25.0368C77.052 24.9866 75.9292 25.0201 75.3259 25.0871Z" fill="white"/>
<path d="M3.69986 13.0207C2.66083 13.4229 1.65532 14.3782 1.20284 15.3669C0.783876 16.3054 0.767117 17.8472 1.18608 19.1041C1.6218 20.4615 2.97924 23.0591 3.83393 24.1987C5.0573 25.8242 5.50978 25.8075 6.76667 24.1149C7.75542 22.8077 9.14638 20.0593 9.56534 18.6516C10.6211 14.9312 7.20239 11.6465 3.69986 13.0207ZM6.74991 14.3782C8.4928 15.2328 9.02907 17.6964 7.75542 19.1543C6.11309 21.0313 3.43172 20.6794 2.40945 18.4672C2.00725 17.6126 2.00725 16.8081 2.40945 15.9367C3.1971 14.2106 5.02378 13.557 6.74991 14.3782Z" fill="white"/>
<path d="M4.28648 27.3657C3.21394 28.2706 3.85076 30.0303 5.24172 30.0303C6.39806 30.0303 7.11867 29.0583 6.7835 28.0025C6.41481 26.8797 5.2082 26.578 4.28648 27.3657Z" fill="white"/>
<path d="M165.766 13.311C164.141 14.0316 163.085 15.6236 163.085 17.333C163.085 18.9753 164.426 22.1762 166.001 24.3213C166.889 25.5279 167.375 25.8296 167.928 25.5279C168.783 25.0754 170.878 21.5897 171.649 19.344C172.771 16.0929 170.744 12.959 167.526 12.959C166.872 12.959 166.252 13.0931 165.766 13.311ZM168.883 14.6181C171.112 15.6236 171.297 18.858 169.202 20.0982C168.079 20.7517 167.291 20.802 166.235 20.2825C165.079 19.696 164.543 18.9418 164.459 17.6682C164.325 15.7577 165.632 14.3165 167.526 14.3165C167.895 14.3165 168.515 14.4505 168.883 14.6181Z" fill="white"/>
<path d="M166.521 27.5719C165.247 28.6948 166.437 30.7393 168.062 30.203C169.135 29.8511 169.453 28.5104 168.632 27.6892C168.012 27.0692 167.158 27.0357 166.521 27.5719Z" fill="white"/>
<path d="M122.1 19.2228C120.826 19.4909 119.787 20.3456 119.1 21.6528C118.58 22.675 118.53 24.066 118.982 25.4234C119.72 27.6523 121.898 31.3392 122.753 31.7917C123.038 31.9425 123.206 31.9258 123.524 31.7079C124.563 31.0375 126.608 27.535 127.278 25.2726C127.898 23.2448 127.546 21.703 126.155 20.3624C125.099 19.3401 123.608 18.9211 122.1 19.2228ZM124.814 20.9154C126.691 22.1555 126.758 24.9877 124.948 26.1943C124.144 26.7306 122.904 26.8982 122.032 26.6133C120.776 26.1943 119.737 24.4179 119.988 23.094C120.407 20.8484 122.954 19.692 124.814 20.9154Z" fill="white"/>
<path d="M122.066 33.7853C121.714 34.154 121.58 34.4389 121.58 34.8913C121.58 35.6455 122.334 36.4834 123.004 36.4834C123.691 36.4834 124.379 36.0477 124.58 35.4444C125.133 33.8523 123.256 32.5954 122.066 33.7853Z" fill="white"/>
<path d="M76.7183 18.5007C76.601 18.5343 76.5005 18.7186 76.5005 18.9029C76.5005 19.1711 76.6346 19.2214 77.4725 19.2214C77.992 19.2214 79.1148 19.3722 79.936 19.5398C80.7739 19.7074 81.4945 19.8247 81.5783 19.7744C81.8129 19.6403 81.6956 19.2381 81.3772 19.0705C80.6398 18.6683 77.2881 18.2661 76.7183 18.5007Z" fill="white"/>
<path d="M72.311 19.5396C70.5178 20.2267 69.1269 20.8803 69.1269 21.0143C69.1269 21.0981 69.1939 21.249 69.2777 21.383C69.4117 21.5841 69.5793 21.5674 70.3335 21.2322C70.8195 21.0311 71.8585 20.5954 72.6461 20.2937C73.7019 19.8915 74.0706 19.6737 74.0706 19.439C74.0706 18.9866 73.7019 19.0201 72.311 19.5396Z" fill="white"/>
<path d="M83.908 20.5112C83.975 20.8463 88.1479 22.9747 88.4998 22.8406C89.0696 22.6228 88.6172 22.2205 86.7234 21.2486C84.6621 20.2095 83.8075 19.9749 83.908 20.5112Z" fill="white"/>
<path d="M64.9364 23.2448C62.4561 24.8033 62.3388 24.9039 62.6404 25.2223C62.8751 25.4569 63.1097 25.3564 64.9699 24.2168C66.4446 23.3286 67.0312 22.8761 67.0312 22.6415C67.0312 22.0885 66.5787 22.2225 64.9364 23.2448Z" fill="white"/>
<path d="M90.8116 23.9988C90.7446 24.1496 90.7948 24.3675 90.9289 24.4848C91.4819 25.0043 94.6996 26.9315 94.9342 26.898C95.6045 26.7639 95.1856 26.2947 93.3924 25.1384C91.13 23.6971 90.9457 23.6133 90.8116 23.9988Z" fill="white"/>
<path d="M58.0324 27.7855C56.9431 28.5229 56.0549 29.1933 56.0549 29.2603C56.0549 29.3441 56.1555 29.4949 56.2896 29.5955C56.4739 29.7463 56.9431 29.5117 58.552 28.4224C59.9094 27.5006 60.5797 26.9476 60.5797 26.7298C60.5797 26.1935 60.0435 26.4113 58.0324 27.7855Z" fill="white"/>
<path d="M97.2298 28.0555C97.1628 28.1058 97.1125 28.2566 97.1125 28.3572C97.1125 28.6421 101.235 31.3402 101.453 31.2061C101.889 30.938 101.503 30.5358 99.6263 29.2789C97.632 27.9382 97.4309 27.8376 97.2298 28.0555Z" fill="white"/>
<path d="M155.063 28.0538C154.225 28.1041 154.091 28.1711 154.091 28.4392C154.091 28.7577 154.225 28.7744 156.689 28.7744C159.119 28.7744 159.286 28.7577 159.286 28.456C159.286 28.2884 159.169 28.0873 159.018 28.037C158.75 27.9365 156.856 27.9532 155.063 28.0538Z" fill="white"/>
<path d="M161.852 28.1041C161.399 28.5733 161.802 28.7744 163.243 28.7744C164.533 28.7744 164.651 28.7409 164.651 28.4392C164.651 28.1711 164.533 28.1041 164.081 28.1041C163.779 28.1041 163.193 28.0538 162.79 28.0035C162.321 27.9365 161.986 27.9868 161.852 28.1041Z" fill="white"/>
<path d="M9.51644 28.3734C9.39913 28.6919 9.6505 28.9432 10.7566 29.5298C11.6113 29.9823 12.1475 29.999 12.1475 29.5633C12.1475 29.379 10.0527 28.1053 9.7343 28.1053C9.66726 28.1053 9.58347 28.2226 9.51644 28.3734Z" fill="white"/>
<path d="M148.243 28.2893C146.601 28.4401 146.266 28.5742 146.433 29.0099C146.517 29.2278 146.735 29.2613 147.673 29.1775C148.31 29.1272 149.416 29.0267 150.154 28.9764C151.343 28.8758 151.494 28.8256 151.494 28.5239C151.494 28.239 151.377 28.1887 150.656 28.172C150.204 28.1552 149.115 28.2055 148.243 28.2893Z" fill="white"/>
<path d="M141.373 29.9483C139.044 30.8701 138.826 31.0041 139.178 31.3728C139.429 31.6074 140.233 31.3393 143.669 29.9316C144.105 29.764 144.121 29.2277 143.702 29.1607C143.568 29.1272 142.513 29.4791 141.373 29.9483Z" fill="white"/>
<path d="M14.1586 30.9532C14.1586 31.2213 14.6111 31.523 16.354 32.3777C18.0131 33.1988 18.6164 33.4167 18.784 33.2826C18.9013 33.1821 18.9683 33.0145 18.9181 32.8972C18.8343 32.6625 14.7787 30.618 14.41 30.618C14.2759 30.618 14.1586 30.7688 14.1586 30.9532Z" fill="white"/>
<path d="M51.6979 32.0589C49.8377 33.2823 49.3014 33.9023 50.1058 33.8688C50.6756 33.8521 54.2117 31.4724 54.2117 31.1037C54.2117 30.5506 53.6922 30.7517 51.6979 32.0589Z" fill="white"/>
<path d="M134.199 33.1313C132.557 33.919 132.138 34.2039 132.138 34.472C132.138 34.6899 132.239 34.8072 132.44 34.7904C132.976 34.7737 136.914 32.7291 136.914 32.461C136.914 31.9917 136.244 32.1593 134.199 33.1313Z" fill="white"/>
<path d="M103.65 32.5953C103.65 32.7964 104.303 33.2824 105.61 34.1036C107.638 35.3437 108.174 35.5448 108.174 34.9918C108.174 34.7739 107.588 34.3215 106.197 33.4835C104.152 32.2602 103.65 32.0758 103.65 32.5953Z" fill="white"/>
<path d="M21.097 34.1545C20.9127 34.4562 21.3651 34.7578 23.4264 35.6293C25.5715 36.551 25.8061 36.6013 25.9402 36.2494C26.0743 35.9142 25.8899 35.7969 23.6443 34.8249C21.516 33.9199 21.2813 33.8529 21.097 34.1545Z" fill="white"/>
<path d="M45.2793 35.8807C42.9834 37.104 42.8493 37.2046 43.151 37.5565C43.3353 37.7911 43.6035 37.6906 45.3463 36.8024C47.6087 35.646 47.9439 35.3947 47.659 35.0427C47.5585 34.9087 47.4244 34.8081 47.3574 34.8249C47.3071 34.8416 46.3686 35.3109 45.2793 35.8807Z" fill="white"/>
<path d="M129.088 35.4766C128.938 35.5771 128.033 35.9626 127.077 36.3312C125.15 37.1021 124.865 37.2865 125.1 37.6552C125.267 37.9401 126.005 37.7222 128.452 36.6664C129.558 36.1972 129.876 35.9793 129.876 35.7279C129.876 35.3425 129.507 35.2419 129.088 35.4766Z" fill="white"/>
<path d="M110.386 36.1818C110.269 36.2991 110.185 36.4499 110.185 36.5337C110.185 36.6846 112.448 37.7571 113.906 38.2934C114.727 38.595 114.878 38.6118 115.045 38.4107C115.213 38.2096 115.213 38.109 115.045 37.9079C114.928 37.7739 114.743 37.6566 114.643 37.6566C114.475 37.6566 112.682 36.9359 111.174 36.2656C110.721 36.0645 110.52 36.0477 110.386 36.1818Z" fill="white"/>
<path d="M28.2522 37.0526C27.9673 37.4045 28.4533 37.6726 30.4643 38.3095C32.5256 38.963 33.1792 39.0301 33.1792 38.5943C33.1792 38.3932 33.0116 38.2257 32.7603 38.1419C32.5256 38.0748 31.5034 37.7564 30.4643 37.4213C29.4253 37.0861 28.5539 36.8179 28.5204 36.8179C28.4701 36.8179 28.3528 36.9185 28.2522 37.0526Z" fill="white"/>
<path d="M120.91 38.2591C120.307 38.3764 119.318 38.4769 118.698 38.4937C117.676 38.4937 117.559 38.5272 117.559 38.8288C117.559 39.0467 117.71 39.1975 117.994 39.2646C118.514 39.3986 120.492 39.2311 121.748 38.9462C122.486 38.7786 122.67 38.678 122.67 38.4099C122.67 37.9909 122.318 37.9574 120.91 38.2591Z" fill="white"/>
<path d="M38.9615 38.4269C38.4587 38.5442 37.5705 38.6615 37.0007 38.695C35.8109 38.7285 35.5092 38.8459 35.66 39.2313C35.8109 39.6 37.5538 39.6 39.1793 39.2313C40.453 38.9464 40.8049 38.7621 40.8049 38.3934C40.8049 38.1085 40.2016 38.1085 38.9615 38.4269Z" fill="white"/>
<path d="M75.4933 66.8493C73.365 73.3349 70.8847 80.8595 69.9798 83.5744L68.3374 88.5181L66.1756 88.6019L64.0137 88.6857V89.1047V89.5236L69.5943 89.5739L75.1582 89.6074V89.1047V88.6019H72.2254H69.2927L69.3932 88.1494C69.4603 87.8981 70.1641 85.7362 70.9685 83.3397L72.4098 78.9658H77.4876H82.5654L84.2245 83.7755L85.8668 88.6019H83.2693H80.6885V89.1047V89.6074H88.0622H95.436V89.1047V88.6187L93.2238 88.5684L91.0285 88.5181L90.2241 86.0881C80.722 57.1797 80.0014 55.0849 79.683 55.0849C79.4148 55.0849 78.8115 56.811 75.4933 66.8493ZM79.9176 70.9217C81.1745 74.7091 82.1967 77.8429 82.1967 77.9267C82.1967 77.9938 80.0852 78.044 77.5043 78.044C74.9235 78.044 72.812 77.9938 72.812 77.9435C72.812 77.5748 77.4206 63.8328 77.5211 63.9334C77.5714 64.0004 78.6607 67.151 79.9176 70.9217Z" fill="white"/>
<path d="M24.213 55.839V56.258H26.224H28.235V72.4299V88.6019H26.224H24.213V89.1047V89.6074H28.654H33.095V89.1047V88.6019H31.084H29.0729L29.0897 72.9662C29.0897 59.9448 29.14 57.4478 29.3076 57.9338C29.4416 58.2522 31.8884 65.274 34.7708 73.5192C37.6533 81.7644 40.1 88.7695 40.2341 89.0711C40.3849 89.4398 40.5525 89.6074 40.7369 89.5739C40.9547 89.5404 42.4462 85.401 46.5856 73.469C49.6524 64.6372 52.1997 57.364 52.2667 57.3137C52.317 57.2467 52.3673 64.2685 52.3673 72.8992V88.5852L50.3227 88.6354L48.2614 88.6857V89.1047V89.5236L54.7637 89.5739L61.2493 89.6074V89.1047V88.6019H59.2383H57.2273V72.4299V56.258H59.2383H61.2493V55.839V55.42H56.5904H51.9148L47.5073 68.19C45.0773 75.2286 43.0495 81.0773 42.9825 81.2114C42.8987 81.3622 42.7814 81.1946 42.6138 80.7086C42.463 80.3064 40.4855 74.7594 38.2063 68.4079C35.9272 62.0397 33.9497 56.5261 33.8156 56.1239L33.5642 55.42H28.8886H24.213V55.839Z" fill="white"/>
<path d="M98.286 59.861C98.286 64.1847 98.3028 64.3021 98.6212 64.3021C98.8726 64.3021 98.9564 64.1847 98.9564 63.8328C98.9731 62.8608 99.4424 60.7492 99.8446 59.8778C100.398 58.6544 101.621 57.3808 102.626 56.9618C103.95 56.392 105.341 56.258 110.503 56.258C114.877 56.258 115.396 56.2915 115.313 56.5261C115.262 56.6602 111.324 63.8831 106.582 72.5472C99.1072 86.1887 97.9341 88.4176 97.9844 88.9203L98.0347 89.5236L109.397 89.5739L120.742 89.6074V84.4961V79.3847H120.34C119.972 79.3847 119.938 79.4685 119.838 80.6416C119.687 82.2672 119.201 84.1609 118.648 85.267C118.028 86.4736 116.771 87.6467 115.598 88.1327C114.659 88.5014 114.458 88.5181 108.71 88.5684L102.794 88.6187L103.045 88.1327C103.18 87.8813 107.135 80.6919 111.844 72.1786C118.949 59.3248 120.407 56.5931 120.407 56.0569V55.42H109.347H98.286V59.861Z" fill="white"/>
<path d="M123.758 55.8392V56.2581H125.937H128.115V72.4301V88.5853L125.987 88.6356L123.842 88.6859V89.1048V89.5238L135.556 89.5741C143.298 89.5908 147.471 89.5573 147.907 89.44C149.013 89.1384 149.063 88.9037 149.063 83.9432C149.063 80.6585 149.013 79.5525 148.845 79.3179C148.51 78.8486 148.292 79.2508 147.823 81.2451C146.851 85.3677 145.862 87.1273 143.952 88.1664C143.315 88.5015 143.03 88.5183 138.137 88.5686L132.975 88.6188V80.3066V71.9776L135.724 72.0447C138.204 72.0949 138.522 72.1285 138.958 72.4469C139.746 73.0334 140.148 73.8043 140.516 75.4299C140.935 77.1895 141.086 77.5415 141.354 77.2733C141.472 77.156 141.505 75.2623 141.488 71.4916C141.438 66.816 141.405 65.8943 141.204 65.8943C141.036 65.8943 140.835 66.4641 140.533 67.6874C140.03 69.732 139.712 70.2683 138.673 70.7878C138.003 71.1397 137.701 71.1732 135.455 71.1732H132.975V63.6989V56.2414L137.466 56.2917C141.757 56.3419 141.974 56.3587 142.812 56.7441C143.298 56.962 144.019 57.4815 144.438 57.934C145.661 59.2412 146.265 60.6321 146.7 63.2129C146.935 64.5033 147.069 64.9055 147.27 64.939C147.538 64.9893 147.555 64.6039 147.555 60.5818C147.555 57.029 147.505 56.0905 147.32 55.8224C147.086 55.5208 146.734 55.504 135.422 55.4537L123.758 55.4202V55.8392Z" fill="white"/>
</svg>
