<svg width="139" height="117" viewBox="0 0 139 117" fill="none" xmlns="http://www.w3.org/2000/svg">
<path d="M76.3231 5.99261C74.8186 3.95937 73.154 2.03687 71.0703 0.575195C71.0703 0.575195 69.4362 7.33668 68.0626 10.7373C66.5883 14.3917 63.7976 18.0978 63.2775 22.0275C62.3897 28.731 65.3114 35.3468 70.3804 39.7047C68.4874 34.6665 68.1363 29.0022 69.6779 23.8238C70.436 21.2769 71.7663 18.9402 72.4692 16.3755C73.2236 13.6164 73.4327 10.5909 73.1454 7.74985C73.5818 10.4798 73.5586 13.2634 73.0768 15.9857C72.6033 18.6601 71.3799 21.1216 70.7686 23.7597C69.527 29.1195 70.258 34.6669 72.3845 39.7034C73.0895 38.6195 73.4817 37.269 73.9676 36.0754C74.6076 34.5055 75.2267 32.9269 75.8249 31.3396C76.9407 28.3827 77.9679 25.4079 78.7997 22.3587C80.2974 16.8676 79.4124 10.7839 76.3242 5.99159C74.7833 3.91137 79.5037 10.9283 76.3231 5.99261Z" fill="white"/>
<path d="M45.865 15.2274C43.349 14.9665 40.807 14.8983 38.3218 15.4507C38.3218 15.4507 42.21 21.2185 43.7937 24.5266C45.4958 28.0808 46.3495 32.64 48.8995 35.6755C53.2489 40.8529 60.1033 43.1597 66.7396 42.3577C61.7453 40.356 57.3273 36.7939 54.5449 32.1627C53.1765 29.8847 52.3505 27.3261 50.93 25.0772C49.4018 22.6582 47.3103 20.4635 45.0188 18.7591C47.3283 20.2793 49.3671 22.1752 51.051 24.3681C52.7061 26.5221 53.6973 29.0858 55.2341 31.3165C58.3543 35.849 62.9409 39.0517 68.0919 40.88C67.7672 39.6285 67.0334 38.4281 66.4804 37.264C65.7537 35.7325 65.0061 34.2106 64.2376 32.6983C62.8079 29.8799 61.3057 27.1153 59.6153 24.4436C56.5723 19.6334 51.4844 16.1824 45.8637 15.2292C43.2901 14.9604 51.6541 16.2094 45.865 15.2274Z" fill="white"/>
<path d="M103.051 22.0113C103.464 19.5158 103.687 16.9827 103.287 14.4697C103.287 14.4697 97.2927 18.0013 93.8945 19.3797C90.2432 20.8623 85.6405 21.4369 82.4558 23.798C77.0233 27.8247 74.304 34.5258 74.701 41.1989C77.0024 36.3338 80.8268 32.1408 85.6189 29.644C87.9758 28.4165 90.5799 27.7462 92.9108 26.4666C95.4186 25.0899 97.736 23.1338 99.5769 20.9507C97.9196 23.1635 95.9038 25.0834 93.613 26.6311C91.3623 28.1518 88.7442 28.9853 86.4232 30.3822C81.7094 33.2191 78.2337 37.6038 76.0952 42.6359C77.3638 42.388 78.6071 41.7286 79.8023 41.2486C81.3761 40.6168 82.9408 39.9633 84.4963 39.288C87.3967 38.0321 90.2473 36.701 93.0171 35.1763C98.0031 32.4312 101.757 27.5645 103.051 22.0099C103.472 19.4572 101.719 27.7297 103.051 22.0113Z" fill="white"/>
<path d="M69.787 60.9576C69.787 60.9576 68.1974 46.8384 58.1183 42.9259C58.1183 42.9259 54.8154 41.9956 49.8293 41.3236C44.8432 40.6516 42.1458 39.9178 40.4407 38.1661C38.7356 36.4143 35.9953 35.4008 37.6113 40.3234C37.6113 40.3234 38.5586 44.6303 44.8185 46.1132C48.7036 47.0976 56.1937 47.2416 52.0048 49.8948C52.0048 49.8948 47.1017 51.6506 42.1509 48.3889C37.2002 45.1271 33.7364 40.3447 30.7829 36.056C27.8294 31.7673 26.2957 31.1416 25.789 30.6448C25.2822 30.1479 22.0983 29.0562 24.4706 33.289C24.4706 33.289 27.792 38.0944 30.0557 43.4923C32.3193 48.8902 37.0311 58.0792 50.1656 60.3751C59.415 61.6859 63.4839 62.9302 65.7699 66.601C65.7699 66.601 69.0484 71.127 64.0791 78.063C64.0778 78.063 70.5451 74.3417 69.787 60.9576Z" fill="white"/>
<path d="M70.1045 61.2519C70.1045 61.2519 71.5309 47.1152 81.5644 43.0867C81.5644 43.0867 84.856 42.1185 89.8342 41.3892C94.8124 40.6599 97.5012 39.8929 99.1861 38.1236C100.871 36.3544 103.599 35.3069 102.04 40.2495C102.04 40.2495 101.142 44.5673 94.8998 46.1222C91.0253 47.1508 83.5383 47.3813 87.7577 49.9861C87.7577 49.9861 92.6794 51.6854 97.5934 48.3667C102.508 45.048 105.915 40.2244 108.82 35.9035C111.726 31.5826 113.25 30.938 113.751 30.4354C114.253 29.9327 117.423 28.8043 115.1 33.0642C115.1 33.0642 111.834 37.9073 109.633 43.3312C107.431 48.7552 102.826 57.9973 89.719 60.4444C80.4854 61.8615 76.4312 63.1531 74.1868 66.85C74.1868 66.85 70.9607 71.412 76.0095 78.2917C76.0102 78.2904 69.5004 74.6436 70.1045 61.2519Z" fill="white"/>
<path d="M3.0458 107.804V89.8693H5.21755V105.877H13.5543V107.804H3.0458ZM22.2763 108.084C20.9802 108.084 19.8623 107.798 18.9223 107.226C17.9882 106.648 17.2672 105.842 16.7593 104.809C16.2573 103.77 16.0062 102.561 16.0062 101.183C16.0062 99.8056 16.2573 98.5913 16.7593 97.5404C17.2672 96.4838 17.9737 95.6606 18.8785 95.071C19.7893 94.4755 20.8518 94.1777 22.0661 94.1777C22.7667 94.1777 23.4585 94.2945 24.1415 94.528C24.8246 94.7615 25.4463 95.141 26.0068 95.6664C26.5672 96.186 27.0138 96.8749 27.3466 97.7331C27.6794 98.5913 27.8458 99.648 27.8458 100.903V101.779H17.4774V99.9924H25.7441C25.7441 99.2335 25.5923 98.5563 25.2887 97.9608C24.991 97.3653 24.5648 96.8953 24.0102 96.5509C23.4614 96.2065 22.8134 96.0342 22.0661 96.0342C21.2429 96.0342 20.5307 96.2386 19.9294 96.6472C19.3339 97.0501 18.8756 97.5755 18.5545 98.2235C18.2334 98.8715 18.0729 99.5662 18.0729 100.308V101.499C18.0729 102.514 18.248 103.376 18.5983 104.082C18.9544 104.783 19.4478 105.317 20.0783 105.685C20.7088 106.046 21.4414 106.227 22.2763 106.227C22.8192 106.227 23.3096 106.152 23.7475 106C24.1912 105.842 24.5735 105.609 24.8946 105.299C25.2157 104.984 25.4638 104.593 25.639 104.126L27.6356 104.686C27.4254 105.363 27.0722 105.959 26.576 106.473C26.0798 106.981 25.4668 107.378 24.737 107.664C24.0073 107.944 23.187 108.084 22.2763 108.084ZM40.5172 97.3653L38.6607 97.8907C38.544 97.5813 38.3717 97.2807 38.1441 96.9888C37.9222 96.691 37.6186 96.4458 37.2333 96.2532C36.848 96.0605 36.3547 95.9642 35.7534 95.9642C34.9302 95.9642 34.2442 96.1539 33.6955 96.5334C33.1525 96.907 32.8811 97.3828 32.8811 97.9608C32.8811 98.4745 33.0679 98.8803 33.4415 99.178C33.8152 99.4758 34.399 99.7239 35.1929 99.9224L37.1895 100.413C38.3922 100.705 39.2883 101.151 39.8779 101.753C40.4676 102.348 40.7624 103.116 40.7624 104.056C40.7624 104.826 40.5406 105.515 40.0969 106.122C39.659 106.73 39.046 107.208 38.2579 107.559C37.4698 107.909 36.5532 108.084 35.5082 108.084C34.1362 108.084 33.0007 107.786 32.1017 107.191C31.2026 106.595 30.6334 105.725 30.3941 104.581L32.3556 104.091C32.5425 104.815 32.8957 105.358 33.4152 105.72C33.9407 106.081 34.6266 106.262 35.4732 106.262C36.4364 106.262 37.2012 106.058 37.7675 105.649C38.3396 105.235 38.6257 104.739 38.6257 104.161C38.6257 103.694 38.4622 103.303 38.1353 102.987C37.8084 102.666 37.3063 102.427 36.6291 102.269L34.3873 101.744C33.1555 101.452 32.2506 100.999 31.6726 100.386C31.1005 99.7677 30.8144 98.9941 30.8144 98.0659C30.8144 97.3069 31.0275 96.6356 31.4537 96.0518C31.8857 95.4679 32.4724 95.0097 33.2138 94.6769C33.9611 94.3441 34.8076 94.1777 35.7534 94.1777C37.0845 94.1777 38.1295 94.4696 38.8884 95.0534C39.6532 95.6373 40.1961 96.4079 40.5172 97.3653ZM60.8971 94.3529C60.792 93.4655 60.3658 92.7766 59.6185 92.2862C58.8713 91.7958 57.9547 91.5506 56.8688 91.5506C56.0748 91.5506 55.3801 91.6791 54.7846 91.9359C54.195 92.1928 53.7338 92.546 53.401 92.9955C53.0741 93.4451 52.9106 93.9559 52.9106 94.528C52.9106 95.0067 53.0245 95.4183 53.2522 95.7628C53.4857 96.1014 53.7834 96.3845 54.1454 96.6122C54.5073 96.834 54.8868 97.0179 55.2838 97.1639C55.6808 97.304 56.0456 97.4179 56.3784 97.5054L58.1999 97.9958C58.6669 98.1184 59.1865 98.2877 59.7586 98.5037C60.3366 98.7197 60.8883 99.0146 61.4137 99.3882C61.945 99.756 62.3828 100.229 62.7273 100.807C63.0717 101.385 63.2439 102.094 63.2439 102.935C63.2439 103.904 62.99 104.78 62.4821 105.562C61.98 106.344 61.2444 106.966 60.2753 107.427C59.312 107.888 58.1415 108.119 56.7637 108.119C55.4794 108.119 54.3672 107.912 53.4273 107.497C52.4932 107.083 51.7576 106.505 51.2205 105.763C50.6893 105.022 50.3886 104.161 50.3185 103.18H52.5603C52.6187 103.857 52.8464 104.418 53.2434 104.861C53.6462 105.299 54.1541 105.626 54.7671 105.842C55.386 106.052 56.0515 106.157 56.7637 106.157C57.5927 106.157 58.3371 106.023 58.9968 105.755C59.6565 105.48 60.179 105.101 60.5643 104.616C60.9496 104.126 61.1423 103.554 61.1423 102.9C61.1423 102.304 60.9759 101.82 60.6431 101.446C60.3103 101.072 59.8725 100.769 59.3295 100.535C58.7866 100.302 58.1999 100.098 57.5694 99.9224L55.3626 99.2919C53.9615 98.889 52.8522 98.314 52.0349 97.5667C51.2176 96.8195 50.8089 95.8416 50.8089 94.6331C50.8089 93.629 51.0804 92.7533 51.6233 92.006C52.1721 91.2529 52.9077 90.6691 53.8301 90.2546C54.7584 89.8342 55.7946 89.6241 56.9389 89.6241C58.0948 89.6241 59.1223 89.8313 60.0213 90.2458C60.9204 90.6545 61.6326 91.2149 62.1581 91.9272C62.6893 92.6394 62.9696 93.448 62.9987 94.3529H60.8971ZM70.4926 108.119C69.6402 108.119 68.8667 107.958 68.172 107.637C67.4772 107.31 66.9256 106.84 66.5169 106.227C66.1082 105.609 65.9039 104.861 65.9039 103.986C65.9039 103.215 66.0557 102.59 66.3593 102.112C66.6628 101.627 67.0686 101.248 67.5765 100.973C68.0844 100.699 68.6449 100.494 69.2578 100.36C69.8767 100.22 70.4984 100.109 71.1231 100.027C71.9404 99.9224 72.603 99.8436 73.1109 99.791C73.6247 99.7326 73.9983 99.6363 74.2319 99.502C74.4712 99.3678 74.5909 99.1342 74.5909 98.8015V98.7314C74.5909 97.8674 74.3545 97.196 73.8816 96.7173C73.4145 96.2386 72.7052 95.9992 71.7536 95.9992C70.767 95.9992 69.9934 96.2152 69.433 96.6472C68.8725 97.0792 68.4785 97.5404 68.2508 98.0308L66.2892 97.3303C66.6395 96.513 67.1065 95.8766 67.6903 95.4212C68.28 94.96 68.9222 94.6389 69.6169 94.458C70.3175 94.2712 71.0063 94.1777 71.6836 94.1777C72.1156 94.1777 72.6118 94.2303 73.1722 94.3354C73.7385 94.4346 74.2844 94.6419 74.8098 94.9571C75.3411 95.2724 75.7818 95.7482 76.1321 96.3845C76.4824 97.0209 76.6576 97.8732 76.6576 98.9416V107.804H74.5909V105.982H74.4858C74.3457 106.274 74.1122 106.586 73.7852 106.919C73.4583 107.252 73.0234 107.535 72.4804 107.769C71.9375 108.002 71.2749 108.119 70.4926 108.119ZM70.8078 106.262C71.6252 106.262 72.3141 106.102 72.8745 105.781C73.4408 105.46 73.867 105.045 74.153 104.537C74.4449 104.029 74.5909 103.495 74.5909 102.935V101.043C74.5033 101.148 74.3107 101.245 74.0129 101.332C73.721 101.414 73.3824 101.487 72.9971 101.551C72.6176 101.61 72.2469 101.662 71.885 101.709C71.5288 101.75 71.2399 101.785 71.018 101.814C70.4809 101.884 69.9788 101.998 69.5118 102.155C69.0506 102.307 68.677 102.538 68.3909 102.847C68.1107 103.151 67.9706 103.565 67.9706 104.091C67.9706 104.809 68.2362 105.352 68.7675 105.72C69.3046 106.081 69.9847 106.262 70.8078 106.262ZM82.4963 89.8693V107.804H80.4297V89.8693H82.4963ZM104.932 99.7122V107.804H102.865V94.3529H104.862V96.4546H105.037C105.352 95.7715 105.831 95.2228 106.473 94.8083C107.115 94.3879 107.944 94.1777 108.96 94.1777C109.871 94.1777 110.668 94.3646 111.351 94.7382C112.034 95.106 112.565 95.6664 112.945 96.4195C113.324 97.1668 113.514 98.1126 113.514 99.2568V107.804H111.447V99.3969C111.447 98.3403 111.173 97.5171 110.624 96.9275C110.075 96.332 109.322 96.0342 108.365 96.0342C107.705 96.0342 107.115 96.1773 106.596 96.4633C106.082 96.7494 105.676 97.1668 105.379 97.7156C105.081 98.2644 104.932 98.9299 104.932 99.7122ZM126.818 97.3653L124.962 97.8907C124.845 97.5813 124.673 97.2807 124.445 96.9888C124.223 96.691 123.919 96.4458 123.534 96.2532C123.149 96.0605 122.656 95.9642 122.054 95.9642C121.231 95.9642 120.545 96.1539 119.996 96.5334C119.453 96.907 119.182 97.3828 119.182 97.9608C119.182 98.4745 119.369 98.8803 119.742 99.178C120.116 99.4758 120.7 99.7239 121.494 99.9224L123.49 100.413C124.693 100.705 125.589 101.151 126.179 101.753C126.768 102.348 127.063 103.116 127.063 104.056C127.063 104.826 126.841 105.515 126.398 106.122C125.96 106.73 125.347 107.208 124.559 107.559C123.771 107.909 122.854 108.084 121.809 108.084C120.437 108.084 119.302 107.786 118.402 107.191C117.503 106.595 116.934 105.725 116.695 104.581L118.656 104.091C118.843 104.815 119.196 105.358 119.716 105.72C120.241 106.081 120.927 106.262 121.774 106.262C122.737 106.262 123.502 106.058 124.068 105.649C124.64 105.235 124.926 104.739 124.926 104.161C124.926 103.694 124.763 103.303 124.436 102.987C124.109 102.666 123.607 102.427 122.93 102.269L120.688 101.744C119.456 101.452 118.551 100.999 117.973 100.386C117.401 99.7677 117.115 98.9941 117.115 98.0659C117.115 97.3069 117.328 96.6356 117.754 96.0518C118.186 95.4679 118.773 95.0097 119.515 94.6769C120.262 94.3441 121.108 94.1777 122.054 94.1777C123.385 94.1777 124.43 94.4696 125.189 95.0534C125.954 95.6373 126.497 96.4079 126.818 97.3653Z" fill="white"/>
<path d="M94.7156 106.656C92.6514 104.424 89.3253 99.8702 91.6194 98.0839C94.7156 95.6731 96.7797 100.227 94.9736 101.566C94.7156 101.745 94.1479 102.049 93.9415 101.834" stroke="white" stroke-linecap="round"/>
<path d="M92.4037 107.001C89.6349 105.903 86.1681 97.9795 90.4656 95.7538C96.0003 92.8872 99.6023 98.7712 97.3874 102.337C96.8432 103.213 95.7824 103.764 95.4493 103.435" stroke="white" stroke-linecap="round"/>
<path d="M90.1788 106.313C86.3971 104.813 83.5186 96.99 89.3884 93.947C96.9482 90.0278 101.934 98.3775 99.474 103.303C98.9272 104.398 97.1951 106.217 96.7401 105.766" stroke="white" stroke-linecap="round"/>
</svg>
