<svg width="78" height="123" viewBox="0 0 78 123" fill="none" xmlns="http://www.w3.org/2000/svg">
<path d="M9.78359 98.9154C9.94966 98.9154 10.0327 99.0014 10.0327 99.1736V110.326C10.0327 110.492 9.94966 110.575 9.78359 110.575H7.6192C7.46464 110.575 7.38767 110.492 7.38767 110.326V105.89H2.86311V110.326C2.86311 110.492 2.7831 110.575 2.62249 110.575H0.449005C0.30051 110.575 0.226562 110.492 0.226562 110.326V99.1736C0.226562 99.0014 0.30051 98.9154 0.449005 98.9154H2.62249C2.7831 98.9154 2.86311 99.0014 2.86311 99.1736V103.244H7.38767V99.1736C7.38767 99.0014 7.46464 98.9154 7.6192 98.9154H9.78359Z" fill="white"/>
<path d="M13.8314 102.468C14.2593 102.189 14.7357 101.984 15.2612 101.853C15.7867 101.723 16.3643 101.657 16.9934 101.657C18.0984 101.657 18.9711 101.921 19.6124 102.45C20.2834 102.997 20.6191 103.742 20.6191 104.686V109.14C20.6191 109.597 20.4943 109.95 20.2446 110.2C20.0009 110.449 19.6864 110.574 19.3003 110.574H16.5746C16.034 110.574 15.5545 110.52 15.1363 110.413C14.7175 110.306 14.3478 110.149 14.0272 109.941C13.3029 109.442 12.9404 108.694 12.9404 107.696C12.9404 106.764 13.2968 106.034 14.009 105.505C14.6563 105.024 15.4873 104.784 16.5031 104.784C16.9068 104.784 17.2632 104.807 17.5723 104.851C17.8808 104.895 18.1335 104.971 18.3293 105.078V104.677C18.3293 104.363 18.2196 104.119 17.9996 103.947C17.7383 103.722 17.4026 103.609 16.9928 103.609C16.5298 103.609 16.1122 103.651 15.7412 103.734C15.3697 103.817 15.0327 103.936 14.7303 104.09C14.5933 104.173 14.4866 104.141 14.4096 103.992L13.7769 102.789C13.7296 102.706 13.7114 102.641 13.7235 102.594C13.735 102.546 13.7708 102.505 13.8302 102.469L13.8314 102.468ZM18.3299 108.667V106.85C17.908 106.636 17.371 106.53 16.7177 106.53C15.8031 106.53 15.3461 106.895 15.3461 107.626C15.3461 108.356 15.8418 108.695 16.8334 108.695H18.3299V108.668V108.667Z" fill="white"/>
<path d="M30.6963 101.845V101.854C30.9454 101.854 30.9902 101.958 30.8296 102.165L28.7634 104.633L31.2484 110.297C31.2902 110.38 31.2933 110.447 31.2575 110.498C31.2217 110.549 31.1472 110.574 31.0345 110.574H28.9767C28.8404 110.574 28.7452 110.514 28.6919 110.395L27.0796 106.556L25.9396 107.946V110.325C25.9396 110.491 25.8596 110.574 25.6989 110.574H23.7661C23.7006 110.574 23.6461 110.554 23.6012 110.516C23.5564 110.478 23.5345 110.414 23.5345 110.325V99.4396C23.5345 99.3862 23.5461 99.3359 23.5703 99.288C23.5939 99.2408 23.6236 99.202 23.6594 99.1723L25.6904 98.2462C25.8565 98.1746 25.9402 98.2431 25.9402 98.451L25.9044 104.953L28.1761 102.005C28.2591 101.904 28.3779 101.853 28.5325 101.853H30.6975V101.844L30.6963 101.845Z" fill="white"/>
<path d="M36.1871 106.976V106.994C36.2586 108.039 36.8696 108.561 38.0224 108.561C38.6103 108.561 39.0855 108.398 39.4473 108.072L39.7328 108.063L41.0687 109.203C41.1875 109.304 41.1935 109.402 41.0862 109.497C40.2904 110.334 39.2692 110.753 38.0224 110.753C36.7756 110.753 35.6944 110.343 34.9222 109.523C34.5482 109.108 34.2646 108.625 34.0718 108.076C33.8791 107.527 33.7821 106.911 33.7821 106.228C33.7821 105.545 33.8785 104.956 34.0718 104.407C34.2652 103.858 34.5488 103.369 34.9222 102.942C35.6883 102.086 36.6417 101.659 37.7818 101.659C38.9219 101.659 39.9043 102.134 40.5874 103.084C40.9378 103.553 41.1899 104.081 41.3444 104.665C41.499 105.25 41.5614 105.902 41.5317 106.621C41.5196 106.87 41.4038 106.995 41.1838 106.995H36.1871V106.977V106.976ZM39.2601 105.328C39.1413 104.224 38.6097 103.671 37.6654 103.671C37.4521 103.671 37.2617 103.713 37.0951 103.796C36.929 103.879 36.7775 104.001 36.6411 104.161C36.5162 104.316 36.418 104.49 36.3471 104.682C36.2756 104.875 36.2338 105.091 36.2223 105.328H39.2601Z" fill="white"/>
<path d="M46.2821 106.976V106.994C46.3536 108.039 46.9652 108.561 48.1174 108.561C48.7053 108.561 49.1805 108.398 49.5429 108.072L49.8278 108.063L51.1642 109.203C51.283 109.304 51.2885 109.402 51.1818 109.497C50.386 110.334 49.3647 110.753 48.1174 110.753C46.87 110.753 45.7893 110.343 45.0178 109.523C44.6432 109.108 44.3601 108.625 44.1674 108.076C43.9741 107.527 43.8777 106.911 43.8777 106.228C43.8777 105.545 43.9741 104.956 44.1674 104.407C44.3601 103.858 44.6438 103.369 45.0178 102.942C45.7839 102.086 46.7367 101.659 47.8767 101.659C49.0168 101.659 49.9993 102.134 50.683 103.084C51.0333 103.553 51.2855 104.081 51.44 104.665C51.5946 105.25 51.657 105.902 51.6267 106.621C51.6152 106.87 51.4988 106.995 51.2794 106.995H46.2821V106.977V106.976ZM49.355 105.328C49.2362 104.224 48.7047 103.671 47.761 103.671C47.547 103.671 47.3567 103.713 47.1906 103.796C47.024 103.879 46.873 104.001 46.7361 104.161C46.6118 104.316 46.513 104.49 46.4421 104.682C46.3712 104.875 46.3294 105.091 46.3179 105.328H49.355Z" fill="white"/>
<path d="M56.3771 106.975V106.993C56.4486 108.038 57.0596 108.56 58.2124 108.56C58.8003 108.56 59.2755 108.397 59.6374 108.071L59.9228 108.062L61.2587 109.202C61.3775 109.303 61.3835 109.401 61.2762 109.496C60.4804 110.333 59.4592 110.752 58.2124 110.752C56.9657 110.752 55.8844 110.342 55.1122 109.522C54.7382 109.107 54.4546 108.624 54.2618 108.075C54.0691 107.526 53.9721 106.91 53.9721 106.227C53.9721 105.544 54.0685 104.955 54.2618 104.406C54.4552 103.857 54.7388 103.368 55.1122 102.941C55.8783 102.086 56.8317 101.658 57.9718 101.658C59.1119 101.658 60.0943 102.133 60.7774 103.083C61.1278 103.552 61.3799 104.08 61.5344 104.664C61.689 105.249 61.7514 105.901 61.7217 106.62C61.7096 106.869 61.5938 106.994 61.3738 106.994H56.3771V106.976V106.975ZM59.4501 105.327C59.3313 104.223 58.7997 103.67 57.8554 103.67C57.6421 103.67 57.4517 103.712 57.2851 103.795C57.119 103.878 56.9675 104 56.8311 104.16C56.7062 104.315 56.6081 104.489 56.5371 104.681C56.4656 104.874 56.4238 105.09 56.4123 105.327H59.4501Z" fill="white"/>
<path d="M64.4598 110.324V103.368C64.4598 102.364 64.9083 101.862 65.8048 101.862H73.6253C74.1654 101.862 74.6527 101.923 75.086 102.045C75.5194 102.167 75.8964 102.343 76.217 102.574C76.6092 102.878 76.9043 103.259 77.1031 103.719C77.3025 104.179 77.4013 104.724 77.4013 105.353V110.341C77.4013 110.496 77.3183 110.573 77.1522 110.573H75.2551C75.0945 110.573 75.0145 110.496 75.0145 110.341V105.612C75.0145 104.983 74.869 104.54 74.5781 104.284C74.3526 104.07 73.9605 103.958 73.4023 103.946H72.1288V110.342C72.1288 110.496 72.0422 110.573 71.87 110.573H69.9729C69.8123 110.573 69.7323 110.496 69.7323 110.342V103.946H66.8642V110.342C66.8642 110.496 66.7812 110.573 66.6151 110.573H64.6998C64.5392 110.573 64.4592 110.496 64.4592 110.342V110.324H64.4598Z" fill="white"/>
<path d="M43.9915 57.904C44.0182 60.8309 42.9684 63.9232 41.7035 67.0398C40.2343 70.6613 39.1991 72.7608 38.4717 76.5835C38.3863 77.0448 38.2529 77.7484 38.1554 78.6267C38.1141 79.0049 38.096 79.4189 38.1081 79.8656C37.091 80.8705 35.7606 81.8996 34.0605 82.6651C31.1809 83.9628 28.2626 84.0428 25.6993 83.6052C25.2648 83.5313 24.8417 83.4428 24.4308 83.3422C24.1501 83.2476 23.881 83.1264 23.6204 82.9755C23.1919 82.727 22.8131 82.4197 22.4791 82.053C22.6179 77.7278 23.378 72.2523 25.8527 66.5107C26.0806 65.9816 26.3109 65.4791 26.5443 64.9997C26.9964 65.0233 27.4728 65.0264 27.9722 64.9997C27.9722 64.9997 32.1646 64.7694 35.6709 61.9813C36.9838 60.9376 37.9711 59.7078 38.713 58.4126C39.4021 57.2179 39.8779 55.9706 40.2088 54.7614V54.7584C40.6464 53.1498 40.821 51.6127 40.8768 50.3623C42.4587 52.8485 43.6854 54.2117 43.9424 56.9731C43.957 57.121 43.9661 57.2719 43.9752 57.4198C43.9752 57.4434 43.9782 57.4701 43.9782 57.4937C43.9842 57.6089 43.9873 57.724 43.9873 57.8428C43.9903 57.8634 43.9903 57.884 43.9903 57.9046L43.9915 57.904Z" fill="white"/>
<path d="M42.3276 26.9001C42.1949 27.1068 42.0548 27.3201 41.9148 27.5413C41.856 27.6298 41.7894 27.7183 41.7306 27.8141C34.5792 38.5191 38.1697 33.6751 25.0761 50.7205C24.9731 50.8532 24.8621 50.9933 24.7591 51.126C24.6561 51.266 24.5452 51.406 24.4348 51.546C24.2136 51.826 23.9924 52.1212 23.7639 52.4231C22.3777 54.2292 19.6721 57.9968 20.6455 61.4249C21.3092 63.7917 23.2257 64.4772 24.8106 64.7572C25.4889 64.8754 26.1083 64.9197 26.5435 65.0003C26.315 65.4797 26.0792 65.981 25.8507 66.5119C23.3808 72.2553 22.6214 77.7254 22.4814 82.053C22.0244 81.5517 21.6559 80.9468 21.3831 80.2613C21.3831 80.2541 21.3758 80.2541 21.3758 80.2468C21.2728 79.9298 21.1692 79.6201 21.0734 79.3104C20.4909 77.4818 20.0339 75.7938 19.6581 74.0318C17.5865 64.2778 18.729 57.2004 20.4176 52.2388C23.4627 43.3109 32.5087 28.8529 33.327 27.5559C33.9464 26.5825 34.5731 25.6024 35.1774 24.6145C37.463 20.8984 39.4832 16.9618 39.6674 11.7124C39.822 7.28902 38.6207 3.58816 37.5145 1.08132C37.5661 1.05889 37.6248 1.03707 37.6842 1.01465C38.0897 1.33891 38.554 1.73712 39.0407 2.19412C39.0552 2.20867 39.0704 2.22382 39.0849 2.24564C39.1219 2.28989 39.1734 2.34868 39.2395 2.4299C39.2468 2.43717 39.254 2.44444 39.2619 2.4596C39.6304 2.9166 40.3826 3.93424 41.2596 5.36465C41.3112 5.44586 41.3554 5.52708 41.4069 5.61557C42.8004 8.06301 44.3708 11.7348 44.872 16.3866C44.7981 18.6353 45.6315 20.6924 42.3282 26.9001H42.3276Z" fill="white"/>
<path d="M50.6495 96.2436C48.5742 95.5636 42.5781 93.284 39.9676 87.4449C38.7584 84.7338 38.1493 81.9633 38.1081 79.8643C38.0959 79.4176 38.1141 79.0043 38.1553 78.6255C38.2529 77.7472 38.3857 77.0435 38.4717 76.5823C39.1991 72.7596 40.2337 70.6607 41.7035 67.0386C42.969 63.9226 44.0182 60.8297 43.9915 57.9028C43.9915 57.8822 43.9915 57.8616 43.9885 57.841C43.9885 57.7228 43.9854 57.6076 43.9794 57.4919C43.9794 57.4682 43.9764 57.4416 43.9764 57.4179C43.9673 57.27 43.9588 57.1191 43.9436 56.9712C43.6866 54.2098 42.4593 52.8467 40.878 50.3605V50.3574C40.9252 50.3217 40.9725 50.2896 41.0228 50.2599H41.0258C41.0465 50.2453 41.0671 50.2302 41.0877 50.2217C41.4871 50.6623 42.912 52.4303 43.8224 54.3935C44.1739 55.1475 44.4491 55.9312 44.5612 56.6791C44.5758 56.7767 44.5879 56.8743 44.597 56.9718C44.6328 57.3531 44.6473 57.7374 44.6443 58.1247C44.6443 58.1422 44.6443 58.1604 44.6412 58.178C44.6412 58.3404 44.6352 58.5004 44.6267 58.6629C44.6176 58.8405 44.6061 59.0144 44.5885 59.192C44.5885 59.2065 44.5885 59.2187 44.5855 59.2302C44.5709 59.4047 44.5497 59.5763 44.5291 59.7502C44.5055 59.9308 44.4788 60.1139 44.4491 60.2969C44.4224 60.4539 44.3958 60.6133 44.3661 60.7697C44.357 60.8109 44.3515 60.8497 44.3424 60.8879C44.2715 61.2424 44.1915 61.5976 44.1 61.9552C44.0824 62.0292 44.0642 62.1031 44.0436 62.174C43.9697 62.4577 43.8897 62.7419 43.8042 63.0256C43.4078 64.3499 42.9023 65.6924 42.3556 67.0374C40.8864 70.6589 39.8512 72.7584 39.1239 76.5811C39.0384 77.0423 38.9051 77.746 38.8075 78.6242C38.7663 79.0025 38.7481 79.4164 38.7602 79.8631C38.8014 81.9621 39.4106 84.7325 40.6198 87.4436C40.9507 88.1825 41.3265 88.8656 41.7374 89.4953C41.8411 89.6523 41.9441 89.8087 42.0508 89.9596C42.355 90.3911 42.6744 90.799 43.006 91.1778C43.0708 91.2548 43.1393 91.3318 43.2072 91.4027C43.2248 91.4233 43.243 91.4439 43.2605 91.4621C43.4054 91.6215 43.5533 91.7785 43.7012 91.9264C43.763 91.9912 43.8285 92.0567 43.8933 92.1155C43.9024 92.1246 43.9109 92.1331 43.92 92.1422C43.9848 92.207 44.0527 92.2725 44.1212 92.3343C44.2043 92.4143 44.2867 92.4913 44.3727 92.5646C44.3903 92.5822 44.4085 92.5973 44.4261 92.6119C44.5061 92.6889 44.5885 92.7598 44.6716 92.8277C44.6861 92.8422 44.7043 92.8543 44.7188 92.8689C44.8576 92.9901 44.9995 93.1052 45.1419 93.218C45.2013 93.2653 45.2601 93.3125 45.3225 93.3598C45.3819 93.4071 45.4407 93.4513 45.5001 93.4956C45.6243 93.5901 45.7456 93.6817 45.8698 93.7677C45.9316 93.815 45.991 93.8562 46.0504 93.895C46.1123 93.9392 46.1717 93.9805 46.2311 94.0192C46.3462 94.1023 46.4614 94.1787 46.5771 94.2496C46.5832 94.2526 46.5893 94.2587 46.5917 94.2617C46.6038 94.2678 46.6123 94.2762 46.6244 94.2823C46.7311 94.3502 46.8402 94.415 46.9438 94.4805C47.0354 94.5369 47.1214 94.5896 47.2099 94.6429C47.2275 94.6551 47.2481 94.6635 47.2663 94.6757C47.3135 94.7023 47.3608 94.732 47.4051 94.7557C47.5202 94.8235 47.6354 94.889 47.7512 94.9508C47.8487 95.0072 47.9494 95.0575 48.0469 95.1102C48.1324 95.1545 48.2154 95.1957 48.2985 95.2375C48.4051 95.2939 48.5112 95.3466 48.6149 95.3945C48.7185 95.4478 48.8191 95.4951 48.9191 95.5394C49.6167 95.8648 50.2168 96.0921 50.6514 96.243L50.6495 96.2436Z" fill="white"/>
<path d="M48.574 86.2362C48.1394 90.1565 49.9371 93.9586 51.0426 96.2084C51.0784 96.2763 51.1075 96.3418 51.1402 96.4036C51.0754 96.383 51.0014 96.3593 50.9154 96.3327C50.862 96.3151 50.8063 96.2969 50.7438 96.2763C50.7141 96.2642 50.682 96.2557 50.6493 96.2436C50.2147 96.0927 49.6147 95.8654 48.917 95.5399C48.8164 95.4956 48.7158 95.4484 48.6128 95.395C48.5091 95.3478 48.4031 95.2944 48.2964 95.2381C48.2134 95.1968 48.1309 95.155 48.0449 95.1108C47.9473 95.0574 47.8467 95.0071 47.7491 94.9514C47.6339 94.8895 47.5188 94.8241 47.403 94.7562C47.3587 94.7326 47.3115 94.7029 47.2642 94.6762C47.2466 94.6641 47.226 94.6556 47.2078 94.6435C47.1193 94.5901 47.0333 94.5368 46.9417 94.481C46.8381 94.4162 46.729 94.3507 46.6223 94.2828C46.6102 94.2768 46.6017 94.2683 46.5896 94.2622C46.5866 94.2592 46.5805 94.2531 46.5751 94.2501C46.4629 94.1762 46.3472 94.0992 46.229 94.0198C46.1696 93.9816 46.1108 93.9398 46.0484 93.8955C45.989 93.8543 45.9302 93.8101 45.8677 93.7683C45.7435 93.6828 45.6223 93.5907 45.498 93.4961C45.4386 93.4519 45.3798 93.4076 45.3204 93.3604C45.2586 93.3131 45.1992 93.2658 45.1398 93.2185C44.998 93.1064 44.8562 92.9906 44.7167 92.8694C44.7022 92.8549 44.684 92.8427 44.6695 92.8282C44.5864 92.7603 44.507 92.6864 44.424 92.6124C44.4064 92.5979 44.3882 92.5827 44.3707 92.5651C44.2852 92.4912 44.2022 92.4142 44.1191 92.3348C44.0512 92.273 43.9834 92.2075 43.9179 92.1427C43.9088 92.1336 43.9003 92.1251 43.8912 92.116C43.8264 92.0542 43.764 91.9918 43.6991 91.9269C43.5512 91.779 43.4033 91.6227 43.2585 91.4626C43.2409 91.4451 43.2227 91.4245 43.2051 91.4033C43.1372 91.3323 43.0694 91.2554 43.0039 91.1784C42.673 90.8002 42.3536 90.3917 42.0487 89.9601C41.942 89.8092 41.839 89.6528 41.7353 89.4958C41.3244 88.8661 40.9486 88.183 40.6177 87.4442C39.4085 84.7331 38.7994 81.9626 38.7582 79.8637C38.746 79.417 38.7642 79.0036 38.8054 78.6248C38.903 77.7465 39.0357 77.0429 39.1218 76.5816C39.8491 72.7589 40.8838 70.66 42.3536 67.0379C42.9003 65.693 43.4064 64.3505 43.8021 63.0261C43.8876 62.7425 43.9676 62.4582 44.0416 62.1746C44.0622 62.1036 44.0797 62.0297 44.0979 61.9558C44.1894 61.5982 44.2694 61.243 44.3404 60.8884C44.3495 60.8502 44.3549 60.8114 44.364 60.7702C44.3937 60.6132 44.4204 60.4538 44.447 60.2975C44.4767 60.1144 44.5034 59.9308 44.527 59.7508C44.5476 59.5762 44.5682 59.4047 44.5834 59.2307C44.5864 59.2186 44.5864 59.2071 44.5864 59.1925C44.604 59.0149 44.6161 58.841 44.6246 58.6634C44.6337 58.501 44.6392 58.341 44.6392 58.1785C44.6422 58.1609 44.6422 58.1428 44.6422 58.1252C44.6452 57.7379 44.6301 57.3536 44.5949 56.9724C44.5858 56.8748 44.5743 56.7772 44.5592 56.6796C44.444 55.8165 44.181 55.0801 43.8203 54.394C42.91 52.4309 41.4844 50.6629 41.0856 50.2222L41.0826 50.2192L41.1268 50.1956L41.1414 50.1865L41.4668 50.018L43.3439 49.0336C43.8882 48.7882 44.5561 48.5694 45.3041 48.413C45.635 48.3451 45.9811 48.2888 46.3387 48.2475C47.483 48.1142 48.7425 48.1324 49.9783 48.3924C55.9769 49.661 57.9698 56.2299 58.1322 56.6972C59.5899 60.8569 59.779 65.4663 55.7908 71.9437C50.7263 80.1685 49.0825 81.5935 48.571 86.2356L48.574 86.2362Z" fill="white"/>
<path d="M52.296 22.0044C52.296 24.0979 52.0451 25.7423 51.8978 26.6563C51.448 29.3692 50.4456 32.6646 42.8371 43.1853C42.6602 43.4284 42.4832 43.672 42.3062 43.9078C36.4525 51.9362 32.8249 55.7553 30.1345 59.2646C29.412 60.2156 28.7556 61.1296 28.144 62.1103C27.584 63.0097 27.053 63.9534 26.5439 65.0002C26.1087 64.9189 25.4899 64.8747 24.8111 64.7571C23.2261 64.4771 21.309 63.7916 20.6459 61.4248C19.6725 57.9966 22.3782 54.2291 23.7643 52.4229C23.9928 52.1205 24.214 51.8259 24.4353 51.5459C24.5456 51.4059 24.6565 51.2659 24.7595 51.1259C24.8626 50.9931 24.9735 50.8531 25.0765 50.7204C38.1702 33.6749 34.5796 38.5189 41.731 27.8139C41.7898 27.7182 41.8565 27.6297 41.9153 27.5412C42.0626 27.3272 42.2104 27.1212 42.328 26.8999C45.6307 20.6922 44.7979 18.6351 44.8718 16.3865C44.3706 11.7346 42.8002 8.06288 41.4067 5.61544C41.3552 5.52695 41.311 5.44573 41.2595 5.36451C40.4115 3.90501 39.6448 2.90919 39.2617 2.45946C39.2545 2.44491 39.2472 2.43704 39.2393 2.42976C39.1733 2.34854 39.1211 2.28975 39.0848 2.2455C39.0702 2.22308 39.0551 2.20853 39.0405 2.19399C38.5538 1.73699 38.0895 1.33878 37.6841 1.01451C37.7138 0.999966 37.7429 0.984812 37.7726 0.977539C38.5538 1.27271 39.6527 1.74426 40.9061 2.44491C41.0243 2.51159 41.1419 2.58492 41.2673 2.65159C41.3928 2.72554 41.5183 2.79888 41.6431 2.8801C41.7686 2.95404 41.9013 3.03465 42.0268 3.11587C42.1595 3.19709 42.2923 3.28558 42.4177 3.37407C42.5505 3.45529 42.6832 3.55105 42.8159 3.63954C42.9487 3.7353 43.0814 3.8238 43.2141 3.91956C43.2954 3.97836 43.3839 4.03775 43.4651 4.10382C43.5463 4.16261 43.6275 4.22928 43.716 4.29534C43.819 4.36929 43.9227 4.4499 44.0257 4.53839C44.2766 4.73719 44.5342 4.94388 44.7852 5.17238C45.6186 5.88758 46.4513 6.72036 47.2405 7.66406C47.3435 7.78225 47.4472 7.91499 47.5429 8.03985C47.5799 8.08409 47.6096 8.12107 47.646 8.15804C47.889 8.47503 48.1327 8.79929 48.3684 9.13871C48.4866 9.30842 48.6115 9.4854 48.7297 9.66966C51.3541 13.673 52.1505 17.7866 52.2833 21.0456C52.2978 21.3771 52.2978 21.6941 52.2978 22.0038L52.296 22.0044Z" fill="white"/>
<path d="M44.3409 120.814C44.1221 120.814 43.9372 120.895 43.7857 121.057C43.6299 121.214 43.5524 121.406 43.5524 121.633C43.5524 121.859 43.6299 122.052 43.7857 122.208C43.9372 122.365 44.1221 122.444 44.3409 122.444C44.5597 122.444 44.7446 122.365 44.8955 122.208C45.047 122.052 45.1228 121.859 45.1228 121.633C45.1228 121.406 45.047 121.214 44.8955 121.057C44.7446 120.896 44.5591 120.814 44.3409 120.814Z" fill="white"/>
<path d="M46.1395 120.828C45.925 120.828 45.7419 120.909 45.5904 121.071C45.4346 121.228 45.3571 121.42 45.3571 121.646C45.3571 121.873 45.4346 122.065 45.5904 122.222C45.7419 122.379 45.925 122.458 46.1395 122.458C46.3541 122.458 46.5456 122.379 46.7014 122.222C46.8529 122.065 46.9287 121.873 46.9287 121.646C46.9287 121.42 46.8529 121.228 46.7014 121.071C46.5456 120.909 46.3583 120.828 46.1395 120.828Z" fill="white"/>
<path d="M76.5688 118.623C76.6021 118.44 76.6191 118.256 76.6191 118.073C76.6191 117.283 76.35 116.609 75.8118 116.051C75.2778 115.493 74.6299 115.213 73.8686 115.213C73.1073 115.213 72.457 115.493 71.9188 116.051C71.8685 116.108 71.8139 116.173 71.7551 116.247L73.0485 117.196C73.2758 116.964 73.5492 116.849 73.8686 116.849C74.188 116.849 74.4741 116.967 74.7014 117.203C74.9329 117.443 75.0487 117.733 75.0487 118.073C75.0487 118.269 75.0063 118.452 74.9226 118.623H59.824C59.8367 118.483 59.8428 118.346 59.8428 118.21C59.8428 116.853 59.1888 116.175 57.8808 116.175H55.5589L56.4801 115.22L55.3698 114.068L53.3381 116.175V117.805H57.8808C58.1415 117.805 58.2718 117.94 58.2718 118.21C58.2718 118.481 58.1415 118.623 57.8808 118.623H47.9686V118.616H47.3759C46.8546 118.616 46.5916 118.215 46.5873 117.412V115.357H45.0163V117.399C45.0163 118.21 44.7551 118.616 44.2338 118.616H42.9719V118.623H8.90776C8.12103 118.623 7.72768 118.35 7.72768 117.804V117.739C7.72768 117.647 7.72343 117.558 7.71495 117.47L7.70889 117.438L7.70282 117.405C7.69434 117.326 7.68585 117.261 7.67797 117.209V117.195C7.581 116.724 7.36038 116.31 7.01551 115.952C6.54032 115.464 5.96816 115.219 5.29963 115.219C4.6311 115.219 4.05893 115.464 3.58375 115.952C3.28918 116.262 3.08493 116.609 2.97159 116.993H2.8831C1.3145 116.993 0.529602 117.944 0.529602 119.846V122.502H2.10062V119.846C2.10062 119.03 2.36124 118.622 2.8831 118.622H3.0219C3.14372 118.954 3.331 119.252 3.58375 119.518C4.05893 120.007 4.6311 120.251 5.29963 120.251C5.90088 120.251 6.42273 120.055 6.86458 119.662C7.3228 120.055 8.00406 120.251 8.90897 120.251H44.235C44.8957 120.251 45.4188 120.079 45.8067 119.734C46.1891 120.078 46.7128 120.251 47.3777 120.251H77.1076V118.622H76.5712L76.5688 118.623ZM5.9033 118.361C5.73481 118.535 5.53298 118.623 5.29781 118.623C5.06264 118.623 4.8602 118.535 4.69231 118.361C4.52442 118.186 4.44017 117.979 4.44017 117.74C4.44017 117.5 4.52442 117.286 4.69231 117.111C4.8602 116.936 5.06264 116.849 5.29781 116.849C5.53298 116.849 5.73541 116.936 5.9033 117.111C6.0712 117.286 6.15545 117.495 6.15545 117.74C6.15545 117.984 6.0712 118.187 5.9033 118.361Z" fill="white"/>
</svg>
