<svg width="124" height="81" viewBox="0 0 124 81" fill="none" xmlns="http://www.w3.org/2000/svg">
<path d="M120.474 14.1554H111.948V52.3393H106.155V40.6208C102.688 42.8372 98.8692 43.9454 94.6997 43.9454C87.8749 43.9454 81.884 39.6881 76.727 31.1736C77.3414 30.23 78.1534 29.0449 79.1628 27.6185C80.3698 28.0794 81.5439 28.3098 82.685 28.3098C84.9233 28.3098 86.7118 27.6844 88.0505 26.4335C89.3891 25.1607 90.0584 23.449 90.0584 21.2984C90.0584 19.9159 89.5208 18.4127 88.4455 16.7888C87.2824 15.0332 86.0645 14.1554 84.7917 14.1554H73.929V8.88867H120.474V14.1554ZM106.155 33.9386V14.1554H93.0539C95.007 16.1524 95.9835 18.5553 95.9835 21.3643C95.9835 24.5463 94.8534 27.2894 92.593 29.5936C90.3327 31.8758 87.5896 33.0169 84.3638 33.0169C85.2415 34.3995 86.7228 35.6064 88.8076 36.6378C90.8923 37.6473 92.8783 38.152 94.7656 38.152C98.8254 38.152 102.622 36.7475 106.155 33.9386Z" fill="white"/>
<path fill-rule="evenodd" clip-rule="evenodd" d="M40.2561 43.1814C43.2861 41.8382 45.727 40.3137 47.5787 38.6079V46.8089C42.4995 50.5913 37.1682 52.4825 31.5847 52.4825C25.9007 52.4825 21.1856 51.0293 17.4393 48.1227C13.693 45.2161 11.8199 41.5021 11.8199 36.9807C11.8199 33.0083 13.58 29.0037 17.1002 24.9667H3.00317V17.2158H35.0242V24.9667H27.0311C22.2513 28.8745 19.8614 32.5723 19.8614 36.0603C19.8614 42.2287 23.8338 45.3129 31.7785 45.3129C34.1684 45.3129 36.9942 44.6024 40.2561 43.1814ZM47.7648 61.9774V61.9227H56.2908V61.9774H47.7648Z" fill="white"/>
<g filter="url(#filter0_i_134_1043)">
<path d="M66.2224 49.8546C61.4091 51.7729 54.8285 50.6539 52.14 49.8546L47.9545 29.3631C48.1725 28.8545 48.7741 27.9941 49.4368 28.6219C50.0995 29.2498 51.8057 29.9299 52.5759 30.1915L53.4915 30.3659L54.8867 30.5403L57.1538 30.2351L69.8411 20.251L66.2224 49.8546Z" fill="white"/>
</g>
<g filter="url(#filter1_d_134_1043)">
<path d="M51.3963 29.7842C50.6276 29.4695 49.9814 29.0722 49.5242 28.7089C50.1525 29.1377 50.7772 29.4939 51.3963 29.7842C53.3642 30.5897 56.1347 30.8539 58.5927 28.6217C62.8654 24.7414 70.6696 17.2424 69.6668 20.7739C68.9142 23.4244 60.7865 34.1866 51.3963 29.7842Z" fill="white"/>
</g>
<path d="M48.4872 52.1178H52.4532L47.8524 15.3174C53.581 16.2862 66.0957 17.6425 70.3261 15.3174L65.9374 52.1178C67.7882 52.5484 71.5955 52.7637 72.0185 50.1802C72.4416 47.5967 75.5438 18.3169 77.042 4C77.6766 1.15811 66.0255 0.447669 60.1207 0.447683C43.1993 -0.327368 39.674 2.49296 40.0266 4C41.5248 14.9799 44.6271 38.4898 45.0501 44.6902C45.4731 50.8906 47.5178 52.2254 48.4872 52.1178Z" fill="white"/>
<path d="M42.7611 4.83831C48.3501 3.58815 62.4401 1.83792 74.0887 4.83831C64.1609 7.81664 53.8802 6.42675 42.7611 4.83831Z" fill="white"/>
<path d="M7.44344 73.4545C7.63932 73.3714 7.91237 73.2408 8.26258 73.0627C10.4054 71.9646 11.5807 71.3591 11.7885 71.2463L12.1624 71.0415C12.5482 70.7922 12.7263 70.5964 12.6966 70.4539C12.6313 70.1512 12.4681 70.0295 12.2069 70.0888C11.9458 70.1423 11.6727 70.2165 11.3878 70.3114C11.1088 70.4064 10.812 70.5222 10.4974 70.6587C9.83854 70.9317 9.2598 71.2048 8.76119 71.4778C7.01606 72.481 5.96542 73.0894 5.60927 73.3031C5.35403 73.8789 5.1255 74.4517 4.92368 75.0215L3.84633 78.0666C3.50799 79.0104 3.16668 79.6485 2.8224 79.9809C2.63839 80.1649 2.4336 80.2569 2.20804 80.2569C1.65007 80.2569 1.21082 80.061 0.890287 79.6693C0.569752 79.2834 0.409485 78.7908 0.409485 78.1912C0.409485 77.5977 0.486651 77.01 0.640982 76.4283C0.795313 75.8525 1.009 75.2679 1.28205 74.6743C1.83408 73.4752 2.57309 72.3563 3.49908 71.3176C4.06299 69.8039 5.00085 68.3348 6.31266 66.9102C7.114 66.0436 7.85895 65.4322 8.5475 65.076C8.89178 64.898 9.1856 64.8089 9.42897 64.8089C9.67234 64.8089 9.85635 64.8653 9.981 64.9781C10.1057 65.0849 10.168 65.2215 10.168 65.3877C10.168 65.5479 10.1175 65.7527 10.0166 66.002C9.91571 66.2513 9.77918 66.5303 9.60705 66.839C9.43491 67.1476 9.23309 67.4771 9.00159 67.8273L8.26258 68.9046C8.20322 68.9937 8.17354 69.0738 8.17354 69.145C8.17354 69.2578 8.24181 69.3142 8.37833 69.3142C8.53266 69.3142 8.81758 69.2163 9.23309 69.0204L10.6577 68.3615C11.9042 67.7976 13.0973 67.5157 14.237 67.5157C14.8306 67.5157 15.3885 67.7976 15.9109 68.3615C16.4392 68.9314 16.7033 69.5427 16.7033 70.1957C16.7033 71.2048 16.2908 71.9824 15.4657 72.5285L14.3616 73.2586C13.9639 73.5079 13.5544 73.7542 13.1329 73.9976L11.8508 74.701C10.4084 75.4489 9.29245 75.8229 8.50298 75.8229C7.71945 75.8229 7.14961 75.7249 6.79346 75.529C6.43731 75.3331 6.25924 75.0571 6.25924 74.701C6.25924 74.2202 6.65397 73.8047 7.44344 73.4545Z" fill="white"/>
<path d="M28.759 69.1361C29.0439 69.1361 29.1864 69.2964 29.1864 69.6169C29.1864 69.8306 29.1122 70.1007 28.9638 70.4272C28.8213 70.7477 28.6136 71.0504 28.3405 71.3354C28.0675 71.6144 27.7529 71.9052 27.3967 72.2079C27.0465 72.5107 26.634 72.8282 26.1591 73.1606C25.6902 73.493 25.1708 73.8225 24.6009 74.1489C24.0311 74.4754 23.4256 74.7692 22.7846 75.0304C21.3659 75.6121 19.9918 75.903 18.6621 75.903C17.6471 75.903 16.7597 75.6388 15.9999 75.1106C15.2045 74.5585 14.8068 73.8878 14.8068 73.0983C14.8068 71.8577 15.4746 70.6795 16.8102 69.5635C17.9617 68.6019 19.3181 67.857 20.8792 67.3287C21.8289 67.0082 22.6332 66.8479 23.2921 66.8479C23.8263 66.8479 24.2774 66.9785 24.6455 67.2396C25.0372 67.5246 25.2331 67.9074 25.2331 68.3882C25.2331 69.1421 24.6366 69.9761 23.4435 70.8902C23.2535 71.0386 23.0814 71.1632 22.927 71.2641L22.6065 71.4778C22.0129 71.8933 21.1107 72.3593 19.8998 72.8757C20.2737 73.0716 20.621 73.1695 20.9415 73.1695C21.268 73.1695 21.5588 73.131 21.8141 73.0538C22.0752 72.9766 22.3691 72.8668 22.6955 72.7244C23.022 72.5819 23.3693 72.4127 23.7373 72.2168C24.1112 72.015 24.4882 71.7954 24.8681 71.558C25.7169 71.0297 26.4529 70.4895 27.0762 69.9375C27.4027 69.6348 27.8182 69.3944 28.3227 69.2163C28.4889 69.1629 28.6343 69.1361 28.759 69.1361ZM18.9382 71.6381L19.4279 71.3888C19.5881 71.3057 19.7306 71.2285 19.8552 71.1573C21.0543 70.4687 21.7369 70.0443 21.9031 69.8841C22.0693 69.7238 22.1524 69.614 22.1524 69.5546C22.1524 69.4893 22.1346 69.4151 22.099 69.332C22.0634 69.2489 22.0159 69.1747 21.9565 69.1094C21.8141 68.9432 21.6627 68.8601 21.5024 68.8601C21.3422 68.8601 21.1641 68.8898 20.9682 68.9492C20.7783 69.0085 20.5854 69.0916 20.3895 69.1985C20.1936 69.2994 20.0036 69.424 19.8196 69.5724C19.6416 69.7149 19.4843 69.8692 19.3477 70.0354C19.0331 70.4094 18.8758 70.7329 18.8758 71.0059C18.8758 71.279 18.8966 71.4897 18.9382 71.6381Z" fill="white"/>
<path d="M47.2966 69.9375C47.2966 70.2165 46.9315 70.7566 46.2014 71.558C45.4535 72.3712 44.7204 73.033 44.0022 73.5435C42.6132 74.5763 41.0729 75.2827 39.3811 75.6626C38.7401 75.811 38.1317 75.8852 37.5559 75.8852C36.986 75.8852 36.5112 75.8347 36.1313 75.7338C35.7573 75.6388 35.419 75.5112 35.1163 75.351C34.8195 75.1847 34.5613 74.9948 34.3416 74.7811C34.122 74.5674 33.938 74.3419 33.7896 74.1044C33.4987 73.6414 33.3533 73.2141 33.3533 72.8223C33.3533 72.4305 33.3978 72.0862 33.4869 71.7895C33.57 71.4927 33.6887 71.2107 33.843 70.9436C34.3832 69.9701 35.4694 69.1094 37.1018 68.3615C38.3899 67.762 39.6186 67.3732 40.7879 67.1951C41.2925 67.118 41.6516 67.0794 41.8653 67.0794C42.079 67.0794 42.2571 67.1031 42.3995 67.1506C42.5479 67.1922 42.6755 67.2515 42.7824 67.3287C43.0198 67.5008 43.1385 67.7353 43.1385 68.0321C43.1385 68.3289 43.0614 68.6108 42.907 68.8779C42.7527 69.1391 42.5568 69.3587 42.3194 69.5368C41.8564 69.8811 41.34 70.0532 40.7701 70.0532C39.9925 70.0532 39.3515 69.9523 38.8469 69.7505C38.4967 69.8752 38.1999 70.1037 37.9565 70.4361C37.7547 70.7091 37.6538 70.9555 37.6538 71.1751C37.6538 71.3888 37.7013 71.5995 37.7963 71.8073C37.8972 72.0091 38.0367 72.1901 38.2148 72.3504C38.6065 72.6947 39.0784 72.8668 39.6304 72.8668C40.9126 72.8668 42.4054 72.1872 44.109 70.8279L44.9193 70.1957C45.774 69.5427 46.3824 69.2163 46.7445 69.2163C47.1126 69.2163 47.2966 69.4567 47.2966 69.9375Z" fill="white"/>
<path d="M48.917 69.9197C48.917 70.1334 48.9972 70.2402 49.1575 70.2402C49.3533 70.2402 49.6056 70.1096 49.9143 69.8484L50.6889 69.1807C51.508 68.4743 52.2886 68.1211 53.0306 68.1211C53.5114 68.1211 53.9388 68.5218 54.3127 69.3231C54.6392 70.0117 54.933 71.0386 55.1942 72.4038C55.2417 72.6294 55.2803 72.7422 55.3099 72.7422C55.3455 72.7422 55.4316 72.6887 55.5681 72.5819C55.7106 72.475 55.8827 72.3385 56.0846 72.1723C57.5388 70.9317 58.3787 70.2402 58.6043 70.0977C58.8358 69.9494 58.9961 69.8514 59.0851 69.8039C59.1742 69.7505 59.2662 69.703 59.3611 69.6615C59.5986 69.5724 59.7855 69.5279 59.9221 69.5279C60.1832 69.5279 60.3138 69.6644 60.3138 69.9375C60.3138 70.353 60.0408 70.9584 59.4947 71.7538C58.8833 72.6442 58.0731 73.5316 57.064 74.4161C55.8887 75.4548 54.8618 75.9742 53.9833 75.9742C53.0573 75.9742 52.434 75.351 52.1135 74.1044C52.0304 73.7839 51.9651 73.4841 51.9176 73.2052L51.784 72.5107C51.7484 72.3266 51.7009 72.2346 51.6416 72.2346C51.5882 72.2346 51.4724 72.3237 51.2943 72.5018L50.6355 73.1695C49.8994 73.9175 49.2821 74.4635 48.7835 74.8078C47.7803 75.5083 46.9018 75.8585 46.148 75.8585C45.2457 75.8585 44.7145 75.4014 44.5542 74.4873C44.5067 74.2142 44.483 73.87 44.483 73.4545C44.483 73.033 44.5423 72.5196 44.6611 71.9141C44.7798 71.3087 44.943 70.7032 45.1508 70.0977C45.6019 68.8037 46.1628 67.6997 46.8336 66.7856L47.626 65.7349C49.5433 63.23 51.1459 61.9775 52.434 61.9775C52.7249 61.9775 52.9356 62.12 53.0662 62.4049C53.1077 62.494 53.1285 62.6275 53.1285 62.8056C53.1285 62.9837 53.0513 63.2152 52.897 63.5001C52.7427 63.7791 52.5527 64.0699 52.3272 64.3726C52.1016 64.6754 51.8582 64.984 51.5971 65.2986C51.3418 65.6073 51.1074 65.913 50.8937 66.2157L50.2259 67.1862C49.3533 68.498 48.917 69.4092 48.917 69.9197Z" fill="white"/>
<path d="M74.3283 68.9937C74.5183 68.9937 74.6132 69.154 74.6132 69.4745C74.6132 70.0265 74.2274 70.7418 73.4557 71.6203L72.9482 72.1367C71.4109 73.6741 69.9625 74.698 68.6032 75.2085C67.7603 75.5231 67.1549 75.5083 66.7869 75.164C66.4841 74.8731 66.2437 74.4042 66.0656 73.7572L65.852 72.9826L63.9555 74.1489L62.8603 74.7722C61.5544 75.4845 60.575 75.8407 59.9221 75.8407C59.0851 75.8407 58.3877 75.5172 57.8297 74.8702C57.2955 74.2588 57.0284 73.5494 57.0284 72.7422C57.0284 71.9468 57.3459 71.2374 57.9811 70.6142C58.8892 69.7238 60.3227 68.9076 62.2816 68.1656C64.1335 67.4711 65.6294 67.1239 66.769 67.1239C67.1549 67.1239 67.3478 67.3138 67.3478 67.6937C67.3478 67.9549 67.2973 68.1508 67.1964 68.2814C67.0955 68.412 66.8878 68.5455 66.5732 68.6821L65.4513 69.1629C63.7893 69.8573 62.5724 70.5785 61.8008 71.3265C61.5811 71.5342 61.4713 71.736 61.4713 71.9319C61.4713 72.1278 61.6286 72.2257 61.9432 72.2257C62.2519 72.2257 62.9701 71.8933 64.0979 71.2285L64.8369 70.7922C65.9825 70.1037 66.9412 69.7594 67.7128 69.7594C68.3658 69.7594 68.7991 70.0473 69.0128 70.6231C69.0662 70.7774 69.1167 70.9347 69.1641 71.095C69.2116 71.2493 69.2591 71.3888 69.3066 71.5134C69.4135 71.8043 69.5084 71.9497 69.5915 71.9497C69.6806 71.9497 69.8052 71.9082 69.9655 71.8251C70.1258 71.736 70.3009 71.6262 70.4908 71.4956C70.6867 71.3591 70.8885 71.2107 71.0963 71.0504L72.1736 70.1868C73.1293 69.3914 73.8475 68.9937 74.3283 68.9937Z" fill="white"/>
<path d="M72.0044 72.7422C71.8917 72.7422 71.7818 72.7154 71.675 72.662C71.5622 72.6086 71.4583 72.5225 71.3634 72.4038C71.1556 72.1426 71.0517 71.7865 71.0517 71.3354C71.0517 70.8546 71.3396 70.255 71.9154 69.5368C72.4734 68.8423 73.1233 68.2428 73.8653 67.7383C74.6607 67.1922 75.3433 66.9191 75.9132 66.9191C76.4177 66.9191 76.759 67.0616 76.9371 67.3465L77.0618 67.5424C77.1567 67.6908 77.2517 67.765 77.3467 67.765C77.4417 67.765 77.5901 67.7561 77.7919 67.7383L79.0562 67.6492C79.2521 67.6314 79.4064 67.6225 79.5192 67.6225C79.632 67.6225 79.7596 67.6641 79.9021 67.7472C80.0504 67.8243 80.181 67.9282 80.2938 68.0588C80.5431 68.3556 80.6678 68.6821 80.6678 69.0382C80.6678 69.4062 80.2612 69.985 79.448 70.7744L78.8603 71.3621C78.4389 71.7954 78.2282 72.0684 78.2282 72.1812C78.2282 72.294 78.2816 72.3949 78.3884 72.4839C78.4953 72.5671 78.611 72.6086 78.7357 72.6086C78.8603 72.6086 78.9998 72.576 79.1541 72.5107C79.3144 72.4394 79.5103 72.3385 79.7418 72.2079C79.9733 72.0714 80.2374 71.9082 80.5342 71.7182C81.3474 71.184 81.8906 70.816 82.1636 70.6142L82.9026 70.0888C83.4072 69.7327 83.7663 69.5546 83.98 69.5546C84.1937 69.5546 84.3688 69.6021 84.5053 69.6971C84.6418 69.7861 84.7101 69.9434 84.7101 70.169C84.7101 70.3945 84.5943 70.6973 84.3628 71.0772C84.1313 71.4571 83.8791 71.7865 83.606 72.0655C83.3389 72.3445 83.0777 72.6027 82.8225 72.8401C82.5672 73.0775 82.2645 73.3357 81.9143 73.6147C81.57 73.8878 81.1872 74.1668 80.7657 74.4517C80.3443 74.7307 79.8991 74.9829 79.4302 75.2085C78.3676 75.7249 77.3912 75.9831 76.5008 75.9831C75.2009 75.9831 74.4085 75.6477 74.1235 74.977C74.0345 74.7752 73.99 74.5496 73.99 74.3003C73.99 74.051 74.0375 73.7839 74.1324 73.499C74.2274 73.2081 74.3521 72.9202 74.5064 72.6353C74.8151 72.0714 75.1801 71.5728 75.6015 71.1395C75.9577 70.7655 76.1358 70.5429 76.1358 70.4717C76.1358 70.3589 76.0705 70.2877 75.9399 70.258C75.8152 70.2283 75.6283 70.2135 75.379 70.2135C75.2721 70.2135 75.0436 70.3678 74.6934 70.6765L73.8208 71.4778C72.8948 72.3207 72.2894 72.7422 72.0044 72.7422Z" fill="white"/>
<path d="M95.7507 69.9375C95.7507 70.2165 95.3857 70.7566 94.6555 71.558C93.9076 72.3712 93.1746 73.033 92.4563 73.5435C91.0673 74.5763 89.527 75.2827 87.8353 75.6626C87.1942 75.811 86.5858 75.8852 86.01 75.8852C85.4402 75.8852 84.9653 75.8347 84.5854 75.7338C84.2115 75.6388 83.8731 75.5112 83.5704 75.351C83.2736 75.1847 83.0154 74.9948 82.7958 74.7811C82.5761 74.5674 82.3921 74.3419 82.2437 74.1044C81.9529 73.6414 81.8075 73.2141 81.8075 72.8223C81.8075 72.4305 81.852 72.0862 81.941 71.7895C82.0241 71.4927 82.1428 71.2107 82.2972 70.9436C82.8373 69.9701 83.9236 69.1094 85.5559 68.3615C86.844 67.762 88.0727 67.3732 89.2421 67.1951C89.7466 67.118 90.1057 67.0794 90.3194 67.0794C90.5331 67.0794 90.7112 67.1031 90.8537 67.1506C91.002 67.1922 91.1297 67.2515 91.2365 67.3287C91.4739 67.5008 91.5927 67.7353 91.5927 68.0321C91.5927 68.3289 91.5155 68.6108 91.3612 68.8779C91.2068 69.1391 91.011 69.3587 90.7735 69.5368C90.3105 69.8811 89.7941 70.0532 89.2243 70.0532C88.4467 70.0532 87.8056 69.9523 87.3011 69.7505C86.9509 69.8752 86.6541 70.1037 86.4107 70.4361C86.2089 70.7091 86.108 70.9555 86.108 71.1751C86.108 71.3888 86.1554 71.5995 86.2504 71.8073C86.3513 72.0091 86.4908 72.1901 86.6689 72.3504C87.0607 72.6947 87.5326 72.8668 88.0846 72.8668C89.3667 72.8668 90.8596 72.1872 92.5632 70.8279L93.3734 70.1957C94.2282 69.5427 94.8366 69.2163 95.1987 69.2163C95.5667 69.2163 95.7507 69.4567 95.7507 69.9375Z" fill="white"/>
<path d="M97.3712 69.9197C97.3712 70.1334 97.4513 70.2402 97.6116 70.2402C97.8075 70.2402 98.0597 70.1096 98.3684 69.8484L99.143 69.1807C99.9622 68.4743 100.743 68.1211 101.485 68.1211C101.966 68.1211 102.393 68.5218 102.767 69.3231C103.093 70.0117 103.387 71.0386 103.648 72.4038C103.696 72.6294 103.734 72.7422 103.764 72.7422C103.8 72.7422 103.886 72.6887 104.022 72.5819C104.165 72.475 104.337 72.3385 104.539 72.1723C105.993 70.9317 106.833 70.2402 107.058 70.0977C107.29 69.9494 107.45 69.8514 107.539 69.8039C107.628 69.7505 107.72 69.703 107.815 69.6615C108.053 69.5724 108.24 69.5279 108.376 69.5279C108.637 69.5279 108.768 69.6644 108.768 69.9375C108.768 70.353 108.495 70.9584 107.949 71.7538C107.337 72.6442 106.527 73.5316 105.518 74.4161C104.343 75.4548 103.316 75.9742 102.437 75.9742C101.511 75.9742 100.888 75.351 100.568 74.1044C100.485 73.7839 100.419 73.4841 100.372 73.2052L100.238 72.5107C100.203 72.3266 100.155 72.2346 100.096 72.2346C100.042 72.2346 99.9266 72.3237 99.7485 72.5018L99.0896 73.1695C98.3536 73.9175 97.7362 74.4635 97.2376 74.8078C96.2345 75.5083 95.356 75.8585 94.6021 75.8585C93.6999 75.8585 93.1686 75.4014 93.0084 74.4873C92.9609 74.2142 92.9371 73.87 92.9371 73.4545C92.9371 73.033 92.9965 72.5196 93.1152 71.9141C93.2339 71.3087 93.3972 70.7032 93.6049 70.0977C94.056 68.8037 94.617 67.6997 95.2877 66.7856L96.0801 65.7349C97.9974 63.23 99.6001 61.9775 100.888 61.9775C101.179 61.9775 101.39 62.12 101.52 62.4049C101.562 62.494 101.583 62.6275 101.583 62.8056C101.583 62.9837 101.505 63.2152 101.351 63.5001C101.197 63.7791 101.007 64.0699 100.781 64.3726C100.556 64.6754 100.312 64.984 100.051 65.2986C99.796 65.6073 99.5615 65.913 99.3478 66.2157L98.68 67.1862C97.8075 68.498 97.3712 69.4092 97.3712 69.9197Z" fill="white"/>
<path d="M122.782 68.9937C122.972 68.9937 123.067 69.154 123.067 69.4745C123.067 70.0265 122.682 70.7418 121.91 71.6203L121.402 72.1367C119.865 73.6741 118.417 74.698 117.057 75.2085C116.214 75.5231 115.609 75.5083 115.241 75.164C114.938 74.8731 114.698 74.4042 114.52 73.7572L114.306 72.9826L112.41 74.1489L111.314 74.7722C110.009 75.4845 109.029 75.8407 108.376 75.8407C107.539 75.8407 106.842 75.5172 106.284 74.8702C105.75 74.2588 105.482 73.5494 105.482 72.7422C105.482 71.9468 105.8 71.2374 106.435 70.6142C107.343 69.7238 108.777 68.9076 110.736 68.1656C112.588 67.4711 114.084 67.1239 115.223 67.1239C115.609 67.1239 115.802 67.3138 115.802 67.6937C115.802 67.9549 115.751 68.1508 115.651 68.2814C115.55 68.412 115.342 68.5455 115.027 68.6821L113.905 69.1629C112.243 69.8573 111.027 70.5785 110.255 71.3265C110.035 71.5342 109.925 71.736 109.925 71.9319C109.925 72.1278 110.083 72.2257 110.397 72.2257C110.706 72.2257 111.424 71.8933 112.552 71.2285L113.291 70.7922C114.437 70.1037 115.395 69.7594 116.167 69.7594C116.82 69.7594 117.253 70.0473 117.467 70.6231C117.52 70.7774 117.571 70.9347 117.618 71.095C117.666 71.2493 117.713 71.3888 117.761 71.5134C117.868 71.8043 117.963 71.9497 118.046 71.9497C118.135 71.9497 118.259 71.9082 118.42 71.8251C118.58 71.736 118.755 71.6262 118.945 71.4956C119.141 71.3591 119.343 71.2107 119.55 71.0504L120.628 70.1868C121.583 69.3914 122.302 68.9937 122.782 68.9937Z" fill="white"/>
<defs>
<filter id="filter0_i_134_1043" x="47.9545" y="20.251" width="21.8866" height="34.6631" filterUnits="userSpaceOnUse" color-interpolation-filters="sRGB">
<feFlood flood-opacity="0" result="BackgroundImageFix"/>
<feBlend mode="normal" in="SourceGraphic" in2="BackgroundImageFix" result="shape"/>
<feColorMatrix in="SourceAlpha" type="matrix" values="0 0 0 0 0 0 0 0 0 0 0 0 0 0 0 0 0 0 127 0" result="hardAlpha"/>
<feOffset dy="4"/>
<feGaussianBlur stdDeviation="2"/>
<feComposite in2="hardAlpha" operator="arithmetic" k2="-1" k3="1"/>
<feColorMatrix type="matrix" values="0 0 0 0 0 0 0 0 0 0 0 0 0 0 0 0 0 0 0.25 0"/>
<feBlend mode="normal" in2="shape" result="effect1_innerShadow_134_1043"/>
</filter>
<filter id="filter1_d_134_1043" x="45.5242" y="19.8535" width="28.2307" height="18.9756" filterUnits="userSpaceOnUse" color-interpolation-filters="sRGB">
<feFlood flood-opacity="0" result="BackgroundImageFix"/>
<feColorMatrix in="SourceAlpha" type="matrix" values="0 0 0 0 0 0 0 0 0 0 0 0 0 0 0 0 0 0 127 0" result="hardAlpha"/>
<feOffset dy="4"/>
<feGaussianBlur stdDeviation="2"/>
<feComposite in2="hardAlpha" operator="out"/>
<feColorMatrix type="matrix" values="0 0 0 0 0 0 0 0 0 0 0 0 0 0 0 0 0 0 0.25 0"/>
<feBlend mode="normal" in2="BackgroundImageFix" result="effect1_dropShadow_134_1043"/>
<feBlend mode="normal" in="SourceGraphic" in2="effect1_dropShadow_134_1043" result="shape"/>
</filter>
</defs>
</svg>
