<svg width="116" height="110" viewBox="0 0 116 110" fill="none" xmlns="http://www.w3.org/2000/svg">
<path d="M82.8726 11.6908C91.094 23.2847 92.2485 35.8931 87.0288 48.7743C81.8931 61.4457 71.2928 67.0852 58.1316 67.6659C47.3424 68.1417 36.5182 67.7639 24.9174 67.7639L39.0511 46.2695C41.2131 45.8427 41.8988 47.9487 43.3542 48.7464C48.5948 52.5807 54.4233 52.9445 60.5385 51.6571C68.0532 48.8094 72.4332 43.4847 73.7417 35.4943C74.9661 28.0286 76.1766 20.5559 77.7719 13.1532C79.0033 11.0051 80.7386 10.6413 82.8726 11.6908Z" fill="white"/>
<path d="M38.6313 21.1083L25.4001 0.691382C25.9809 -0.365148 26.8975 0.103625 27.6042 0.103625C37.4908 0.0616435 47.3774 -0.00132851 57.257 0.103625C63.8621 0.166597 70.1663 1.50301 75.7288 5.3583C74.4188 8.20968 73.6093 11.2653 73.3359 14.3913C72.3423 18.2606 72.6362 22.4587 70.4322 26.0201C69.2567 26.286 68.7179 25.4114 68.3331 24.6208C67.2136 22.4447 65.3734 20.8284 64.002 18.8553C64.4918 16.5883 63.6801 15.4548 61.2662 15.2449C57.9427 14.944 54.6891 13.6566 51.3027 14.7201C47.6569 15.3507 44.2623 16.9947 41.507 19.4641C40.6744 20.2057 39.9467 21.1923 38.6313 21.1083Z" fill="white"/>
<path d="M38.6316 21.1087C42.1301 17.6102 45.8105 14.5666 50.9812 14.0488C51.387 15.5951 50.0646 16.2598 49.3509 17.2184C47.6506 19.5134 45.6006 21.5705 44.593 24.3273C42.5639 28.0216 40.7517 31.73 41.8432 36.222C42.3451 38.4698 43.4274 40.5467 44.9822 42.2458C46.5371 43.9448 48.5101 45.2066 50.7047 45.9054C52.8993 46.6041 55.2387 46.7153 57.4897 46.228C59.7406 45.7407 61.8245 44.6718 63.5336 43.1279C64.3872 42.3792 64.968 41.2667 66.2344 41.0288C68.2845 41.7285 67.4449 43.2748 66.9341 44.4153C65.5977 47.6409 63.6945 50.4956 60.7069 52.4757C54.0878 54.2879 47.9515 53.5532 42.5149 49.0822C42.0321 46.8082 41.1575 44.8841 39.0795 43.4847C37.3162 42.3302 36.4906 40.3641 35.581 38.5309C33.454 32.1638 35.2591 26.5033 38.6316 21.1087Z" fill="#202020"/>
<path d="M72.5873 14.0487C72.9582 10.9071 72.5874 7.49961 75.729 5.35156C78.1289 5.7154 80.5428 6.05127 82.9218 6.46409C83.9713 6.66 85.5176 6.34514 85.8395 7.68854C86.1193 8.85702 85.0278 9.78761 84.2022 10.5713C83.7894 10.9771 83.3206 11.3199 82.8798 11.6907C81.3685 12.2855 79.2064 11.201 78.3528 13.468C76.2887 12.2365 74.5745 14.4546 72.5873 14.0487Z" fill="#202020"/>
<path d="M35.5951 38.5166C37.6942 40.5527 39.3244 43.0646 41.8923 44.7019C43.4806 45.7094 43.0048 47.5006 42.543 49.0609L39.0446 46.2622C37.7361 43.7643 35.707 41.5672 35.5951 38.5166Z" fill="#202020"/>
<path d="M72.5873 14.0489C74.4695 13.4401 76.0858 9.96266 78.3528 13.4681C76.8554 22.1652 75.7779 30.9603 73.7278 39.5245C72.1465 46.1296 67.3187 50.3977 60.7416 52.4548C62.5048 49.3761 65.4295 47.0392 66.4021 43.4638C66.598 42.7641 67.3326 42.0154 66.4021 41.3087C67.4096 36.208 68.0184 31.0093 69.9985 26.1395C70.8521 22.1093 71.715 18.0791 72.5873 14.0489Z" fill="#202020"/>
<path d="M51.6944 58.2683C51.4635 60.6472 50.295 62.0606 48.196 62.1096C47.7307 62.1515 47.2619 62.0928 46.8214 61.9373C46.3809 61.7819 45.979 61.5334 45.6431 61.2087C45.3072 60.8841 45.0451 60.491 44.8747 60.056C44.7043 59.6211 44.6296 59.1545 44.6556 58.6881C44.5856 56.4771 45.81 55.2667 48.028 55.1897C50.2461 55.1127 51.3166 56.4491 51.6944 58.2683Z" fill="#202020"/>
<path d="M62.0917 55.1621C64.2537 55.2041 65.5901 56.2047 65.6881 58.4507C65.773 58.94 65.7527 59.4419 65.6286 59.9228C65.5045 60.4037 65.2795 60.8526 64.9684 61.2398C64.6573 61.627 64.2674 61.9435 63.8245 62.1683C63.3816 62.3931 62.896 62.521 62.3998 62.5435C61.9037 62.5661 61.4084 62.4827 60.947 62.299C60.4856 62.1153 60.0685 61.8354 59.7236 61.478C59.3788 61.1206 59.1139 60.6938 58.9468 60.2261C58.7796 59.7585 58.714 59.2606 58.7542 58.7655C58.6422 56.6735 59.8527 55.337 62.0917 55.1621Z" fill="#202020"/>
<path d="M69.9772 26.1391C69.5014 31.3658 68.8997 36.5645 66.3808 41.3084C60.5174 48.2003 52.8418 49.3548 46.0898 44.4989C41.115 40.9165 37.8545 32.0445 44.0537 24.054C46.4467 20.3037 49.8471 18.5685 54.3042 18.6734C57.6557 18.7504 61.0002 19.3172 64.3517 18.7714C67.2414 20.4576 68.6548 23.2564 69.9772 26.1391Z" fill="white"/>
<path d="M64.3518 18.7711C63.5072 19.3819 62.5367 19.7963 61.5113 19.9839C60.486 20.1716 59.4317 20.1277 58.4255 19.8556C52.8699 18.4562 48.189 20.3944 44.0538 24.0538C45.0824 19.8556 48.6368 17.3647 50.9808 14.0482C55.7176 12.334 60.2726 14.2511 64.7646 15.1397C66.8497 15.5525 64.6317 17.5187 64.3518 18.7711Z" fill="#202020"/>
<path d="M3.12455 83.5833H9.5805C12.4438 83.5833 14.7181 84.4441 16.4034 86.1656C18.0978 87.8782 18.945 90.1887 18.945 93.0973C18.945 96.0059 18.0978 98.321 16.4034 100.043C14.7181 101.755 12.4438 102.611 9.5805 102.611H3.12455V83.5833ZM9.5805 85.8395H5.67975V100.355H9.5805C11.6373 100.355 13.2774 99.7299 14.5006 98.4795C15.7329 97.22 16.3491 95.426 16.3491 93.0973C16.3491 90.7686 15.7329 88.9791 14.5006 87.7287C13.2774 86.4692 11.6373 85.8395 9.5805 85.8395ZM25.0219 99.2271C26.0095 100.224 27.2192 100.722 28.6508 100.722C30.0825 100.722 31.2876 100.224 32.2662 99.2271C33.2538 98.2213 33.7476 97.0026 33.7476 95.5709C33.7476 94.1393 33.2538 92.9251 32.2662 91.9284C31.2876 90.9227 30.0825 90.4198 28.6508 90.4198C27.2192 90.4198 26.0095 90.9227 25.0219 91.9284C24.0433 92.9251 23.554 94.1393 23.554 95.5709C23.554 97.0026 24.0433 98.2213 25.0219 99.2271ZM24.7501 89.1965C25.9189 88.5351 27.2192 88.2044 28.6508 88.2044C30.0825 88.2044 31.3827 88.5351 32.5516 89.1965C33.7204 89.858 34.6311 90.7505 35.2835 91.8741C35.9358 92.9976 36.262 94.2299 36.262 95.5709C36.262 96.912 35.9358 98.1443 35.2835 99.2678C34.6311 100.391 33.7204 101.284 32.5516 101.945C31.3827 102.607 30.0825 102.938 28.6508 102.938C27.2192 102.938 25.9189 102.607 24.7501 101.945C23.5812 101.284 22.6706 100.391 22.0182 99.2678C21.3658 98.1443 21.0396 96.912 21.0396 95.5709C21.0396 94.2299 21.3658 92.9976 22.0182 91.8741C22.6706 90.7505 23.5812 89.858 24.7501 89.1965ZM41.7201 93.2604V102.611H39.2464V88.5306H41.7201V90.6372C42.2184 89.9395 42.8346 89.3596 43.5685 88.8975C44.3025 88.4354 45.1044 88.2044 45.9742 88.2044C47.0434 88.2044 47.9903 88.4671 48.8148 88.9927C49.6394 89.5092 50.2646 90.2114 50.6904 91.0994C51.2432 90.2204 51.9499 89.5182 52.8107 88.9927C53.6715 88.4671 54.6048 88.2044 55.6106 88.2044C57.2053 88.2044 58.501 88.7344 59.4977 89.7946C60.4944 90.8456 60.9928 92.1957 60.9928 93.8448V102.611H58.5191V93.9807C58.5191 92.9569 58.2156 92.1097 57.6085 91.4391C57.0105 90.7596 56.2222 90.4198 55.2436 90.4198C54.4734 90.4198 53.7531 90.6916 53.0825 91.2353C52.412 91.7699 51.8276 92.4585 51.3292 93.3012C51.3474 93.5186 51.3564 93.6999 51.3564 93.8448V102.611H48.8828V93.9807C48.8828 92.9569 48.5792 92.1097 47.9722 91.4391C47.3741 90.7596 46.5858 90.4198 45.6072 90.4198C44.8371 90.4198 44.1167 90.6871 43.4462 91.2217C42.7847 91.7472 42.2094 92.4268 41.7201 93.2604ZM65.0035 102.611V88.5306H67.4772V102.611H65.0035ZM64.6094 84.6026C64.6094 84.1405 64.7634 83.7554 65.0715 83.4474C65.3886 83.1302 65.7783 82.9717 66.2404 82.9717C66.7025 82.9717 67.0876 83.1302 67.3956 83.4474C67.7128 83.7554 67.8713 84.1405 67.8713 84.6026C67.8713 85.0557 67.7128 85.4408 67.3956 85.7579C67.0876 86.066 66.7025 86.22 66.2404 86.22C65.7783 86.22 65.3886 86.066 65.0715 85.7579C64.7634 85.4408 64.6094 85.0557 64.6094 84.6026ZM78.3977 102.938C76.9661 102.938 75.6658 102.607 74.497 101.945C73.3281 101.284 72.4175 100.391 71.7651 99.2678C71.1127 98.1443 70.7865 96.912 70.7865 95.5709C70.7865 94.2299 71.1127 92.9976 71.7651 91.8741C72.4175 90.7505 73.3281 89.858 74.497 89.1965C75.6658 88.5351 76.9661 88.2044 78.3977 88.2044C80.364 88.2044 82.072 88.825 83.5217 90.0664L82.2305 92.01C81.0345 90.9498 79.7569 90.4198 78.3977 90.4198C76.9661 90.4198 75.7564 90.9227 74.7688 91.9284C73.7902 92.9251 73.3009 94.1393 73.3009 95.5709C73.3009 97.0026 73.7902 98.2213 74.7688 99.2271C75.7564 100.224 76.9661 100.722 78.3977 100.722C79.8656 100.722 81.1749 100.156 82.3257 99.0232L83.7799 100.831C82.3302 102.235 80.5361 102.938 78.3977 102.938ZM87.01 102.611V88.5306H89.4837V102.611H87.01ZM86.6159 84.6026C86.6159 84.1405 86.7699 83.7554 87.078 83.4474C87.3951 83.1302 87.7848 82.9717 88.2469 82.9717C88.709 82.9717 89.0941 83.1302 89.4021 83.4474C89.7193 83.7554 89.8778 84.1405 89.8778 84.6026C89.8778 85.0557 89.7193 85.4408 89.4021 85.7579C89.0941 86.066 88.709 86.22 88.2469 86.22C87.7848 86.22 87.3951 86.066 87.078 85.7579C86.7699 85.4408 86.6159 85.0557 86.6159 84.6026ZM94.0978 102.611V82.7678H96.5714V102.611H94.0978ZM102.409 96.3457C102.545 97.6233 103.084 98.6879 104.026 99.5397C104.978 100.382 106.124 100.804 107.465 100.804C109.186 100.804 110.668 100.124 111.909 98.7649L113.608 100.342C112.865 101.184 111.973 101.828 110.931 102.272C109.889 102.716 108.756 102.938 107.533 102.938C106.409 102.938 105.367 102.747 104.407 102.367C103.446 101.977 102.635 101.452 101.974 100.79C101.321 100.129 100.809 99.3494 100.438 98.4523C100.066 97.5462 99.8807 96.5858 99.8807 95.5709C99.8807 94.5652 100.066 93.6092 100.438 92.7031C100.819 91.797 101.335 91.0133 101.987 90.3518C102.649 89.6904 103.442 89.1694 104.366 88.7888C105.29 88.3992 106.278 88.2044 107.329 88.2044C108.697 88.2044 109.929 88.5215 111.026 89.1558C112.131 89.79 112.987 90.6463 113.595 91.7246C114.202 92.7938 114.505 93.9717 114.505 95.2583C114.505 95.6208 114.464 95.9832 114.383 96.3457H102.409ZM107.329 90.3382C106.169 90.3382 105.136 90.7143 104.23 91.4663C103.324 92.2184 102.749 93.1607 102.504 94.2933H111.909C111.719 93.1426 111.202 92.1957 110.36 91.4527C109.517 90.7097 108.507 90.3382 107.329 90.3382Z" fill="white"/>
</svg>
