<svg width="130" height="56" viewBox="0 0 130 56" fill="none" xmlns="http://www.w3.org/2000/svg">
<path d="M36.8879 31.3525C35.012 36.4204 29.3953 48.404 21.9364 55.7958C18.9685 52.4359 12.6799 44.7417 11.2687 40.8442C17.5685 40.7322 31.5121 38.6771 36.8879 31.3525Z" fill="white"/>
<path fill-rule="evenodd" clip-rule="evenodd" d="M29.5723 14.3196C29.6053 14.2755 29.6022 14.2314 29.5723 14.2064L29.9745 14.0179C29.8404 14.1185 31.4328 13.3307 33.528 12.258C35.6064 11.202 37.3998 10.3304 37.4836 10.3304C37.9027 10.3304 38.9754 14.0347 39.2101 16.2807C39.3777 17.9568 39.1598 21.9293 38.791 23.7395C38.2044 26.5554 36.545 29.606 34.5169 31.6174C30.5612 35.5396 25.9853 37.4001 17.6549 38.4896C11.2521 39.3276 9.03956 39.6629 7.93331 39.9143C4.66483 40.6518 3.02222 42.7134 3.74296 45.1606C4.26256 46.9205 5.83813 48.0435 7.79922 48.0435C8.3691 48.0435 9.03956 47.9597 9.27422 47.8759L9.71001 47.7083L9.35802 48.2112C8.93899 48.7978 8.30206 49.2671 7.31314 49.7197C4.27932 51.0941 0.52477 48.1776 0.206304 44.1884C-0.0954015 40.4339 2.31824 36.1262 6.17336 33.5114C8.21825 32.137 11.2856 30.9637 16.3978 29.606C23.0688 27.8461 25.6669 26.656 27.695 24.3932C28.7342 23.2367 29.237 22.3316 29.7231 20.6387C30.2427 18.8117 30.2762 17.0182 29.8069 15.5097C29.6393 14.9398 29.522 14.4034 29.5723 14.3196Z" fill="white"/>
<path d="M9.60945 5.70428C12.4086 2.85484 16.2302 1.01109 20.0853 0.625575C23.3203 0.307109 27.0245 0.9608 29.7231 2.33523C32.5726 3.77671 35.2041 6.2574 36.9138 9.07331L37.4836 10.3304L34.0373 12C32.0427 13.0392 34.5393 12.5 29.9745 14.0179L29.5723 14.2064C29.5567 14.1934 29.5339 14.1855 29.5052 14.1855C29.4047 14.1855 29.1365 13.8503 28.9018 13.448C28.3654 12.5429 26.8234 11.1014 25.801 10.5986C20.9401 8.13468 15.3251 10.6656 13.9674 15.9455C12.7941 20.5046 15.9955 25.1643 20.8396 25.9688L22.1805 26.1867L20.5882 26.7231C19.7166 27.008 17.4538 27.6617 15.5597 28.1813C11.7884 29.2037 9.74354 29.8742 8.08416 30.6285C7.48075 30.8966 6.94438 31.1145 6.91086 31.1145C6.82705 31.1145 6.05603 28.5165 5.68728 26.9242C5.16768 24.7117 4.83245 22.4154 4.6816 19.9515C4.31285 13.9006 5.80461 9.59292 9.60945 5.70428Z" fill="white"/>
<path d="M81.9355 1.94948V3.45801H83.4441H84.9526V1.94948V0.440957H83.4441H81.9355V1.94948Z" fill="white"/>
<path d="M121.307 1.54836C120.536 2.38643 120.838 3.55973 122.045 4.29723L122.531 4.59893L121.961 5.01797C121.659 5.23586 121.24 5.48729 121.039 5.55433C120.536 5.68842 120.52 6.30859 120.989 6.30859C121.844 6.30859 123.285 5.18558 123.855 4.09609C124.626 2.58756 123.939 1.11256 122.464 1.11256C121.877 1.11256 121.626 1.21313 121.307 1.54836ZM123 2.11825C123.185 2.30262 123.335 2.55404 123.335 2.68813C123.335 3.17421 123 3.79438 122.749 3.79438C122.414 3.79438 121.659 3.05688 121.659 2.70489C121.659 2.41995 122.229 1.78302 122.497 1.78302C122.598 1.78302 122.816 1.93387 123 2.11825Z" fill="white"/>
<path d="M79.7567 5.97292V7.48145H81.1815H82.6062V5.97292V4.46439H81.1815H79.7567V5.97292Z" fill="white"/>
<path d="M84.1138 5.97292V7.48145H85.6223H87.1308V5.97292V4.46439H85.6223H84.1138V5.97292Z" fill="white"/>
<path d="M120.604 10.6834C118.693 11.1359 117.034 12.6444 116.464 14.4714C115.827 16.5498 116.129 18.6283 117.302 20.0865L117.822 20.7234H111.067C107.346 20.7067 103.977 20.6396 103.575 20.5726C103.105 20.472 102.653 20.2373 102.317 19.9021L101.798 19.3825L101.748 15.7788L101.697 12.1751H100.289H98.8813L98.8311 18.8294C98.7808 24.9808 98.7473 25.5507 98.4623 26.1206C98.2779 26.4726 97.9259 26.8246 97.6578 26.9419C97.1884 27.1263 95.8643 27.076 95.3112 26.8413C95.043 26.7408 95.0095 26.8413 95.0095 27.9811V29.2382L95.747 29.4226C97.4399 29.8416 99.3171 29.4729 100.273 28.5175C101.194 27.5956 101.58 26.3553 101.68 23.8578C101.714 22.6845 101.781 21.7291 101.831 21.7291C101.865 21.7291 102.116 21.9973 102.401 22.3158C102.686 22.6342 103.189 22.9862 103.524 23.07C103.943 23.2041 107.497 23.2376 114.453 23.2041L124.761 23.1538L125.817 22.6678C127.04 22.0979 127.895 21.2263 128.499 19.9021C128.851 19.1479 128.951 18.645 129.002 17.3376C129.186 12.9964 126.823 10.4655 122.632 10.5157C121.861 10.5325 120.956 10.5995 120.604 10.6834ZM124.593 13.5831C126.253 14.8569 126.521 17.941 125.13 19.6507C124.493 20.4217 123.772 20.7234 122.599 20.7234C121.492 20.7234 120.906 20.5223 120.252 19.9189C119.515 19.2317 119.146 18.2763 119.146 17.0527C119.146 15.6782 119.414 14.8234 120.051 14.1027C120.856 13.1976 121.392 12.9964 122.766 13.0467C123.772 13.097 124.057 13.1808 124.593 13.5831Z" fill="white"/>
<path d="M48.4119 12.1743V13.5152H50.1383C51.5798 13.5152 51.9821 13.5823 52.7028 13.9175C54.2616 14.6383 54.7812 15.8618 54.7812 18.8286V20.7226H51.0099H47.2386V21.9797V23.2368H52.1832H57.1111L57.3793 22.734C57.5133 22.4658 57.6307 22.1306 57.6307 21.9797C57.6307 21.5942 57.8989 21.678 58.2006 22.1474C58.3514 22.382 58.7705 22.7172 59.1392 22.9016C59.7761 23.2201 60.1114 23.2368 67.1847 23.2368C75.1463 23.2368 75.2301 23.2201 76.0514 22.3485L76.4537 21.9127L76.7554 22.2982C77.1912 22.8513 78.2975 23.2536 79.6719 23.3542C81.281 23.4715 82.6052 23.1698 83.5103 22.4826L84.2645 21.9127L84.5159 22.2982C85.0523 23.1195 85.639 23.2368 89.4606 23.2368H92.9972V17.7056V12.1743H91.4887H89.9802V16.4485V20.7226H88.2035C84.9517 20.7226 84.7841 20.4712 84.7841 15.8786V12.6772H83.3762H81.9515L81.9012 16.1133L81.8509 19.5493L81.2978 20.0857C80.7782 20.6221 80.7111 20.6388 79.4205 20.6388C78.1299 20.6388 78.0628 20.6221 77.5432 20.0857L76.9901 19.5493L76.9398 16.3647L76.8728 13.18H75.4648H74.0568V16.2306C74.0568 18.9795 74.0233 19.3482 73.7216 19.8343C73.1852 20.7059 72.8165 20.7562 65.76 20.6891C57.748 20.6221 58.033 20.7226 57.7648 17.9067C57.5636 15.6272 57.2116 14.4874 56.3401 13.3309C55.0662 11.638 52.9375 10.8502 49.5517 10.8334H48.4119V12.1743Z" fill="white"/>
<path d="M45.7301 43.0156V50.3906H47.071H48.412V44.5577C48.412 41.3562 48.479 38.8588 48.5628 38.9929C48.6299 39.127 49.3171 41.7585 50.0881 44.8091L51.4793 50.3906H52.9208H54.3623L55.7702 44.8091C56.5412 41.7585 57.2452 39.1773 57.3123 39.0767C57.3961 38.9929 57.4631 41.4903 57.4631 44.6582V50.3906H58.804H60.1449V43.0156V35.6406H57.8989C55.8875 35.6406 55.6361 35.6741 55.5523 35.9255C55.502 36.0932 54.9321 38.3057 54.2784 40.8366C53.608 43.3676 53.0046 45.5633 52.9375 45.6974C52.837 45.865 52.7532 45.7477 52.6358 45.2784C52.5353 44.9096 51.9989 42.8648 51.429 40.7528C50.8591 38.6241 50.3228 36.6128 50.2389 36.2608L50.0713 35.6406H47.9091H45.7301V43.0156Z" fill="white"/>
<path d="M95.6798 43.0156V50.3906H97.0039H98.3281L98.3951 46.9881C98.4789 43.3006 98.5963 42.7139 99.4511 42.0435C100.055 41.5574 101.446 41.5406 102.032 41.9932C102.585 42.4122 102.703 43.3006 102.703 47.1557L102.72 50.3906H104.077H105.418L105.368 46.0662C105.318 42.3787 105.284 41.6747 105.033 41.2389C103.96 39.2946 101.027 38.8923 99.2164 40.4511C98.8477 40.7528 98.5125 41.0042 98.4622 41.0042C98.4119 41.0042 98.3616 39.7974 98.3616 38.3224V35.6406H97.0207H95.6798V43.0156Z" fill="white"/>
<path d="M127.023 38.2383C127.023 39.663 126.956 40.8363 126.872 40.8363C126.788 40.8363 126.621 40.719 126.503 40.5514C126.369 40.4005 125.9 40.0988 125.431 39.8977C123.872 39.1602 122.045 39.4619 120.872 40.6352C118.843 42.6801 118.911 47.4403 121.006 49.5355C121.844 50.3736 122.464 50.625 123.671 50.625C124.861 50.625 125.447 50.3903 126.436 49.5355L127.023 49.0159V49.7031V50.3903H128.364H129.705V43.0153V35.6403H128.364H127.023V38.2383ZM125.783 41.9929C126.587 42.479 126.922 43.3673 126.939 45.0267C126.939 47.323 126.118 48.4628 124.492 48.4628C122.933 48.4628 122.196 47.3398 122.179 44.9764C122.162 43.5182 122.481 42.6466 123.269 42.0264C123.855 41.5738 125.062 41.5571 125.783 41.9929Z" fill="white"/>
<path d="M66.2294 39.7297C64.7041 40.2325 63.7654 41.0706 63.0447 42.5959C62.6424 43.4675 62.5754 43.786 62.5922 45.1101C62.6089 47.0879 63.0447 48.2612 64.1007 49.1999C65.0561 50.038 65.7768 50.3732 67.1177 50.5911C69.8331 51.0436 72.4143 49.4848 73.1518 46.9203C73.5373 45.6129 73.4032 43.5345 72.9004 42.5121C72.3808 41.4896 71.4589 40.551 70.4532 40.0314C69.4308 39.5118 67.3524 39.3609 66.2294 39.7297ZM69.4308 42.2271C69.699 42.4115 70.1013 42.9814 70.3359 43.4843C70.6711 44.2385 70.7382 44.5737 70.6544 45.3448C70.5538 46.5516 70.0174 47.6243 69.3135 48.0433C68.643 48.4624 67.3356 48.4791 66.6819 48.0936C65.3913 47.3394 64.922 44.8419 65.7433 43.2161C66.4976 41.7411 68.1234 41.3053 69.4308 42.2271Z" fill="white"/>
<path d="M79.9746 39.6633C79.7735 39.7471 79.3712 40.1327 79.103 40.5014L78.6002 41.1886L78.5499 40.4679L78.4996 39.7471L77.209 39.6969L75.9016 39.6466V45.027V50.3906H77.2258H78.5331L78.617 47.1557C78.7008 43.6525 78.8516 42.9486 79.6562 42.429C80.092 42.144 80.5613 42.144 81.5334 42.429C81.8519 42.5295 81.9357 42.4122 82.3212 41.2557L82.757 39.9818L82.1871 39.7304C81.5502 39.4622 80.5445 39.4454 79.9746 39.6633Z" fill="white"/>
<path d="M86.2425 39.6629C83.5271 40.3501 82.4879 43.2666 84.4155 44.8589C85.0524 45.3785 87.1643 46.1495 89.0248 46.5351C89.7288 46.6692 90.0641 46.8368 90.2484 47.1385C90.4998 47.5072 90.4998 47.5743 90.2484 47.9598C89.8964 48.4961 89.3433 48.714 88.3376 48.714C87.2314 48.714 86.5274 48.2447 85.8737 47.0714C85.8569 47.0547 85.2703 47.1217 84.5663 47.239C83.1751 47.4402 83.0913 47.5407 83.5103 48.3453C83.8791 49.0493 84.7842 49.8371 85.7061 50.2561C86.3933 50.5578 86.8459 50.6248 88.3041 50.6416C89.93 50.6416 90.1311 50.6081 91.0697 50.1388C92.7124 49.3007 93.3996 48.0771 93.0979 46.468C92.8632 45.1942 91.8072 44.4399 89.4606 43.8532C87.2481 43.3001 86.4771 43.0152 86.2927 42.6799C85.924 41.9927 86.6112 41.5066 87.9856 41.5066C88.9075 41.5066 89.6618 41.8251 90.0305 42.3615C90.282 42.6967 90.3322 42.6967 91.5558 42.5123C92.2598 42.395 92.8297 42.2609 92.8297 42.2274C92.8297 42.1939 92.6788 41.8922 92.5112 41.5402C91.7905 40.149 90.7513 39.6461 88.4717 39.5623C87.6001 39.5288 86.5944 39.5791 86.2425 39.6629Z" fill="white"/>
<path d="M110.915 39.7295C109.859 40.0982 109.139 40.6514 108.602 41.4727C106.909 44.121 107.429 48.3616 109.642 49.8366C111.67 51.1943 115.24 50.8423 116.53 49.1494C117.017 48.5125 117.385 47.7414 117.285 47.6241C117.234 47.5906 116.665 47.4732 115.994 47.3559L114.787 47.1548L114.15 47.8755C113.564 48.546 113.446 48.5963 112.726 48.5963C111.469 48.5627 110.429 47.5403 110.429 46.2999V45.8642H114.05H117.67L117.553 44.9758C117.167 41.8414 116.313 40.467 114.301 39.7462C113.413 39.4445 111.737 39.4278 110.915 39.7295ZM113.748 41.942C114.184 42.2437 114.787 43.3499 114.787 43.8528C114.787 44.1713 114.687 44.188 112.608 44.188H110.429V43.769C110.429 43.1823 110.832 42.4448 111.368 42.0258C111.921 41.59 113.195 41.5565 113.748 41.942Z" fill="white"/>
</svg>
