<svg width="142" height="75" viewBox="0 0 142 75" fill="none" xmlns="http://www.w3.org/2000/svg">
<path fill-rule="evenodd" clip-rule="evenodd" d="M61.9056 6.42784C60.9847 6.88567 60.2037 6.91659 59.1674 7.19783V7.1905C58.9109 6.95781 58.975 6.39716 58.9681 5.91872C56.7216 5.8349 54.7245 4.65336 52.5284 3.99033C42.1421 0.855882 28.6334 -0.579879 15.8385 1.00589C14.4811 1.17404 13.1939 2.01001 12.0893 2.22974C12.6633 2.76317 12.9695 3.57173 13.3183 4.33707C10.6655 8.00102 5.98946 10.3245 6.14864 16.1619C5.5992 15.7137 6.24552 14.2108 5.93564 13.9658C4.97511 14.899 6.38224 18.137 4.71265 18.3802C2.04998 18.7681 8.13417 0.941297 10.7303 2.54517C11.2232 2.55452 11.6247 2.47485 11.8929 2.26231C11.7207 2.2848 11.5532 2.28973 11.391 2.27195C8.73712 0.708615 2.88433 2.08263 0.704468 20.0853C1.25207 23.2376 1.78616 26.4044 2.47988 29.4067C4.36476 30.9173 4.32605 33.9011 5.31979 36.1485C6.57302 38.9822 8.41255 41.297 10.1827 43.4123C9.5831 43.9738 9.25102 44.7956 9.3014 45.9897C10.2145 47.6229 12.48 46.7318 14.2655 47.2054C15.6443 47.5709 16.7202 48.7041 17.9572 49.1711C22.3586 50.832 27.6585 51.2106 32.8297 51.3517C43.5595 51.6448 49.9269 48.9652 54.7108 43.3591C59.8437 37.3438 62.7312 30.2845 65.049 21.9627C63.7353 19.8714 60.2772 16.7505 63.1249 15.2087C65.8968 13.7079 74.8572 13.999 77.9676 15.1908C81.9869 16.7309 78.4093 20.2191 76.6403 21.944L76.5937 21.9894C80.9246 36.9084 88.1986 51.3269 105.034 51.8384C110.892 52.0168 114.693 52.0589 120.228 50.7164C122.371 50.1967 124.124 49.0525 126.425 48.2502C127.686 47.8109 131.363 48.6854 132.09 47.0739C132.674 45.779 131.633 45.173 131.134 44.155C134.813 41.2271 136.518 36.3773 137.736 31.0552C138.095 30.6803 138.456 30.309 138.821 29.9408C139.302 27.4602 140.127 24.579 140.551 22.4044C140.701 21.6383 140.283 20.3574 141.252 20.0127C139.072 2.01003 133.219 0.636016 130.565 2.19935C130.036 2.45269 129.279 2.46332 128.41 2.34936C126.444 2.09143 123.903 1.19526 122.121 1.03086C112.908 0.181631 101.545 0.787633 93.3755 2.88642C89.7049 3.82932 86.0055 4.69618 83.1555 5.95674C82.814 6.37402 83.3612 7.41495 82.6308 7.79627C80.8964 7.19669 79.4705 7.34944 77.84 5.84543C76.5165 4.62473 76.2071 2.39883 74.4974 2.59235C73.2785 2.73046 73.7634 3.58014 72.6851 4.08285C70.8401 4.08354 70.0623 4.03819 68.2881 4.1424C66.4575 -0.260388 64.7405 5.01819 61.9056 6.42784ZM21.1787 2.94826C21.3214 2.55278 21.5738 2.26414 21.8263 1.97551C22.0578 1.71071 22.2894 1.44592 22.4362 1.09865C23.1644 1.08674 23.7937 1.06157 24.3809 1.03808C25.9843 0.973942 27.2734 0.922377 29.4007 1.18774C29.3089 2.11853 28.7992 2.64262 28.2896 3.16673C28.0466 3.41663 27.8035 3.66655 27.6058 3.96055C26.5322 3.92854 25.5497 3.95847 24.5017 3.99039C23.6529 4.01624 22.761 4.04341 21.743 4.04002C21.7434 3.68602 21.5837 3.49652 21.424 3.30705C21.332 3.19792 21.24 3.0888 21.1787 2.94826ZM21.1674 2.21538C20.5818 2.19874 20.3576 1.81056 20.4194 1.1259L21.702 1.1085C21.7045 1.40406 21.5676 1.56404 21.4308 1.724C21.3144 1.86002 21.1981 1.99604 21.1674 2.21538ZM32.0031 3.90078C31.1354 3.3686 30.7513 2.33911 30.3673 1.30979C30.3505 1.26489 30.3338 1.22 30.317 1.17514C31.0293 0.830689 32.5044 1.10071 33.0701 1.50425C33.4087 2.38342 32.9046 2.91662 32.4111 3.43848C32.2671 3.59077 32.1241 3.7421 32.0031 3.90078ZM18.4501 4.4509C18.3425 4.29623 18.2625 4.11318 18.1825 3.93011C18.0571 3.64315 17.9317 3.35615 17.7 3.17843H17.6979C17.8445 2.98442 17.9594 2.75952 18.0744 2.53456C18.3707 1.95457 18.6673 1.37413 19.5072 1.32149C20.4213 2.54334 20.4453 4.35471 18.4501 4.4509ZM18.2258 1.52212C18.1666 1.7358 18.0161 1.86045 17.8656 1.98509C17.7151 2.10974 17.5645 2.23439 17.5053 2.44807H17.5044C17.1425 2.32623 17.0097 1.96597 16.9433 1.53952L18.2258 1.52212ZM35.6716 4.21775C35.1749 3.932 34.9136 3.40448 34.6522 2.87697C34.507 2.58382 34.3617 2.29068 34.1761 2.03903H34.1752C34.2019 2.00775 34.2284 1.97623 34.2549 1.94471C34.6186 1.51208 34.9821 1.07968 35.9982 1.28141C36.8736 2.27882 36.8344 3.57373 35.6716 4.21775ZM14.0367 3.41135C13.708 3.39164 13.6179 3.12674 13.5278 2.86186C13.4462 2.62196 13.3646 2.38208 13.1057 2.32439H13.1073C13.2522 2.00227 13.6881 1.96337 14.1236 1.92452C14.425 1.89762 14.7262 1.87075 14.9304 1.75C15.1353 2.07798 14.8582 2.35832 14.5577 2.66231C14.3337 2.88899 14.0966 3.12881 14.0367 3.41135ZM14.6068 4.86978C14.6199 4.59975 14.514 4.45199 14.4081 4.30423C14.335 4.20235 14.262 4.10047 14.228 3.95849H14.23C14.3412 3.54703 14.586 3.2661 14.8307 2.98535C15.1257 2.64696 15.4204 2.30882 15.4805 1.74267C16.109 1.68643 16.2656 2.1149 16.4222 2.54333C16.5124 2.79013 16.6026 3.03692 16.783 3.19103C16.859 3.50022 16.6083 3.70032 16.3882 3.87596C16.1457 4.06955 15.9403 4.23342 16.2507 4.4809C15.9408 4.8423 15.3074 4.88879 14.6068 4.86978ZM37.6641 2.54151C38.6397 1.38638 40.4128 1.83579 42.235 2.29765C43.2442 2.55344 44.2685 2.81305 45.1808 2.80603H45.1819C45.2643 2.99673 45.3896 3.14306 45.5149 3.28933C45.6997 3.5051 45.8844 3.72074 45.9308 4.0785C45.7697 4.27537 45.637 4.49984 45.5043 4.7243C45.2751 5.11191 45.0459 5.49949 44.6707 5.74489C43.5835 5.56602 42.5075 5.37547 41.4316 5.18492C40.5541 5.02951 39.6766 4.87411 38.793 4.72504C38.7047 4.17542 38.4414 3.80572 38.1781 3.436C37.9831 3.16221 37.7881 2.88841 37.6641 2.54151ZM30.7201 3.91841L28.7051 3.94567C28.4825 3.60792 28.7487 3.37115 29.0473 3.10564C29.3016 2.87946 29.5794 2.63241 29.5983 2.28431C30.1442 2.41275 30.3284 2.91248 30.5125 3.41224C30.5766 3.58618 30.6407 3.76012 30.7201 3.91841ZM109.69 3.21485C109.609 2.9103 109.424 2.71242 109.24 2.51455C109.012 2.26973 108.783 2.02495 108.751 1.57823C109.04 1.34284 109.587 1.35899 110.134 1.37514C110.417 1.38349 110.7 1.39184 110.948 1.36546C110.84 2.28523 110.402 2.88367 109.69 3.21485ZM112.411 1.34554C113.236 1.39247 114.11 1.41983 114.982 1.44716C116.256 1.48705 117.529 1.5269 118.645 1.62747C118.779 1.99778 119.014 2.26444 119.248 2.53095C119.586 2.915 119.924 3.29874 119.96 3.99193C119.736 4.07484 119.587 4.23149 119.601 4.5464C118.45 4.61402 117.089 4.56175 115.648 4.50634C113.955 4.44128 112.15 4.37191 110.438 4.48731C110.428 3.56175 111.353 2.52905 112.1 1.69596C112.209 1.5746 112.314 1.45748 112.411 1.34554ZM106.397 3.62572C105.69 3.37952 105.167 2.52868 105.456 1.80611C105.873 1.5141 107.23 1.49578 107.654 1.77634C107.064 2.20346 106.741 2.89146 106.418 3.57921L106.397 3.62572ZM34.2061 4.23744C33.568 4.21359 33.4405 4.19108 33.1868 4.1463C33.0775 4.12701 32.9448 4.10359 32.7378 4.07415H32.7387C32.7012 3.75632 32.8595 3.6288 33.0179 3.50125C33.1982 3.356 33.3786 3.2107 33.2701 2.78428C33.8616 2.98147 34.1575 3.48235 34.2061 4.23744ZM102.915 3.67313C102.859 3.30827 102.654 3.09591 102.45 2.88355C102.235 2.66028 102.019 2.43701 101.977 2.03651H101.976C102.667 2.0226 102.997 1.97227 103.334 1.92083C103.569 1.88505 103.807 1.84873 104.173 1.82374C104.147 2.82344 103.689 3.40173 102.915 3.67313ZM120.133 3.07331C120.013 2.57701 119.758 2.22042 119.385 1.98406C119.517 1.5243 119.807 1.60617 120.174 1.70953C120.431 1.78225 120.727 1.86561 121.032 1.7784C121.006 2.47715 120.788 2.98742 120.133 3.07331ZM102.566 4.96048C101.661 5.20607 100.655 5.35323 99.6491 5.5004C98.7712 5.62881 97.8933 5.75721 97.0825 5.95101C97.3453 5.57573 97.5583 5.15193 97.7714 4.72808C98.433 3.41192 99.0948 2.09532 101.246 2.22958C101.389 2.51337 101.613 2.78406 101.839 3.05756C102.313 3.63075 102.796 4.21626 102.566 4.96048ZM109.337 4.31898C109.258 4.3377 109.171 4.35899 109.079 4.38159C108.358 4.5589 107.311 4.81633 106.775 4.53701C106.995 3.96818 107.337 3.51661 107.679 3.06493C107.862 2.82228 108.046 2.57959 108.211 2.31867C108.338 2.5249 108.524 2.72133 108.711 2.91839C109.117 3.34656 109.526 3.77772 109.337 4.31898ZM122.542 5.05621C121.879 5.0979 121.559 4.78806 121.239 4.47826C121.125 4.36769 121.01 4.25713 120.881 4.16255C120.922 3.6755 121.171 3.3909 121.421 3.10627C121.656 2.83813 121.892 2.56996 121.953 2.13247C122.694 2.16314 122.938 2.70435 123.182 3.24537C123.262 3.42352 123.343 3.60165 123.441 3.76153C123.274 4.09819 123.054 4.38252 122.834 4.66679C122.735 4.79501 122.636 4.92322 122.542 5.05621ZM124.336 2.2834C124.318 2.31431 124.301 2.34581 124.284 2.3773C124.15 2.6211 124.017 2.86502 123.611 2.84291H123.609C123.465 2.68167 123.408 2.43181 123.417 2.11232C123.841 2.04842 124.121 2.13247 124.336 2.2834ZM48.7181 6.78948C47.7113 6.09003 47.2054 4.87643 46.8412 3.51647H46.8401C48.9288 2.71534 50.9534 5.7016 48.7181 6.78948ZM95.797 5.7852C95.7034 5.39131 95.4802 5.1306 95.2569 4.8699C95.1135 4.70238 94.97 4.53487 94.861 4.33203H94.8594C94.8294 3.3466 95.6198 3.15998 96.4108 2.97323C96.7666 2.88923 97.1225 2.80521 97.4038 2.64846C98.0247 3.42893 96.9129 4.60068 96.1584 5.39587C96.0222 5.53942 95.8976 5.67071 95.797 5.7852ZM37.6916 4.55671L36.5923 4.57159H36.5914C36.5066 4.29476 36.5854 4.17734 36.6642 4.05989C36.7322 3.95851 36.8003 3.85712 36.7632 3.6532C37.4667 3.53468 37.5752 4.02775 37.6838 4.52096C37.6864 4.53288 37.689 4.5448 37.6916 4.55671ZM58.4441 7.94056C62.4507 7.80223 64.3202 5.58389 66.0771 3.25584L66.0796 3.2563C66.4123 3.29805 66.5929 3.4286 66.751 3.54288C66.9859 3.71261 67.1711 3.84643 67.7309 3.60007C67.0888 3.94949 67.3094 4.28106 67.5533 4.64781C67.7471 4.93922 67.9557 5.25284 67.7581 5.61526C67.362 5.94321 67.0977 5.71262 66.8098 5.4615C66.6046 5.28242 66.3873 5.09291 66.1018 5.08804C66.0903 5.98714 66.6512 6.29857 67.2119 6.60992C67.2771 6.6461 67.3423 6.68229 67.4065 6.7194C67.4622 7.31601 67.2009 7.60412 66.686 7.64535C66.3288 7.68251 66.2477 7.43592 66.1666 7.18934C66.0802 6.92682 65.9938 6.6643 65.5743 6.74413C64.8254 7.20539 66.1352 8.26417 66.6984 8.56145C66.685 9.12311 66.2116 9.23735 65.7383 9.35158C65.5667 9.39302 65.395 9.43445 65.2452 9.49725C64.7988 9.49309 64.6123 9.22183 64.4258 8.95057C64.2631 8.71378 64.1003 8.47698 63.7646 8.41785C63.2731 9.05614 64.2682 9.75078 64.7029 10.0542C65.2381 10.115 65.6034 10.0108 65.9688 9.90642C66.0343 9.88774 66.0997 9.86906 66.1662 9.85132C66.3212 10.2015 66.3041 10.2838 66.2525 10.5316C66.2313 10.6334 66.2043 10.763 66.181 10.9506C66.0363 10.9226 65.8907 10.8502 65.7588 10.7848C65.4133 10.6133 65.1624 10.4887 65.27 11.3295C64.2414 11.5598 63.9073 11.0763 63.5732 10.5929C63.3818 10.3159 63.1903 10.0389 62.8682 9.89621C62.7145 10.8009 63.5731 12.2652 65.0966 12.0649C64.9867 12.6218 64.6023 12.6098 64.2047 12.5974C63.8386 12.586 63.4613 12.5742 63.2768 13.0059C62.6028 12.9259 62.449 12.3116 62.2951 11.6973C62.1653 11.179 62.0355 10.6606 61.5932 10.4633C61.459 11.5947 61.9063 13.7312 63.4701 13.7363C63.1162 14.5869 62.5434 14.9469 61.4672 14.6796C61.3631 14.3612 61.2386 14.0637 61.114 13.7661C60.8399 13.1111 60.5657 12.456 60.509 11.5775C59.7691 12.0339 60.1478 12.8689 60.5501 13.7559C60.8992 14.5257 61.266 15.3348 60.935 15.9695C59.4518 13.9639 58.6305 11.2781 58.4441 7.94056ZM126.354 2.43937C126.407 2.45023 126.462 2.45908 126.516 2.46793C126.826 2.51789 127.136 2.56788 127.094 2.97895H127.094C126.784 3.31424 126.372 2.93269 126.354 2.43937ZM74.8964 4.96895C74.5036 4.65494 74.3244 4.87347 74.1148 5.1292C73.9199 5.36699 73.6987 5.63694 73.2547 5.54083L73.2543 5.54129C73.2775 5.40291 73.2971 5.26102 73.3167 5.11913C73.4439 4.19887 73.5711 3.27903 74.6903 3.32249C76.279 6.14843 78.6895 8.13019 82.8209 8.34342C82.5717 11.1739 81.8746 13.5689 80.9051 15.699C80.6775 15.7111 80.5061 15.7346 80.3656 15.7538C79.9962 15.8043 79.8401 15.8256 79.437 15.5357C79.5376 15.3734 79.6463 15.2045 79.7588 15.0297C80.5389 13.8176 81.5029 12.3197 81.2047 10.7475C80.8562 11.1554 80.6559 11.7076 80.4556 12.2599C80.1551 13.0886 79.8546 13.9172 79.0532 14.2582C78.6763 14.2103 78.3752 14.0845 78.0742 13.9586C78.0326 13.9412 77.9911 13.9238 77.9493 13.9067C78.0201 13.8017 78.0881 13.7014 78.1536 13.6047C78.8747 12.5407 79.2904 11.9273 79.7366 10.584C79.3877 10.3615 79.2861 10.602 79.1745 10.866C79.0401 11.1842 78.8913 11.5363 78.2782 11.1533C79.353 12.6191 75.9646 13.472 76.4489 11.3615C77.4622 11.2758 77.8187 10.5505 78.1752 9.82528C78.2595 9.65371 78.3439 9.48215 78.4369 9.31906C77.9551 9.43039 77.6809 9.7438 77.4066 10.0572C77.0259 10.4924 76.6451 10.9276 75.7085 10.8219C75.6746 10.6799 75.6015 10.5779 75.5284 10.476C75.4226 10.3283 75.3167 10.1806 75.3297 9.91087C75.5284 9.81785 75.7666 9.76333 76.0048 9.70881C76.5185 9.59126 77.0323 9.4737 77.1493 8.97003C76.8972 8.54857 76.4021 8.76587 75.8661 9.00117C75.3582 9.22413 74.8135 9.46325 74.4037 9.19035C74.3656 9.09283 74.3828 8.93845 74.4 8.78408C74.4296 8.51898 74.4591 8.2539 74.2082 8.27677C74.3418 7.99963 74.6155 7.85867 74.8892 7.71771C75.2634 7.52493 75.6376 7.33216 75.6538 6.79108C75.3009 6.48361 75.0785 6.70433 74.8198 6.96109C74.5718 7.20714 74.2905 7.48629 73.8291 7.36548C73.3322 6.58744 73.7809 6.21583 74.2412 5.8346C74.5392 5.58774 74.8422 5.33685 74.8964 4.96895ZM125.658 5.19729L125.658 5.19657C124.567 4.72047 124.396 3.60645 125.074 2.63976C125.634 2.54003 125.782 2.86474 125.93 3.18933C126.032 3.41335 126.133 3.63732 126.371 3.72168C126.354 4.11445 126.175 4.35031 125.996 4.58618C125.859 4.76633 125.723 4.94649 125.658 5.19657L125.66 5.19729H125.658ZM27.2428 4.3318C26.6677 4.86057 25.4884 4.80141 24.3093 4.74224C23.5951 4.70641 22.881 4.67058 22.3011 4.76535H22.3004C23.0948 4.19361 24.089 4.25763 25.1915 4.32862C25.8437 4.37062 26.5338 4.41505 27.2428 4.3318ZM105.497 4.92086C105.202 4.72763 104.892 4.77459 104.575 4.82273C104.275 4.86805 103.97 4.91441 103.662 4.76237C103.709 4.39643 103.908 4.1787 104.106 3.96104C104.315 3.7319 104.524 3.50284 104.556 3.10102C105.251 3.09208 105.474 3.56822 105.697 4.04424C105.748 4.15351 105.799 4.26277 105.856 4.36616C105.687 4.50288 105.583 4.70306 105.497 4.92086ZM19.917 4.61442C19.806 5.06206 20.1737 5.01806 20.5414 4.97406C20.7194 4.95276 20.8974 4.93145 21.0211 4.96597C20.9707 4.28531 20.3659 4.4612 19.917 4.61442ZM31.0934 4.46303C30.6687 4.22492 29.9745 4.26387 29.2803 4.30281C28.8908 4.32466 28.5013 4.34652 28.1594 4.31944C28.5418 4.85329 30.6697 5.16133 31.0934 4.46303ZM32.3755 4.44563C32.5971 4.47447 32.8434 4.47795 33.0896 4.48143C33.7351 4.49055 34.3805 4.49967 34.5815 4.96552H34.581C34.3671 4.95174 34.1306 4.96115 33.8939 4.97057C33.1907 4.99856 32.4869 5.02657 32.3755 4.44563ZM92.3248 6.38204C91.9921 6.38355 91.8866 6.1518 91.781 5.92002C91.6944 5.72988 91.6078 5.53972 91.3958 5.47831H91.3942C91.5087 4.34898 92.6012 3.32707 93.7555 3.79703C93.6005 4.74181 93.1146 5.36389 92.6287 5.98598C92.5263 6.117 92.424 6.24801 92.3248 6.38204ZM14.072 5.97621C13.6735 5.87175 13.4183 6.02677 13.2069 6.15523C12.997 6.2828 12.8301 6.38417 12.6088 6.17935H12.6074C12.6446 5.89866 12.8034 5.73659 12.9622 5.5745C13.136 5.3971 13.3099 5.21968 13.3242 4.88673C13.9284 4.88513 14.0315 5.39838 14.072 5.97621ZM17.7224 4.82741C17.7685 5.36631 16.5464 5.59511 16.2617 5.21378H16.2613C16.1822 4.74395 16.6319 4.78897 17.0816 4.834C17.3222 4.85809 17.5628 4.88218 17.7224 4.82741ZM36.2327 5.12629C36.3474 5.14585 36.4972 5.18879 36.6618 5.23599C37.2261 5.3978 37.9651 5.6097 38.0649 5.10156C37.9966 5.0835 37.922 5.06234 37.8432 5.04C37.2597 4.87446 36.4466 4.64381 36.2327 5.12629ZM52.3985 8.02255C52.2654 7.5161 51.94 7.04501 51.6236 6.58702C51.1955 5.96722 50.784 5.37143 50.8881 4.74451H50.8895C52.2338 4.15064 53.3194 5.31089 53.8393 6.17065C53.4912 6.91636 53.1011 7.62176 52.3985 8.02255ZM47.0613 6.26226C46.4227 6.28133 45.9625 6.11673 45.5024 5.95213C45.4708 5.94082 45.4392 5.92951 45.4075 5.91826H45.4086C45.3855 5.55818 45.5795 5.40977 45.7734 5.26131C45.9258 5.14472 46.0781 5.02809 46.1255 4.80886C46.6974 5.02621 46.9404 5.58182 47.0613 6.26226ZM73.0969 7.37555C72.2055 7.1636 71.0737 7.19872 69.942 7.23384C69.3959 7.25078 68.8498 7.26773 68.3307 7.25692H68.3302C68.4292 6.91432 68.3782 6.59716 68.3247 6.26471C68.2507 5.80487 68.172 5.31575 68.4791 4.68954L72.6929 4.63251C72.628 5.1145 72.7974 5.55727 72.9578 5.97678C73.145 6.46625 73.3201 6.92405 73.0969 7.37555ZM39.3514 5.26737C40.7822 5.35391 42.0326 5.62574 43.2829 5.89755C43.6242 5.97175 43.9655 6.04594 44.3105 6.11637H44.3098C43.2265 6.66855 40.4713 5.89559 39.3514 5.26737ZM88.6775 7.71428C88.5354 7.52362 88.3816 7.34485 88.2279 7.16607C87.7879 6.65442 87.3478 6.14274 87.1795 5.35234H87.1788C87.488 5.29139 87.8168 5.16445 88.1537 5.03439C88.8649 4.7598 89.6122 4.47132 90.2867 4.76054C90.1693 5.59223 89.7583 6.1381 89.3473 6.68399C89.1037 7.00757 88.86 7.33116 88.6775 7.71428ZM95.4328 5.97346C95.1999 6.41985 94.5976 6.50696 93.9954 6.59406C93.735 6.63172 93.4746 6.66939 93.2441 6.73611C93.3416 6.36356 93.5574 6.10636 93.7729 5.84935C94.0026 5.57549 94.2322 5.30183 94.3184 4.88902C94.5506 4.99481 94.6835 5.20245 94.8165 5.4101C94.9705 5.65066 95.1246 5.89122 95.4328 5.97346ZM8.10503 25.977C7.6152 22.7539 6.67056 16.5381 7.93435 12.8396L7.9316 12.8399C9.82793 7.29448 15.2925 6.66145 22.3213 6.23111C28.5744 5.84818 33.2075 6.16699 38.8226 6.92369C46.8854 8.01018 56.4394 9.03026 56.9211 17.3066C57.1519 21.2687 55.6671 25.5974 54.2267 29.7966L54.1611 29.9879C52.6184 34.4871 50.9227 38.594 48.6281 40.8742C44.3718 45.1043 37.4841 45.9865 28.8984 45.3562C16.1245 44.4186 10.0512 38.7892 8.11322 26.0308L8.10503 25.977ZM107.334 5.26233C107.654 5.57747 108.469 5.44991 108.614 5.06194C108.44 5.06145 108.279 5.02967 108.131 5.00051C107.789 4.93294 107.518 4.8795 107.334 5.26233ZM118.881 5.47235C117.369 4.76827 115.678 4.80532 113.775 4.84703C112.95 4.86512 112.084 4.88408 111.177 4.8439C111.962 5.47625 113.729 5.4302 115.546 5.38286C116.721 5.35225 117.916 5.32109 118.881 5.47235ZM124.556 5.02896C124.454 5.38918 124.366 5.35955 124.18 5.29664C124.089 5.26607 123.976 5.22765 123.826 5.22225H123.825L123.818 4.67259C124.097 4.59406 124.181 4.71627 124.265 4.83845C124.33 4.93432 124.396 5.03017 124.556 5.02896ZM54.0358 7.084C54.5655 7.4899 54.8598 8.13776 55.154 8.7856C55.5118 9.57324 55.8695 10.3609 56.6504 10.7136L56.6499 10.7129C56.9498 9.8959 56.3938 9.00427 55.8025 8.05603C55.3507 7.33151 54.8783 6.57395 54.7513 5.79138C55.5888 5.8076 56.1774 6.07959 56.766 6.35157C57.0087 6.46375 57.2515 6.57592 57.5117 6.67015C57.8326 12.2847 59.7168 16.2933 61.9067 19.9875C61.42 20.1096 61.0901 20.3845 60.7603 20.6594C60.4563 20.9127 60.1523 21.1661 59.7255 21.2998C59.1852 19.9974 58.6321 18.7082 57.6631 17.8461C57.4962 13.4358 55.2002 11.2126 52.7805 9.11661C54.0412 9.07395 54.9181 10.2629 55.7368 11.373C56.0521 11.8004 56.3587 12.2162 56.6753 12.5453C56.5125 10.9051 54.6729 9.52839 53.2863 8.49061C53.2359 8.45293 53.1862 8.4157 53.1371 8.37892C53.1455 7.9822 53.3743 7.80005 53.6032 7.61789C53.7831 7.47469 53.963 7.33148 54.0358 7.084ZM128.435 7.17538C127.855 6.78054 127.044 6.62229 126.226 6.47228H126.227C126.766 6.09328 126.74 5.93053 126.697 5.6507C126.667 5.46094 126.629 5.21734 126.753 4.81596C127.685 5.13431 128.418 6.52312 128.435 7.17538ZM50.9252 7.49259C50.7109 7.37233 50.4498 7.30001 50.1886 7.22769C49.9275 7.15539 49.6664 7.08307 49.4521 6.96285H49.4532C49.6319 6.59549 49.9021 6.31516 50.1724 6.0369C50.6217 6.31837 50.8693 6.80688 50.9252 7.49259ZM45.0447 6.28974C45.3309 6.36731 45.6395 6.42179 45.9481 6.47627C46.5653 6.58524 47.1825 6.6942 47.6199 6.98781H47.619C46.909 7.33891 45.331 6.99056 45.0447 6.28974ZM78.9588 20.856C81.2544 16.8574 83.6108 12.0392 83.712 6.49862L83.709 6.49884C85.997 4.98934 87.4216 6.47022 88.317 8.26852C87.996 8.64599 87.5497 8.90157 87.1035 9.15716C86.4973 9.50435 85.8911 9.85155 85.5987 10.5043C85.962 10.7138 86.3244 10.3286 86.6878 9.94253C87.0512 9.55637 87.4155 9.16927 87.7823 9.37518C85.4403 11.616 83.3007 14.0533 82.9546 18.2364C82.592 18.1722 82.6526 17.802 82.728 17.3416C82.7857 16.9896 82.852 16.5848 82.7444 16.2235C82.6785 16.5114 82.6158 16.8023 82.5531 17.0932C82.1434 18.9943 81.7338 20.8952 80.4397 21.9354C79.88 21.6434 79.3631 21.3079 78.9588 20.856ZM102.026 5.70092C100.801 6.27495 99.1573 6.44116 97.5136 6.60736C97.2503 6.63399 96.9869 6.66063 96.7253 6.68893H96.7241C97.883 5.872 100.622 5.6826 102.026 5.70092ZM121.446 5.43754C121.314 5.89743 121.023 5.81538 120.656 5.71199C120.398 5.63928 120.103 5.55603 119.8 5.6432H119.799C119.827 5.06377 121.148 5.20004 121.446 5.43754ZM91.7849 7.12248C91.5983 7.16459 91.3854 7.24737 91.1688 7.3316C90.7105 7.50985 90.2355 7.69455 89.9576 7.51366H89.9564C89.9684 7.18238 90.1409 7.00655 90.3136 6.83049C90.5042 6.63628 90.695 6.44178 90.671 6.03804C91.4652 5.96476 91.6388 6.52953 91.7849 7.12248ZM123.28 5.59602C123.425 5.60985 123.58 5.6134 123.734 5.61695C124.287 5.62962 124.84 5.64229 124.937 6.12324H124.936C124.757 6.07859 124.542 6.07051 124.327 6.06243C123.845 6.04431 123.363 6.02618 123.28 5.59602ZM95.2609 6.70863C95.1584 7.33009 94.4925 7.40313 93.8266 7.47617C93.4908 7.513 93.155 7.54984 92.8914 7.65703H92.8905C93.086 7.13608 93.712 7.03315 94.3387 6.93012C94.6664 6.87624 94.9943 6.82234 95.2609 6.70863ZM87.0805 11.5839C89.1479 9.69238 92.8192 8.91735 96.7459 8.15447L96.7465 8.1547C100.844 7.35838 104.52 6.94865 108.821 6.7084C116.217 6.29547 131.829 5.72542 133.661 14.2514C134.429 17.826 133.779 22.6057 133.272 26.1676C132.311 32.9318 129.96 39.0042 125.427 42.2163C120.002 46.0607 108.929 46.8371 101.471 45.8393C90.6133 44.3854 87.277 33.9744 85.0356 22.9729C84.1563 18.6569 83.9181 14.4763 87.0805 11.5839ZM49.0964 7.70077C49.7924 7.30203 51.3223 7.63779 51.4881 8.40136H51.4874C50.6874 8.36126 50.0912 8.11255 49.4957 7.86413C49.3633 7.8089 49.231 7.75368 49.0964 7.70077ZM66.02 12.6024C66.6567 11.3968 67.3761 9.71871 67.9734 7.99461C70.0232 7.93117 72.0109 7.93369 73.8385 8.09836L74.1148 9.35158C74.2922 9.55932 74.312 9.85472 74.4974 10.0542C75.2246 10.8369 75.8581 11.5529 76.1017 12.8321C72.5573 12.3651 69.2166 12.3786 66.02 12.6024ZM91.427 7.86017C91.0441 8.39128 90.2624 8.53442 89.4216 8.62008H89.4207C89.5153 8.06795 90.1211 8.01348 90.7266 7.95902C90.9714 7.93702 91.2161 7.91501 91.427 7.86017ZM65.849 13.5208C66.2534 12.815 67.3752 12.7859 68.1891 12.7648C68.3334 12.761 68.468 12.7575 68.5872 12.7506L68.5879 12.7501C71.1415 12.6015 74.5975 12.8642 77.3962 13.7308C76.4764 13.7019 75.4159 13.6188 74.2893 13.5305C71.5048 13.3124 68.3162 13.0626 65.849 13.5208ZM6.50431 15.4242C7.13688 15.287 7.16986 16.0577 6.88312 16.3353L6.8822 16.3357C6.60737 16.1846 6.48141 15.88 6.50431 15.4242ZM2.55797 21.7082C2.70183 21.1324 3.10047 20.8047 3.49892 20.477C3.83877 20.1975 4.17855 19.9181 4.36018 19.4848C6.07443 20.1529 6.36461 22.5302 4.59561 23.3299C4.19407 23.1587 3.92345 22.8529 3.65282 22.5471C3.34941 22.2043 3.04589 21.8615 2.55797 21.7082ZM59.1836 21.8582C59.037 22.026 58.8229 22.1281 58.6087 22.2303C58.3242 22.366 58.0397 22.5018 57.9135 22.7915L57.9119 22.7922C57.0069 22.3134 57.1976 21.1195 57.3777 19.9927C57.425 19.6965 57.4716 19.405 57.4973 19.1323C58.0768 19.5011 58.3695 20.1642 58.6623 20.8273C58.8209 21.1866 58.9794 21.5458 59.1836 21.8582ZM135.562 19.355C135.425 19.3946 135.32 19.465 135.215 19.5353C135.027 19.6616 134.838 19.7878 134.468 19.7363L134.468 19.7361C134.484 19.6688 134.501 19.6026 134.519 19.5363C134.613 19.1691 134.708 18.8015 134.631 18.268C134.712 18.3333 134.798 18.3929 134.885 18.4526C135.195 18.6666 135.505 18.8807 135.562 19.355ZM136.665 19.5263C136.77 19.1936 137.039 19.0212 137.307 18.8493C137.561 18.6865 137.815 18.524 137.929 18.2254C138.206 18.3963 138.448 18.6017 138.69 18.8074C138.745 18.8537 138.8 18.9 138.855 18.9459C138.833 19.0798 138.815 19.2172 138.796 19.3547C138.723 19.9114 138.649 20.4679 138.33 20.7857C137.862 20.7121 137.611 20.4149 137.361 20.1178C137.164 19.8844 136.967 19.6512 136.665 19.5263ZM82.9798 19.8858C83.5441 20.2268 83.5507 21.1414 83.5573 22.0554C83.5587 22.2476 83.56 22.4398 83.5666 22.6266L83.5661 22.6273C82.973 22.1944 82.721 20.5935 82.9798 19.8858ZM60.2857 22.0243C60.6865 21.1487 61.5371 20.7113 62.4619 20.3455L62.461 20.3464C62.4814 20.386 62.5017 20.4257 62.5221 20.4653C62.8347 21.0752 63.1471 21.6846 63.7664 21.9771C63.6735 22.168 63.647 22.4236 63.6205 22.6793C63.5789 23.0805 63.5373 23.4817 63.2392 23.6332C62.7433 23.5905 62.8786 23.3164 63.0459 22.9778C63.1729 22.7207 63.3183 22.4262 63.2195 22.1676C62.6854 22.2787 62.5927 22.8192 62.5 23.3597C62.3978 23.9553 62.2956 24.5509 61.6028 24.5717C61.4578 23.9596 61.1605 23.5039 60.8633 23.0482C60.6527 22.7254 60.4421 22.4026 60.2857 22.0243ZM135.796 23.0182L135.796 23.0178C133.603 22.4403 134.893 20.3543 136.118 19.7154C136.689 20.1194 137.184 20.6013 137.603 21.1613C137.464 21.7009 137.05 21.9739 136.637 22.2469C136.312 22.461 135.988 22.6751 135.796 23.0178L135.797 23.018L135.796 23.0182ZM81.1779 22.2922L81.1783 22.2934C81.6475 22.2963 81.7599 21.9539 81.8724 21.6115C81.9547 21.3607 82.037 21.1099 82.2596 20.9948C82.8614 21.3615 82.8846 23.1233 82.8443 23.5523C82.3459 23.7311 81.4345 22.9596 81.1783 22.2934L81.1763 22.2934L81.1779 22.2922ZM2.24993 25.9269L2.25015 25.9264C2.33032 25.514 2.18326 24.7588 2.0393 24.0195C1.90312 23.3201 1.7697 22.6349 1.83402 22.2677C2.37238 22.4076 2.69179 22.7725 3.01119 23.1375C3.26248 23.4246 3.51376 23.7117 3.87166 23.8892C3.73169 24.4277 3.36668 24.7471 3.0017 25.0664C2.71467 25.3176 2.42766 25.5687 2.25015 25.9264L2.24993 25.9275V25.9269ZM79.1906 24.3354C78.1609 24.2254 77.7816 23.4469 77.4021 22.6682C77.3794 22.6215 77.3566 22.5747 77.3337 22.5281L77.3346 22.5272C77.4072 22.279 77.5875 22.1356 77.7676 21.9924C77.9963 21.8107 78.2247 21.6291 78.2324 21.2332C78.7951 21.361 79.1587 21.6932 79.5223 22.0254C79.701 22.1886 79.8797 22.3518 80.082 22.4908C80.0111 22.8296 79.8311 23.0621 79.6511 23.2947C79.432 23.5777 79.2129 23.8607 79.1906 24.3354ZM6.08245 24.776C5.69934 24.7729 5.54403 24.5358 5.38872 24.2986C5.27738 24.1286 5.16604 23.9586 4.97076 23.8748C4.94337 23.6508 5.09703 23.6032 5.25083 23.5555C5.4255 23.5014 5.60035 23.4472 5.51034 23.1346C6.12384 23.0421 6.09941 23.6049 6.07497 24.1679C6.06565 24.3827 6.05632 24.5975 6.08245 24.776ZM59.4193 25.884C59.0647 25.0101 58.6202 24.2286 58.1047 23.5198C59.2409 21.3378 60.2446 23.5405 60.8185 24.8C60.9108 25.0025 60.9919 25.1805 61.0607 25.3121C60.735 25.3285 60.5315 25.4639 60.328 25.5992C60.0901 25.7574 59.8522 25.9156 59.4193 25.884ZM138.02 25.0043C137.26 24.795 136.759 24.3191 136.354 23.7442L136.352 23.7447C136.495 23.3428 136.83 23.1276 137.165 22.9124C137.502 22.6959 137.839 22.4794 137.98 22.0728C138.488 22.4041 138.337 22.8719 138.158 23.4295C138.007 23.8999 137.835 24.4341 138.02 25.0043ZM81.2282 25.9571C80.702 25.9947 80.4681 25.732 80.2342 25.4693C80.0938 25.3116 79.9534 25.154 79.7499 25.0611L79.7506 25.06C79.897 24.6405 80.1279 24.3047 80.3585 23.9692C80.5246 23.7277 80.6905 23.4863 80.8247 23.214C81.2154 23.3122 81.4608 23.5596 81.7062 23.807C81.8867 23.9889 82.0671 24.1708 82.3054 24.2934C82.0493 24.9485 81.6691 25.4821 81.2282 25.9571ZM138.718 22.4292C139.441 23.0015 138.885 25.3275 138.213 25.7345L138.214 25.734C138.214 25.0099 138.346 24.4145 138.477 23.8195C138.576 23.3738 138.675 22.9284 138.718 22.4292ZM58.8808 26.6263C58.2407 26.9751 57.6611 27.3826 57.0815 27.7902C56.5467 28.1662 56.012 28.5423 55.4297 28.8721L55.4287 28.8728C55.4644 28.6969 55.5017 28.4959 55.5424 28.2771C55.8081 26.8491 56.2152 24.6608 57.1922 23.7174C57.7075 24.2185 58.0354 24.9122 58.3633 25.606C58.5279 25.9542 58.6925 26.3024 58.8808 26.6263ZM2.62302 26.471C2.7073 26.0634 3.96396 24.6349 4.06382 24.6191L4.0629 24.6159C5.47874 24.3915 6.59867 26.7184 6.68341 28.6147C6.39303 28.7231 6.13555 28.8635 5.87807 29.0038C5.26233 29.3396 4.64665 29.6752 3.58126 29.5732C3.49016 29.3679 3.38206 29.1557 3.27118 28.9381C2.87671 28.164 2.4471 27.3209 2.62302 26.471ZM135.071 23.7616C134.911 23.7526 134.816 23.8061 134.722 23.8596C134.621 23.9167 134.519 23.9737 134.34 23.9549L134.339 23.9547L134.326 22.8554C134.841 22.8829 135.11 23.1637 135.071 23.7616ZM62.534 25.8421L62.5341 25.8416C62.1374 25.6191 62.3865 25.1625 62.5689 24.8281C62.627 24.7216 62.6783 24.6275 62.6998 24.5573C63.1952 24.6797 62.9875 25.0104 62.773 25.3521C62.6673 25.5205 62.5598 25.6916 62.5341 25.8416L62.535 25.8421H62.534ZM137.537 29.9582C136.402 29.8373 135.663 29.3107 134.923 28.7841C134.524 28.4997 134.124 28.2154 133.662 27.995L133.665 27.9931C133.415 24.7318 136.425 22.966 137.666 25.925C137.524 26.4097 137.415 26.927 137.306 27.4442C137.162 28.1272 137.018 28.8101 136.797 29.4183C137.467 29.2233 137.555 28.4622 137.644 27.7011C137.707 27.1629 137.769 26.6246 138.037 26.2864C138.564 26.7868 138.202 27.8325 137.876 28.7764C137.725 29.2136 137.581 29.629 137.537 29.9582ZM84.1923 28.2996C83.6987 28.4562 83.2399 27.9985 82.7813 27.541C82.5143 27.2747 82.2474 27.0084 81.9737 26.8636L81.9721 26.8629C81.9695 26.34 82.2047 26.0488 82.44 25.7577C82.6137 25.5427 82.7875 25.3277 82.8653 25.0192C83.4792 25.3353 83.6317 26.1257 83.7842 26.9161C83.8809 27.4177 83.9777 27.9192 84.1923 28.2996ZM60.9185 28.248C60.5578 27.9282 60.3277 27.474 60.0977 27.02C60.0595 26.9447 60.0214 26.8695 59.9827 26.7949L59.9818 26.7953C60.2062 26.1311 61.0742 25.341 61.6216 26.0395C61.5399 26.8971 61.2421 27.5445 60.9444 28.1918L60.9185 28.248ZM80.6871 26.6973C80.5618 26.8979 80.4721 27.1332 80.3825 27.3684C80.1874 27.8806 79.9923 28.3928 79.4293 28.5469L79.4288 28.5471C79.3583 28.3616 79.2785 28.1784 79.1996 27.9973C78.8324 27.1547 78.4865 26.3607 79.2066 25.6179C79.6551 25.7066 79.9223 25.9817 80.1895 26.2568C80.3437 26.4156 80.498 26.5743 80.6871 26.6973ZM84.5258 25.9117C84.5488 26.6004 84.7324 27.1238 84.9159 27.6472C85.0996 28.1708 85.2831 28.6942 85.3061 29.3828L85.307 29.3844C84.5944 29.1092 84.4644 28.2353 84.3341 27.3606C84.2563 26.838 84.1785 26.315 83.9763 25.9193L84.5258 25.9117ZM39.4093 50.1603C32.2832 50.6621 22.4337 49.8983 15.909 46.814L15.9076 46.8156C15.8356 46.5353 15.9595 46.4459 16.0839 46.3561C16.2085 46.2661 16.3337 46.1758 16.2626 45.8926L16.1851 45.9111C15.1166 46.1658 14.0478 46.4206 12.603 46.3088C12.316 45.9206 12.6441 45.6611 12.9862 45.3905C13.2019 45.2199 13.4231 45.0449 13.4994 44.8304C12.9364 44.2401 12.2035 44.9669 11.5845 45.5807C11.3526 45.8106 11.1367 46.0247 10.9518 46.1477C8.89625 45.9146 10.4415 43.2769 12.0137 43.385C11.9889 42.9847 11.5529 43.0065 11.1172 43.0282C10.9829 43.0349 10.8486 43.0416 10.7264 43.036C7.7383 39.7284 5.38003 35.7736 4.32582 30.4787C4.94268 30.3652 5.4438 30.1391 5.94492 29.9129C6.24755 29.7764 6.55019 29.6398 6.87831 29.528C7.44721 32.7827 8.33583 35.7085 10.1046 37.7301C9.88816 37.0875 9.5587 36.399 9.20391 35.6575C8.44105 34.0631 7.56106 32.224 7.43553 30.0702C8.19537 30.6137 8.19804 30.8829 8.20289 31.3717C8.20585 31.6698 8.20962 32.0495 8.38644 32.6229C10.015 37.9033 15.1567 43.2758 21.0135 44.9124C25.4608 46.1551 31.7427 46.4844 36.4256 46.3527C47.4179 46.0431 52.4842 38.9641 54.8898 29.6105C55.9089 29.3711 56.6275 28.8392 57.3461 28.3074C57.9288 27.876 58.5116 27.4447 59.2546 27.1693C61.4026 29.1889 59.3994 32.3518 57.7887 34.8949C57.5033 35.3457 57.2301 35.777 56.9946 36.179C53.3902 42.3301 48.2371 48.4378 39.7634 49.2394C30.8857 50.079 23.0601 48.7637 16.2677 46.2593C20.1235 48.6824 26.2408 49.5094 32.2566 49.7075C42.012 50.0293 49.4143 47.5116 53.7761 42.086C54.1167 41.5563 54.4596 41.0288 54.8026 40.5014C56.9073 37.2643 59.0121 34.0271 60.5793 30.2664C60.4278 32.0917 59.3773 33.8395 58.3972 35.47C58.2941 35.6415 58.1918 35.8117 58.0914 35.9806C54.1157 42.6686 48.986 49.4865 39.4093 50.1603ZM61.4787 28.9727C61.1042 28.5978 61.3924 28.0281 61.6258 27.5672C61.7075 27.4057 61.7825 27.2576 61.8199 27.1359C62.1614 27.4781 61.8285 28.2012 61.6021 28.6928C61.5533 28.7988 61.5098 28.8943 61.4787 28.9727ZM101.167 50.4253C89.0732 48.7907 84.614 39.5821 79.8881 29.823C79.8002 29.6413 79.7121 29.4595 79.6239 29.2775H79.6278C80.4255 29.1934 80.7038 28.6038 80.982 28.0147C81.1127 27.7378 81.2434 27.461 81.428 27.2369C81.8409 27.5853 82.2777 27.9093 82.7143 28.2332C83.4326 28.766 84.1507 29.2987 84.763 29.9403C86.0369 35.381 88.4288 39.6725 91.9013 42.8541L91.8939 42.8444C89.4657 39.645 86.3537 35.5445 85.3177 30.2994C86.281 31.6701 86.8041 33.1619 87.3121 34.6107C87.6277 35.5109 87.9375 36.3944 88.3434 37.2219C89.232 39.0328 90.8352 41.0774 92.4459 42.4804C97.4126 46.8048 105.274 47.1635 112.659 46.6044C124.327 45.7206 132.339 39.5571 133.492 28.9138C133.762 29.0736 133.998 29.269 134.233 29.4645C134.698 29.8502 135.162 30.236 135.894 30.3473C134.829 35.1564 133.078 39.2976 130.378 42.5161C133.066 40.7382 134.16 37.4089 135.254 34.0795C135.631 32.934 136.007 31.7885 136.448 30.7062C135.63 36.2978 133.55 40.6614 130.212 43.8012C129.766 43.7008 129.103 43.726 128.563 43.8238C128.711 44.4166 129.057 44.3716 129.525 44.3106C129.833 44.2706 130.194 44.2237 130.586 44.3458C131.101 45.012 131.574 46.7737 130.44 47.0966C129.825 47.0228 129.457 46.6965 129.088 46.3702C128.582 45.923 128.077 45.4758 126.939 45.6782C126.978 46.1035 127.33 46.2065 127.683 46.3095C128.081 46.4259 128.479 46.5423 128.425 47.1239C128.234 47.1271 128.039 47.1345 127.843 47.1418C126.787 47.1816 125.731 47.2214 125.303 46.6163C125.102 46.6324 125.157 46.7429 125.238 46.9053C125.322 47.0741 125.433 47.299 125.315 47.5322C119.272 50.4729 108.568 51.4257 101.167 50.4253Z" fill="white"/>
<path d="M66.0771 3.25584C64.3202 5.58389 62.4507 7.80223 58.4441 7.94056C58.6305 11.2781 59.4518 13.9639 60.935 15.9695C61.266 15.3348 60.8992 14.5257 60.5501 13.7559C60.1478 12.8689 59.7691 12.0339 60.509 11.5775C60.5657 12.456 60.8399 13.1111 61.114 13.7661C61.2386 14.0637 61.3631 14.3612 61.4672 14.6796C62.5434 14.9469 63.1162 14.5869 63.4701 13.7363C61.9063 13.7312 61.459 11.5947 61.5932 10.4633C62.0355 10.6606 62.1653 11.179 62.2951 11.6973C62.449 12.3116 62.6028 12.9259 63.2768 13.0059C63.4613 12.5742 63.8386 12.586 64.2047 12.5974C64.6023 12.6098 64.9867 12.6218 65.0966 12.0649C63.5731 12.2652 62.7145 10.8009 62.8682 9.89621C63.1903 10.0389 63.3818 10.3159 63.5732 10.5929C63.9073 11.0763 64.2414 11.5598 65.27 11.3295C65.1624 10.4887 65.4133 10.6133 65.7588 10.7848C65.8907 10.8502 66.0363 10.9226 66.181 10.9506C66.2043 10.763 66.2313 10.6334 66.2525 10.5316C66.3041 10.2838 66.3212 10.2015 66.1662 9.85132C66.0997 9.86906 66.0343 9.88774 65.9688 9.90642C65.6034 10.0108 65.2381 10.115 64.7029 10.0542C64.2682 9.75078 63.2731 9.05614 63.7646 8.41785C64.1003 8.47698 64.2631 8.71378 64.4258 8.95057C64.6123 9.22183 64.7988 9.49309 65.2452 9.49725C65.395 9.43445 65.5667 9.39302 65.7383 9.35158C66.2116 9.23735 66.685 9.12311 66.6984 8.56145C66.1352 8.26417 64.8254 7.20539 65.5743 6.74413C65.9938 6.6643 66.0802 6.92682 66.1666 7.18934C66.2477 7.43592 66.3288 7.68251 66.686 7.64535C67.2009 7.60412 67.4622 7.31601 67.4065 6.7194C67.3423 6.68229 67.2771 6.6461 67.2119 6.60992C66.6512 6.29857 66.0903 5.98714 66.1018 5.08804C66.3873 5.09291 66.6046 5.28242 66.8098 5.4615C67.0977 5.71262 67.362 5.94321 67.7581 5.61526C67.9557 5.25284 67.7471 4.93922 67.5533 4.64781C67.3094 4.28106 67.0888 3.94949 67.7309 3.60007C67.1711 3.84643 66.9859 3.71261 66.751 3.54288C66.5929 3.4286 66.4123 3.29805 66.0796 3.2563L66.0771 3.25584Z" fill="white"/>
<path d="M76.4489 11.3615C75.9646 13.472 79.353 12.6191 78.2782 11.1533C78.8913 11.5363 79.0401 11.1842 79.1745 10.866C79.2861 10.602 79.3877 10.3615 79.7366 10.584C79.2904 11.9273 78.8747 12.5407 78.1536 13.6047C78.0881 13.7014 78.0201 13.8017 77.9493 13.9067C77.9911 13.9238 78.0326 13.9412 78.0742 13.9586C78.3752 14.0845 78.6763 14.2103 79.0532 14.2582C79.8546 13.9172 80.1551 13.0886 80.4556 12.2599C80.6559 11.7076 80.8562 11.1554 81.2047 10.7475C81.5029 12.3197 80.5389 13.8176 79.7588 15.0297C79.6463 15.2045 79.5376 15.3734 79.437 15.5357C79.8401 15.8256 79.9962 15.8043 80.3656 15.7538C80.5061 15.7346 80.6775 15.7111 80.9051 15.699C81.8746 13.5689 82.5717 11.1739 82.8209 8.34342C78.6895 8.13019 76.279 6.14843 74.6903 3.32249C73.5711 3.27903 73.4439 4.19887 73.3167 5.11913C73.2971 5.26102 73.2775 5.40291 73.2543 5.54129L73.2547 5.54083C73.6987 5.63694 73.9199 5.36699 74.1148 5.1292C74.3244 4.87347 74.5036 4.65494 74.8964 4.96895C74.8422 5.33685 74.5392 5.58774 74.2412 5.8346C73.7809 6.21583 73.3322 6.58744 73.8291 7.36548C74.2905 7.48629 74.5718 7.20714 74.8198 6.96109C75.0785 6.70433 75.3009 6.48361 75.6538 6.79108C75.6376 7.33216 75.2634 7.52493 74.8892 7.71771C74.6155 7.85867 74.3418 7.99963 74.2082 8.27677C74.4591 8.2539 74.4296 8.51898 74.4 8.78408C74.3828 8.93845 74.3656 9.09283 74.4037 9.19035C74.8135 9.46325 75.3582 9.22413 75.8661 9.00117C76.4021 8.76587 76.8972 8.54857 77.1493 8.97003C77.0323 9.4737 76.5185 9.59126 76.0048 9.70881C75.7666 9.76333 75.5284 9.81785 75.3297 9.91087C75.3167 10.1806 75.4226 10.3283 75.5284 10.476C75.6015 10.5779 75.6746 10.6799 75.7085 10.8219C76.6451 10.9276 77.0259 10.4924 77.4066 10.0572C77.6809 9.7438 77.9551 9.43039 78.4369 9.31906C78.3439 9.48215 78.2595 9.65371 78.1752 9.82528C77.8187 10.5505 77.4622 11.2758 76.4489 11.3615Z" fill="white"/>
<path d="M4.71265 18.3802C6.38224 18.137 4.97511 14.899 5.93564 13.9658C6.24552 14.2108 5.5992 15.7137 6.14864 16.1619C5.98946 10.3245 10.6655 8.00102 13.3183 4.33707C12.9695 3.57173 12.6633 2.76317 12.0893 2.22974C12.0232 2.2429 11.9577 2.25385 11.8929 2.26231C11.6247 2.47485 11.2232 2.55452 10.7303 2.54517C8.13417 0.941297 2.04998 18.7681 4.71265 18.3802Z" fill="white"/>
<path d="M31.9557 63.6294L31.9826 64.7737V71.7207H31.3364V62.0138H31.6326L37.9737 69.3243C38.4046 69.8359 38.7366 70.2442 38.97 70.5494C38.9341 70.1186 38.9162 69.6249 38.9162 69.0685V62.0946H39.5624V71.8015H39.2662L32.8039 64.3564C32.3551 63.8448 32.0679 63.5037 31.9423 63.3332L31.9557 63.6294ZM43.3859 68.6915L42.1338 71.7207H41.5011L45.163 62.9293H45.5265L49.2154 71.7207H48.5288L47.2633 68.6915H43.3859ZM45.3111 63.9256C45.1765 64.3294 45.0553 64.666 44.9476 64.9353L43.6013 68.1664H47.0479L45.715 64.9488C45.5086 64.4461 45.374 64.1051 45.3111 63.9256ZM52.7519 63.3601C52.2673 63.3601 51.8723 63.4768 51.5672 63.7101C51.262 63.9435 51.1094 64.2711 51.1094 64.693C51.1094 65.1776 51.3114 65.6129 51.7153 65.9989C52.0025 66.2771 52.3705 66.5733 52.8192 66.8874C53.277 67.1926 53.5911 67.4125 53.7617 67.5471C53.9322 67.6818 54.1386 67.8658 54.381 68.0991C54.8208 68.5389 55.0407 69.046 55.0407 69.6205C55.0407 70.3654 54.7894 70.9309 54.2867 71.3168C53.7931 71.6938 53.0975 71.8823 52.1999 71.8823C51.3114 71.8823 50.5664 71.6489 49.9651 71.1822L50.2882 70.711C50.8985 71.1238 51.5447 71.3303 52.2269 71.3303C52.909 71.3303 53.4386 71.1867 53.8155 70.8995C54.2015 70.6122 54.3944 70.2083 54.3944 69.6878C54.3944 69.239 54.2015 68.8261 53.8155 68.4492C53.5463 68.1799 53.1828 67.8882 52.725 67.5741C52.2762 67.2599 51.9621 67.0355 51.7826 66.9009C51.6031 66.7573 51.3922 66.5688 51.1498 66.3355C50.6921 65.8777 50.4632 65.3482 50.4632 64.7468C50.4632 64.1455 50.6741 63.6742 51.096 63.3332C51.5268 62.9921 52.1192 62.8216 52.8731 62.8216C53.627 62.8216 54.3047 62.9697 54.906 63.2659L54.6772 63.764C54.1207 63.4947 53.4789 63.3601 52.7519 63.3601ZM59.9729 71.7207H59.3671V68.5973L56.0686 62.9831H56.8091L59.3536 67.3183C59.5511 67.7132 59.6633 67.9241 59.6902 67.951C59.744 67.8343 59.8562 67.6279 60.0268 67.3317L62.5713 62.9831H63.2714L59.9729 68.6242V71.7207ZM67.2644 69.5935L69.7821 63.1582H70.1725L72.367 69.6339L72.6901 70.7244C72.717 70.5539 72.8292 70.1949 73.0267 69.6474L75.2615 62.9831H75.9078L72.8651 71.7746H72.5016C71.0027 67.4753 70.2263 65.2405 70.1725 65.0699C70.0917 64.8276 70.0109 64.5897 69.9301 64.3564C69.8853 64.509 69.7641 64.8276 69.5666 65.3123L67.0221 71.7746H66.6586L63.589 62.9831H64.2756L66.497 69.5397C66.6227 69.8987 66.7394 70.2981 66.8471 70.7379C66.892 70.5584 67.0311 70.1769 67.2644 69.5935ZM81.2525 71.8553C80.0049 71.8553 78.9593 71.42 78.1156 70.5494C77.2719 69.6788 76.8501 68.6152 76.8501 67.3587C76.8501 66.0931 77.2719 65.025 78.1156 64.1544C78.9593 63.2838 80.0049 62.8485 81.2525 62.8485C82.5001 62.8485 83.5457 63.2838 84.3894 64.1544C85.2331 65.025 85.655 66.0931 85.655 67.3587C85.655 68.6152 85.2331 69.6788 84.3894 70.5494C83.5457 71.42 82.5001 71.8553 81.2525 71.8553ZM81.2525 63.4005C80.1755 63.4005 79.2779 63.7819 78.5599 64.5449C77.8508 65.3078 77.4963 66.2457 77.4963 67.3587C77.4963 68.4626 77.8508 69.3961 78.5599 70.159C79.2779 70.9129 80.1755 71.2899 81.2525 71.2899C82.3386 71.2899 83.2361 70.9129 83.9452 70.159C84.6542 69.3961 85.0087 68.4626 85.0087 67.3587C85.0087 66.2457 84.6542 65.3078 83.9452 64.5449C83.2361 63.7819 82.3386 63.4005 81.2525 63.4005ZM88.3537 71.7207V63.0235C89.1256 62.9607 89.7808 62.9293 90.3193 62.9293C91.1451 62.9293 91.8272 63.1447 92.3657 63.5755C92.9042 63.9974 93.1735 64.6032 93.1735 65.393C93.1735 65.9226 93.0209 66.4117 92.7157 66.8605C92.4106 67.3093 92.065 67.6728 91.6791 67.951C92.7472 69.3691 93.4069 70.2173 93.6582 70.4956C94.1698 71.0251 94.7262 71.3258 95.3276 71.3976L95.3141 71.8149C94.8115 71.806 94.4031 71.7342 94.089 71.5995C93.7748 71.4559 93.4607 71.2181 93.1466 70.886C92.8414 70.5539 92.1638 69.6608 91.1136 68.2068C90.3866 68.2068 89.6731 68.1844 88.973 68.1395V71.7207H88.3537ZM90.7771 67.6952C91.1271 67.6952 91.5041 67.4619 91.908 66.9951C92.3119 66.5284 92.5138 65.9854 92.5138 65.3661C92.5138 64.7468 92.3029 64.2756 91.881 63.9525C91.4592 63.6294 90.9117 63.4678 90.2385 63.4678C89.8795 63.4678 89.4577 63.4858 88.973 63.5217V67.6279C89.6192 67.6728 90.2206 67.6952 90.7771 67.6952ZM96.5446 71.7207V62.9831H97.1639V71.1553H101.176V71.7207H96.5446ZM105.814 71.263C106.962 71.263 107.882 70.9533 108.574 70.334C109.274 69.7147 109.624 68.7813 109.624 67.5337C109.624 66.2861 109.229 65.2943 108.439 64.5583C107.658 63.8223 106.693 63.4543 105.544 63.4543C104.728 63.4543 104.099 63.4723 103.659 63.5082V71.1687C104.198 71.2315 104.916 71.263 105.814 71.263ZM105.544 62.9024C106.891 62.9024 108.013 63.3197 108.91 64.1544C109.817 64.9802 110.27 66.1066 110.27 67.5337C110.27 68.9608 109.853 70.0333 109.018 70.7514C108.192 71.4694 107.124 71.8284 105.814 71.8284C104.907 71.8284 103.974 71.7835 103.013 71.6938V62.9831C103.731 62.9293 104.575 62.9024 105.544 62.9024Z" fill="white"/>
<path d="M31.9557 63.6294L32.2923 63.6214L32.2919 63.6141L31.9557 63.6294ZM31.9826 64.7737H32.3193L32.3191 64.7658L31.9826 64.7737ZM31.9826 71.7207V72.0573H32.3192V71.7207H31.9826ZM31.3364 71.7207H30.9998V72.0573H31.3364V71.7207ZM31.3364 62.0138V61.6772H30.9998V62.0138H31.3364ZM31.6326 62.0138L31.8869 61.7932L31.7862 61.6772H31.6326V62.0138ZM37.9737 69.3243L38.2312 69.1074L38.228 69.1037L37.9737 69.3243ZM38.97 70.5494L38.7026 70.7539L39.4009 71.6669L39.3054 70.5215L38.97 70.5494ZM38.9162 62.0946V61.758H38.5796V62.0946H38.9162ZM39.5624 62.0946H39.899V61.758H39.5624V62.0946ZM39.5624 71.8015V72.1381H39.899V71.8015H39.5624ZM39.2662 71.8015L39.012 72.0221L39.1127 72.1381H39.2662V71.8015ZM32.8039 64.3564L33.0581 64.1357L33.0569 64.1344L32.8039 64.3564ZM31.9423 63.3332L32.2132 63.1335L31.5557 62.2412L31.606 63.3485L31.9423 63.3332ZM31.6192 63.6373L31.6462 64.7816L32.3191 64.7658L32.2922 63.6214L31.6192 63.6373ZM31.6461 64.7737V71.7207H32.3192V64.7737H31.6461ZM31.9826 71.3841H31.3364V72.0573H31.9826V71.3841ZM31.673 71.7207V62.0138H30.9998V71.7207H31.673ZM31.3364 62.3504H31.6326V61.6772H31.3364V62.3504ZM31.3783 62.2343L37.7195 69.5448L38.228 69.1037L31.8869 61.7932L31.3783 62.2343ZM37.7163 69.5411C38.1458 70.0511 38.474 70.4549 38.7026 70.7539L39.2374 70.345C38.9993 70.0336 38.6633 69.6206 38.2312 69.1075L37.7163 69.5411ZM39.3054 70.5215C39.2705 70.1021 39.2527 69.6181 39.2527 69.0685H38.5796C38.5796 69.6318 38.5977 70.1351 38.6346 70.5774L39.3054 70.5215ZM39.2527 69.0685V62.0946H38.5796V69.0685H39.2527ZM38.9162 62.4311H39.5624V61.758H38.9162V62.4311ZM39.2258 62.0946V71.8015H39.899V62.0946H39.2258ZM39.5624 71.4649H39.2662V72.1381H39.5624V71.4649ZM39.5204 71.5809L33.0581 64.1357L32.5497 64.577L39.012 72.0221L39.5204 71.5809ZM33.0569 64.1344C32.6061 63.6205 32.3288 63.2904 32.2132 63.1335L31.6713 63.5328C31.807 63.717 32.1042 64.0691 32.5509 64.5783L33.0569 64.1344ZM31.606 63.3485L31.6195 63.6446L32.2919 63.6141L32.2785 63.3179L31.606 63.3485ZM43.3859 68.6915V68.3549H43.1608L43.0749 68.5629L43.3859 68.6915ZM42.1338 71.7207V72.0573H42.3589L42.4449 71.8493L42.1338 71.7207ZM41.5011 71.7207L41.1904 71.5913L40.9963 72.0573H41.5011V71.7207ZM45.163 62.9293V62.5927H44.9386L44.8523 62.7999L45.163 62.9293ZM45.5265 62.9293L45.8369 62.7991L45.7503 62.5927H45.5265V62.9293ZM49.2154 71.7207V72.0573H49.7217L49.5258 71.5905L49.2154 71.7207ZM48.5288 71.7207L48.2183 71.8505L48.3047 72.0573H48.5288V71.7207ZM47.2633 68.6915L47.5739 68.5618L47.4874 68.3549H47.2633V68.6915ZM45.3111 63.9256L45.6288 63.8144L45.3034 62.8845L44.9918 63.8191L45.3111 63.9256ZM44.9476 64.9353L45.2584 65.0648L45.2601 65.0603L44.9476 64.9353ZM43.6013 68.1664L43.2906 68.037L43.0965 68.503H43.6013V68.1664ZM47.0479 68.1664V68.503H47.5516L47.3588 68.0376L47.0479 68.1664ZM45.715 64.9488L45.4037 65.0766L45.4041 65.0776L45.715 64.9488ZM43.0749 68.5629L41.8228 71.5921L42.4449 71.8493L43.697 68.8201L43.0749 68.5629ZM42.1338 71.3841H41.5011V72.0573H42.1338V71.3841ZM41.8118 71.8501L45.4737 63.0587L44.8523 62.7999L41.1904 71.5913L41.8118 71.8501ZM45.163 63.2659H45.5265V62.5927H45.163V63.2659ZM45.2162 63.0595L48.9051 71.8509L49.5258 71.5905L45.8369 62.7991L45.2162 63.0595ZM49.2154 71.3841H48.5288V72.0573H49.2154V71.3841ZM48.8394 71.591L47.5739 68.5618L46.9527 68.8212L48.2183 71.8505L48.8394 71.591ZM47.2633 68.3549H43.3859V69.0281H47.2633V68.3549ZM44.9918 63.8191C44.8584 64.2194 44.7395 64.5492 44.6351 64.8103L45.2601 65.0603C45.3711 64.7828 45.4946 64.4395 45.6304 64.032L44.9918 63.8191ZM44.6369 64.8058L43.2906 68.037L43.912 68.2959L45.2583 65.0647L44.6369 64.8058ZM43.6013 68.503H47.0479V67.8299H43.6013V68.503ZM47.3588 68.0376L46.026 64.8199L45.4041 65.0776L46.7369 68.2952L47.3588 68.0376ZM46.0264 64.8209C45.8195 64.3172 45.6882 63.9841 45.6288 63.8144L44.9935 64.0367C45.0597 64.226 45.1977 64.5751 45.4037 65.0766L46.0264 64.8209ZM51.5672 63.7101L51.3627 63.4428L51.3627 63.4428L51.5672 63.7101ZM51.7153 65.9989L51.9495 65.7571L51.9478 65.7555L51.7153 65.9989ZM52.8192 66.8874L52.6262 67.1632L52.6325 67.1675L52.8192 66.8874ZM53.7617 67.5471L53.5531 67.8113L53.5531 67.8113L53.7617 67.5471ZM54.381 68.0991L54.619 67.8611L54.6144 67.8567L54.381 68.0991ZM54.2867 71.3168L54.491 71.5843L54.4917 71.5838L54.2867 71.3168ZM49.9651 71.1822L49.6875 70.9918L49.508 71.2535L49.7587 71.4481L49.9651 71.1822ZM50.2882 70.711L50.4768 70.4322L50.1997 70.2448L50.0106 70.5206L50.2882 70.711ZM53.8155 70.8995L53.6146 70.6294L53.6115 70.6317L53.8155 70.8995ZM53.8155 68.4492L53.5775 68.6872L53.5803 68.6899L53.8155 68.4492ZM52.725 67.5741L52.532 67.8498L52.5346 67.8516L52.725 67.5741ZM51.7826 66.9009L51.5722 67.1639L51.5806 67.1702L51.7826 66.9009ZM51.1498 66.3355L50.9118 66.5735L50.9164 66.5779L51.1498 66.3355ZM51.096 63.3332L50.887 63.0693L50.8844 63.0714L51.096 63.3332ZM54.906 63.2659L55.2119 63.4064L55.3487 63.1087L55.0548 62.9639L54.906 63.2659ZM54.6772 63.764L54.5306 64.067L54.8396 64.2165L54.983 63.9045L54.6772 63.764ZM52.7519 63.0235C52.213 63.0235 51.7405 63.1539 51.3627 63.4428L51.7716 63.9775C52.0042 63.7996 52.3216 63.6967 52.7519 63.6967V63.0235ZM51.3627 63.4428C50.9653 63.7467 50.7729 64.1781 50.7729 64.693H51.446C51.446 64.3641 51.5587 64.1403 51.7716 63.9775L51.3627 63.4428ZM50.7729 64.693C50.7729 65.2838 51.0235 65.8034 51.4827 66.2422L51.9478 65.7555C51.5993 65.4225 51.446 65.0714 51.446 64.693H50.7729ZM51.4811 66.2406C51.7848 66.5348 52.1678 66.8423 52.6262 67.1632L53.0123 66.6117C52.5732 66.3043 52.2202 66.0194 51.9495 65.7571L51.4811 66.2406ZM52.6325 67.1675C53.0907 67.4729 53.3945 67.6861 53.5531 67.8113L53.9702 67.283C53.7878 67.1389 53.4633 66.9123 53.0059 66.6074L52.6325 67.1675ZM53.5531 67.8113C53.7117 67.9365 53.9093 68.1122 54.1475 68.3416L54.6144 67.8567C54.368 67.6193 54.1527 67.4271 53.9702 67.283L53.5531 67.8113ZM54.143 68.3371C54.5254 68.7196 54.7041 69.1431 54.7041 69.6205H55.3772C55.3772 68.9489 55.1161 68.3583 54.619 67.8611L54.143 68.3371ZM54.7041 69.6205C54.7041 70.2815 54.4863 70.7392 54.0817 71.0499L54.4917 71.5838C55.0924 71.1225 55.3772 70.4493 55.3772 69.6205H54.7041ZM54.0825 71.0493C53.6685 71.3654 53.0554 71.5457 52.1999 71.5457V72.2188C53.1396 72.2188 53.9177 72.0221 54.491 71.5843L54.0825 71.0493ZM52.1999 71.5457C51.3731 71.5457 50.7042 71.3298 50.1714 70.9163L49.7587 71.4481C50.4286 71.968 51.2497 72.2188 52.1999 72.2188V71.5457ZM50.2427 71.3725L50.5658 70.9013L50.0106 70.5206L49.6875 70.9918L50.2427 71.3725ZM50.0996 70.9898C50.7609 71.4371 51.4721 71.6669 52.2269 71.6669V70.9937C51.6174 70.9937 51.0361 70.8106 50.4768 70.4322L50.0996 70.9898ZM52.2269 71.6669C52.9514 71.6669 53.5631 71.5149 54.0195 71.1672L53.6115 70.6317C53.314 70.8584 52.8666 70.9937 52.2269 70.9937V71.6669ZM54.0165 71.1695C54.4956 70.8129 54.731 70.3046 54.731 69.6878H54.0579C54.0579 70.1121 53.9074 70.4116 53.6146 70.6294L54.0165 71.1695ZM54.731 69.6878C54.731 69.1304 54.4874 68.6349 54.0507 68.2084L53.5803 68.6899C53.9155 69.0173 54.0579 69.3476 54.0579 69.6878H54.731ZM54.0535 68.2112C53.7647 67.9223 53.3833 67.6176 52.9155 67.2965L52.5346 67.8516C52.9823 68.1588 53.3278 68.4375 53.5775 68.6872L54.0535 68.2112ZM52.918 67.2983C52.4692 66.9842 52.1592 66.7626 51.9845 66.6316L51.5806 67.1702C51.765 67.3085 52.0833 67.5357 52.532 67.8498L52.918 67.2983ZM51.9928 66.6381C51.8241 66.5031 51.6213 66.3222 51.3833 66.093L50.9164 66.5779C51.1631 66.8155 51.382 67.0115 51.5723 67.1637L51.9928 66.6381ZM51.3878 66.0975C50.9879 65.6975 50.7998 65.2516 50.7998 64.7468H50.1266C50.1266 65.4447 50.3963 66.0579 50.9118 66.5734L51.3878 66.0975ZM50.7998 64.7468C50.7998 64.2346 50.974 63.8646 51.3076 63.5949L50.8844 63.0714C50.3742 63.4839 50.1266 64.0563 50.1266 64.7468H50.7998ZM51.3049 63.5971C51.6575 63.3179 52.1671 63.1582 52.8731 63.1582V62.485C52.0712 62.485 51.396 62.6663 50.8871 63.0693L51.3049 63.5971ZM52.8731 63.1582C53.5819 63.1582 54.2077 63.2971 54.7573 63.5678L55.0548 62.9639C54.4016 62.6422 53.6721 62.485 52.8731 62.485V63.1582ZM54.6002 63.1253L54.3713 63.6235L54.983 63.9045L55.2119 63.4064L54.6002 63.1253ZM54.8238 63.461C54.2142 63.1661 53.5208 63.0235 52.7519 63.0235V63.6967C53.437 63.6967 54.0272 63.8234 54.5306 64.067L54.8238 63.461ZM59.9729 71.7207V72.0573H60.3095V71.7207H59.9729ZM59.3671 71.7207H59.0305V72.0573H59.3671V71.7207ZM59.3671 68.5973H59.7036V68.5057L59.6573 68.4268L59.3671 68.5973ZM56.0686 62.9831V62.6466H55.4805L55.7784 63.1536L56.0686 62.9831ZM56.8091 62.9831L57.0993 62.8128L57.0018 62.6466H56.8091V62.9831ZM59.3536 67.3183L59.6546 67.1677L59.6496 67.1576L59.6439 67.1479L59.3536 67.3183ZM59.6902 67.951L59.4522 68.189L59.7935 68.5303L59.9958 68.0921L59.6902 67.951ZM60.0268 67.3317L59.7362 67.1617L59.7351 67.1638L60.0268 67.3317ZM62.5713 62.9831V62.6466H62.3783L62.2808 62.8132L62.5713 62.9831ZM63.2714 62.9831L63.5619 63.153L63.8581 62.6466H63.2714V62.9831ZM59.9729 68.6242L59.6824 68.4543L59.6363 68.533V68.6242H59.9729ZM59.9729 71.3841H59.3671V72.0573H59.9729V71.3841ZM59.7036 71.7207V68.5973H59.0305V71.7207H59.7036ZM59.6573 68.4268L56.3588 62.8126L55.7784 63.1536L59.0769 68.7678L59.6573 68.4268ZM56.0686 63.3197H56.8091V62.6466H56.0686V63.3197ZM56.5188 63.1535L59.0633 67.4886L59.6439 67.1479L57.0993 62.8128L56.5188 63.1535ZM59.0526 67.4688C59.1517 67.667 59.2306 67.8215 59.2887 67.9307C59.3176 67.985 59.3427 68.0308 59.3635 68.0663C59.3737 68.0838 59.3846 68.1017 59.3954 68.118C59.4021 68.1281 59.4227 68.1596 59.4522 68.189L59.9282 67.713C59.9509 67.7358 59.9622 67.7547 59.9568 67.7466C59.9555 67.7447 59.9516 67.7386 59.9445 67.7264C59.9305 67.7024 59.9102 67.6657 59.883 67.6146C59.8289 67.5129 59.753 67.3644 59.6546 67.1677L59.0526 67.4688ZM59.9958 68.0921C60.0424 67.991 60.1473 67.7969 60.3184 67.4997L59.7351 67.1638C59.5651 67.459 59.4456 67.6777 59.3846 67.81L59.9958 68.0921ZM60.3173 67.5017L62.8618 63.1531L62.2808 62.8132L59.7363 67.1617L60.3173 67.5017ZM62.5713 63.3197H63.2714V62.6466H62.5713V63.3197ZM62.9808 62.8132L59.6824 68.4543L60.2635 68.7941L63.5619 63.153L62.9808 62.8132ZM59.6363 68.6242V71.7207H60.3095V68.6242H59.6363ZM67.2644 69.5935L67.577 69.7185L67.5779 69.7162L67.2644 69.5935ZM69.7821 63.1582V62.8216H69.5523L69.4686 63.0355L69.7821 63.1582ZM70.1725 63.1582L70.4913 63.0501L70.4138 62.8216H70.1725V63.1582ZM72.367 69.6339L72.6899 69.5382L72.6857 69.5259L72.367 69.6339ZM72.6901 70.7244L72.3674 70.82L73.0225 70.7769L72.6901 70.7244ZM73.0267 69.6474L73.3434 69.7616L73.3458 69.7544L73.0267 69.6474ZM75.2615 62.9831V62.6466H75.0194L74.9424 62.8761L75.2615 62.9831ZM75.9078 62.9831L76.2258 63.0932L76.3804 62.6466H75.9078V62.9831ZM72.8651 71.7746V72.1111H73.1048L73.1832 71.8846L72.8651 71.7746ZM72.5016 71.7746L72.1838 71.8854L72.2625 72.1111H72.5016V71.7746ZM70.1725 65.0699L70.4935 64.9686L70.4918 64.9635L70.1725 65.0699ZM69.9301 64.3564L70.2482 64.2463L69.9041 63.2521L69.6072 64.2614L69.9301 64.3564ZM69.5666 65.3123L69.2549 65.1853L69.2535 65.1889L69.5666 65.3123ZM67.0221 71.7746V72.1111H67.2513L67.3353 71.8979L67.0221 71.7746ZM66.6586 71.7746L66.3408 71.8855L66.4196 72.1111H66.6586V71.7746ZM63.589 62.9831V62.6466H63.115L63.2712 63.0941L63.589 62.9831ZM64.2756 62.9831L64.5944 62.8751L64.517 62.6466H64.2756V62.9831ZM66.497 69.5397L66.1783 69.6477L66.1794 69.6509L66.497 69.5397ZM66.8471 70.7379L66.5202 70.818L67.1736 70.8195L66.8471 70.7379ZM67.5779 69.7162L70.0955 63.2808L69.4686 63.0355L66.951 69.4709L67.5779 69.7162ZM69.7821 63.4947H70.1725V62.8216H69.7821V63.4947ZM69.8537 63.2662L72.0482 69.7419L72.6857 69.5259L70.4913 63.0501L69.8537 63.2662ZM72.0443 69.7295L72.3674 70.82L73.0128 70.6288L72.6897 69.5383L72.0443 69.7295ZM73.0225 70.7769C73.0435 70.6441 73.143 70.3168 73.3433 69.7616L72.71 69.5332C72.5154 70.073 72.3905 70.4637 72.3576 70.6719L73.0225 70.7769ZM73.3458 69.7544L75.5807 63.0901L74.9424 62.8761L72.7076 69.5404L73.3458 69.7544ZM75.2615 63.3197H75.9078V62.6466H75.2615V63.3197ZM75.5897 62.8731L72.547 71.6645L73.1832 71.8846L76.2258 63.0932L75.5897 62.8731ZM72.8651 71.438H72.5016V72.1111H72.8651V71.438ZM72.8194 71.6638C71.3187 67.3592 70.5453 65.1328 70.4934 64.9686L69.8515 65.1713C69.9074 65.3481 70.6868 67.5915 72.1838 71.8854L72.8194 71.6638ZM70.4918 64.9635C70.4106 64.72 70.3294 64.4809 70.2482 64.2463L69.6121 64.4665C69.6924 64.6986 69.7728 64.9352 69.8532 65.1764L70.4918 64.9635ZM69.6072 64.2614C69.5681 64.3946 69.4539 64.6969 69.2549 65.1853L69.8783 65.4392C70.0743 64.9583 70.2025 64.6233 70.253 64.4513L69.6072 64.2614ZM69.2535 65.1889L66.7089 71.6512L67.3353 71.8979L69.8798 65.4356L69.2535 65.1889ZM67.0221 71.438H66.6586V72.1111H67.0221V71.438ZM66.9764 71.6636L63.9068 62.8722L63.2712 63.0941L66.3408 71.8855L66.9764 71.6636ZM63.589 63.3197H64.2756V62.6466H63.589V63.3197ZM63.9569 63.0911L66.1783 69.6477L66.8158 69.4317L64.5944 62.8751L63.9569 63.0911ZM66.1794 69.6509C66.3008 69.998 66.4146 70.3868 66.5202 70.818L67.174 70.6578C67.0642 70.2094 66.9446 69.7994 66.8147 69.4285L66.1794 69.6509ZM67.1736 70.8195C67.2119 70.6665 67.3414 70.3075 67.577 69.7185L66.9519 69.4685C66.7208 70.0464 66.5721 70.4503 66.5206 70.6563L67.1736 70.8195ZM78.1156 70.5494L78.3573 70.3152L78.3573 70.3152L78.1156 70.5494ZM78.1156 64.1544L78.3573 64.3887L78.3573 64.3887L78.1156 64.1544ZM84.3894 64.1544L84.6311 63.9202L84.6311 63.9202L84.3894 64.1544ZM84.3894 70.5494L84.6311 70.7836L84.6311 70.7836L84.3894 70.5494ZM78.5599 64.5449L78.3148 64.3142L78.3134 64.3157L78.5599 64.5449ZM78.5599 70.159L78.3133 70.3881L78.3162 70.3911L78.5599 70.159ZM83.9452 70.159L84.1903 70.3896L84.1917 70.3881L83.9452 70.159ZM83.9452 64.5449L84.1917 64.3157L84.1917 64.3157L83.9452 64.5449ZM81.2525 71.5188C80.0931 71.5188 79.1356 71.1183 78.3573 70.3152L77.8739 70.7836C78.783 71.7218 79.9168 72.1919 81.2525 72.1919V71.5188ZM78.3573 70.3152C77.5769 69.5099 77.1867 68.5313 77.1867 67.3587H76.5135C76.5135 68.6991 76.967 69.8477 77.8739 70.7836L78.3573 70.3152ZM77.1867 67.3587C77.1867 66.1763 77.5774 65.1935 78.3573 64.3887L77.8739 63.9202C76.9665 64.8566 76.5135 66.0099 76.5135 67.3587H77.1867ZM78.3573 64.3887C79.1356 63.5856 80.0931 63.1851 81.2525 63.1851V62.5119C79.9168 62.5119 78.783 62.9821 77.8739 63.9202L78.3573 64.3887ZM81.2525 63.1851C82.412 63.1851 83.3695 63.5856 84.1477 64.3887L84.6311 63.9202C83.722 62.9821 82.5882 62.5119 81.2525 62.5119V63.1851ZM84.1477 64.3887C84.9277 65.1935 85.3184 66.1763 85.3184 67.3587H85.9916C85.9916 66.0099 85.5386 64.8566 84.6311 63.9202L84.1477 64.3887ZM85.3184 67.3587C85.3184 68.5313 84.9282 69.5099 84.1477 70.3152L84.6311 70.7836C85.5381 69.8477 85.9916 68.6991 85.9916 67.3587H85.3184ZM84.1477 70.3152C83.3695 71.1183 82.412 71.5188 81.2525 71.5188V72.1919C82.5882 72.1919 83.722 71.7218 84.6311 70.7836L84.1477 70.3152ZM81.2525 63.0639C80.0856 63.0639 79.0984 63.4816 78.3148 64.3142L78.805 64.7755C79.4574 64.0823 80.2653 63.7371 81.2525 63.7371V63.0639ZM78.3134 64.3157C77.5422 65.1454 77.1597 66.1671 77.1597 67.3587H77.8329C77.8329 66.3243 78.1595 65.4701 78.8064 64.774L78.3134 64.3157ZM77.1597 67.3587C77.1597 68.542 77.5427 69.559 78.3134 70.3881L78.8064 69.9298C78.159 69.2332 77.8329 68.3832 77.8329 67.3587H77.1597ZM78.3162 70.3911C79.1002 71.2143 80.0869 71.6265 81.2525 71.6265V70.9533C80.264 70.9533 79.4557 70.6115 78.8036 69.9269L78.3162 70.3911ZM81.2525 71.6265C82.4263 71.6265 83.4142 71.2148 84.1903 70.3896L83.7 69.9284C83.058 70.611 82.2509 70.9533 81.2525 70.9533V71.6265ZM84.1917 70.3881C84.9623 69.559 85.3453 68.542 85.3453 67.3587H84.6722C84.6722 68.3832 84.3461 69.2332 83.6986 69.9298L84.1917 70.3881ZM85.3453 67.3587C85.3453 66.1671 84.9628 65.1454 84.1917 64.3157L83.6986 64.774C84.3456 65.4701 84.6722 66.3243 84.6722 67.3587H85.3453ZM84.1917 64.3157C83.416 63.4811 82.4276 63.0639 81.2525 63.0639V63.7371C82.2495 63.7371 83.0562 64.0828 83.6986 64.774L84.1917 64.3157ZM88.3537 71.7207H88.0171V72.0573H88.3537V71.7207ZM88.3537 63.0235L88.3264 62.6881L88.0171 62.7132V63.0235H88.3537ZM92.3657 63.5755L92.1554 63.8383L92.1582 63.8405L92.3657 63.5755ZM92.7157 66.8605L92.9941 67.0498L92.9941 67.0498L92.7157 66.8605ZM91.6791 67.951L91.4823 67.678L91.2035 67.879L91.4102 68.1535L91.6791 67.951ZM93.6582 70.4956L93.4083 70.7213L93.4161 70.7294L93.6582 70.4956ZM95.3276 71.3976L95.664 71.4084L95.6739 71.1L95.3675 71.0634L95.3276 71.3976ZM95.3141 71.8149L95.3081 72.1515L95.6398 72.1574L95.6505 71.8258L95.3141 71.8149ZM94.089 71.5995L93.949 71.9057L93.9564 71.9089L94.089 71.5995ZM93.1466 70.886L92.8987 71.1138L92.9021 71.1173L93.1466 70.886ZM91.1136 68.2068L91.3865 68.0098L91.2857 67.8702H91.1136V68.2068ZM88.973 68.1395L88.9945 67.8036L88.6364 67.7807V68.1395H88.973ZM88.973 71.7207V72.0573H89.3096V71.7207H88.973ZM91.908 66.9951L91.6535 66.7749L91.6535 66.7749L91.908 66.9951ZM91.881 63.9525L92.0857 63.6853L92.0857 63.6853L91.881 63.9525ZM88.973 63.5217L88.9481 63.186L88.6364 63.2091V63.5217H88.973ZM88.973 67.6279H88.6364V67.9419L88.9497 67.9637L88.973 67.6279ZM88.6903 71.7207V63.0235H88.0171V71.7207H88.6903ZM88.381 63.359C89.1474 63.2966 89.7929 63.2659 90.3193 63.2659V62.5927C89.7687 62.5927 89.1038 62.6248 88.3264 62.6881L88.381 63.359ZM90.3193 63.2659C91.0843 63.2659 91.6878 63.4642 92.1554 63.8383L92.576 63.3127C91.9666 62.8252 91.2058 62.5927 90.3193 62.5927V63.2659ZM92.1582 63.8405C92.602 64.1882 92.8369 64.6886 92.8369 65.393H93.5101C93.5101 64.5178 93.2065 63.8066 92.5733 63.3105L92.1582 63.8405ZM92.8369 65.393C92.8369 65.8533 92.7056 66.2768 92.4374 66.6713L92.9941 67.0498C93.3362 66.5467 93.5101 65.9918 93.5101 65.393H92.8369ZM92.4374 66.6713C92.1513 67.0921 91.8322 67.4257 91.4823 67.678L91.8759 68.2241C92.2978 67.9199 92.6699 67.5265 92.9941 67.0498L92.4374 66.6713ZM91.4102 68.1535C92.4739 69.5658 93.1445 70.429 93.4084 70.7212L93.9079 70.27C93.6692 70.0057 93.0204 69.1725 91.9479 67.7485L91.4102 68.1535ZM93.4161 70.7294C93.9695 71.3022 94.5938 71.6489 95.2877 71.7318L95.3675 71.0634C94.8587 71.0026 94.37 70.748 93.9002 70.2617L93.4161 70.7294ZM94.9912 71.3867L94.9777 71.8041L95.6505 71.8258L95.664 71.4084L94.9912 71.3867ZM95.3201 71.4784C94.8424 71.4699 94.4815 71.4016 94.2216 71.2902L93.9564 71.9089C94.3248 72.0668 94.7806 72.1421 95.3081 72.1515L95.3201 71.4784ZM94.2289 71.2934C93.9646 71.1726 93.6846 70.965 93.3911 70.6547L92.9021 71.1173C93.2368 71.4712 93.5851 71.7393 93.9491 71.9056L94.2289 71.2934ZM93.3944 70.6583C93.1057 70.3441 92.4409 69.4697 91.3865 68.0098L90.8408 68.4039C91.8866 69.8519 92.5771 70.7637 92.8987 71.1137L93.3944 70.6583ZM91.1136 67.8702C90.3936 67.8702 89.6872 67.848 88.9945 67.8036L88.9515 68.4754C89.659 68.5208 90.3797 68.5434 91.1136 68.5434V67.8702ZM88.6364 68.1395V71.7207H89.3096V68.1395H88.6364ZM88.973 71.3841H88.3537V72.0573H88.973V71.3841ZM90.7771 68.0318C91.2781 68.0318 91.7407 67.7028 92.1625 67.2154L91.6535 66.7749C91.2675 67.2209 90.9761 67.3586 90.7771 67.3586V68.0318ZM92.1625 67.2154C92.6195 66.6873 92.8504 66.066 92.8504 65.3661H92.1772C92.1772 65.9048 92.0042 66.3696 91.6535 66.7749L92.1625 67.2154ZM92.8504 65.3661C92.8504 64.6617 92.6051 64.0831 92.0857 63.6853L91.6764 64.2197C92.0007 64.4681 92.1772 64.832 92.1772 65.3661H92.8504ZM92.0857 63.6853C91.591 63.3064 90.9657 63.1312 90.2385 63.1312V63.8044C90.8577 63.8044 91.3274 63.9524 91.6764 64.2197L92.0857 63.6853ZM90.2385 63.1312C89.8689 63.1312 89.4384 63.1497 88.9481 63.186L88.9979 63.8573C89.4769 63.8218 89.8901 63.8044 90.2385 63.8044V63.1312ZM88.6364 63.5217V67.6279H89.3096V63.5217H88.6364ZM88.9497 67.9637C89.6025 68.009 90.2117 68.0318 90.7771 68.0318V67.3586C90.2295 67.3586 89.636 67.3366 88.9963 67.2921L88.9497 67.9637ZM96.5446 71.7207H96.2081V72.0573H96.5446V71.7207ZM96.5446 62.9831V62.6466H96.2081V62.9831H96.5446ZM97.1639 62.9831H97.5005V62.6466H97.1639V62.9831ZM97.1639 71.1553H96.8274V71.4918H97.1639V71.1553ZM101.176 71.1553H101.513V70.8187H101.176V71.1553ZM101.176 71.7207V72.0573H101.513V71.7207H101.176ZM96.8812 71.7207V62.9831H96.2081V71.7207H96.8812ZM96.5446 63.3197H97.1639V62.6466H96.5446V63.3197ZM96.8274 62.9831V71.1553H97.5005V62.9831H96.8274ZM97.1639 71.4918H101.176V70.8187H97.1639V71.4918ZM100.839 71.1553V71.7207H101.513V71.1553H100.839ZM101.176 71.3841H96.5446V72.0573H101.176V71.3841ZM108.574 70.334L108.351 70.0819L108.349 70.0833L108.574 70.334ZM108.439 64.5583L108.208 64.8033L108.209 64.8046L108.439 64.5583ZM103.659 63.5082L103.632 63.1727L103.323 63.198V63.5082H103.659ZM103.659 71.1687H103.323V71.4683L103.62 71.503L103.659 71.1687ZM108.91 64.1544L108.681 64.4009L108.683 64.4033L108.91 64.1544ZM109.018 70.7514L108.798 70.4962L108.797 70.4974L109.018 70.7514ZM103.013 71.6938H102.677V72.0004L102.982 72.0289L103.013 71.6938ZM103.013 62.9831L102.988 62.6475L102.677 62.6709V62.9831H103.013ZM105.814 71.5995C107.025 71.5995 108.032 71.2716 108.798 70.5847L108.349 70.0833C107.733 70.635 106.9 70.9264 105.814 70.9264V71.5995ZM108.797 70.5861C109.591 69.8834 109.96 68.8437 109.96 67.5337H109.287C109.287 68.7188 108.956 69.546 108.351 70.0819L108.797 70.5861ZM109.96 67.5337C109.96 66.2086 109.537 65.1218 108.668 64.3121L108.209 64.8046C108.92 65.4668 109.287 66.3636 109.287 67.5337H109.96ZM108.67 64.3134C107.822 63.5141 106.772 63.1178 105.544 63.1178V63.7909C106.614 63.7909 107.494 64.1305 108.208 64.8033L108.67 64.3134ZM105.544 63.1178C104.725 63.1178 104.086 63.1357 103.632 63.1727L103.687 63.8437C104.113 63.8089 104.73 63.7909 105.544 63.7909V63.1178ZM103.323 63.5082V71.1687H103.996V63.5082H103.323ZM103.62 71.503C104.178 71.568 104.91 71.5995 105.814 71.5995V70.9264C104.922 70.9264 104.218 70.8951 103.698 70.8344L103.62 71.503ZM105.544 63.2389C106.815 63.2389 107.852 63.63 108.681 64.4009L109.139 63.908C108.173 63.0094 106.967 62.5658 105.544 62.5658V63.2389ZM108.683 64.4033C109.508 65.1546 109.933 66.1843 109.933 67.5337H110.606C110.606 66.0289 110.125 64.8057 109.137 63.9056L108.683 64.4033ZM109.933 67.5337C109.933 68.8938 109.538 69.8599 108.798 70.4962L109.237 71.0065C110.167 70.2067 110.606 69.0278 110.606 67.5337H109.933ZM108.797 70.4974C108.044 71.1521 107.06 71.4918 105.814 71.4918V72.165C107.188 72.165 108.34 71.7867 109.239 71.0053L108.797 70.4974ZM105.814 71.4918C104.918 71.4918 103.995 71.4475 103.045 71.3587L102.982 72.0289C103.952 72.1196 104.896 72.165 105.814 72.165V71.4918ZM103.35 71.6938V62.9831H102.677V71.6938H103.35ZM103.038 63.3188C103.746 63.2657 104.581 63.2389 105.544 63.2389V62.5658C104.569 62.5658 103.717 62.5928 102.988 62.6475L103.038 63.3188Z" fill="white"/>
</svg>
