<svg width="101" height="121" viewBox="0 0 101 121" fill="none" xmlns="http://www.w3.org/2000/svg">
<path d="M90.8968 67.876C82.0691 74.5767 64.7786 73.6439 64.7786 73.6439C62.3071 75.8457 56.2585 81.0781 52.484 83.882C85.8134 90.1084 91.9798 75.8056 90.8968 67.876Z" fill="white"/>
<path d="M34.5276 70.8423C26.5198 71.4015 22.9777 76.2151 22.2401 79.7009C26.3255 87.2885 45.1983 71.5163 46.0072 70.5726C44.7834 70.3944 40.6534 70.4144 34.5276 70.8423Z" fill="white"/>
<g filter="url(#filter0_d_134_1010)">
<path d="M86.4081 29.1309C87.7778 31.6595 91.4656 40.826 92.5193 44.8298C69.7087 71.7214 23.7181 116.345 22.2405 79.7045C23.6735 82.6546 27.8952 81.8468 29.8269 80.8635C45.2102 71.8024 55.0092 64.2866 58.0648 61.3716C67.5755 54.7992 81.5261 36.3657 86.4081 29.1309Z" fill="white"/>
</g>
<path d="M30.8423 69.5787C39.3558 68.0615 54.4497 62.6054 61.5092 58.6017C63.5762 57.3655 76.7422 43.6101 86.408 29.127C76.7143 37.8931 56.8974 47.5998 48.433 50.6202C40.574 57.0037 20.5282 68.9537 12.9704 72.0138L30.8423 69.5787Z" fill="white"/>
<g filter="url(#filter1_d_134_1010)">
<path d="M12.9683 72.0134C11.5353 71.8448 9.94782 63.4791 9.06978 59.5807C23.6102 52.1 40.5389 40.7912 47.5281 34.7154C52.2485 30.9223 62.2442 19.2272 66.4939 14.0645C68.2459 14.8167 72.8691 17.1763 77.3465 20.5969C71.0267 30.9817 49.3032 55.8038 12.9683 72.0134Z" fill="white"/>
</g>
<g filter="url(#filter2_i_134_1010)">
<path d="M15.2708 30.5342C27.7808 24.6028 54.634 17.0803 66.4969 14.0605C65.4185 16.5191 56.8808 25.5282 52.7468 29.7254C44.5461 31.3947 19.7407 42.6082 9.59657 49.0443C10.773 41.3128 13.8695 33.4828 15.2708 30.5342Z" fill="white"/>
</g>
<path d="M47.0013 11.2196C36.5701 11.6615 28.7514 22.8504 26.8641 25.9509L15.2708 30.5343C22.82 16.6493 35.3715 7.94828 45.5262 7.42653L42.9974 3.73887C41.6487 2.05308 42.7516 0.648256 43.3135 0.472656L48.8979 5.63539C49.4247 5.63539 50.6891 4.81355 53.6393 4.4764C57.2639 3.7178 56.73 5.42466 55.9574 6.05683L50.7945 9.11232C50.6891 9.53376 50.357 11.0992 50.7945 13.4322C51.4266 16.8037 49.5652 17.0144 48.8979 17.3305L47.0013 11.2196Z" fill="white"/>
<path d="M2.49507 105.463C2.61449 104.885 2.86528 104.359 3.24743 103.886C3.63436 103.409 4.09533 103.029 4.63034 102.747C5.16535 102.465 5.72185 102.324 6.29985 102.324H16.3743L15.6721 105.627H6.52914C6.31896 105.627 6.12311 105.704 5.94159 105.857C5.76007 106.005 5.64542 106.184 5.59765 106.394L5.57616 106.487C5.53316 106.707 5.57138 106.893 5.6908 107.046C5.815 107.199 5.98697 107.275 6.2067 107.275H12.1181C12.7056 107.275 13.212 107.421 13.6371 107.712C14.0623 107.999 14.3656 108.386 14.5471 108.873C14.7334 109.356 14.7645 109.893 14.6403 110.485L14.2534 112.313C14.1244 112.91 13.8616 113.452 13.4652 113.939C13.0735 114.426 12.6029 114.813 12.0536 115.1C11.5043 115.391 10.9334 115.537 10.3411 115.537H0.352643L1.05484 112.234H10.1405C10.3698 112.234 10.5799 112.155 10.771 111.997C10.9669 111.835 11.0911 111.639 11.1436 111.41C11.1914 111.181 11.1508 110.987 11.0218 110.829C10.8976 110.667 10.7209 110.586 10.4916 110.586H4.37238C3.82782 110.586 3.3573 110.452 2.96082 110.185C2.56911 109.917 2.28728 109.559 2.11531 109.11C1.94812 108.661 1.92185 108.162 2.03649 107.612L2.49507 105.463ZM23.4966 102.324H26.7926L28.9422 115.537H25.639L24.0913 107.275L19.0398 115.537H15.7294L23.4966 102.324ZM33.2486 105.627L33.9508 102.324H47.1636L46.4614 105.627H33.2486ZM31.1348 115.537L32.8975 107.275H46.1103L45.4081 110.586H35.5057L34.4524 115.537H31.1348ZM59.2085 102.324C59.8343 102.324 60.3717 102.477 60.8207 102.783C61.2745 103.088 61.5993 103.502 61.7952 104.022C61.9958 104.538 62.0293 105.111 61.8955 105.742L61.5946 107.168C61.4608 107.798 61.1838 108.372 60.7634 108.888C60.3478 109.404 59.8486 109.817 59.2658 110.127C58.6831 110.433 58.0788 110.586 57.453 110.586H55.9125L59.8104 115.537H54.8592L50.9684 110.586L49.9151 115.537H46.5976L48.3602 107.261H51.6706V107.275H57.5533C57.7492 107.275 57.9307 107.206 58.0979 107.068C58.2699 106.929 58.3773 106.762 58.4203 106.566L58.4633 106.337C58.5063 106.141 58.4729 105.974 58.363 105.835C58.2531 105.697 58.1003 105.627 57.9044 105.627H48.7042L49.4064 102.324H52.9102H52.9174H59.2085ZM69.7702 102.324H73.0662L75.2158 115.537H71.9126L70.3649 107.275L65.3134 115.537H62.003L69.7702 102.324ZM87.4255 107.275L88.4788 102.324H91.782L88.9732 115.537H85.67L86.7233 110.586H81.7721L80.7116 115.544H77.4084L80.2172 102.324H83.5204L82.4743 107.275H87.4255Z" fill="white"/>
<defs>
<filter id="filter0_d_134_1010" x="18.2405" y="29.1309" width="78.2788" height="72.4287" filterUnits="userSpaceOnUse" color-interpolation-filters="sRGB">
<feFlood flood-opacity="0" result="BackgroundImageFix"/>
<feColorMatrix in="SourceAlpha" type="matrix" values="0 0 0 0 0 0 0 0 0 0 0 0 0 0 0 0 0 0 127 0" result="hardAlpha"/>
<feOffset dy="4"/>
<feGaussianBlur stdDeviation="2"/>
<feComposite in2="hardAlpha" operator="out"/>
<feColorMatrix type="matrix" values="0 0 0 0 0 0 0 0 0 0 0 0 0 0 0 0 0 0 0.25 0"/>
<feBlend mode="normal" in2="BackgroundImageFix" result="effect1_dropShadow_134_1010"/>
<feBlend mode="normal" in="SourceGraphic" in2="effect1_dropShadow_134_1010" result="shape"/>
</filter>
<filter id="filter1_d_134_1010" x="5.06978" y="14.0645" width="76.2768" height="65.9492" filterUnits="userSpaceOnUse" color-interpolation-filters="sRGB">
<feFlood flood-opacity="0" result="BackgroundImageFix"/>
<feColorMatrix in="SourceAlpha" type="matrix" values="0 0 0 0 0 0 0 0 0 0 0 0 0 0 0 0 0 0 127 0" result="hardAlpha"/>
<feOffset dy="4"/>
<feGaussianBlur stdDeviation="2"/>
<feComposite in2="hardAlpha" operator="out"/>
<feColorMatrix type="matrix" values="0 0 0 0 0 0 0 0 0 0 0 0 0 0 0 0 0 0 0.25 0"/>
<feBlend mode="normal" in2="BackgroundImageFix" result="effect1_dropShadow_134_1010"/>
<feBlend mode="normal" in="SourceGraphic" in2="effect1_dropShadow_134_1010" result="shape"/>
</filter>
<filter id="filter2_i_134_1010" x="9.59657" y="14.0605" width="56.9004" height="38.9834" filterUnits="userSpaceOnUse" color-interpolation-filters="sRGB">
<feFlood flood-opacity="0" result="BackgroundImageFix"/>
<feBlend mode="normal" in="SourceGraphic" in2="BackgroundImageFix" result="shape"/>
<feColorMatrix in="SourceAlpha" type="matrix" values="0 0 0 0 0 0 0 0 0 0 0 0 0 0 0 0 0 0 127 0" result="hardAlpha"/>
<feOffset dy="4"/>
<feGaussianBlur stdDeviation="2"/>
<feComposite in2="hardAlpha" operator="arithmetic" k2="-1" k3="1"/>
<feColorMatrix type="matrix" values="0 0 0 0 0 0 0 0 0 0 0 0 0 0 0 0 0 0 0.25 0"/>
<feBlend mode="normal" in2="shape" result="effect1_innerShadow_134_1010"/>
</filter>
</defs>
</svg>
