<svg width="137" height="61" viewBox="0 0 137 61" fill="none" xmlns="http://www.w3.org/2000/svg">
<path fill-rule="evenodd" clip-rule="evenodd" d="M13.9371 2.91149C13.9371 2.78864 13.8879 2.32182 13.7897 1.51103C13.0894 1.00735 12.4076 0.64495 11.7442 0.423824C10.8352 0.141275 9.75411 0 8.50106 0C6.22838 0 4.41638 0.595811 3.06505 1.78743C1.71373 2.96677 1.03807 4.41023 1.03807 6.11781C1.03807 7.06374 1.22848 7.89296 1.60931 8.60548C2.12527 9.52684 2.89921 10.3991 3.93113 11.2221C4.56994 11.7258 5.94583 12.5305 8.05881 13.6361C10.1718 14.7294 11.5784 15.6876 12.2786 16.5107C12.9789 17.3338 13.329 18.2429 13.329 19.2379C13.329 19.9627 13.0956 20.7121 12.6287 21.4861C12.1742 22.2477 11.5354 22.8312 10.7123 23.2366C9.90152 23.642 9.01088 23.8447 8.04038 23.8447C6.45565 23.8447 5.03676 23.2489 3.78371 22.0573C2.51838 20.8657 1.81815 19.5144 1.68302 18.0033C1.65845 17.7822 1.60931 17.6348 1.5356 17.5611C1.47418 17.4751 1.38818 17.4321 1.27762 17.4321C1.14249 17.4321 1.05035 17.4751 1.00121 17.5611C0.939788 17.6594 0.896791 17.9972 0.872222 18.5746C0.859937 19.5082 0.767801 20.6998 0.595815 22.1494C0.571245 22.3583 0.55896 22.5303 0.55896 22.6654C0.55896 22.8865 0.657239 23.0954 0.853795 23.2919C1.05035 23.4885 1.59702 23.7465 2.49381 24.0659C4.01712 24.5941 5.608 24.8582 7.26644 24.8582C9.17058 24.8582 10.7 24.5695 11.8548 23.9921C13.0096 23.4025 13.9248 22.5303 14.6004 21.3755C15.2884 20.2207 15.6324 18.9861 15.6324 17.6716C15.6324 16.6274 15.4174 15.6815 14.9874 14.8339C14.5575 13.9862 13.9186 13.243 13.071 12.6042C12.2233 11.9531 10.8167 11.1177 8.85118 10.0981C6.27138 8.77132 4.66821 7.77626 4.04169 7.11288C3.41517 6.4495 3.10191 5.71856 3.10191 4.92005C3.10191 3.87584 3.5503 2.96063 4.44709 2.1744C5.34388 1.38818 6.4925 0.995066 7.89297 0.995066C9.24429 0.995066 10.3868 1.38818 11.3204 2.1744C12.2663 2.96063 12.9359 4.21367 13.329 5.93354L13.4948 5.9704C13.5685 5.9704 13.6607 5.94583 13.7712 5.89669C13.8081 5.70013 13.8388 5.25174 13.8634 4.55151L13.9371 2.91149ZM18.4701 23.7526C18.3842 23.7772 18.2797 23.8447 18.1569 23.9553L18.1385 24.1396C18.1385 24.2624 18.1692 24.3545 18.2306 24.416C18.3043 24.4774 18.4333 24.5081 18.6176 24.5081C19.6618 24.5081 21.2895 24.459 23.5008 24.3607C23.7465 24.3484 24.0106 24.3423 24.2931 24.3423H26.5412L32.0694 24.2686L34.3912 24.287L39.5692 24.2317H39.9746C40.1712 23.9614 40.2695 23.6236 40.2695 23.2182C40.294 22.3214 40.3739 21.4431 40.509 20.5831C40.5582 20.2023 40.7609 19.4038 41.1171 18.1876C40.982 18.0893 40.8591 18.0402 40.7486 18.0402C40.5152 18.0402 40.2817 18.292 40.0483 18.7957C39.2744 20.5033 38.6294 21.615 38.1135 22.131C37.6098 22.647 36.9649 23.0094 36.1786 23.2182C35.3924 23.4148 33.8138 23.513 31.4429 23.513C30.4601 23.513 29.6309 23.5069 28.9552 23.4946C28.2918 23.47 27.911 23.4578 27.8127 23.4578L26.6887 23.4762C25.9884 23.4762 25.5339 23.3411 25.325 23.0708C25.1776 22.8742 25.0978 22.1494 25.0855 20.8964L25.0671 18.8141L25.0855 16.6766L25.0671 13.286L25.0855 12.6779C25.6137 12.6042 26.7317 12.5673 28.4392 12.5673H29.637C30.5338 12.5673 31.2094 12.5612 31.664 12.5489C32.1185 12.5243 32.4318 12.512 32.6038 12.512C33.39 12.512 33.9551 12.6717 34.2991 12.9911C34.6553 13.2983 34.9932 14.0722 35.3126 15.313C35.4968 16.0378 35.6872 16.5721 35.8838 16.9161H36.0128C36.0742 16.9161 36.1541 16.8916 36.2523 16.8424C36.2892 16.6581 36.3076 16.5107 36.3076 16.4002C36.3076 16.3387 36.2708 15.9149 36.1971 15.1287C36.1356 14.3425 36.1049 13.6299 36.1049 12.9911C36.1049 10.5956 36.1356 9.17058 36.1971 8.71604C36.2216 8.51948 36.2339 8.37821 36.2339 8.29222C36.2339 8.20622 36.2216 8.11409 36.1971 8.01581C36.0619 7.95439 35.9145 7.92367 35.7548 7.92367C35.4354 8.04652 35.2266 8.57477 35.1283 9.50841C35.0423 10.4421 34.9072 11.0194 34.7229 11.2406C34.6123 11.388 34.2315 11.517 33.5804 11.6275C31.492 11.6275 29.7844 11.6521 28.4577 11.7012C28.3471 11.7135 28.2181 11.7197 28.0707 11.7197C27.8496 11.7197 27.4196 11.7074 26.7808 11.6828C26.3754 11.6705 26.0683 11.6644 25.8594 11.6644H25.5462C25.3865 11.6644 25.2391 11.646 25.1039 11.6091V9.04773C25.0425 6.2468 25.0118 4.77263 25.0118 4.62521C25.0118 3.1879 25.1162 2.32182 25.325 2.02699C25.4602 1.855 25.8656 1.76901 26.5412 1.76901H27.0019L32.2537 1.65844C32.5116 1.65844 32.7758 1.66459 33.046 1.67687C34.0534 1.70144 34.6123 1.71372 34.7229 1.71372C35.2634 1.71372 35.6197 1.76286 35.7917 1.86114C35.9637 1.95942 36.2032 2.26654 36.5103 2.7825C36.9649 3.55644 37.3027 4.23824 37.5238 4.82791C37.7572 5.41758 37.9415 5.82912 38.0766 6.06253C38.1872 6.09939 38.31 6.11781 38.4452 6.11781C38.5066 6.09324 38.5435 6.0441 38.5557 5.9704C38.4697 5.08589 38.4268 4.00483 38.4268 2.72722C38.4268 2.64122 38.4513 2.4201 38.5005 2.06384C38.5619 1.70758 38.5926 1.44346 38.5926 1.27147C38.568 1.16091 38.525 1.05649 38.4636 0.958212L38.2793 0.866076L36.7499 0.921357L36.4366 0.866076L33.82 0.884503C32.702 0.835364 32.0018 0.810794 31.7193 0.810794C31.3999 0.810794 30.7856 0.829222 29.8766 0.866076C28.9675 0.90293 27.7021 0.921357 26.0806 0.921357L22.8374 0.847649L21.4738 0.884503C20.6998 0.884503 19.9505 0.853791 19.2257 0.792367C18.98 0.780083 18.7711 0.77394 18.5991 0.77394C18.5131 0.77394 18.4149 0.804652 18.3043 0.866076C18.2429 1.00121 18.2122 1.11791 18.2122 1.21619C18.2122 1.35132 18.292 1.46189 18.4517 1.54788C18.808 1.6093 19.2195 1.64616 19.6863 1.65844C20.7797 1.6953 21.4369 1.83043 21.658 2.06384C21.8055 2.22354 21.8853 2.92992 21.8976 4.18296L21.9897 9.4347L21.9713 14.0599L22.0082 16.2712L21.9897 20.9517L22.0082 22.2416C22.0082 22.6838 21.9222 23.0278 21.7502 23.2735C21.4676 23.4209 20.7305 23.5315 19.5389 23.6052C19.0352 23.642 18.679 23.6912 18.4701 23.7526ZM41.8173 0.571242L41.6884 0.884503C41.7252 1.00735 41.7866 1.09949 41.8726 1.16091C41.9218 1.18548 42.1613 1.2469 42.5913 1.34518C43.8075 1.62773 44.5139 1.84886 44.7104 2.00856C44.9192 2.15598 45.2264 2.61051 45.6318 3.37217L51.2705 16.1606C52.1918 18.2244 53.3834 21.1482 54.8453 24.9319C55.005 24.9565 55.1525 24.9688 55.2876 24.9688C55.3982 24.9688 55.5333 24.9196 55.693 24.8214L56.2274 23.2182C56.8662 21.2404 57.9411 18.4517 59.4521 14.8523L64.2985 2.87464C64.5687 2.33411 64.8267 1.98399 65.0724 1.82429C65.3181 1.6523 65.9569 1.50488 66.9888 1.38204C67.2345 1.35747 67.5048 1.29604 67.7996 1.19776C67.8733 1.03806 67.9102 0.909073 67.9102 0.810794L67.8918 0.663377C67.6461 0.577384 67.1915 0.534387 66.5282 0.534387H64.5564L58.586 0.589669L58.5308 0.737086C58.5308 0.823079 58.586 0.9275 58.6966 1.05035L60.0602 1.21619C60.871 1.31447 61.3501 1.38818 61.4975 1.43732C61.8661 1.56017 62.1302 1.71987 62.2899 1.91642C62.4619 2.10069 62.5479 2.28497 62.5479 2.46924C62.5479 3.32917 61.9521 5.38687 60.7605 8.64233C60.6499 9.06001 60.5823 9.30571 60.5578 9.37942L59.2863 12.8437C58.6352 14.5636 57.9902 16.1852 57.3514 17.7085L56.1168 20.7305C56.0308 20.5217 55.9387 20.2883 55.8404 20.0303C54.919 17.6471 53.9854 15.313 53.0395 13.028L52.0628 10.872L49.2619 4.36723C48.8565 3.40902 48.6538 2.69036 48.6538 2.21126C48.6538 1.99013 48.7337 1.812 48.8934 1.67687C49.1391 1.4926 49.655 1.36975 50.4412 1.30833C51.2275 1.23462 51.7926 1.20391 52.1365 1.21619H52.284C52.5788 1.21619 52.7631 1.15477 52.8368 1.03192L52.8736 0.737086C52.8368 0.663377 52.7815 0.608096 52.7078 0.571242C52.3392 0.558957 51.9584 0.552814 51.5653 0.552814C51.1722 0.54053 50.7668 0.534387 50.3491 0.534387C48.2607 0.534387 46.8172 0.552814 46.0187 0.589669C45.7976 0.601953 45.5949 0.608096 45.4106 0.608096H44.8025C43.8075 0.583526 42.8124 0.571242 41.8173 0.571242ZM72.2096 23.7526C72.1236 23.7772 72.0192 23.8447 71.8963 23.9553L71.8779 24.1396C71.8779 24.2624 71.9086 24.3545 71.9701 24.416C72.0438 24.4774 72.1728 24.5081 72.357 24.5081C73.4012 24.5081 75.029 24.459 77.2402 24.3607C77.4859 24.3484 77.75 24.3423 78.0326 24.3423H80.2807L85.8088 24.2686L88.1307 24.287L93.3087 24.2317H93.7141C93.9106 23.9614 94.0089 23.6236 94.0089 23.2182C94.0335 22.3214 94.1133 21.4431 94.2485 20.5831C94.2976 20.2023 94.5003 19.4038 94.8566 18.1876C94.7214 18.0893 94.5986 18.0402 94.488 18.0402C94.2546 18.0402 94.0212 18.292 93.7878 18.7957C93.0139 20.5033 92.3689 21.615 91.8529 22.131C91.3493 22.647 90.7043 23.0094 89.9181 23.2182C89.1319 23.4148 87.5533 23.513 85.1823 23.513C84.1995 23.513 83.3703 23.5069 82.6946 23.4946C82.0313 23.47 81.6504 23.4578 81.5522 23.4578L80.4281 23.4762C79.7279 23.4762 79.2733 23.3411 79.0645 23.0708C78.9171 22.8742 78.8372 22.1494 78.825 20.8964L78.8065 18.8141L78.825 16.6766L78.8065 13.286L78.825 12.6779C79.3532 12.6042 80.4711 12.5673 82.1787 12.5673H83.3765C84.2732 12.5673 84.9489 12.5612 85.4034 12.5489C85.858 12.5243 86.1712 12.512 86.3432 12.512C87.1295 12.512 87.6945 12.6717 88.0385 12.9911C88.3948 13.2983 88.7326 14.0722 89.052 15.313C89.2363 16.0378 89.4267 16.5721 89.6233 16.9161H89.7523C89.8137 16.9161 89.8935 16.8916 89.9918 16.8424C90.0287 16.6581 90.0471 16.5107 90.0471 16.4002C90.0471 16.3387 90.0102 15.9149 89.9365 15.1287C89.8751 14.3425 89.8444 13.6299 89.8444 12.9911C89.8444 10.5956 89.8751 9.17058 89.9365 8.71604C89.9611 8.51948 89.9734 8.37821 89.9734 8.29222C89.9734 8.20622 89.9611 8.11409 89.9365 8.01581C89.8014 7.95439 89.654 7.92367 89.4943 7.92367C89.1749 8.04652 88.966 8.57477 88.8677 9.50841C88.7818 10.4421 88.6466 11.0194 88.4623 11.2406C88.3518 11.388 87.971 11.517 87.3199 11.6275C85.2315 11.6275 83.5239 11.6521 82.1971 11.7012C82.0866 11.7135 81.9576 11.7197 81.8102 11.7197C81.589 11.7197 81.1591 11.7074 80.5202 11.6828C80.1149 11.6705 79.8077 11.6644 79.5989 11.6644H79.2856C79.1259 11.6644 78.9785 11.646 78.8434 11.6091V9.04773C78.782 6.2468 78.7512 4.77263 78.7512 4.62521C78.7512 3.1879 78.8557 2.32182 79.0645 2.02699C79.1996 1.855 79.605 1.76901 80.2807 1.76901H80.7414L85.9931 1.65844C86.2511 1.65844 86.5152 1.66459 86.7855 1.67687C87.7928 1.70144 88.3518 1.71372 88.4623 1.71372C89.0029 1.71372 89.3591 1.76286 89.5311 1.86114C89.7031 1.95942 89.9427 2.26654 90.2498 2.7825C90.7043 3.55644 91.0422 4.23824 91.2633 4.82791C91.4967 5.41758 91.681 5.82912 91.8161 6.06253C91.9267 6.09939 92.0495 6.11781 92.1846 6.11781C92.2461 6.09324 92.2829 6.0441 92.2952 5.9704C92.2092 5.08589 92.1662 4.00483 92.1662 2.72722C92.1662 2.64122 92.1908 2.4201 92.2399 2.06384C92.3013 1.70758 92.332 1.44346 92.332 1.27147C92.3075 1.16091 92.2645 1.05649 92.2031 0.958212L92.0188 0.866076L90.4893 0.921357L90.1761 0.866076L87.5594 0.884503C86.4415 0.835364 85.7413 0.810794 85.4587 0.810794C85.1393 0.810794 84.5251 0.829222 83.616 0.866076C82.7069 0.90293 81.4416 0.921357 79.82 0.921357L76.5768 0.847649L75.2132 0.884503C74.4393 0.884503 73.6899 0.853791 72.9651 0.792367C72.7194 0.780083 72.5106 0.77394 72.3386 0.77394C72.2526 0.77394 72.1543 0.804652 72.0438 0.866076C71.9823 1.00121 71.9516 1.11791 71.9516 1.21619C71.9516 1.35132 72.0315 1.46189 72.1912 1.54788C72.5474 1.6093 72.959 1.64616 73.4258 1.65844C74.5191 1.6953 75.1764 1.83043 75.3975 2.06384C75.5449 2.22354 75.6248 2.92992 75.6371 4.18296L75.7292 9.4347L75.7108 14.0599L75.7476 16.2712L75.7292 20.9517L75.7476 22.2416C75.7476 22.6838 75.6616 23.0278 75.4896 23.2735C75.2071 23.4209 74.47 23.5315 73.2784 23.6052C72.7747 23.642 72.4184 23.6912 72.2096 23.7526ZM100.403 0.681804C99.5186 0.780083 98.1243 0.829222 96.2202 0.829222L96.2386 1.71372C96.4597 1.77515 96.945 1.84886 97.6944 1.93485C98.456 2.02084 99.0702 2.22968 99.5371 2.56137C99.7705 2.73336 99.924 2.92992 99.9977 3.15104C100.133 3.56872 100.213 4.94462 100.237 7.27872L100.274 12.512V15.0181C100.311 17.0451 100.329 18.4394 100.329 19.2011C100.329 20.835 100.262 22.0757 100.127 22.9234C99.9793 23.0954 99.7889 23.2243 99.5555 23.3103C99.1992 23.4455 98.6341 23.5683 97.8602 23.6789L96.9941 23.8079L96.515 24.029L96.5334 24.5818C96.7423 24.6064 96.902 24.6187 97.0126 24.6187L97.2705 24.6002C98.2042 24.5388 99.2852 24.5081 100.514 24.5081C102.258 24.5081 103.738 24.5572 104.955 24.6555C105.151 24.6801 105.317 24.6924 105.452 24.6924C105.575 24.6924 105.735 24.6617 105.931 24.6002L105.95 23.9C105.888 23.8632 105.815 23.8079 105.729 23.7342C104.598 23.513 103.45 23.3472 102.283 23.2366L101.638 23.0892C101.589 22.6101 101.558 22.1126 101.546 21.5966L101.417 15.4972C101.294 11.2836 101.232 7.97896 101.232 5.58343L101.288 4.9569C101.607 5.19031 101.859 5.39915 102.043 5.58343C102.227 5.7677 102.67 6.27137 103.37 7.09445C104.488 8.39664 105.335 9.35485 105.913 9.96909C108.05 12.2541 109.789 14.1582 111.128 15.6815L111.533 16.0869C111.717 16.2712 112.117 16.7011 112.731 17.3768L114.316 19.2011C114.524 19.4468 114.924 19.8706 115.513 20.4726C118.044 23.0769 119.524 24.6248 119.954 25.1162L120.82 25.0425C120.87 23.6912 120.894 22.8128 120.894 22.4074C120.894 20.5401 120.857 18.3412 120.784 15.8105L120.673 12.1066L120.691 11.3327L120.544 8.66076L120.341 2.83778C120.341 2.50609 120.489 2.18055 120.784 1.86114C120.87 1.76286 121.134 1.64616 121.576 1.51103C121.871 1.42503 122.19 1.37589 122.534 1.36361C122.878 1.33904 123.148 1.28376 123.345 1.19776L123.382 0.626523H123.069C122.811 0.626523 122.344 0.651093 121.668 0.700232C120.476 0.77394 119.598 0.810794 119.033 0.810794C118.628 0.810794 118.167 0.767798 117.651 0.681804C117.147 0.595811 116.723 0.552814 116.379 0.552814C116.06 0.552814 115.735 0.601953 115.403 0.700232C115.317 0.872218 115.262 1.05649 115.237 1.25305C115.335 1.42503 115.434 1.52945 115.532 1.56631C115.63 1.60316 115.956 1.63387 116.508 1.65844C116.975 1.71987 117.319 1.75672 117.54 1.76901C118.474 1.94099 118.996 2.10684 119.107 2.26654C119.266 2.48766 119.346 3.27389 119.346 4.62521C119.346 5.37458 119.389 6.2468 119.475 7.24187C119.561 8.22465 119.61 8.89417 119.623 9.25043C119.709 11.8548 119.752 13.4088 119.752 13.9125V14.7049L119.789 16.437L119.715 17.5426C119.715 17.6409 119.752 18.5439 119.825 20.2514L119.807 20.5463C119.131 19.8338 118.578 19.2379 118.148 18.7588L113.744 13.8756C111.877 11.8118 110.618 10.4543 109.967 9.80324C109.328 9.15215 108.616 8.36593 107.829 7.44457L107.276 6.78119L103.388 2.48766C103.265 2.35253 103.155 2.22968 103.057 2.11912C102.614 1.56631 102.135 1.07492 101.619 0.64495C101.398 0.632665 101.232 0.626523 101.122 0.626523C100.987 0.626523 100.747 0.64495 100.403 0.681804ZM136.627 31.6196C136.848 31.1773 136.669 30.6396 136.226 30.4184C135.784 30.1973 135.246 30.3766 135.025 30.8188C134.857 31.1546 134.706 31.4647 134.564 31.7538C134.275 32.345 134.029 32.8483 133.775 33.3032C133.408 33.9629 133.072 34.4323 132.67 34.7923C131.887 35.4916 130.669 35.9415 127.872 36.1239C125.088 36.3055 120.942 36.2154 114.481 36.0145C113.322 35.9785 112.091 35.9389 110.78 35.8969C104.806 35.7051 97.204 35.4611 87.4863 35.2587C67.8636 34.8498 53.92 38.8155 45.8306 43.7327C40.3284 43.2896 33.5007 43.4524 25.1661 44.6431C18.9237 45.5348 14.3177 46.511 10.9812 47.5123C7.66684 48.5069 5.52125 49.5501 4.27801 50.6257C3.64852 51.1703 3.20652 51.7608 2.9948 52.4016C2.7771 53.0604 2.8266 53.7028 3.06445 54.2805C3.51372 55.3715 4.60124 56.1693 5.64768 56.6926C6.08992 56.9137 6.62768 56.7344 6.8488 56.2922C7.06992 55.85 6.89067 55.3122 6.44843 55.0911C5.52105 54.6274 4.91851 54.0805 4.72011 53.5987C4.63414 53.3899 4.62042 53.1888 4.69492 52.9633C4.77542 52.7197 4.98108 52.385 5.44952 51.9798C6.40214 51.1556 8.25351 50.2003 11.4959 49.2272C14.7161 48.2609 19.2267 47.3002 25.4193 46.4156C32.5085 45.4028 38.4582 45.1488 43.3899 45.3734C42.6842 45.9004 42.0416 46.4336 41.4623 46.9691C38.1183 50.0608 36.6205 53.5217 37.9423 56.376C39.2424 59.1833 42.989 60.7347 48.4849 60.7347C52.8724 60.7347 56.2111 60.3614 58.7199 59.7367C61.2221 59.1137 62.9567 58.2262 64.0701 57.1533C65.2063 56.0584 65.6607 54.8009 65.6315 53.5729C65.603 52.376 65.1188 51.2792 64.5077 50.4331L64.503 50.4266L64.4982 50.4201C63.0776 48.526 59.4252 46.2129 53.134 44.8037C51.8426 44.5145 50.4354 44.2621 48.9072 44.0589C56.852 39.9387 69.6898 36.6788 87.449 37.0488C97.1557 37.251 104.747 37.4947 110.721 37.6864L110.724 37.6865C112.034 37.7285 113.266 37.7681 114.426 37.8041C120.856 38.0041 125.099 38.0991 127.989 37.9106C130.867 37.7229 132.61 37.2476 133.863 36.1272C134.478 35.5775 134.928 34.9135 135.34 34.1738C135.616 33.6771 135.896 33.1053 136.199 32.4871L136.199 32.4868L136.199 32.4864C136.337 32.2061 136.478 31.9163 136.627 31.6196ZM42.6778 48.2839C43.6641 47.372 44.8614 46.4581 46.2701 45.5672C48.7103 45.787 50.8615 46.1296 52.7427 46.551C58.8525 47.9195 62.0095 50.0923 63.061 51.4881C63.5164 52.121 63.8238 52.872 63.8415 53.6155C63.8585 54.3304 63.6118 55.1084 62.8277 55.864C62.0207 56.6415 60.6157 57.4195 58.2873 57.9992C55.9654 58.5773 52.7823 58.9442 48.4849 58.9442C43.1249 58.9442 40.395 57.4114 39.5671 55.6236C38.7608 53.8826 39.4836 51.237 42.6778 48.2839Z" fill="white"/>
</svg>
