<svg width="86" height="120" viewBox="0 0 86 120" fill="none" xmlns="http://www.w3.org/2000/svg">
<path d="M11.3873 93.4162V105.383H9.34078V93.4162H11.3873ZM15.1433 93.4162V95.06H5.61765V93.4162H15.1433ZM30.0243 103.747V105.383H23.6711V103.747H30.0243ZM24.2547 93.4162V105.383H22.1917V93.4162H24.2547ZM29.1942 98.4132V100.024H23.6711V98.4132H29.1942ZM29.9832 93.4162V95.06H23.6711V93.4162H29.9832ZM37.1796 93.4162H41.4123C42.3219 93.4162 43.0972 93.5532 43.7382 93.8271C44.3793 94.1011 44.8697 94.5066 45.2094 95.0435C45.5546 95.575 45.7272 96.2325 45.7272 97.016C45.7272 97.6133 45.6176 98.1393 45.3984 98.5941C45.1793 99.0488 44.8697 99.4324 44.4697 99.7447C44.0697 100.052 43.593 100.29 43.0396 100.46L42.415 100.764H38.6097L38.5932 99.1283H41.4452C41.9383 99.1283 42.3493 99.0406 42.678 98.8653C43.0068 98.6899 43.2533 98.4516 43.4177 98.1502C43.5876 97.8434 43.6725 97.4982 43.6725 97.1147C43.6725 96.6982 43.5903 96.3366 43.4259 96.0298C43.267 95.7175 43.0205 95.4791 42.6862 95.3147C42.352 95.1449 41.9274 95.06 41.4123 95.06H39.2425V105.383H37.1796V93.4162ZM44.0095 105.383L41.1986 100.008L43.3602 99.9995L46.2121 105.276V105.383H44.0095ZM54.0907 93.4162H55.9317L59.3918 102.646L62.8437 93.4162H64.6848L60.1151 105.383H58.6521L54.0907 93.4162ZM53.2524 93.4162H55.003L55.3071 101.405V105.383H53.2524V93.4162ZM63.7725 93.4162H65.5313V105.383H63.4684V101.405L63.7725 93.4162ZM81.2835 103.747V105.383H74.9304V103.747H81.2835ZM75.5139 93.4162V105.383H73.451V93.4162H75.5139ZM80.4534 98.4132V100.024H74.9304V98.4132H80.4534ZM81.2424 93.4162V95.06H74.9304V93.4162H81.2424Z" fill="white"/>
<path d="M5.75134 113.986L6.89187 116.191L8.03541 113.986H8.69619L7.18152 116.738V118.379H6.59919V116.738L5.08452 113.986H5.75134ZM10.1266 116.783V116.713C10.1266 116.478 10.1608 116.26 10.2292 116.059C10.2976 115.855 10.3962 115.679 10.5249 115.531C10.6536 115.38 10.8095 115.263 10.9926 115.181C11.1756 115.096 11.3808 115.054 11.6081 115.054C11.8374 115.054 12.0436 115.096 12.2266 115.181C12.4117 115.263 12.5686 115.38 12.6973 115.531C12.8281 115.679 12.9276 115.855 12.996 116.059C13.0644 116.26 13.0986 116.478 13.0986 116.713V116.783C13.0986 117.018 13.0644 117.236 12.996 117.438C12.9276 117.639 12.8281 117.815 12.6973 117.966C12.5686 118.114 12.4127 118.231 12.2296 118.316C12.0486 118.398 11.8434 118.439 11.6141 118.439C11.3848 118.439 11.1786 118.398 10.9956 118.316C10.8125 118.231 10.6556 118.114 10.5249 117.966C10.3962 117.815 10.2976 117.639 10.2292 117.438C10.1608 117.236 10.1266 117.018 10.1266 116.783ZM10.6848 116.713V116.783C10.6848 116.946 10.7039 117.1 10.7421 117.244C10.7804 117.387 10.8377 117.514 10.9141 117.625C10.9926 117.735 11.0901 117.823 11.2068 117.887C11.3235 117.949 11.4592 117.981 11.6141 117.981C11.767 117.981 11.9008 117.949 12.0154 117.887C12.1321 117.823 12.2286 117.735 12.3051 117.625C12.3815 117.514 12.4388 117.387 12.4771 117.244C12.5173 117.1 12.5374 116.946 12.5374 116.783V116.713C12.5374 116.552 12.5173 116.401 12.4771 116.258C12.4388 116.113 12.3805 115.985 12.3021 115.875C12.2256 115.762 12.1291 115.673 12.0124 115.609C11.8977 115.545 11.763 115.513 11.6081 115.513C11.4552 115.513 11.3204 115.545 11.2038 115.609C11.0891 115.673 10.9926 115.762 10.9141 115.875C10.8377 115.985 10.7804 116.113 10.7421 116.258C10.7039 116.401 10.6848 116.552 10.6848 116.713ZM17.5263 117.625V115.114H18.0875V118.379H17.5534L17.5263 117.625ZM17.6319 116.937L17.8642 116.931C17.8642 117.148 17.8411 117.349 17.7948 117.534C17.7506 117.717 17.6781 117.876 17.5776 118.011C17.477 118.146 17.3452 118.251 17.1823 118.328C17.0194 118.402 16.8212 118.439 16.5879 118.439C16.429 118.439 16.2832 118.416 16.1504 118.37C16.0197 118.324 15.907 118.252 15.8125 118.156C15.7179 118.059 15.6445 117.933 15.5922 117.778C15.5419 117.624 15.5168 117.438 15.5168 117.22V115.114H16.075V117.226C16.075 117.373 16.0911 117.495 16.1232 117.591C16.1574 117.686 16.2027 117.761 16.259 117.818C16.3174 117.872 16.3817 117.91 16.4521 117.932C16.5245 117.954 16.599 117.966 16.6754 117.966C16.9128 117.966 17.1008 117.92 17.2396 117.83C17.3784 117.737 17.478 117.614 17.5383 117.459C17.6007 117.302 17.6319 117.128 17.6319 116.937ZM25.9802 117.821V116.14C25.9802 116.011 25.954 115.9 25.9017 115.805C25.8514 115.709 25.775 115.634 25.6724 115.582C25.5698 115.53 25.4431 115.503 25.2922 115.503C25.1514 115.503 25.0277 115.528 24.9211 115.576C24.8165 115.624 24.734 115.688 24.6737 115.766C24.6154 115.844 24.5862 115.929 24.5862 116.019H24.028C24.028 115.903 24.0582 115.787 24.1185 115.672C24.1789 115.558 24.2654 115.454 24.378 115.362C24.4927 115.267 24.6294 115.193 24.7883 115.138C24.9493 115.082 25.1283 115.054 25.3254 115.054C25.5628 115.054 25.772 115.094 25.953 115.175C26.1361 115.255 26.2789 115.377 26.3815 115.54C26.4861 115.701 26.5384 115.903 26.5384 116.146V117.667C26.5384 117.775 26.5474 117.891 26.5655 118.014C26.5856 118.137 26.6148 118.242 26.653 118.331V118.379H26.0707C26.0425 118.315 26.0204 118.229 26.0043 118.122C25.9882 118.014 25.9802 117.913 25.9802 117.821ZM26.0767 116.4L26.0828 116.792H25.5185C25.3596 116.792 25.2178 116.805 25.0931 116.831C24.9684 116.855 24.8638 116.892 24.7793 116.943C24.6948 116.993 24.6304 117.056 24.5862 117.133C24.5419 117.207 24.5198 117.295 24.5198 117.395C24.5198 117.498 24.5429 117.591 24.5892 117.676C24.6355 117.76 24.7049 117.828 24.7974 117.878C24.8919 117.926 25.0076 117.95 25.1444 117.95C25.3154 117.95 25.4662 117.914 25.597 117.842C25.7277 117.769 25.8313 117.681 25.9078 117.576C25.9862 117.472 26.0284 117.37 26.0345 117.272L26.2728 117.54C26.2588 117.625 26.2205 117.718 26.1582 117.821C26.0958 117.923 26.0124 118.022 25.9078 118.116C25.8052 118.209 25.6825 118.286 25.5396 118.349C25.3988 118.409 25.2399 118.439 25.0629 118.439C24.8417 118.439 24.6475 118.396 24.4806 118.31C24.3156 118.223 24.1869 118.107 24.0944 117.963C24.0039 117.816 23.9586 117.652 23.9586 117.471C23.9586 117.296 23.9928 117.142 24.0612 117.009C24.1296 116.874 24.2281 116.763 24.3569 116.674C24.4856 116.584 24.6405 116.515 24.8215 116.469C25.0026 116.423 25.2047 116.4 25.428 116.4H26.0767ZM29.5812 115.627V118.379H29.023V115.114H29.5661L29.5812 115.627ZM30.601 115.096L30.598 115.615C30.5518 115.605 30.5075 115.599 30.4653 115.597C30.425 115.593 30.3788 115.591 30.3265 115.591C30.1977 115.591 30.0841 115.611 29.9855 115.651C29.887 115.692 29.8035 115.748 29.7351 115.82C29.6667 115.893 29.6124 115.979 29.5722 116.08C29.5339 116.178 29.5088 116.287 29.4967 116.406L29.3398 116.496C29.3398 116.299 29.3589 116.114 29.3972 115.941C29.4374 115.768 29.4987 115.615 29.5812 115.482C29.6637 115.348 29.7683 115.243 29.895 115.169C30.0237 115.092 30.1766 115.054 30.3536 115.054C30.3939 115.054 30.4401 115.059 30.4924 115.069C30.5447 115.077 30.5809 115.086 30.601 115.096ZM34.1725 118.439C33.9452 118.439 33.739 118.401 33.554 118.325C33.3709 118.246 33.213 118.137 33.0803 117.996C32.9495 117.855 32.849 117.688 32.7785 117.495C32.7081 117.302 32.6729 117.091 32.6729 116.861V116.734C32.6729 116.469 32.7122 116.233 32.7906 116.025C32.8691 115.816 32.9757 115.639 33.1104 115.494C33.2452 115.35 33.3981 115.24 33.5691 115.166C33.74 115.091 33.9171 115.054 34.1001 115.054C34.3334 115.054 34.5346 115.094 34.7036 115.175C34.8745 115.255 35.0143 115.368 35.123 115.513C35.2316 115.655 35.312 115.824 35.3643 116.019C35.4166 116.213 35.4428 116.424 35.4428 116.653V116.903H33.0048V116.448H34.8846V116.406C34.8766 116.261 34.8464 116.12 34.7941 115.983C34.7438 115.846 34.6633 115.734 34.5527 115.645C34.4421 115.557 34.2912 115.513 34.1001 115.513C33.9734 115.513 33.8567 115.54 33.7501 115.594C33.6435 115.646 33.552 115.725 33.4755 115.829C33.3991 115.934 33.3398 116.062 33.2975 116.213C33.2553 116.363 33.2342 116.537 33.2342 116.734V116.861C33.2342 117.016 33.2553 117.162 33.2975 117.299C33.3418 117.433 33.4051 117.552 33.4876 117.655C33.5721 117.757 33.6737 117.838 33.7923 117.896C33.913 117.954 34.0498 117.984 34.2027 117.984C34.3998 117.984 34.5668 117.943 34.7036 117.863C34.8403 117.782 34.96 117.675 35.0626 117.54L35.4006 117.809C35.3301 117.915 35.2406 118.017 35.132 118.113C35.0234 118.21 34.8896 118.288 34.7307 118.349C34.5738 118.409 34.3878 118.439 34.1725 118.439ZM41.2392 113.744H41.8004V117.745L41.7521 118.379H41.2392V113.744ZM44.006 116.719V116.783C44.006 117.02 43.9779 117.24 43.9215 117.444C43.8652 117.645 43.7828 117.82 43.6741 117.969C43.5655 118.117 43.4327 118.233 43.2759 118.316C43.119 118.398 42.9389 118.439 42.7358 118.439C42.5286 118.439 42.3465 118.404 42.1896 118.334C42.0347 118.261 41.904 118.158 41.7974 118.023C41.6908 117.888 41.6053 117.725 41.5409 117.534C41.4786 117.343 41.4353 117.128 41.4112 116.888V116.611C41.4353 116.369 41.4786 116.153 41.5409 115.962C41.6053 115.771 41.6908 115.608 41.7974 115.473C41.904 115.336 42.0347 115.233 42.1896 115.163C42.3445 115.09 42.5246 115.054 42.7297 115.054C42.9349 115.054 43.1169 115.094 43.2759 115.175C43.4348 115.253 43.5675 115.366 43.6741 115.513C43.7828 115.659 43.8652 115.835 43.9215 116.041C43.9779 116.244 44.006 116.47 44.006 116.719ZM43.4448 116.783V116.719C43.4448 116.556 43.4297 116.404 43.3996 116.261C43.3694 116.116 43.3211 115.989 43.2547 115.881C43.1884 115.77 43.1008 115.683 42.9922 115.621C42.8836 115.557 42.7498 115.525 42.5909 115.525C42.4501 115.525 42.3274 115.549 42.2228 115.597C42.1202 115.645 42.0327 115.711 41.9603 115.793C41.8879 115.874 41.8286 115.966 41.7823 116.071C41.7381 116.173 41.7049 116.28 41.6827 116.391V117.118C41.7149 117.258 41.7672 117.394 41.8396 117.525C41.9141 117.654 42.0126 117.759 42.1353 117.842C42.26 117.924 42.4139 117.966 42.597 117.966C42.7478 117.966 42.8766 117.935 42.9832 117.875C43.0918 117.813 43.1793 117.727 43.2457 117.619C43.3141 117.51 43.3644 117.384 43.3965 117.241C43.4287 117.099 43.4448 116.946 43.4448 116.783ZM48.1369 118.439C47.9096 118.439 47.7034 118.401 47.5184 118.325C47.3353 118.246 47.1774 118.137 47.0447 117.996C46.9139 117.855 46.8133 117.688 46.7429 117.495C46.6725 117.302 46.6373 117.091 46.6373 116.861V116.734C46.6373 116.469 46.6766 116.233 46.755 116.025C46.8334 115.816 46.9401 115.639 47.0748 115.494C47.2096 115.35 47.3625 115.24 47.5335 115.166C47.7044 115.091 47.8814 115.054 48.0645 115.054C48.2978 115.054 48.499 115.094 48.6679 115.175C48.8389 115.255 48.9787 115.368 49.0873 115.513C49.196 115.655 49.2764 115.824 49.3287 116.019C49.381 116.213 49.4072 116.424 49.4072 116.653V116.903H46.9692V116.448H48.849V116.406C48.8409 116.261 48.8108 116.12 48.7585 115.983C48.7082 115.846 48.6277 115.734 48.5171 115.645C48.4064 115.557 48.2556 115.513 48.0645 115.513C47.9378 115.513 47.8211 115.54 47.7145 115.594C47.6079 115.646 47.5164 115.725 47.4399 115.829C47.3635 115.934 47.3041 116.062 47.2619 116.213C47.2197 116.363 47.1985 116.537 47.1985 116.734V116.861C47.1985 117.016 47.2197 117.162 47.2619 117.299C47.3062 117.433 47.3695 117.552 47.452 117.655C47.5365 117.757 47.6381 117.838 47.7567 117.896C47.8774 117.954 48.0142 117.984 48.1671 117.984C48.3642 117.984 48.5312 117.943 48.6679 117.863C48.8047 117.782 48.9244 117.675 49.027 117.54L49.3649 117.809C49.2945 117.915 49.205 118.017 49.0964 118.113C48.9878 118.21 48.854 118.288 48.6951 118.349C48.5382 118.409 48.3521 118.439 48.1369 118.439ZM53.745 117.821V116.14C53.745 116.011 53.7189 115.9 53.6666 115.805C53.6163 115.709 53.5399 115.634 53.4373 115.582C53.3347 115.53 53.208 115.503 53.0571 115.503C52.9163 115.503 52.7926 115.528 52.686 115.576C52.5814 115.624 52.4989 115.688 52.4386 115.766C52.3802 115.844 52.3511 115.929 52.3511 116.019H51.7929C51.7929 115.903 51.823 115.787 51.8834 115.672C51.9437 115.558 52.0302 115.454 52.1429 115.362C52.2575 115.267 52.3943 115.193 52.5532 115.138C52.7141 115.082 52.8932 115.054 53.0903 115.054C53.3276 115.054 53.5368 115.094 53.7179 115.175C53.9009 115.255 54.0437 115.377 54.1463 115.54C54.2509 115.701 54.3032 115.903 54.3032 116.146V117.667C54.3032 117.775 54.3123 117.891 54.3304 118.014C54.3505 118.137 54.3797 118.242 54.4179 118.331V118.379H53.8356C53.8074 118.315 53.7853 118.229 53.7692 118.122C53.7531 118.014 53.745 117.913 53.745 117.821ZM53.8416 116.4L53.8476 116.792H53.2834C53.1245 116.792 52.9827 116.805 52.858 116.831C52.7332 116.855 52.6286 116.892 52.5442 116.943C52.4597 116.993 52.3953 117.056 52.3511 117.133C52.3068 117.207 52.2847 117.295 52.2847 117.395C52.2847 117.498 52.3078 117.591 52.3541 117.676C52.4003 117.76 52.4697 117.828 52.5623 117.878C52.6568 117.926 52.7725 117.95 52.9093 117.95C53.0802 117.95 53.2311 117.914 53.3618 117.842C53.4926 117.769 53.5962 117.681 53.6726 117.576C53.7511 117.472 53.7933 117.37 53.7993 117.272L54.0377 117.54C54.0236 117.625 53.9854 117.718 53.9231 117.821C53.8607 117.923 53.7772 118.022 53.6726 118.116C53.57 118.209 53.4473 118.286 53.3045 118.349C53.1637 118.409 53.0048 118.439 52.8278 118.439C52.6065 118.439 52.4124 118.396 52.2455 118.31C52.0805 118.223 51.9518 118.107 51.8592 117.963C51.7687 117.816 51.7235 117.652 51.7235 117.471C51.7235 117.296 51.7577 117.142 51.8261 117.009C51.8944 116.874 51.993 116.763 52.1217 116.674C52.2505 116.584 52.4054 116.515 52.5864 116.469C52.7674 116.423 52.9696 116.4 53.1929 116.4H53.8416ZM58.9707 117.625V115.114H59.5319V118.379H58.9979L58.9707 117.625ZM59.0763 116.937L59.3086 116.931C59.3086 117.148 59.2855 117.349 59.2392 117.534C59.195 117.717 59.1226 117.876 59.022 118.011C58.9214 118.146 58.7897 118.251 58.6267 118.328C58.4638 118.402 58.2657 118.439 58.0323 118.439C57.8734 118.439 57.7276 118.416 57.5948 118.37C57.4641 118.324 57.3514 118.252 57.2569 118.156C57.1623 118.059 57.0889 117.933 57.0366 117.778C56.9863 117.624 56.9612 117.438 56.9612 117.22V115.114H57.5194V117.226C57.5194 117.373 57.5355 117.495 57.5677 117.591C57.6019 117.686 57.6471 117.761 57.7034 117.818C57.7618 117.872 57.8261 117.91 57.8965 117.932C57.969 117.954 58.0434 117.966 58.1198 117.966C58.3572 117.966 58.5453 117.92 58.6841 117.83C58.8229 117.737 58.9224 117.614 58.9828 117.459C59.0451 117.302 59.0763 117.128 59.0763 116.937ZM63.5416 115.114V115.543H61.7765V115.114H63.5416ZM62.3739 114.321H62.9321V117.57C62.9321 117.681 62.9492 117.764 62.9834 117.821C63.0176 117.877 63.0619 117.914 63.1162 117.932C63.1705 117.95 63.2288 117.96 63.2912 117.96C63.3374 117.96 63.3857 117.955 63.436 117.947C63.4883 117.937 63.5275 117.929 63.5537 117.923L63.5567 118.379C63.5124 118.393 63.4541 118.406 63.3817 118.418C63.3113 118.432 63.2258 118.439 63.1252 118.439C62.9884 118.439 62.8627 118.412 62.7481 118.358C62.6334 118.303 62.5419 118.213 62.4735 118.086C62.4071 117.957 62.3739 117.785 62.3739 117.567V114.321ZM66.3477 115.114V118.379H65.7865V115.114H66.3477ZM65.7442 114.248C65.7442 114.158 65.7714 114.081 65.8257 114.019C65.882 113.957 65.9645 113.925 66.0731 113.925C66.1797 113.925 66.2612 113.957 66.3175 114.019C66.3758 114.081 66.405 114.158 66.405 114.248C66.405 114.335 66.3758 114.409 66.3175 114.472C66.2612 114.532 66.1797 114.562 66.0731 114.562C65.9645 114.562 65.882 114.532 65.8257 114.472C65.7714 114.409 65.7442 114.335 65.7442 114.248ZM69.3124 118.379H68.7542V114.77C68.7542 114.535 68.7965 114.337 68.881 114.176C68.9675 114.013 69.0912 113.89 69.2521 113.808C69.413 113.723 69.6041 113.681 69.8254 113.681C69.8897 113.681 69.9541 113.685 70.0185 113.693C70.0849 113.701 70.1492 113.713 70.2116 113.729L70.1814 114.185C70.1392 114.175 70.0909 114.168 70.0366 114.164C69.9843 114.16 69.932 114.158 69.8797 114.158C69.761 114.158 69.6584 114.182 69.5719 114.23C69.4874 114.276 69.4231 114.345 69.3788 114.435C69.3346 114.526 69.3124 114.637 69.3124 114.77V118.379ZM70.0064 115.114V115.543H68.2383V115.114H70.0064ZM74.2938 117.625V115.114H74.855V118.379H74.321L74.2938 117.625ZM74.3994 116.937L74.6317 116.931C74.6317 117.148 74.6086 117.349 74.5623 117.534C74.5181 117.717 74.4457 117.876 74.3451 118.011C74.2445 118.146 74.1128 118.251 73.9498 118.328C73.7869 118.402 73.5888 118.439 73.3554 118.439C73.1965 118.439 73.0507 118.416 72.9179 118.37C72.7872 118.324 72.6745 118.252 72.58 118.156C72.4855 118.059 72.412 117.933 72.3597 117.778C72.3095 117.624 72.2843 117.438 72.2843 117.22V115.114H72.8425V117.226C72.8425 117.373 72.8586 117.495 72.8908 117.591C72.925 117.686 72.9702 117.761 73.0266 117.818C73.0849 117.872 73.1493 117.91 73.2197 117.932C73.2921 117.954 73.3665 117.966 73.4429 117.966C73.6803 117.966 73.8684 117.92 74.0072 117.83C74.146 117.737 74.2455 117.614 74.3059 117.459C74.3682 117.302 74.3994 117.128 74.3994 116.937ZM78.0117 113.744V118.379H77.4505V113.744H78.0117ZM81.4563 113.986L81.4171 117.139H80.9132L80.871 113.986H81.4563ZM80.8529 118.098C80.8529 118.008 80.88 117.931 80.9343 117.869C80.9907 117.807 81.0731 117.775 81.1817 117.775C81.2884 117.775 81.3698 117.807 81.4261 117.869C81.4845 117.931 81.5136 118.008 81.5136 118.098C81.5136 118.185 81.4845 118.259 81.4261 118.322C81.3698 118.384 81.2884 118.415 81.1817 118.415C81.0731 118.415 80.9907 118.384 80.9343 118.322C80.88 118.259 80.8529 118.185 80.8529 118.098Z" fill="white"/>
<path d="M11.8311 82.582C11.8311 82.4751 11.8143 82.3807 11.7808 82.299C11.7493 82.2151 11.6927 82.1396 11.611 82.0725C11.5313 82.0054 11.4202 81.9415 11.2776 81.8807C11.1372 81.8199 10.959 81.7581 10.743 81.6952C10.5166 81.6281 10.3122 81.5537 10.1298 81.4719C9.94739 81.388 9.7912 81.2926 9.66122 81.1857C9.53124 81.0788 9.43165 80.9562 9.36247 80.8178C9.29328 80.6794 9.25869 80.5211 9.25869 80.3429C9.25869 80.1647 9.29538 80.0001 9.36876 79.8492C9.44213 79.6982 9.54696 79.5672 9.68323 79.4561C9.8216 79.3429 9.98618 79.2548 10.177 79.1919C10.3677 79.129 10.5805 79.0976 10.8153 79.0976C11.1592 79.0976 11.4506 79.1636 11.6896 79.2957C11.9307 79.4257 12.1141 79.5966 12.2399 79.8083C12.3657 80.018 12.4286 80.2423 12.4286 80.4813H11.8248C11.8248 80.3094 11.7881 80.1574 11.7147 80.0253C11.6414 79.8911 11.5303 79.7863 11.3814 79.7108C11.2325 79.6333 11.0439 79.5945 10.8153 79.5945C10.5994 79.5945 10.4212 79.627 10.2807 79.692C10.1403 79.757 10.0354 79.845 9.96626 79.9561C9.89917 80.0672 9.86563 80.1941 9.86563 80.3366C9.86563 80.4331 9.88554 80.5211 9.92538 80.6008C9.96731 80.6784 10.0313 80.7507 10.1172 80.8178C10.2053 80.8849 10.3164 80.9467 10.4506 81.0033C10.5868 81.0599 10.7493 81.1144 10.938 81.1668C11.198 81.2402 11.4223 81.322 11.611 81.4121C11.7997 81.5023 11.9548 81.604 12.0764 81.7172C12.2001 81.8283 12.2913 81.9551 12.35 82.0977C12.4108 82.2382 12.4412 82.3975 12.4412 82.5757C12.4412 82.7623 12.4034 82.9311 12.328 83.082C12.2525 83.233 12.1445 83.3619 12.0041 83.4688C11.8636 83.5757 11.6948 83.6585 11.4978 83.7172C11.3028 83.7739 11.0847 83.8022 10.8436 83.8022C10.6319 83.8022 10.4233 83.7728 10.2178 83.7141C10.0145 83.6554 9.82894 83.5673 9.66122 83.4499C9.49559 83.3325 9.36247 83.1879 9.26183 83.016C9.1633 82.842 9.11403 82.6407 9.11403 82.4122H9.71782C9.71782 82.5694 9.74822 82.7046 9.80902 82.8178C9.86982 82.929 9.95263 83.0212 10.0575 83.0946C10.1644 83.168 10.2849 83.2225 10.4191 83.2581C10.5554 83.2917 10.6969 83.3084 10.8436 83.3084C11.0554 83.3084 11.2346 83.2791 11.3814 83.2204C11.5282 83.1617 11.6393 83.0778 11.7147 82.9688C11.7923 82.8598 11.8311 82.7308 11.8311 82.582ZM15.2297 83.1575V81.4059C15.2297 81.2717 15.2024 81.1553 15.1479 81.0568C15.0955 80.9562 15.0159 80.8786 14.9089 80.8241C14.802 80.7696 14.6699 80.7423 14.5127 80.7423C14.3659 80.7423 14.237 80.7675 14.1259 80.8178C14.0169 80.8681 13.9309 80.9341 13.868 81.0159C13.8072 81.0977 13.7768 81.1857 13.7768 81.2801H13.195C13.195 81.1585 13.2265 81.0379 13.2894 80.9184C13.3523 80.7989 13.4424 80.6909 13.5598 80.5945C13.6793 80.496 13.8219 80.4184 13.9875 80.3618C14.1552 80.3031 14.3418 80.2737 14.5473 80.2737C14.7947 80.2737 15.0127 80.3157 15.2014 80.3995C15.3922 80.4834 15.541 80.6102 15.648 80.78C15.757 80.9478 15.8115 81.1585 15.8115 81.4121V82.9971C15.8115 83.1103 15.8209 83.2309 15.8398 83.3587C15.8607 83.4866 15.8911 83.5967 15.931 83.6889V83.7393H15.324C15.2947 83.6722 15.2716 83.5831 15.2549 83.472C15.2381 83.3587 15.2297 83.2539 15.2297 83.1575ZM15.3303 81.6763L15.3366 82.0851H14.7486C14.5829 82.0851 14.4351 82.0987 14.3051 82.126C14.1752 82.1512 14.0661 82.1899 13.9781 82.2424C13.89 82.2948 13.8229 82.3608 13.7768 82.4405C13.7307 82.518 13.7076 82.6092 13.7076 82.7141C13.7076 82.821 13.7317 82.9185 13.78 83.0065C13.8282 83.0946 13.9005 83.1648 13.997 83.2172C14.0955 83.2675 14.216 83.2927 14.3586 83.2927C14.5368 83.2927 14.694 83.255 14.8303 83.1795C14.9666 83.104 15.0746 83.0118 15.1542 82.9028C15.236 82.7937 15.28 82.6879 15.2863 82.5851L15.5347 82.865C15.5201 82.9531 15.4802 83.0506 15.4152 83.1575C15.3502 83.2644 15.2632 83.3671 15.1542 83.4657C15.0473 83.5621 14.9194 83.6428 14.7706 83.7078C14.6238 83.7707 14.4582 83.8022 14.2737 83.8022C14.0431 83.8022 13.8408 83.7571 13.6668 83.6669C13.4948 83.5768 13.3607 83.4562 13.2642 83.3053C13.1699 83.1522 13.1227 82.9814 13.1227 82.7927C13.1227 82.6103 13.1584 82.4499 13.2296 82.3115C13.3009 82.1711 13.4036 82.0547 13.5378 81.9625C13.672 81.8681 13.8334 81.7968 14.0221 81.7486C14.2108 81.7004 14.4215 81.6763 14.6542 81.6763H15.3303ZM17.4553 78.9089V83.7393H16.8704V78.9089H17.4553ZM18.3318 82.0757V82.0034C18.3318 81.7581 18.3674 81.5306 18.4387 81.3209C18.51 81.1092 18.6127 80.9258 18.7469 80.7706C18.8811 80.6134 19.0436 80.4918 19.2344 80.4058C19.4251 80.3178 19.639 80.2737 19.8759 80.2737C20.1149 80.2737 20.3298 80.3178 20.5206 80.4058C20.7134 80.4918 20.877 80.6134 21.0111 80.7706C21.1474 80.9258 21.2512 81.1092 21.3225 81.3209C21.3938 81.5306 21.4294 81.7581 21.4294 82.0034V82.0757C21.4294 82.321 21.3938 82.5484 21.3225 82.7581C21.2512 82.9677 21.1474 83.1512 21.0111 83.3084C20.877 83.4636 20.7145 83.5852 20.5237 83.6732C20.335 83.7592 20.1212 83.8022 19.8822 83.8022C19.6432 83.8022 19.4283 83.7592 19.2375 83.6732C19.0467 83.5852 18.8832 83.4636 18.7469 83.3084C18.6127 83.1512 18.51 82.9677 18.4387 82.7581C18.3674 82.5484 18.3318 82.321 18.3318 82.0757ZM18.9136 82.0034V82.0757C18.9136 82.2455 18.9335 82.4059 18.9733 82.5568C19.0132 82.7057 19.0729 82.8378 19.1526 82.9531C19.2344 83.0684 19.336 83.1596 19.4576 83.2267C19.5792 83.2917 19.7207 83.3242 19.8822 83.3242C20.0415 83.3242 20.1809 83.2917 20.3004 83.2267C20.422 83.1596 20.5227 83.0684 20.6023 82.9531C20.682 82.8378 20.7417 82.7057 20.7816 82.5568C20.8235 82.4059 20.8445 82.2455 20.8445 82.0757V82.0034C20.8445 81.8356 20.8235 81.6773 20.7816 81.5285C20.7417 81.3775 20.6809 81.2444 20.5992 81.1291C20.5195 81.0117 20.4189 80.9195 20.2973 80.8524C20.1778 80.7853 20.0373 80.7517 19.8759 80.7517C19.7165 80.7517 19.5761 80.7853 19.4545 80.8524C19.335 80.9195 19.2344 81.0117 19.1526 81.1291C19.0729 81.2444 19.0132 81.3775 18.9733 81.5285C18.9335 81.6773 18.9136 81.8356 18.9136 82.0034ZM22.8374 81.0631V83.7393H22.2556V80.3366H22.8059L22.8374 81.0631ZM22.699 81.909L22.4568 81.8996C22.4589 81.6669 22.4935 81.452 22.5606 81.2549C22.6277 81.0557 22.7221 80.8828 22.8437 80.736C22.9652 80.5893 23.1099 80.4761 23.2776 80.3964C23.4474 80.3146 23.6351 80.2737 23.8405 80.2737C24.0083 80.2737 24.1592 80.2968 24.2934 80.3429C24.4276 80.3869 24.5418 80.4582 24.6362 80.5568C24.7326 80.6553 24.806 80.7832 24.8563 80.9404C24.9066 81.0956 24.9318 81.2853 24.9318 81.5096V83.7393H24.3468V81.5033C24.3468 81.3251 24.3206 81.1826 24.2682 81.0757C24.2158 80.9666 24.1393 80.888 24.0387 80.8398C23.938 80.7895 23.8143 80.7643 23.6676 80.7643C23.5229 80.7643 23.3908 80.7947 23.2713 80.8555C23.1539 80.9163 23.0523 81.0002 22.9663 81.1071C22.8824 81.214 22.8164 81.3367 22.7682 81.475C22.7221 81.6113 22.699 81.756 22.699 81.909ZM27.8932 82.8367C27.8932 82.7529 27.8744 82.6753 27.8366 82.604C27.801 82.5306 27.7266 82.4646 27.6134 82.4059C27.5022 82.3451 27.3345 82.2927 27.1102 82.2486C26.9215 82.2088 26.7507 82.1616 26.5976 82.1071C26.4467 82.0526 26.3177 81.9866 26.2108 81.909C26.106 81.8314 26.0253 81.7402 25.9687 81.6354C25.9121 81.5306 25.8837 81.4079 25.8837 81.2675C25.8837 81.1333 25.9131 81.0065 25.9718 80.887C26.0326 80.7675 26.1175 80.6616 26.2265 80.5693C26.3376 80.4771 26.4708 80.4048 26.6259 80.3524C26.7811 80.2999 26.954 80.2737 27.1448 80.2737C27.4173 80.2737 27.6501 80.322 27.8429 80.4184C28.0358 80.5148 28.1836 80.6438 28.2863 80.8052C28.3891 80.9645 28.4404 81.1417 28.4404 81.3367H27.8587C27.8587 81.2423 27.8304 81.1511 27.7737 81.0631C27.7192 80.9729 27.6385 80.8985 27.5316 80.8398C27.4268 80.7811 27.2978 80.7517 27.1448 80.7517C26.9834 80.7517 26.8523 80.7769 26.7517 80.8272C26.6532 80.8754 26.5808 80.9373 26.5347 81.0128C26.4907 81.0882 26.4687 81.1679 26.4687 81.2518C26.4687 81.3147 26.4792 81.3713 26.5001 81.4216C26.5232 81.4698 26.563 81.5149 26.6196 81.5568C26.6762 81.5966 26.7559 81.6344 26.8586 81.67C26.9614 81.7057 27.0924 81.7413 27.2517 81.7769C27.5306 81.8398 27.7601 81.9153 27.9404 82.0034C28.1207 82.0914 28.2549 82.1994 28.3429 82.3273C28.431 82.4551 28.475 82.6103 28.475 82.7927C28.475 82.9415 28.4436 83.0778 28.3807 83.2015C28.3199 83.3252 28.2308 83.4321 28.1134 83.5223C27.9981 83.6103 27.8597 83.6795 27.6983 83.7298C27.5389 83.778 27.3597 83.8022 27.1605 83.8022C26.8607 83.8022 26.607 83.7487 26.3995 83.6418C26.1919 83.5348 26.0347 83.3965 25.9278 83.2267C25.8209 83.0568 25.7674 82.8776 25.7674 82.6889H26.3523C26.3607 82.8482 26.4068 82.9751 26.4907 83.0694C26.5745 83.1617 26.6773 83.2277 26.7989 83.2675C26.9205 83.3053 27.041 83.3242 27.1605 83.3242C27.3199 83.3242 27.453 83.3032 27.5599 83.2613C27.6689 83.2193 27.7517 83.1617 27.8083 83.0883C27.8649 83.0149 27.8932 82.9311 27.8932 82.8367Z" fill="white"/>
<path d="M63.9366 82.582C63.9366 82.4751 63.9198 82.3807 63.8863 82.299C63.8549 82.2151 63.7983 82.1396 63.7165 82.0725C63.6368 82.0054 63.5257 81.9415 63.3831 81.8807C63.2427 81.8199 63.0645 81.7581 62.8485 81.6952C62.6221 81.6281 62.4177 81.5537 62.2353 81.4719C62.0529 81.388 61.8967 81.2926 61.7667 81.1857C61.6368 81.0788 61.5372 80.9562 61.468 80.8178C61.3988 80.6794 61.3642 80.5211 61.3642 80.3429C61.3642 80.1647 61.4009 80.0001 61.4743 79.8492C61.5477 79.6982 61.6525 79.5672 61.7888 79.4561C61.9271 79.3429 62.0917 79.2548 62.2825 79.1919C62.4733 79.129 62.6861 79.0976 62.9209 79.0976C63.2647 79.0976 63.5561 79.1636 63.7951 79.2957C64.0362 79.4257 64.2196 79.5966 64.3454 79.8083C64.4712 80.018 64.5341 80.2423 64.5341 80.4813H63.9303C63.9303 80.3094 63.8936 80.1574 63.8203 80.0253C63.7469 79.8911 63.6358 79.7863 63.4869 79.7108C63.3381 79.6333 63.1494 79.5945 62.9209 79.5945C62.7049 79.5945 62.5267 79.627 62.3863 79.692C62.2458 79.757 62.141 79.845 62.0718 79.9561C62.0047 80.0672 61.9711 80.1941 61.9711 80.3366C61.9711 80.4331 61.9911 80.5211 62.0309 80.6008C62.0728 80.6784 62.1368 80.7507 62.2227 80.8178C62.3108 80.8849 62.4219 80.9467 62.5561 81.0033C62.6923 81.0599 62.8548 81.1144 63.0435 81.1668C63.3035 81.2402 63.5278 81.322 63.7165 81.4121C63.9052 81.5023 64.0603 81.604 64.1819 81.7172C64.3056 81.8283 64.3968 81.9551 64.4555 82.0977C64.5163 82.2382 64.5467 82.3975 64.5467 82.5757C64.5467 82.7623 64.509 82.9311 64.4335 83.082C64.358 83.233 64.25 83.3619 64.1096 83.4688C63.9691 83.5757 63.8003 83.6585 63.6033 83.7172C63.4083 83.7739 63.1903 83.8022 62.9492 83.8022C62.7374 83.8022 62.5288 83.7728 62.3234 83.7141C62.12 83.6554 61.9345 83.5673 61.7667 83.4499C61.6011 83.3325 61.468 83.1879 61.3674 83.016C61.2688 82.842 61.2196 82.6407 61.2196 82.4122H61.8233C61.8233 82.5694 61.8537 82.7046 61.9145 82.8178C61.9753 82.929 62.0582 83.0212 62.163 83.0946C62.2699 83.168 62.3905 83.2225 62.5246 83.2581C62.6609 83.2917 62.8024 83.3084 62.9492 83.3084C63.1609 83.3084 63.3402 83.2791 63.4869 83.2204C63.6337 83.1617 63.7448 83.0778 63.8203 82.9688C63.8978 82.8598 63.9366 82.7308 63.9366 82.582ZM65.9106 80.9907V85.0475H65.3257V80.3366H65.8603L65.9106 80.9907ZM68.2032 82.0096V82.0757C68.2032 82.3231 68.1738 82.5526 68.1151 82.7644C68.0564 82.974 67.9705 83.1564 67.8572 83.3116C67.7461 83.4667 67.6088 83.5873 67.4453 83.6732C67.2818 83.7592 67.0941 83.8022 66.8824 83.8022C66.6664 83.8022 66.4757 83.7665 66.31 83.6952C66.1444 83.624 66.0039 83.5202 65.8886 83.3839C65.7733 83.2476 65.6811 83.0841 65.6119 82.8933C65.5448 82.7025 65.4987 82.4876 65.4735 82.2486V81.8964C65.4987 81.6449 65.5459 81.4195 65.615 81.2203C65.6842 81.0211 65.7754 80.8513 65.8886 80.7109C66.0039 80.5683 66.1434 80.4603 66.3069 80.3869C66.4704 80.3115 66.6591 80.2737 66.8729 80.2737C67.0868 80.2737 67.2765 80.3157 67.4421 80.3995C67.6078 80.4813 67.7472 80.5987 67.8604 80.7517C67.9736 80.9048 68.0585 81.0882 68.1151 81.3021C68.1738 81.5138 68.2032 81.7497 68.2032 82.0096ZM67.6182 82.0757V82.0096C67.6182 81.8398 67.6004 81.6805 67.5648 81.5316C67.5291 81.3807 67.4736 81.2486 67.3981 81.1354C67.3247 81.0201 67.2304 80.9299 67.1151 80.865C66.9998 80.7979 66.8625 80.7643 66.7031 80.7643C66.5564 80.7643 66.4285 80.7895 66.3195 80.8398C66.2125 80.8901 66.1213 80.9582 66.0459 81.0442C65.9704 81.1281 65.9085 81.2245 65.8603 81.3335C65.8142 81.4404 65.7796 81.5516 65.7566 81.6669V82.4814C65.7985 82.6281 65.8572 82.7665 65.9327 82.8965C66.0081 83.0244 66.1088 83.1281 66.2346 83.2078C66.3603 83.2854 66.5186 83.3242 66.7094 83.3242C66.8667 83.3242 67.0019 83.2917 67.1151 83.2267C67.2304 83.1596 67.3247 83.0684 67.3981 82.9531C67.4736 82.8378 67.5291 82.7057 67.5648 82.5568C67.6004 82.4059 67.6182 82.2455 67.6182 82.0757ZM71.0483 83.1575V81.4059C71.0483 81.2717 71.021 81.1553 70.9665 81.0568C70.9141 80.9562 70.8345 80.8786 70.7275 80.8241C70.6206 80.7696 70.4885 80.7423 70.3313 80.7423C70.1845 80.7423 70.0556 80.7675 69.9445 80.8178C69.8355 80.8681 69.7495 80.9341 69.6866 81.0159C69.6258 81.0977 69.5954 81.1857 69.5954 81.2801H69.0136C69.0136 81.1585 69.0451 81.0379 69.108 80.9184C69.1709 80.7989 69.261 80.6909 69.3784 80.5945C69.4979 80.496 69.6405 80.4184 69.8061 80.3618C69.9738 80.3031 70.1604 80.2737 70.3659 80.2737C70.6133 80.2737 70.8313 80.3157 71.02 80.3995C71.2108 80.4834 71.3596 80.6102 71.4665 80.78C71.5756 80.9478 71.6301 81.1585 71.6301 81.4121V82.9971C71.6301 83.1103 71.6395 83.2309 71.6584 83.3587C71.6793 83.4866 71.7097 83.5967 71.7496 83.6889V83.7393H71.1426C71.1133 83.6722 71.0902 83.5831 71.0735 83.472C71.0567 83.3587 71.0483 83.2539 71.0483 83.1575ZM71.1489 81.6763L71.1552 82.0851H70.5671C70.4015 82.0851 70.2537 82.0987 70.1237 82.126C69.9938 82.1512 69.8847 82.1899 69.7967 82.2424C69.7086 82.2948 69.6415 82.3608 69.5954 82.4405C69.5493 82.518 69.5262 82.6092 69.5262 82.7141C69.5262 82.821 69.5503 82.9185 69.5986 83.0065C69.6468 83.0946 69.7191 83.1648 69.8156 83.2172C69.9141 83.2675 70.0346 83.2927 70.1772 83.2927C70.3554 83.2927 70.5126 83.255 70.6489 83.1795C70.7852 83.104 70.8932 83.0118 70.9728 82.9028C71.0546 82.7937 71.0986 82.6879 71.1049 82.5851L71.3533 82.865C71.3387 82.9531 71.2988 83.0506 71.2338 83.1575C71.1688 83.2644 71.0818 83.3671 70.9728 83.4657C70.8659 83.5621 70.738 83.6428 70.5892 83.7078C70.4424 83.7707 70.2768 83.8022 70.0923 83.8022C69.8617 83.8022 69.6594 83.7571 69.4854 83.6669C69.3134 83.5768 69.1793 83.4562 69.0828 83.3053C68.9885 83.1522 68.9413 82.9814 68.9413 82.7927C68.9413 82.6103 68.9769 82.4499 69.0482 82.3115C69.1195 82.1711 69.2222 82.0547 69.3564 81.9625C69.4906 81.8681 69.652 81.7968 69.8407 81.7486C70.0294 81.7004 70.2401 81.6763 70.4728 81.6763H71.1489ZM74.623 82.8367C74.623 82.7529 74.6041 82.6753 74.5664 82.604C74.5308 82.5306 74.4563 82.4646 74.3431 82.4059C74.232 82.3451 74.0643 82.2927 73.84 82.2486C73.6513 82.2088 73.4804 82.1616 73.3274 82.1071C73.1764 82.0526 73.0475 81.9866 72.9406 81.909C72.8357 81.8314 72.755 81.7402 72.6984 81.6354C72.6418 81.5306 72.6135 81.4079 72.6135 81.2675C72.6135 81.1333 72.6429 81.0065 72.7016 80.887C72.7624 80.7675 72.8473 80.6616 72.9563 80.5693C73.0674 80.4771 73.2005 80.4048 73.3557 80.3524C73.5108 80.2999 73.6838 80.2737 73.8745 80.2737C74.1471 80.2737 74.3798 80.322 74.5727 80.4184C74.7656 80.5148 74.9134 80.6438 75.0161 80.8052C75.1188 80.9645 75.1702 81.1417 75.1702 81.3367H74.5884C74.5884 81.2423 74.5601 81.1511 74.5035 81.0631C74.449 80.9729 74.3683 80.8985 74.2614 80.8398C74.1565 80.7811 74.0276 80.7517 73.8745 80.7517C73.7131 80.7517 73.5821 80.7769 73.4815 80.8272C73.3829 80.8754 73.3106 80.9373 73.2645 81.0128C73.2204 81.0882 73.1984 81.1679 73.1984 81.2518C73.1984 81.3147 73.2089 81.3713 73.2299 81.4216C73.2529 81.4698 73.2928 81.5149 73.3494 81.5568C73.406 81.5966 73.4856 81.6344 73.5884 81.67C73.6911 81.7057 73.8221 81.7413 73.9815 81.7769C74.2603 81.8398 74.4899 81.9153 74.6702 82.0034C74.8505 82.0914 74.9846 82.1994 75.0727 82.3273C75.1608 82.4551 75.2048 82.6103 75.2048 82.7927C75.2048 82.9415 75.1733 83.0778 75.1104 83.2015C75.0496 83.3252 74.9605 83.4321 74.8431 83.5223C74.7278 83.6103 74.5895 83.6795 74.428 83.7298C74.2687 83.778 74.0894 83.8022 73.8903 83.8022C73.5905 83.8022 73.3368 83.7487 73.1292 83.6418C72.9217 83.5348 72.7644 83.3965 72.6575 83.2267C72.5506 83.0568 72.4971 82.8776 72.4971 82.6889H73.0821C73.0905 82.8482 73.1366 82.9751 73.2204 83.0694C73.3043 83.1617 73.407 83.2277 73.5286 83.2675C73.6502 83.3053 73.7708 83.3242 73.8903 83.3242C74.0496 83.3242 74.1827 83.3032 74.2897 83.2613C74.3987 83.2193 74.4815 83.1617 74.5381 83.0883C74.5947 83.0149 74.623 82.9311 74.623 82.8367Z" fill="white"/>
<path d="M35.8025 61.6286C36.2877 61.2889 37.0833 60.2604 36.3847 58.8632C35.5114 57.1166 30.1262 51.7314 30.5628 49.1116C30.1416 50.6787 29.7882 52.7655 29.804 54.7879M35.8025 61.6286C35.9966 60.8523 35.9189 58.805 34.0559 56.8255M35.8025 61.6286C35.4144 60.3186 34.4635 57.6988 33.7649 57.6988M35.8025 61.6286C31.1668 62.1605 29.8336 58.5881 29.804 54.7879M35.8025 61.6286C34.6465 60.1573 32.6102 57.2897 31.4361 54.845M35.8025 61.6286C34.2985 60.7449 31.3197 58.151 31.4361 54.845M35.8025 61.6286C33.6756 61.0949 29.7543 58.8341 31.084 54.0601M35.8025 61.6286C38.1168 63.3918 39.9139 65.8765 41.237 68.3237M29.804 54.7879L30.5628 52.3136C30.6323 52.8232 30.8182 53.4181 31.084 54.0601M31.4361 54.845C31.3076 54.5776 31.1895 54.3151 31.084 54.0601M41.237 68.3237C42.7098 71.0477 43.5953 73.7254 43.9531 75.3099L44.6808 83.1694L44.0986 74.7277M41.237 68.3237C41.3661 68.0811 41.6243 67.4795 41.6243 67.0138M41.6243 67.0138C41.2847 66.7712 40.6055 66.024 40.6055 64.9761C40.557 63.0355 40.7802 59.0378 42.061 58.5721C42.1095 59.2513 42.2356 60.6097 42.3521 60.6097C42.4013 60.6097 42.6506 61.0264 42.9363 61.6286M41.6243 67.0138C42.6825 67.2466 43.5207 66.1405 43.8075 65.5583M41.6243 67.0138C41.6488 66.7689 41.6742 66.472 41.6971 66.1405M43.8075 65.5583C43.6349 65.3425 43.3704 65.3067 43.0798 65.3693M43.8075 65.5583C43.9704 65.1918 43.9396 64.6429 43.8075 64.0424M41.4788 60.7553C41.579 61.0808 41.6495 61.4885 41.6971 61.9424M41.6971 66.1405C42.0177 65.8657 42.5863 65.4755 43.0798 65.3693M41.6971 66.1405C41.7398 65.5243 41.7742 64.7881 41.7801 64.0424M43.0798 65.3693C42.8094 65.1869 42.4343 64.4683 42.6506 62.9385M42.9363 61.6286C43.2586 62.3079 43.6273 63.2232 43.8075 64.0424M42.9363 61.6286C42.7964 62.1192 42.7049 62.5544 42.6506 62.9385M43.8075 64.0424L42.6506 62.9385M41.6971 61.9424C41.7643 62.5839 41.7857 63.3177 41.7801 64.0424M41.6971 61.9424C41.388 62.3312 40.9718 63.2955 41.7801 64.0424M44.0986 74.7277C44.8576 73.2942 46.0892 71.1553 47.4878 69.0514M44.0986 74.7277C44.2508 71.5432 44.7369 65.2489 45.613 60.7553M53.1225 62.6474L52.1037 62.2107M53.1225 62.6474C53.4621 62.8074 54.0831 63.3517 53.8502 64.2484C54.1413 64.1999 54.7817 63.9864 55.0146 63.5206M53.1225 62.6474L54.4324 62.3779M53.1225 62.6474C51.8432 63.3855 50.3455 65.0679 48.9107 67.0138M47.4878 69.0514C47.9105 68.7118 49.3092 68.0908 51.5215 68.3237M47.4878 69.0514C47.9476 68.3596 48.4256 67.6716 48.9107 67.0138M51.5215 68.3237C52.5888 67.3049 55.393 66.024 58.0711 69.0514M51.5215 68.3237C52.5694 70.3031 54.4809 69.9247 55.3057 69.488C55.5386 69.1387 57.2463 69.0514 58.0711 69.0514M51.5215 68.3237C53.4136 68.2752 57.3724 68.3528 58.0711 69.0514M52.1037 62.2107C52.2492 61.8226 52.6567 61.0464 53.1225 61.0464M52.1037 62.2107C52.7698 61.8226 54.1497 61.1628 54.34 61.6286M53.1225 61.0464L52.5403 60.3186C52.9284 60.1731 53.792 59.9693 54.1413 60.3186C54.3102 60.4875 54.3952 60.5271 54.4324 60.5065M53.1225 61.0464C53.5389 60.9008 54.3683 60.6971 54.3545 61.0464M55.0146 63.5206C55.2087 63.7147 55.5968 64.2775 55.5968 64.9761C55.8394 64.8388 56.3536 64.4599 56.4701 64.0424C57.9255 64.5679 61.5642 65.4611 64.4751 64.8306C64.8428 64.7509 65.1757 64.6565 65.4767 64.5508M55.0146 63.5206C54.8465 63.3525 54.7168 63.1538 54.618 62.9385M55.0146 63.5206C54.7663 63.0204 55.6378 61.4668 61.1103 59.2545M55.0146 63.5206C55.1458 63.3605 55.3412 63.1516 55.5791 62.9385M67.6771 61.0464C68.0264 61.1628 68.1138 61.6922 68.1138 61.9424C68.1138 62.554 67.5583 63.8202 65.4767 64.5508M67.6771 61.0464C67.86 60.9271 68.0603 60.7812 68.2593 60.6161C68.8837 60.0979 69.4945 59.3898 69.5097 58.7176C69.5192 58.297 69.2954 57.8905 68.6959 57.5533M67.6771 61.0464C66.6644 60.6771 65.8461 60.712 65.24 60.9001M68.6959 57.5533C69.4722 56.68 70.5298 54.7297 68.5504 53.9146M68.6959 57.5533C67.6106 57.6503 65.4 58.0481 65.24 58.8632M68.5504 53.9146L67.6771 53.1869C67.5604 53.0313 67.4063 52.8551 67.2233 52.6812M68.5504 53.9146C68.1439 55.2579 66.8982 57.9446 65.1667 57.9446M64.184 52.168C63.7959 51.4403 62.5539 50.3051 60.6909 51.5859M64.184 52.168C65.3012 51.3301 66.4929 51.9873 67.2233 52.6812M64.184 52.168C63.4405 53.2558 62.0979 55.6434 62.6751 56.4922M60.6909 51.5859C59.0899 50.6641 55.6841 50.8872 54.8691 59.1543C54.578 59.3483 54.0831 59.8529 54.4324 60.3186C54.4575 60.3938 54.4722 60.4845 54.4324 60.5065M60.6909 51.5859C60.2976 51.8187 59.4482 54.3836 59.0727 55.6369M54.4324 60.5065C54.4008 60.6509 54.372 60.8363 54.3545 61.0464M54.34 61.6286C54.3329 61.4232 54.3396 61.2258 54.3545 61.0464M54.34 61.6286C54.3484 61.8728 54.3762 62.1283 54.4324 62.3779M54.4324 62.3779C54.7229 61.4396 55.2625 60.0022 55.9432 58.7176M54.4324 62.3779C54.9342 61.3033 56.1057 59.1543 56.7775 59.1543M54.4324 62.3779C54.4759 62.5709 54.5363 62.7604 54.618 62.9385M48.9107 67.0138L49.1927 63.8117M49.1927 63.8117C48.1514 63.2719 46.8972 61.0297 50.2116 56.3796M49.1927 63.8117C51.5215 62.4145 51.2304 60.6097 50.7938 59.882C50.5609 59.6491 50.3086 57.4501 50.2116 56.3796M49.1927 63.8117C49.2413 61.8459 49.513 57.6073 50.2116 56.3796M51.5215 46.6373C50.4056 48.6133 47.8246 53.5628 46.4274 57.5533C46.224 58.1342 46.0345 58.8239 45.8587 59.5909M51.5215 46.6373C53.3845 50.7126 56.8582 50.8581 58.3622 50.4215C60.1087 49.8393 60.3513 46.4917 60.2543 44.8907M51.5215 46.6373C50.274 47.2131 48.1153 47.8268 46.5557 47.2771M51.5215 46.6373C51.7104 46.5536 53.4723 42.3801 54.3297 40.3039M51.5215 46.6373C53.3845 49.2234 55.5968 48.6549 56.4701 48.0474C59.0528 48.3968 59.7664 45.9927 59.8004 44.747M46.1363 37.759C45.6996 37.759 44.4484 38.3703 42.9363 40.8154C42.6808 41.2286 42.5297 41.6171 42.4609 41.9798M46.1363 37.759C44.7178 36.6951 42.781 34.0761 45.2989 31.5005M46.1363 37.759C46.3174 37.9148 47.0625 38.154 48.0112 38.4101M53.268 30.1906C53.0352 29.3755 51.7155 28.3955 51.0848 28.0074C49.482 27.4386 48.3556 27.6333 47.5858 28.1529M53.268 30.1906C53.5106 28.9292 54.6362 26.4064 57.1978 26.4064C59.7594 26.4064 60.5939 28.25 60.6909 29.1717M53.268 30.1906C53.7476 30.9248 53.6726 34.6688 53.5751 36.4491M60.6909 29.1717C61.8067 29.5599 63.7183 31.093 62.4375 34.1203C61.9523 34.848 60.9238 36.3326 60.6909 36.4491M60.6909 29.1717C60.4911 30.2973 59.946 32.6591 59.3638 33.1015M60.6909 36.4491C60.3998 36.5946 65.3484 35.8669 66.0761 39.7966C66.1246 40.3303 65.8723 41.6014 64.4751 42.4165C64.8147 43.6779 64.446 45.9387 60.2543 44.8907M60.6909 36.4491C59.6567 37.5332 57.2898 38.5705 56.2356 38.9536M60.6909 36.4491C62.2006 37.2102 65.0128 39.2565 64.184 41.3523C64.1412 42.4833 63.2954 44.7743 60.2543 44.8907M60.2543 44.8907C60.119 44.8685 59.9664 44.8191 59.8004 44.747M45.8587 59.5909C45.272 57.6018 43.7493 53.3033 42.3521 52.0225C41.361 51.114 39.9695 47.8571 38.9154 45.0363M45.8587 59.5909C45.7736 59.9621 45.6917 60.3514 45.613 60.7553M36.3847 37.4679C36.3847 38.2829 37.355 40.8154 37.8401 41.9798C38.1081 42.7977 38.4834 43.8804 38.9154 45.0363M36.3847 37.4679C35.754 36.4491 34.347 34.3532 33.7649 34.1203M36.3847 37.4679C36.331 36.9634 36.2868 36.313 36.2695 35.5758M33.7649 34.1203C35.2785 30.8601 29.641 27.6193 26.6331 26.4064M33.7649 34.1203C32.242 34.2557 29.6002 33.6782 27.9834 31.0638M33.7649 34.1203C31.9967 33.1015 28.365 31.0638 27.9834 31.0638M33.7649 34.1203C32.8308 33.1863 31.5174 31.8541 30.2717 30.556M33.7649 34.1203C32.6005 33.3451 30.2717 31.5469 30.2717 30.556M33.7649 34.1203C33.5708 33.1985 33.008 31.3258 32.3094 31.2094M45.613 60.7553C44.7686 59.785 43.0798 57.7861 43.0798 57.5533M43.0798 57.5533C40.3629 57.3592 35.1621 55.5447 36.0936 49.8393C37.1124 50.567 39.2956 52.0225 39.8778 52.0225C41.4788 52.6047 44.3606 54.5259 43.0798 57.5533ZM38.9154 45.0363C38.3357 44.4617 37.3255 43.7582 36.0936 43.4046M31.084 44.4541C32.8324 43.0594 34.6213 42.9821 36.0936 43.4046M31.084 44.4541C31.0073 46.2977 29.1656 48.9951 22.4122 45.0363M31.084 44.4541C29.5674 42.562 26.9242 44.7452 26.342 45.0363C25.8762 45.2692 23.5281 45.1333 22.4122 45.0363M31.084 44.4541C30.3825 45.3979 28.4124 46.7061 25.3232 46.0877M31.084 44.4541C30.9873 44.4988 30.8782 44.5477 30.7584 44.5996M36.0936 43.4046C35.2309 43.0837 33.8392 42.4564 32.8916 41.7508M31.8728 40.3788C31.8728 40.8292 32.2938 41.3056 32.8916 41.7508M31.8728 40.3788C30.4173 40.0877 28.0012 38.574 29.9807 34.8481M31.8728 40.3788C33.4738 39.0069 31.5817 36.8857 31.4361 36.8857C31.3197 36.8857 30.4173 35.5273 29.9807 34.8481M31.8728 40.3788C31.048 39.1174 29.5149 36.2453 29.9807 34.8481M31.8728 40.3788C31.114 39.8937 29.6734 38.7778 29.9807 38.1956M31.8728 40.3788C31.8242 39.8937 31.6981 38.8069 31.5817 38.3412M32.8916 41.7508C31.0965 41.633 27.4481 41.3394 27.2153 41.1065M27.2153 41.1065C24.644 42.0283 19.5887 42.1836 19.938 35.4302C20.5201 36.158 21.8883 37.6425 22.7033 37.759C24.1103 37.9045 26.9824 38.7778 27.2153 41.1065ZM27.2153 41.1065C25.6143 41.0095 22.092 40.3206 20.8112 38.3412M27.2153 41.1065C25.8083 40.864 22.9653 40.0877 22.8489 38.9233M27.2153 41.1065C26.6331 40.4884 25.265 39.3027 24.4499 39.5055M22.4122 45.0363C23.4712 45.5787 24.4426 45.9114 25.3232 46.0877M25.3232 46.0877C25.8599 46.0632 26.4485 45.9692 27.0433 45.835M25.3232 46.0877C25.3232 45.6481 27.8025 44.8154 29.0422 44.4541M30.7584 44.5996C29.8882 44.9769 28.4486 45.518 27.0433 45.835M30.7584 44.5996C30.4216 44.4135 29.7897 44.2604 29.0422 44.4541M27.0433 45.835C27.7206 45.0154 28.4213 44.615 29.0422 44.4541M37.8401 27.1341C36.48 29.3103 36.2085 32.9811 36.2695 35.5758M37.8401 27.1341C37.5491 27.1341 36.9087 27.1341 36.6758 27.1341M37.8401 27.1341C38.1798 27.4737 38.9175 28.1529 39.1518 28.1529C39.4413 28.1529 39.4412 27.2993 39.4412 26.858M37.8401 27.1341H36.6758M37.8401 27.1341C38.1686 26.9473 38.549 26.7026 38.9536 26.4064M36.2695 35.5758C36.502 34.751 37.0542 33.0142 37.4035 32.6649M37.4035 32.6649C37.452 31.4035 38.7134 28.4731 43.3709 26.843M37.4035 32.6649C39.2956 31.2579 43.138 28.1238 43.3709 26.843M37.4035 32.6649C37.583 32.8327 37.7581 32.9778 37.929 33.1015M43.3709 26.843C42.9712 29.6007 41.63 34.0572 39.1518 33.6545M37.929 33.1015C38.5301 32.9074 39.7614 32.3738 39.8778 31.7916M37.929 33.1015C38.3639 33.4162 38.7712 33.5927 39.1518 33.6545M39.1518 33.6545C39.6849 33.2761 40.7511 32.3155 40.7511 31.5005M26.6331 26.4064C26.774 28.4138 27.2823 29.9303 27.9834 31.0638M26.6331 26.4064C26.7028 26.755 28.4118 28.6177 30.2717 30.556M36.6758 27.1341C36.3847 27.1341 37.4035 25.9697 37.4035 25.8242C37.4035 25.6786 36.0936 25.6786 35.8025 25.5331C35.5696 25.4167 36.2877 24.8054 36.6758 24.5143C35.3659 23.1558 33.008 19.5657 34.0559 16.0726C34.347 15.636 35.1039 14.7918 35.8025 14.9082M35.8025 14.9082C35.6084 13.9864 35.7734 12.2302 37.9857 12.5795C38.2768 12.725 38.9172 13.0743 39.1501 13.3072C39.9263 12.9676 41.4788 12.8124 41.4788 14.9082M35.8025 14.9082C35.0012 15.7595 35.6512 17.7555 36.0764 18.6471M35.8025 14.9082C36.8698 15.3056 39.0918 16.3696 39.4412 17.4465M35.8025 14.9082C36.9329 15.5087 39.1239 16.9516 38.8447 17.9194M41.4788 14.9082C42.061 14.326 43.4873 13.5692 44.5353 15.1993C44.7293 15.4904 45.2339 16.1308 45.6996 16.3637C46.2818 16.6548 47.4462 17.6736 47.0096 19.1291M41.4788 14.9082C40.9104 14.9082 40.3572 16.3335 40.1517 17.0461M47.0096 19.1291C45.859 18.1174 44.0489 19.5506 43.2877 20.3937M47.0096 19.1291C46.8697 19.9387 46.412 21.5872 45.6996 21.7036M47.0096 19.1291C47.3914 19.5109 47.8573 20.4637 47.3574 21.7036M39.4412 26.843C39.4412 26.4937 40.1204 26.4064 40.46 26.4064C40.7026 26.5519 41.2459 26.843 41.4788 26.843C41.7117 26.843 41.1877 26.1638 40.8966 25.8242C42.255 25.5331 45.3212 24.5143 46.7185 22.7677C47.0161 22.3957 47.2221 22.0391 47.3574 21.7036M39.4412 26.843V26.858M39.4412 26.843C39.4412 26.8479 39.4412 26.8529 39.4412 26.858M43.3709 18.7927C43.4191 19.3412 43.3859 19.8761 43.2877 20.3937M38.9536 26.4064C38.8019 26.1479 38.6463 25.854 38.4958 25.5331M38.9536 26.4064C37.3153 24.6932 34.097 20.5974 34.3298 17.9194M38.9536 26.4064C39.0191 26.3584 39.0852 26.3092 39.1518 26.2586M40.1517 17.0461C39.8931 17.1682 39.6567 17.3021 39.4412 17.4465M40.1517 17.0461C40.3209 17.0835 40.5265 17.1487 40.7511 17.2454M43.2877 20.3937C43.5465 19.763 44.2714 18.4725 45.1002 18.356M43.2877 20.3937C42.9058 22.4069 41.5401 24.1579 40.1517 25.4253M43.2877 20.3937C42.9631 18.6079 41.6912 17.6504 40.7511 17.2454M47.3574 21.7036C45.9743 22.8452 42.5969 25.1879 40.1517 25.4253M40.1517 25.4253C39.8152 25.7325 39.4773 26.0113 39.1518 26.2586M38.4958 25.5331C37.3982 24.014 35.2322 20.7139 35.3487 19.6659M38.4958 25.5331C37.4762 23.36 36.6846 19.9499 38.8447 17.9194M39.4412 17.4465C39.2212 17.5938 39.0229 17.7519 38.8447 17.9194M40.7511 17.2454C39.8467 18.1827 38.1296 20.503 38.4958 22.2858M39.1518 26.2586C38.9457 25.3224 38.7698 23.2755 39.715 22.5769M39.1518 26.2586C39.2898 25.468 39.7446 23.9159 40.46 24.0323M55.5796 37.4679C56.4158 35.7698 58.143 32.2573 58.3622 31.7916M55.5796 37.4679C55.4514 37.2852 55.2596 37.0715 55.0209 36.8857M55.5796 37.4679C55.6488 37.6295 55.6963 37.7925 55.7269 37.9527M52.6686 36.8857C52.862 36.7258 53.0538 36.6136 53.2416 36.5404M52.6686 36.8857C51.5528 35.4787 48.7389 32.8653 48.0112 31.7463C47.2468 30.5709 47.291 28.8807 47.5858 28.1529M52.6686 36.8857C52.4424 37.0728 52.2801 37.2689 52.1692 37.4679M52.6686 36.8857C49.0071 32.5155 46.8309 31.3877 45.828 31.3576M52.6686 39.7966C52.5741 39.7011 52.4729 39.5801 52.3776 39.4397M52.6686 39.7966C51.7954 39.9756 49.8451 40.3044 49.03 40.188M52.6686 39.7966C51.9524 40.3152 50.4582 41.3523 50.2116 41.3523M52.6686 39.7966C52.8189 39.905 53.0166 40.02 53.2416 40.1137M55.0209 36.8857C55.5952 35.3493 56.6857 31.9325 56.4528 30.556M55.0209 36.8857C54.9722 36.8478 54.9215 36.811 54.8691 36.7759M54.8691 36.7759C54.9703 36.046 55.1424 34.493 55.0209 34.1203M54.8691 36.7759C54.7296 36.6826 54.5775 36.601 54.4152 36.5404M54.4152 36.5404C54.5122 35.2184 54.6481 32.496 54.4152 32.1829M54.4152 36.5404C54.1571 36.4441 53.8734 36.4011 53.5751 36.4491M53.5751 36.4491C53.4657 36.4667 53.3544 36.4965 53.2416 36.5404M53.2416 36.5404C53.0506 35.7337 52.6104 34.1203 52.3776 34.1203M45.2989 31.5005C45.5368 31.2571 45.8146 31.014 46.1363 30.7728C46.2172 29.9636 46.622 28.8035 47.5858 28.1529M45.2989 31.5005C45.4084 31.4083 45.5833 31.3503 45.828 31.3576M52.1692 37.4679C51.4139 36.9676 49.8159 35.9962 49.4666 36.1127M52.1692 37.4679C52.0698 37.646 52.0116 37.8265 51.9856 38.0048M51.9856 38.0048C51.34 37.8258 50.0197 37.4679 49.9033 37.4679M51.9856 38.0048C51.9625 38.1627 51.9646 38.3189 51.9856 38.4704M51.9856 38.4704C50.8026 38.3669 48.3515 38.0215 48.0112 37.4679M51.9856 38.4704C52.0361 38.8351 52.196 39.1725 52.3776 39.4397M52.3776 39.4397C51.789 39.3155 51.0066 39.1434 50.1944 38.9536M45.828 31.3576C45.2309 32.7277 44.8316 36.0564 48.0112 38.4101M48.0112 38.4101C48.6799 38.5906 49.4497 38.7796 50.1944 38.9536M50.1944 38.9536C49.7577 39.2346 48.8262 39.7966 48.5934 39.7966M42.4609 41.9798C42.123 43.7638 43.7792 44.9242 44.8264 45.3274C45.104 46.3984 45.7499 46.993 46.5557 47.2771M42.4609 41.9798C42.7043 42.8966 43.9803 44.3458 47.1379 42.8078M47.1379 42.8078C48.4416 42.5642 51.4876 41.6845 53.2416 40.1137M47.1379 42.8078C44.227 44.3215 45.5369 46.418 46.5557 47.2771M53.2416 40.1137C53.3474 40.1578 53.4593 40.1973 53.5751 40.2291M53.5751 40.2291C52.8363 41.2342 51.2132 43.3026 50.631 43.5355M53.5751 40.2291C53.7056 40.265 53.8411 40.2913 53.9786 40.3039M53.9786 40.3039C53.4262 41.3326 52.2542 43.4191 51.9856 43.5355M53.9786 40.3039C54.0948 40.3145 54.2124 40.3153 54.3297 40.3039M54.3297 40.3039C54.0956 41.5115 53.6976 44.0232 53.9786 44.4088M54.3297 40.3039C54.4481 40.2923 54.5661 40.2682 54.6818 40.2291M54.6818 40.2291C54.5688 41.3312 54.4106 43.6228 54.6818 43.9722M54.6818 40.2291C54.7692 40.1996 54.8553 40.1615 54.9393 40.1137M54.9393 40.1137C54.9485 40.3221 54.9621 40.5597 54.9804 40.8154M54.9393 40.1137C55.0249 40.0651 55.1083 40.0064 55.1887 39.9366M56.0162 45.0363C55.5082 44.8669 55.2055 43.1573 55.052 41.6434M55.052 41.6434C55.5304 42.4197 56.6294 43.9722 57.1978 43.9722M55.052 41.6434C55.0229 41.3564 54.9992 41.0765 54.9804 40.8154M54.9804 40.8154C56.0791 41.9514 58.4118 44.1436 59.8004 44.747M55.1887 39.9366C55.3296 39.8142 55.4614 39.6575 55.5796 39.4602C55.6302 39.3473 55.6879 39.1705 55.7269 38.9536M55.1887 39.9366C56.3863 41.3303 59.2182 44.0886 60.9648 43.9722M55.7269 38.9536C56.1087 39.6561 57.0213 41.1195 57.6172 41.3523M55.7269 38.9536C55.756 38.7915 55.7747 38.607 55.7722 38.4101M55.7722 38.4101C55.8187 38.4652 55.8688 38.5244 55.922 38.5869M55.7722 38.4101C55.7704 38.2632 55.7567 38.1093 55.7269 37.9527M58.1994 41.0612C57.9186 40.874 56.9496 39.783 56.2356 38.9536M56.2356 38.9536C56.3965 39.0187 56.5791 39.0914 56.7775 39.1691M56.2356 38.9536C56.1236 38.8234 56.0178 38.6997 55.922 38.5869M61.4014 40.6246C60.6695 40.6246 58.2753 39.7559 56.7775 39.1691M56.7775 39.1691C57.8336 39.1206 60.0624 38.9363 60.5281 38.5869M55.922 38.5869C56.8267 38.0048 58.7234 36.6948 59.0727 36.1127M55.7269 37.9527C56.4655 37.3242 58.0266 35.8727 58.3622 35.0938M55.9432 58.7176C56.6404 57.4021 57.4854 56.2468 58.3622 55.9522C58.5886 55.783 58.83 55.6844 59.0727 55.6369M55.9432 58.7176C56.0703 58.0384 56.4992 56.5344 57.1978 55.9522M55.9432 58.7176C55.9414 57.5914 56.1057 55.2401 56.7775 54.845M54.618 62.9385C55.1868 61.938 56.4992 59.9751 57.1978 60.1278M61.1103 59.2545C61.3354 58.7501 61.6073 57.8348 61.4941 57.0713M61.1103 59.2545C62.0011 59.4892 62.7911 60.1094 63.3965 60.7553M59.8004 61.6286C59.5093 61.7332 58.6652 61.9424 57.6172 61.9424C56.8883 61.9424 56.1227 62.4515 55.5791 62.9385M55.5791 62.9385C56.1958 63.2331 57.1164 63.6032 58.1994 63.9345M55.5791 62.9385C56.3127 62.7444 57.8382 62.4727 58.0711 62.9385C58.3039 63.4042 59.5151 63.3934 60.0915 63.3298M65.4767 64.5508C63.152 65.0993 60.3543 64.5937 58.1994 63.9345M58.1994 63.9345C59.3267 64.2332 62.1601 64.3066 64.4751 62.2107C64.3858 62.0479 64.2618 61.8478 64.1074 61.6286M60.9648 56.0978C60.6025 55.8405 59.8316 55.4884 59.0727 55.6369M60.9648 56.0978C61.0561 55.2913 61.3585 53.6293 61.8381 53.4327M60.9648 56.0978C61.279 56.3335 61.4364 56.6827 61.4941 57.0713M61.4941 57.0713C61.7629 56.862 62.1907 56.6177 62.6751 56.4922M61.4941 57.0713C61.5602 56.0827 61.7798 54.1546 62.1292 54.3512M63.3965 60.7553C63.6753 61.0526 63.915 61.3554 64.1074 61.6286M63.3965 60.7553C64.6571 60.279 65.1436 59.5634 65.24 58.8632M64.1074 61.6286C64.2872 61.3897 64.6697 61.0771 65.24 60.9001M64.1074 61.6286C64.5638 61.7407 65.4767 62.1014 65.4767 62.6474M65.24 58.8632C65.2838 58.5459 65.2474 58.2318 65.1667 57.9446M65.1667 57.9446C65.0704 57.6017 64.9109 57.2971 64.749 57.0713C64.6667 56.9783 64.5815 56.8967 64.4941 56.8255M67.2233 52.6812C66.0302 52.6434 63.6904 53.3527 63.8757 56.4922M63.8757 56.4922C63.4737 56.3682 63.0568 56.3933 62.6751 56.4922M63.8757 56.4922C64.0885 56.5579 64.2971 56.6652 64.4941 56.8255M65.24 60.9001C65.513 60.5607 66.1171 59.882 66.35 59.882M65.24 60.9001C65.61 61.3855 66.35 62.4145 66.35 62.6474M64.4941 56.8255C64.7246 56.4293 65.2438 55.6369 65.4767 55.6369M39.5867 55.9522C38.4708 55.4186 36.2974 53.7399 36.5302 51.2948C37.355 52.3136 39.1792 54.3512 39.8778 54.3512C40.5764 54.3512 40.2659 54.2542 40.0233 54.2057C39.8293 54.5453 39.5285 55.2245 39.8778 55.2245C40.2271 55.2245 40.7026 55.9946 40.8966 56.3796L39.5867 55.9522ZM37.4035 51.2948C38.1312 52.1195 39.7031 53.7691 40.1689 53.7691C40.6346 53.7691 41.6243 55.3215 42.061 56.0978C42.061 55.8067 41.9445 55.0499 41.4788 54.3512C41.0131 53.6526 41.4303 54.0601 41.6971 54.3512C41.8184 54.5938 42.0901 55.0208 42.2065 54.7879C42.1095 54.3998 41.6826 53.5071 40.7511 53.0413C39.8196 52.5756 38.1312 51.6829 37.4035 51.2948Z" stroke="white" stroke-width="0.400723"/>
<path d="M84.5433 86.7627V44.1177V42.9533C84.5433 20.0442 65.9718 1.47266 43.0627 1.47266V1.47266C20.1535 1.47266 1.58199 20.0442 1.58199 42.9533V44.1177V86.7627" stroke="white" stroke-width="1.58437" stroke-linecap="round"/>
<circle cx="80.1769" cy="82.3967" r="0.873277" fill="white"/>
<circle cx="57.7628" cy="82.3967" r="0.873277" fill="white"/>
<circle cx="33.8933" cy="82.3967" r="0.873277" fill="white"/>
<circle cx="5.65729" cy="82.3967" r="0.873277" fill="white"/>
</svg>
