<svg width="113" height="114" viewBox="0 0 113 114" fill="none" xmlns="http://www.w3.org/2000/svg">
<path opacity="0.5" d="M5.26516 108.915C5.26516 108.999 5.24351 109.06 5.2002 109.096C5.15907 109.131 5.11143 109.148 5.0573 109.148H3.14109C3.14109 109.311 3.15733 109.457 3.18981 109.587C3.22229 109.717 3.27642 109.828 3.3522 109.921C3.42798 110.015 3.5265 110.086 3.64775 110.136C3.769 110.186 3.91732 110.21 4.0927 110.21C4.23127 110.21 4.35469 110.2 4.46295 110.178C4.57121 110.154 4.66432 110.128 4.74226 110.1C4.82238 110.072 4.88733 110.047 4.93713 110.025C4.9891 110.002 5.02807 109.99 5.05405 109.99C5.06921 109.99 5.0822 109.994 5.09303 110.003C5.10602 110.009 5.11576 110.02 5.12226 110.035C5.12875 110.05 5.13308 110.072 5.13525 110.1C5.13958 110.126 5.14174 110.159 5.14174 110.197C5.14174 110.226 5.14066 110.251 5.1385 110.272C5.13633 110.292 5.13308 110.31 5.12875 110.327C5.12659 110.343 5.12117 110.357 5.11251 110.37C5.10602 110.383 5.09627 110.396 5.08328 110.409C5.07246 110.419 5.03781 110.439 4.97935 110.467C4.92089 110.493 4.84511 110.519 4.75201 110.545C4.6589 110.571 4.55064 110.594 4.42723 110.613C4.30597 110.635 4.17606 110.646 4.03749 110.646C3.79715 110.646 3.58604 110.612 3.40416 110.545C3.22445 110.478 3.07289 110.378 2.94947 110.246C2.82605 110.114 2.73295 109.948 2.67016 109.749C2.60737 109.55 2.57597 109.318 2.57597 109.054C2.57597 108.803 2.60845 108.578 2.67341 108.379C2.73836 108.177 2.83147 108.007 2.95272 107.869C3.07614 107.728 3.22445 107.621 3.39767 107.547C3.57089 107.471 3.76467 107.434 3.97903 107.434C4.20854 107.434 4.40341 107.47 4.56363 107.544C4.72602 107.618 4.85918 107.717 4.96311 107.843C5.06704 107.966 5.14283 108.112 5.19046 108.281C5.24026 108.448 5.26516 108.627 5.26516 108.817V108.915ZM4.72602 108.755C4.73252 108.474 4.66973 108.253 4.53765 108.093C4.40774 107.933 4.21395 107.853 3.95629 107.853C3.82421 107.853 3.70838 107.877 3.60878 107.927C3.50918 107.977 3.42582 108.043 3.35869 108.125C3.29157 108.208 3.23961 108.304 3.2028 108.414C3.16599 108.523 3.14542 108.636 3.14109 108.755H4.72602ZM8.06412 108.944C8.06412 109.028 8.05438 109.087 8.03489 109.119C8.01541 109.152 7.98726 109.168 7.95045 109.168H6.59287C6.55389 109.168 6.52466 109.152 6.50518 109.119C6.48569 109.085 6.47594 109.026 6.47594 108.944C6.47594 108.862 6.48569 108.804 6.50518 108.772C6.52466 108.739 6.55389 108.723 6.59287 108.723H7.95045C7.96777 108.723 7.98293 108.726 7.99592 108.733C8.01108 108.739 8.02299 108.752 8.03165 108.772C8.04247 108.789 8.05005 108.812 8.05438 108.84C8.06088 108.868 8.06412 108.903 8.06412 108.944ZM12.0537 110.058C12.0537 110.095 12.0527 110.127 12.0505 110.155C12.0483 110.181 12.044 110.204 12.0375 110.223C12.0332 110.241 12.0267 110.257 12.018 110.272C12.0115 110.285 11.9942 110.306 11.966 110.334C11.9401 110.36 11.8946 110.393 11.8296 110.435C11.7647 110.474 11.6911 110.509 11.6088 110.542C11.5287 110.572 11.441 110.597 11.3457 110.616C11.2504 110.636 11.1519 110.646 11.0502 110.646C10.8401 110.646 10.6539 110.611 10.4915 110.542C10.3291 110.472 10.1927 110.372 10.0823 110.24C9.97406 110.105 9.89069 109.942 9.83223 109.749C9.77594 109.554 9.74779 109.33 9.74779 109.077C9.74779 108.789 9.78243 108.542 9.85172 108.336C9.92317 108.129 10.0195 107.959 10.1408 107.827C10.2642 107.695 10.4082 107.597 10.5727 107.534C10.7395 107.469 10.9192 107.437 11.1119 107.437C11.205 107.437 11.2948 107.446 11.3814 107.463C11.4702 107.48 11.5514 107.503 11.625 107.531C11.6986 107.559 11.7636 107.592 11.8199 107.628C11.8784 107.665 11.9206 107.697 11.9466 107.723C11.9725 107.749 11.9899 107.769 11.9985 107.784C12.0094 107.8 12.018 107.818 12.0245 107.84C12.031 107.859 12.0353 107.882 12.0375 107.908C12.0397 107.934 12.0407 107.966 12.0407 108.005C12.0407 108.09 12.031 108.149 12.0115 108.184C11.992 108.216 11.9682 108.233 11.9401 108.233C11.9076 108.233 11.8697 108.215 11.8264 108.181C11.7853 108.144 11.7322 108.104 11.6672 108.06C11.6023 108.017 11.5233 107.978 11.4302 107.944C11.3392 107.907 11.231 107.888 11.1054 107.888C10.8477 107.888 10.6496 107.988 10.511 108.187C10.3746 108.384 10.3064 108.671 10.3064 109.048C10.3064 109.236 10.3237 109.402 10.3584 109.545C10.3952 109.685 10.4482 109.803 10.5175 109.899C10.5868 109.994 10.6713 110.065 10.7709 110.113C10.8726 110.159 10.9885 110.181 11.1184 110.181C11.2418 110.181 11.35 110.162 11.4431 110.123C11.5363 110.084 11.6164 110.042 11.6835 109.996C11.7528 109.948 11.8102 109.906 11.8556 109.869C11.9033 109.83 11.9401 109.811 11.966 109.811C11.9812 109.811 11.9942 109.815 12.005 109.824C12.0158 109.833 12.0245 109.848 12.031 109.869C12.0397 109.889 12.0451 109.915 12.0472 109.947C12.0516 109.978 12.0537 110.015 12.0537 110.058ZM15.425 109.009C15.425 109.247 15.3936 109.467 15.3308 109.668C15.268 109.867 15.1738 110.039 15.0482 110.185C14.9248 110.33 14.7689 110.443 14.5805 110.526C14.3943 110.606 14.1778 110.646 13.931 110.646C13.6906 110.646 13.4806 110.61 13.3009 110.539C13.1233 110.467 12.975 110.363 12.8559 110.227C12.7369 110.09 12.6481 109.925 12.5896 109.73C12.5312 109.535 12.5019 109.314 12.5019 109.067C12.5019 108.829 12.5322 108.61 12.5929 108.411C12.6557 108.21 12.7488 108.037 12.8722 107.892C12.9978 107.746 13.1537 107.634 13.3399 107.554C13.5261 107.474 13.7437 107.434 13.9927 107.434C14.233 107.434 14.442 107.469 14.6195 107.541C14.7992 107.612 14.9486 107.716 15.0677 107.853C15.1868 107.989 15.2756 108.155 15.334 108.349C15.3947 108.544 15.425 108.764 15.425 109.009ZM14.8598 109.045C14.8598 108.886 14.8447 108.737 14.8144 108.596C14.7862 108.456 14.7386 108.332 14.6715 108.226C14.6044 108.12 14.5134 108.037 14.3987 107.976C14.2839 107.913 14.141 107.882 13.9699 107.882C13.8119 107.882 13.6755 107.91 13.5607 107.966C13.4481 108.023 13.355 108.103 13.2814 108.207C13.2078 108.308 13.1526 108.43 13.1158 108.57C13.0811 108.711 13.0638 108.865 13.0638 109.032C13.0638 109.192 13.0779 109.342 13.106 109.483C13.1363 109.624 13.1851 109.747 13.2522 109.853C13.3215 109.957 13.4135 110.041 13.5282 110.103C13.643 110.164 13.7859 110.194 13.957 110.194C14.1128 110.194 14.2482 110.166 14.3629 110.11C14.4777 110.054 14.5719 109.974 14.6455 109.873C14.7191 109.771 14.7732 109.65 14.8079 109.509C14.8425 109.368 14.8598 109.213 14.8598 109.045ZM20.9491 110.503C20.9491 110.52 20.9448 110.535 20.9361 110.548C20.9275 110.559 20.9134 110.569 20.8939 110.577C20.8744 110.586 20.8473 110.593 20.8127 110.597C20.7781 110.601 20.7347 110.603 20.6828 110.603C20.6287 110.603 20.5843 110.601 20.5496 110.597C20.515 110.593 20.4868 110.586 20.4652 110.577C20.4457 110.569 20.4316 110.559 20.423 110.548C20.4143 110.535 20.41 110.52 20.41 110.503V108.726C20.41 108.603 20.3991 108.49 20.3775 108.388C20.3558 108.287 20.3212 108.199 20.2736 108.125C20.2259 108.052 20.1653 107.995 20.0917 107.957C20.0181 107.918 19.9315 107.898 19.8319 107.898C19.7084 107.898 19.5839 107.946 19.4584 108.041C19.3349 108.136 19.1985 108.276 19.0491 108.46V110.503C19.0491 110.52 19.0448 110.535 19.0361 110.548C19.0275 110.559 19.0123 110.569 18.9907 110.577C18.9712 110.586 18.9441 110.593 18.9095 110.597C18.8748 110.601 18.8315 110.603 18.7796 110.603C18.7298 110.603 18.6865 110.601 18.6497 110.597C18.615 110.593 18.5869 110.586 18.5652 110.577C18.5457 110.569 18.5316 110.559 18.523 110.548C18.5165 110.535 18.5132 110.52 18.5132 110.503V108.726C18.5132 108.603 18.5013 108.49 18.4775 108.388C18.4537 108.287 18.418 108.199 18.3703 108.125C18.3227 108.052 18.2621 107.995 18.1885 107.957C18.117 107.918 18.0315 107.898 17.9319 107.898C17.8085 107.898 17.684 107.946 17.5584 108.041C17.4328 108.136 17.2964 108.276 17.1492 108.46V110.503C17.1492 110.52 17.1448 110.535 17.1362 110.548C17.1275 110.559 17.1134 110.569 17.094 110.577C17.0745 110.586 17.0474 110.593 17.0128 110.597C16.9781 110.601 16.9337 110.603 16.8796 110.603C16.8276 110.603 16.7843 110.601 16.7497 110.597C16.715 110.593 16.6869 110.586 16.6652 110.577C16.6458 110.569 16.6317 110.559 16.623 110.548C16.6165 110.535 16.6133 110.52 16.6133 110.503V107.58C16.6133 107.562 16.6165 107.548 16.623 107.538C16.6295 107.525 16.6425 107.514 16.662 107.505C16.6815 107.494 16.7064 107.488 16.7367 107.486C16.767 107.481 16.8071 107.479 16.8569 107.479C16.9045 107.479 16.9435 107.481 16.9738 107.486C17.0063 107.488 17.0312 107.494 17.0485 107.505C17.0658 107.514 17.0777 107.525 17.0842 107.538C17.0929 107.548 17.0972 107.562 17.0972 107.58V107.966C17.2618 107.782 17.4209 107.648 17.5746 107.564C17.7305 107.477 17.8875 107.434 18.0456 107.434C18.1668 107.434 18.2751 107.448 18.3703 107.476C18.4678 107.504 18.5533 107.544 18.6269 107.596C18.7005 107.646 18.7633 107.706 18.8153 107.778C18.8673 107.847 18.9106 107.925 18.9452 108.012C19.0426 107.906 19.1347 107.816 19.2213 107.742C19.31 107.669 19.3945 107.609 19.4746 107.564C19.5569 107.518 19.6359 107.486 19.7117 107.466C19.7896 107.444 19.8676 107.434 19.9455 107.434C20.1339 107.434 20.292 107.467 20.4197 107.534C20.5475 107.599 20.6503 107.687 20.7283 107.797C20.8084 107.908 20.8647 108.038 20.8971 108.187C20.9318 108.334 20.9491 108.49 20.9491 108.655V110.503ZM26.2625 110.503C26.2625 110.52 26.2582 110.535 26.2495 110.548C26.2409 110.559 26.2268 110.569 26.2073 110.577C26.1878 110.586 26.1608 110.593 26.1261 110.597C26.0915 110.601 26.0482 110.603 25.9962 110.603C25.9421 110.603 25.8977 110.601 25.863 110.597C25.8284 110.593 25.8003 110.586 25.7786 110.577C25.7591 110.569 25.745 110.559 25.7364 110.548C25.7277 110.535 25.7234 110.52 25.7234 110.503V108.726C25.7234 108.603 25.7126 108.49 25.6909 108.388C25.6693 108.287 25.6346 108.199 25.587 108.125C25.5393 108.052 25.4787 107.995 25.4051 107.957C25.3315 107.918 25.2449 107.898 25.1453 107.898C25.0219 107.898 24.8974 107.946 24.7718 108.041C24.6484 108.136 24.512 108.276 24.3626 108.46V110.503C24.3626 110.52 24.3582 110.535 24.3496 110.548C24.3409 110.559 24.3257 110.569 24.3041 110.577C24.2846 110.586 24.2575 110.593 24.2229 110.597C24.1883 110.601 24.145 110.603 24.093 110.603C24.0432 110.603 23.9999 110.601 23.9631 110.597C23.9284 110.593 23.9003 110.586 23.8786 110.577C23.8591 110.569 23.8451 110.559 23.8364 110.548C23.8299 110.535 23.8267 110.52 23.8267 110.503V108.726C23.8267 108.603 23.8148 108.49 23.7909 108.388C23.7671 108.287 23.7314 108.199 23.6838 108.125C23.6361 108.052 23.5755 107.995 23.5019 107.957C23.4304 107.918 23.3449 107.898 23.2453 107.898C23.1219 107.898 22.9974 107.946 22.8718 108.041C22.7462 108.136 22.6098 108.276 22.4626 108.46V110.503C22.4626 110.52 22.4583 110.535 22.4496 110.548C22.4409 110.559 22.4269 110.569 22.4074 110.577C22.3879 110.586 22.3608 110.593 22.3262 110.597C22.2915 110.601 22.2471 110.603 22.193 110.603C22.1411 110.603 22.0977 110.601 22.0631 110.597C22.0285 110.593 22.0003 110.586 21.9787 110.577C21.9592 110.569 21.9451 110.559 21.9364 110.548C21.9299 110.535 21.9267 110.52 21.9267 110.503V107.58C21.9267 107.562 21.9299 107.548 21.9364 107.538C21.9429 107.525 21.9559 107.514 21.9754 107.505C21.9949 107.494 22.0198 107.488 22.0501 107.486C22.0804 107.481 22.1205 107.479 22.1703 107.479C22.2179 107.479 22.2569 107.481 22.2872 107.486C22.3197 107.488 22.3446 107.494 22.3619 107.505C22.3792 107.514 22.3911 107.525 22.3976 107.538C22.4063 107.548 22.4106 107.562 22.4106 107.58V107.966C22.5752 107.782 22.7343 107.648 22.888 107.564C23.0439 107.477 23.2009 107.434 23.359 107.434C23.4802 107.434 23.5885 107.448 23.6838 107.476C23.7812 107.504 23.8667 107.544 23.9403 107.596C24.014 107.646 24.0767 107.706 24.1287 107.778C24.1807 107.847 24.224 107.925 24.2586 108.012C24.3561 107.906 24.4481 107.816 24.5347 107.742C24.6235 107.669 24.7079 107.609 24.788 107.564C24.8703 107.518 24.9493 107.486 25.0251 107.466C25.1031 107.444 25.181 107.434 25.259 107.434C25.4473 107.434 25.6054 107.467 25.7331 107.534C25.8609 107.599 25.9637 107.687 26.0417 107.797C26.1218 107.908 26.1781 108.038 26.2106 108.187C26.2452 108.334 26.2625 108.49 26.2625 108.655V110.503ZM30.1335 108.915C30.1335 108.999 30.1119 109.06 30.0686 109.096C30.0274 109.131 29.9798 109.148 29.9257 109.148H28.0095C28.0095 109.311 28.0257 109.457 28.0582 109.587C28.0907 109.717 28.1448 109.828 28.2206 109.921C28.2963 110.015 28.3949 110.086 28.5161 110.136C28.6374 110.186 28.7857 110.21 28.9611 110.21C29.0996 110.21 29.2231 110.2 29.3313 110.178C29.4396 110.154 29.5327 110.128 29.6106 110.1C29.6907 110.072 29.7557 110.047 29.8055 110.025C29.8575 110.002 29.8964 109.99 29.9224 109.99C29.9376 109.99 29.9506 109.994 29.9614 110.003C29.9744 110.009 29.9841 110.02 29.9906 110.035C29.9971 110.05 30.0014 110.072 30.0036 110.1C30.0079 110.126 30.0101 110.159 30.0101 110.197C30.0101 110.226 30.009 110.251 30.0069 110.272C30.0047 110.292 30.0014 110.31 29.9971 110.327C29.995 110.343 29.9895 110.357 29.9809 110.37C29.9744 110.383 29.9646 110.396 29.9516 110.409C29.9408 110.419 29.9062 110.439 29.8477 110.467C29.7893 110.493 29.7135 110.519 29.6204 110.545C29.5273 110.571 29.419 110.594 29.2956 110.613C29.1743 110.635 29.0444 110.646 28.9059 110.646C28.6655 110.646 28.4544 110.612 28.2725 110.545C28.0928 110.478 27.9413 110.378 27.8178 110.246C27.6944 110.114 27.6013 109.948 27.5385 109.749C27.4757 109.55 27.4443 109.318 27.4443 109.054C27.4443 108.803 27.4768 108.578 27.5418 108.379C27.6067 108.177 27.6998 108.007 27.8211 107.869C27.9445 107.728 28.0928 107.621 28.266 107.547C28.4393 107.471 28.633 107.434 28.8474 107.434C29.0769 107.434 29.2718 107.47 29.432 107.544C29.5944 107.618 29.7276 107.717 29.8315 107.843C29.9354 107.966 30.0112 108.112 30.0588 108.281C30.1086 108.448 30.1335 108.627 30.1335 108.817V108.915ZM29.5944 108.755C29.6009 108.474 29.5381 108.253 29.406 108.093C29.2761 107.933 29.0823 107.853 28.8247 107.853C28.6926 107.853 28.5767 107.877 28.4771 107.927C28.3775 107.977 28.2942 108.043 28.2271 108.125C28.1599 108.208 28.108 108.304 28.0712 108.414C28.0344 108.523 28.0138 108.636 28.0095 108.755H29.5944ZM32.7934 107.771C32.7934 107.819 32.7923 107.859 32.7901 107.892C32.7879 107.924 32.7836 107.95 32.7771 107.969C32.7706 107.987 32.762 108.001 32.7511 108.012C32.7425 108.02 32.7295 108.025 32.7122 108.025C32.6948 108.025 32.6732 108.02 32.6472 108.012C32.6234 108.001 32.5952 107.991 32.5628 107.982C32.5324 107.972 32.4978 107.962 32.4588 107.953C32.4199 107.945 32.3776 107.94 32.3322 107.94C32.278 107.94 32.225 107.951 32.173 107.973C32.1211 107.994 32.0658 108.03 32.0074 108.08C31.9511 108.13 31.8915 108.196 31.8288 108.278C31.766 108.36 31.6967 108.461 31.6209 108.58V110.503C31.6209 110.52 31.6166 110.535 31.6079 110.548C31.5992 110.559 31.5852 110.569 31.5657 110.577C31.5462 110.586 31.5191 110.593 31.4845 110.597C31.4498 110.601 31.4055 110.603 31.3513 110.603C31.2994 110.603 31.2561 110.601 31.2214 110.597C31.1868 110.593 31.1586 110.586 31.137 110.577C31.1175 110.569 31.1034 110.559 31.0947 110.548C31.0883 110.535 31.085 110.52 31.085 110.503V107.58C31.085 107.562 31.0883 107.548 31.0947 107.538C31.1012 107.525 31.1142 107.514 31.1337 107.505C31.1532 107.494 31.1781 107.488 31.2084 107.486C31.2387 107.481 31.2788 107.479 31.3286 107.479C31.3762 107.479 31.4152 107.481 31.4455 107.486C31.478 107.488 31.5029 107.494 31.5202 107.505C31.5375 107.514 31.5494 107.525 31.5559 107.538C31.5646 107.548 31.5689 107.562 31.5689 107.58V108.005C31.649 107.888 31.7237 107.793 31.793 107.719C31.8645 107.646 31.9316 107.588 31.9944 107.547C32.0572 107.504 32.1189 107.475 32.1795 107.46C32.2423 107.442 32.3051 107.434 32.3679 107.434C32.396 107.434 32.4274 107.436 32.4621 107.44C32.4989 107.442 32.5368 107.448 32.5758 107.456C32.6147 107.465 32.6494 107.475 32.6797 107.486C32.7122 107.496 32.7349 107.507 32.7479 107.518C32.7609 107.529 32.7695 107.54 32.7739 107.551C32.7782 107.559 32.7814 107.571 32.7836 107.586C32.7879 107.601 32.7901 107.624 32.7901 107.654C32.7923 107.683 32.7934 107.722 32.7934 107.771ZM35.7072 110.058C35.7072 110.095 35.7061 110.127 35.7039 110.155C35.7017 110.181 35.6974 110.204 35.6909 110.223C35.6866 110.241 35.6801 110.257 35.6714 110.272C35.6649 110.285 35.6476 110.306 35.6195 110.334C35.5935 110.36 35.548 110.393 35.4831 110.435C35.4181 110.474 35.3445 110.509 35.2622 110.542C35.1821 110.572 35.0944 110.597 34.9991 110.616C34.9039 110.636 34.8054 110.646 34.7036 110.646C34.4936 110.646 34.3074 110.611 34.145 110.542C33.9826 110.472 33.8462 110.372 33.7357 110.24C33.6275 110.105 33.5441 109.942 33.4857 109.749C33.4294 109.554 33.4012 109.33 33.4012 109.077C33.4012 108.789 33.4359 108.542 33.5051 108.336C33.5766 108.129 33.6729 107.959 33.7942 107.827C33.9176 107.695 34.0616 107.597 34.2262 107.534C34.3929 107.469 34.5726 107.437 34.7653 107.437C34.8584 107.437 34.9483 107.446 35.0349 107.463C35.1236 107.48 35.2048 107.503 35.2784 107.531C35.3521 107.559 35.417 107.592 35.4733 107.628C35.5318 107.665 35.574 107.697 35.6 107.723C35.626 107.749 35.6433 107.769 35.6519 107.784C35.6628 107.8 35.6714 107.818 35.6779 107.84C35.6844 107.859 35.6888 107.882 35.6909 107.908C35.6931 107.934 35.6942 107.966 35.6942 108.005C35.6942 108.09 35.6844 108.149 35.6649 108.184C35.6455 108.216 35.6216 108.233 35.5935 108.233C35.561 108.233 35.5231 108.215 35.4798 108.181C35.4387 108.144 35.3856 108.104 35.3207 108.06C35.2557 108.017 35.1767 107.978 35.0836 107.944C34.9926 107.907 34.8844 107.888 34.7588 107.888C34.5011 107.888 34.303 107.988 34.1645 108.187C34.028 108.384 33.9598 108.671 33.9598 109.048C33.9598 109.236 33.9772 109.402 34.0118 109.545C34.0486 109.685 34.1017 109.803 34.1709 109.899C34.2402 109.994 34.3247 110.065 34.4243 110.113C34.526 110.159 34.6419 110.181 34.7718 110.181C34.8952 110.181 35.0035 110.162 35.0966 110.123C35.1897 110.084 35.2698 110.042 35.3369 109.996C35.4062 109.948 35.4636 109.906 35.509 109.869C35.5567 109.83 35.5935 109.811 35.6195 109.811C35.6346 109.811 35.6476 109.815 35.6584 109.824C35.6693 109.833 35.6779 109.848 35.6844 109.869C35.6931 109.889 35.6985 109.915 35.7007 109.947C35.705 109.978 35.7072 110.015 35.7072 110.058ZM39.1123 108.915C39.1123 108.999 39.0906 109.06 39.0473 109.096C39.0062 109.131 38.9586 109.148 38.9044 109.148H36.9882C36.9882 109.311 37.0045 109.457 37.0369 109.587C37.0694 109.717 37.1236 109.828 37.1993 109.921C37.2751 110.015 37.3736 110.086 37.4949 110.136C37.6161 110.186 37.7645 110.21 37.9398 110.21C38.0784 110.21 38.2018 110.2 38.3101 110.178C38.4183 110.154 38.5115 110.128 38.5894 110.1C38.6695 110.072 38.7345 110.047 38.7843 110.025C38.8362 110.002 38.8752 109.99 38.9012 109.99C38.9163 109.99 38.9293 109.994 38.9402 110.003C38.9532 110.009 38.9629 110.02 38.9694 110.035C38.9759 110.05 38.9802 110.072 38.9824 110.1C38.9867 110.126 38.9889 110.159 38.9889 110.197C38.9889 110.226 38.9878 110.251 38.9856 110.272C38.9835 110.292 38.9802 110.31 38.9759 110.327C38.9737 110.343 38.9683 110.357 38.9597 110.37C38.9532 110.383 38.9434 110.396 38.9304 110.409C38.9196 110.419 38.885 110.439 38.8265 110.467C38.768 110.493 38.6922 110.519 38.5991 110.545C38.506 110.571 38.3978 110.594 38.2744 110.613C38.1531 110.635 38.0232 110.646 37.8846 110.646C37.6443 110.646 37.4332 110.612 37.2513 110.545C37.0716 110.478 36.92 110.378 36.7966 110.246C36.6732 110.114 36.5801 109.948 36.5173 109.749C36.4545 109.55 36.4231 109.318 36.4231 109.054C36.4231 108.803 36.4556 108.578 36.5205 108.379C36.5855 108.177 36.6786 108.007 36.7999 107.869C36.9233 107.728 37.0716 107.621 37.2448 107.547C37.418 107.471 37.6118 107.434 37.8262 107.434C38.0557 107.434 38.2505 107.47 38.4108 107.544C38.5732 107.618 38.7063 107.717 38.8103 107.843C38.9142 107.966 38.99 108.112 39.0376 108.281C39.0874 108.448 39.1123 108.627 39.1123 108.817V108.915ZM38.5732 108.755C38.5797 108.474 38.5169 108.253 38.3848 108.093C38.2549 107.933 38.0611 107.853 37.8034 107.853C37.6714 107.853 37.5555 107.877 37.4559 107.927C37.3563 107.977 37.273 108.043 37.2058 108.125C37.1387 108.208 37.0867 108.304 37.0499 108.414C37.0131 108.523 36.9926 108.636 36.9882 108.755H38.5732ZM43.9036 106.378C43.9036 106.419 43.9014 106.453 43.8971 106.479C43.8928 106.503 43.8874 106.522 43.8809 106.537C43.8765 106.552 43.87 106.563 43.8614 106.57C43.8527 106.574 43.8419 106.576 43.8289 106.576C43.8137 106.576 43.7943 106.572 43.7704 106.563C43.7488 106.552 43.7217 106.542 43.6892 106.531C43.6568 106.518 43.6178 106.507 43.5723 106.498C43.529 106.487 43.4781 106.482 43.4197 106.482C43.3396 106.482 43.2714 106.495 43.2151 106.521C43.1588 106.547 43.1133 106.588 43.0787 106.644C43.044 106.699 43.0191 106.77 43.004 106.859C42.9888 106.945 42.9812 107.051 42.9812 107.177V107.495H43.634C43.6514 107.495 43.6654 107.5 43.6763 107.508C43.6892 107.515 43.7001 107.528 43.7087 107.547C43.7196 107.565 43.7271 107.587 43.7315 107.615C43.738 107.644 43.7412 107.678 43.7412 107.719C43.7412 107.797 43.7315 107.854 43.712 107.888C43.6925 107.923 43.6665 107.94 43.634 107.94H42.9812V110.503C42.9812 110.52 42.9769 110.535 42.9682 110.548C42.9596 110.559 42.9444 110.569 42.9228 110.577C42.9033 110.586 42.8762 110.593 42.8416 110.597C42.8069 110.601 42.7636 110.603 42.7117 110.603C42.6597 110.603 42.6164 110.601 42.5817 110.597C42.5471 110.593 42.5189 110.586 42.4973 110.577C42.4778 110.569 42.4637 110.559 42.4551 110.548C42.4464 110.535 42.4421 110.52 42.4421 110.503V107.94H42.0296C41.995 107.94 41.969 107.923 41.9517 107.888C41.9343 107.854 41.9257 107.797 41.9257 107.719C41.9257 107.678 41.9278 107.644 41.9322 107.615C41.9365 107.587 41.943 107.565 41.9517 107.547C41.9603 107.528 41.9711 107.515 41.9841 107.508C41.9971 107.5 42.0123 107.495 42.0296 107.495H42.4421V107.193C42.4421 106.99 42.4605 106.815 42.4973 106.67C42.5363 106.523 42.5947 106.403 42.6727 106.31C42.7506 106.217 42.8481 106.149 42.965 106.105C43.0841 106.06 43.2237 106.037 43.3839 106.037C43.4597 106.037 43.5333 106.045 43.6048 106.06C43.6763 106.073 43.7315 106.088 43.7704 106.105C43.8094 106.12 43.8354 106.134 43.8484 106.147C43.8614 106.16 43.8722 106.178 43.8809 106.199C43.8895 106.219 43.8949 106.244 43.8971 106.274C43.9014 106.302 43.9036 106.337 43.9036 106.378ZM47.0108 109.009C47.0108 109.247 46.9795 109.467 46.9167 109.668C46.8539 109.867 46.7597 110.039 46.6341 110.185C46.5107 110.33 46.3548 110.443 46.1664 110.526C45.9802 110.606 45.7637 110.646 45.5169 110.646C45.2765 110.646 45.0665 110.61 44.8868 110.539C44.7092 110.467 44.5609 110.363 44.4418 110.227C44.3227 110.09 44.234 109.925 44.1755 109.73C44.117 109.535 44.0878 109.314 44.0878 109.067C44.0878 108.829 44.1181 108.61 44.1788 108.411C44.2415 108.21 44.3346 108.037 44.4581 107.892C44.5836 107.746 44.7395 107.634 44.9258 107.554C45.112 107.474 45.3296 107.434 45.5786 107.434C45.8189 107.434 46.0278 107.469 46.2054 107.541C46.3851 107.612 46.5345 107.716 46.6536 107.853C46.7727 107.989 46.8614 108.155 46.9199 108.349C46.9805 108.544 47.0108 108.764 47.0108 109.009ZM46.4457 109.045C46.4457 108.886 46.4306 108.737 46.4003 108.596C46.3721 108.456 46.3245 108.332 46.2574 108.226C46.1902 108.12 46.0993 108.037 45.9845 107.976C45.8698 107.913 45.7269 107.882 45.5558 107.882C45.3978 107.882 45.2614 107.91 45.1466 107.966C45.034 108.023 44.9409 108.103 44.8673 108.207C44.7937 108.308 44.7385 108.43 44.7017 108.57C44.667 108.711 44.6497 108.865 44.6497 109.032C44.6497 109.192 44.6638 109.342 44.6919 109.483C44.7222 109.624 44.7709 109.747 44.8381 109.853C44.9073 109.957 44.9994 110.041 45.1141 110.103C45.2289 110.164 45.3718 110.194 45.5428 110.194C45.6987 110.194 45.8341 110.166 45.9488 110.11C46.0636 110.054 46.1578 109.974 46.2314 109.873C46.305 109.771 46.3591 109.65 46.3938 109.509C46.4284 109.368 46.4457 109.213 46.4457 109.045ZM49.5084 107.771C49.5084 107.819 49.5073 107.859 49.5052 107.892C49.503 107.924 49.4987 107.95 49.4922 107.969C49.4857 107.987 49.477 108.001 49.4662 108.012C49.4575 108.02 49.4445 108.025 49.4272 108.025C49.4099 108.025 49.3882 108.02 49.3623 108.012C49.3384 108.001 49.3103 107.991 49.2778 107.982C49.2475 107.972 49.2129 107.962 49.1739 107.953C49.1349 107.945 49.0927 107.94 49.0472 107.94C48.9931 107.94 48.94 107.951 48.8881 107.973C48.8361 107.994 48.7809 108.03 48.7224 108.08C48.6661 108.13 48.6066 108.196 48.5438 108.278C48.481 108.36 48.4117 108.461 48.336 108.58V110.503C48.336 110.52 48.3316 110.535 48.323 110.548C48.3143 110.559 48.3002 110.569 48.2807 110.577C48.2613 110.586 48.2342 110.593 48.1995 110.597C48.1649 110.601 48.1205 110.603 48.0664 110.603C48.0144 110.603 47.9711 110.601 47.9365 110.597C47.9018 110.593 47.8737 110.586 47.852 110.577C47.8325 110.569 47.8185 110.559 47.8098 110.548C47.8033 110.535 47.8001 110.52 47.8001 110.503V107.58C47.8001 107.562 47.8033 107.548 47.8098 107.538C47.8163 107.525 47.8293 107.514 47.8488 107.505C47.8683 107.494 47.8932 107.488 47.9235 107.486C47.9538 107.481 47.9939 107.479 48.0437 107.479C48.0913 107.479 48.1303 107.481 48.1606 107.486C48.1931 107.488 48.218 107.494 48.2353 107.505C48.2526 107.514 48.2645 107.525 48.271 107.538C48.2797 107.548 48.284 107.562 48.284 107.58V108.005C48.3641 107.888 48.4388 107.793 48.5081 107.719C48.5795 107.646 48.6467 107.588 48.7095 107.547C48.7722 107.504 48.834 107.475 48.8946 107.46C48.9574 107.442 49.0202 107.434 49.083 107.434C49.1111 107.434 49.1425 107.436 49.1771 107.44C49.2139 107.442 49.2518 107.448 49.2908 107.456C49.3298 107.465 49.3644 107.475 49.3947 107.486C49.4272 107.496 49.45 107.507 49.4629 107.518C49.4759 107.529 49.4846 107.54 49.4889 107.551C49.4933 107.559 49.4965 107.571 49.4987 107.586C49.503 107.601 49.5052 107.624 49.5052 107.654C49.5073 107.683 49.5084 107.722 49.5084 107.771ZM54.6086 110.503C54.6086 110.52 54.6043 110.535 54.5957 110.548C54.587 110.559 54.5729 110.569 54.5534 110.577C54.5339 110.586 54.5069 110.593 54.4722 110.597C54.4376 110.601 54.3943 110.603 54.3423 110.603C54.2882 110.603 54.2438 110.601 54.2092 110.597C54.1745 110.593 54.1475 110.586 54.128 110.577C54.1085 110.569 54.0944 110.559 54.0857 110.548C54.0771 110.535 54.0728 110.52 54.0728 110.503V108.791C54.0728 108.624 54.0598 108.49 54.0338 108.388C54.0078 108.287 53.9699 108.199 53.9201 108.125C53.8703 108.052 53.8054 107.995 53.7252 107.957C53.6473 107.918 53.5564 107.898 53.4524 107.898C53.3182 107.898 53.1839 107.946 53.0497 108.041C52.9155 108.136 52.7747 108.276 52.6275 108.46V110.503C52.6275 110.52 52.6232 110.535 52.6145 110.548C52.6058 110.559 52.5918 110.569 52.5723 110.577C52.5528 110.586 52.5257 110.593 52.4911 110.597C52.4564 110.601 52.412 110.603 52.3579 110.603C52.3059 110.603 52.2626 110.601 52.228 110.597C52.1934 110.593 52.1652 110.586 52.1436 110.577C52.1241 110.569 52.11 110.559 52.1013 110.548C52.0948 110.535 52.0916 110.52 52.0916 110.503V106.164C52.0916 106.146 52.0948 106.131 52.1013 106.118C52.11 106.105 52.1241 106.094 52.1436 106.086C52.1652 106.077 52.1934 106.071 52.228 106.066C52.2626 106.062 52.3059 106.06 52.3579 106.06C52.412 106.06 52.4564 106.062 52.4911 106.066C52.5257 106.071 52.5528 106.077 52.5723 106.086C52.5918 106.094 52.6058 106.105 52.6145 106.118C52.6232 106.131 52.6275 106.146 52.6275 106.164V107.914C52.7812 107.752 52.936 107.632 53.0919 107.554C53.2478 107.474 53.4048 107.434 53.5629 107.434C53.7577 107.434 53.9212 107.467 54.0533 107.534C54.1875 107.599 54.2958 107.687 54.3781 107.797C54.4603 107.908 54.5188 108.038 54.5534 108.187C54.5902 108.334 54.6086 108.513 54.6086 108.723V110.503ZM58.3047 109.009C58.3047 109.247 58.2733 109.467 58.2105 109.668C58.1477 109.867 58.0535 110.039 57.9279 110.185C57.8045 110.33 57.6486 110.443 57.4602 110.526C57.274 110.606 57.0575 110.646 56.8107 110.646C56.5703 110.646 56.3603 110.61 56.1806 110.539C56.003 110.467 55.8547 110.363 55.7356 110.227C55.6166 110.09 55.5278 109.925 55.4693 109.73C55.4109 109.535 55.3816 109.314 55.3816 109.067C55.3816 108.829 55.4119 108.61 55.4726 108.411C55.5354 108.21 55.6285 108.037 55.7519 107.892C55.8775 107.746 56.0334 107.634 56.2196 107.554C56.4058 107.474 56.6234 107.434 56.8724 107.434C57.1127 107.434 57.3217 107.469 57.4992 107.541C57.6789 107.612 57.8283 107.716 57.9474 107.853C58.0665 107.989 58.1553 108.155 58.2137 108.349C58.2743 108.544 58.3047 108.764 58.3047 109.009ZM57.7395 109.045C57.7395 108.886 57.7244 108.737 57.6941 108.596C57.6659 108.456 57.6183 108.332 57.5512 108.226C57.484 108.12 57.3931 108.037 57.2784 107.976C57.1636 107.913 57.0207 107.882 56.8496 107.882C56.6916 107.882 56.5552 107.91 56.4404 107.966C56.3278 108.023 56.2347 108.103 56.1611 108.207C56.0875 108.308 56.0323 108.43 55.9955 108.57C55.9608 108.711 55.9435 108.865 55.9435 109.032C55.9435 109.192 55.9576 109.342 55.9857 109.483C56.016 109.624 56.0648 109.747 56.1319 109.853C56.2012 109.957 56.2932 110.041 56.4079 110.103C56.5227 110.164 56.6656 110.194 56.8366 110.194C56.9925 110.194 57.1279 110.166 57.2426 110.11C57.3574 110.054 57.4516 109.974 57.5252 109.873C57.5988 109.771 57.6529 109.65 57.6876 109.509C57.7222 109.368 57.7395 109.213 57.7395 109.045ZM63.6292 110.503C63.6292 110.52 63.6249 110.535 63.6163 110.548C63.6076 110.559 63.5935 110.569 63.574 110.577C63.5545 110.586 63.5275 110.593 63.4928 110.597C63.4582 110.601 63.4149 110.603 63.3629 110.603C63.3088 110.603 63.2644 110.601 63.2298 110.597C63.1951 110.593 63.167 110.586 63.1453 110.577C63.1258 110.569 63.1118 110.559 63.1031 110.548C63.0944 110.535 63.0901 110.52 63.0901 110.503V108.726C63.0901 108.603 63.0793 108.49 63.0576 108.388C63.036 108.287 63.0013 108.199 62.9537 108.125C62.9061 108.052 62.8454 107.995 62.7718 107.957C62.6982 107.918 62.6116 107.898 62.512 107.898C62.3886 107.898 62.2641 107.946 62.1385 108.041C62.0151 108.136 61.8787 108.276 61.7293 108.46V110.503C61.7293 110.52 61.7249 110.535 61.7163 110.548C61.7076 110.559 61.6925 110.569 61.6708 110.577C61.6513 110.586 61.6243 110.593 61.5896 110.597C61.555 110.601 61.5117 110.603 61.4597 110.603C61.4099 110.603 61.3666 110.601 61.3298 110.597C61.2952 110.593 61.267 110.586 61.2454 110.577C61.2259 110.569 61.2118 110.559 61.2031 110.548C61.1966 110.535 61.1934 110.52 61.1934 110.503V108.726C61.1934 108.603 61.1815 108.49 61.1577 108.388C61.1338 108.287 61.0981 108.199 61.0505 108.125C61.0029 108.052 60.9422 107.995 60.8686 107.957C60.7972 107.918 60.7116 107.898 60.612 107.898C60.4886 107.898 60.3641 107.946 60.2385 108.041C60.113 108.136 59.9765 108.276 59.8293 108.46V110.503C59.8293 110.52 59.825 110.535 59.8163 110.548C59.8077 110.559 59.7936 110.569 59.7741 110.577C59.7546 110.586 59.7275 110.593 59.6929 110.597C59.6583 110.601 59.6139 110.603 59.5597 110.603C59.5078 110.603 59.4645 110.601 59.4298 110.597C59.3952 110.593 59.367 110.586 59.3454 110.577C59.3259 110.569 59.3118 110.559 59.3032 110.548C59.2967 110.535 59.2934 110.52 59.2934 110.503V107.58C59.2934 107.562 59.2967 107.548 59.3032 107.538C59.3097 107.525 59.3227 107.514 59.3421 107.505C59.3616 107.494 59.3865 107.488 59.4168 107.486C59.4471 107.481 59.4872 107.479 59.537 107.479C59.5846 107.479 59.6236 107.481 59.6539 107.486C59.6864 107.488 59.7113 107.494 59.7286 107.505C59.7459 107.514 59.7579 107.525 59.7644 107.538C59.773 107.548 59.7773 107.562 59.7773 107.58V107.966C59.9419 107.782 60.101 107.648 60.2548 107.564C60.4107 107.477 60.5676 107.434 60.7257 107.434C60.847 107.434 60.9552 107.448 61.0505 107.476C61.1479 107.504 61.2334 107.544 61.3071 107.596C61.3807 107.646 61.4435 107.706 61.4954 107.778C61.5474 107.847 61.5907 107.925 61.6253 108.012C61.7228 107.906 61.8148 107.816 61.9014 107.742C61.9902 107.669 62.0746 107.609 62.1547 107.564C62.237 107.518 62.3161 107.486 62.3918 107.466C62.4698 107.444 62.5477 107.434 62.6257 107.434C62.814 107.434 62.9721 107.467 63.0999 107.534C63.2276 107.599 63.3305 107.687 63.4084 107.797C63.4885 107.908 63.5448 108.038 63.5773 108.187C63.6119 108.334 63.6292 108.49 63.6292 108.655V110.503ZM67.1012 108.915C67.1012 108.999 67.0795 109.06 67.0362 109.096C66.9951 109.131 66.9474 109.148 66.8933 109.148H64.9771C64.9771 109.311 64.9933 109.457 65.0258 109.587C65.0583 109.717 65.1124 109.828 65.1882 109.921C65.264 110.015 65.3625 110.086 65.4837 110.136C65.605 110.186 65.7533 110.21 65.9287 110.21C66.0673 110.21 66.1907 110.2 66.2989 110.178C66.4072 110.154 66.5003 110.128 66.5783 110.1C66.6584 110.072 66.7233 110.047 66.7731 110.025C66.8251 110.002 66.8641 109.99 66.8901 109.99C66.9052 109.99 66.9182 109.994 66.929 110.003C66.942 110.009 66.9518 110.02 66.9583 110.035C66.9648 110.05 66.9691 110.072 66.9712 110.1C66.9756 110.126 66.9777 110.159 66.9777 110.197C66.9777 110.226 66.9767 110.251 66.9745 110.272C66.9723 110.292 66.9691 110.31 66.9648 110.327C66.9626 110.343 66.9572 110.357 66.9485 110.37C66.942 110.383 66.9323 110.396 66.9193 110.409C66.9085 110.419 66.8738 110.439 66.8154 110.467C66.7569 110.493 66.6811 110.519 66.588 110.545C66.4949 110.571 66.3866 110.594 66.2632 110.613C66.142 110.635 66.0121 110.646 65.8735 110.646C65.6331 110.646 65.422 110.612 65.2402 110.545C65.0605 110.478 64.9089 110.378 64.7855 110.246C64.6621 110.114 64.5689 109.948 64.5062 109.749C64.4434 109.55 64.412 109.318 64.412 109.054C64.412 108.803 64.4444 108.578 64.5094 108.379C64.5744 108.177 64.6675 108.007 64.7887 107.869C64.9121 107.728 65.0605 107.621 65.2337 107.547C65.4069 107.471 65.6007 107.434 65.815 107.434C66.0445 107.434 66.2394 107.47 66.3996 107.544C66.562 107.618 66.6952 107.717 66.7991 107.843C66.903 107.966 66.9788 108.112 67.0265 108.281C67.0763 108.448 67.1012 108.627 67.1012 108.817V108.915ZM66.562 108.755C66.5685 108.474 66.5057 108.253 66.3736 108.093C66.2437 107.933 66.05 107.853 65.7923 107.853C65.6602 107.853 65.5444 107.877 65.4448 107.927C65.3452 107.977 65.2618 108.043 65.1947 108.125C65.1276 108.208 65.0756 108.304 65.0388 108.414C65.002 108.523 64.9814 108.636 64.9771 108.755H66.562ZM72.7809 109.002C72.7809 109.256 72.7528 109.484 72.6965 109.688C72.6424 109.889 72.5612 110.061 72.4529 110.204C72.3468 110.347 72.2158 110.456 72.0599 110.532C71.904 110.608 71.7254 110.646 71.524 110.646C71.4309 110.646 71.3443 110.636 71.2642 110.616C71.1863 110.599 71.1094 110.57 71.0336 110.529C70.9578 110.488 70.882 110.436 70.8063 110.373C70.7305 110.31 70.6504 110.234 70.5659 110.146V110.503C70.5659 110.52 70.5616 110.535 70.5529 110.548C70.5443 110.561 70.5302 110.572 70.5107 110.581C70.4912 110.587 70.4663 110.593 70.436 110.597C70.4079 110.601 70.3711 110.603 70.3256 110.603C70.2823 110.603 70.2455 110.601 70.2152 110.597C70.1849 110.593 70.16 110.587 70.1405 110.581C70.121 110.572 70.108 110.561 70.1015 110.548C70.095 110.535 70.0917 110.52 70.0917 110.503V106.164C70.0917 106.146 70.095 106.131 70.1015 106.118C70.1102 106.105 70.1242 106.094 70.1437 106.086C70.1654 106.077 70.1935 106.071 70.2282 106.066C70.2628 106.062 70.3061 106.06 70.3581 106.06C70.4122 106.06 70.4566 106.062 70.4912 106.066C70.5259 106.071 70.5529 106.077 70.5724 106.086C70.5919 106.094 70.606 106.105 70.6146 106.118C70.6233 106.131 70.6276 106.146 70.6276 106.164V107.914C70.7142 107.826 70.7976 107.751 70.8777 107.69C70.96 107.63 71.0401 107.581 71.1181 107.544C71.196 107.505 71.274 107.477 71.3519 107.46C71.4298 107.442 71.5121 107.434 71.5987 107.434C71.8109 107.434 71.9917 107.476 72.1411 107.56C72.2927 107.645 72.415 107.758 72.5081 107.901C72.6034 108.042 72.6727 108.208 72.716 108.398C72.7593 108.589 72.7809 108.79 72.7809 109.002ZM72.2158 109.064C72.2158 108.915 72.2039 108.77 72.1801 108.629C72.1584 108.488 72.1195 108.364 72.0632 108.255C72.0069 108.147 71.9322 108.06 71.8391 107.995C71.746 107.928 71.6301 107.895 71.4916 107.895C71.4223 107.895 71.3541 107.905 71.2869 107.924C71.2198 107.944 71.1516 107.976 71.0823 108.021C71.013 108.067 70.9405 108.125 70.8647 108.197C70.7911 108.268 70.7121 108.358 70.6276 108.466V109.632C70.7749 109.812 70.9156 109.95 71.0499 110.045C71.1841 110.138 71.3238 110.185 71.4688 110.185C71.6031 110.185 71.7178 110.152 71.8131 110.087C71.9084 110.022 71.9852 109.937 72.0437 109.83C72.1043 109.722 72.1476 109.602 72.1736 109.47C72.2017 109.336 72.2158 109.2 72.2158 109.064ZM76.423 110.503C76.423 110.52 76.4187 110.535 76.41 110.548C76.4035 110.559 76.3906 110.569 76.3711 110.577C76.3516 110.586 76.3256 110.593 76.2931 110.597C76.2628 110.601 76.2249 110.603 76.1794 110.603C76.1296 110.603 76.0885 110.601 76.056 110.597C76.0257 110.593 76.0008 110.586 75.9813 110.577C75.964 110.569 75.9521 110.559 75.9456 110.548C75.9391 110.535 75.9359 110.52 75.9359 110.503V110.116C75.7691 110.3 75.6046 110.435 75.4422 110.519C75.2798 110.603 75.1152 110.646 74.9485 110.646C74.7537 110.646 74.5891 110.613 74.4549 110.548C74.3228 110.483 74.2156 110.396 74.1333 110.285C74.051 110.173 73.9915 110.043 73.9547 109.895C73.92 109.746 73.9027 109.565 73.9027 109.353V107.58C73.9027 107.562 73.906 107.548 73.9125 107.538C73.9211 107.525 73.9363 107.514 73.9579 107.505C73.9796 107.494 74.0077 107.488 74.0424 107.486C74.077 107.481 74.1203 107.479 74.1723 107.479C74.2243 107.479 74.2676 107.481 74.3022 107.486C74.3369 107.488 74.3639 107.494 74.3834 107.505C74.4051 107.514 74.4202 107.525 74.4289 107.538C74.4375 107.548 74.4419 107.562 74.4419 107.58V109.282C74.4419 109.453 74.4538 109.59 74.4776 109.694C74.5036 109.796 74.5415 109.884 74.5913 109.957C74.6432 110.029 74.7082 110.085 74.7861 110.126C74.8641 110.165 74.955 110.185 75.0589 110.185C75.1932 110.185 75.3264 110.137 75.4584 110.042C75.5927 109.946 75.7345 109.807 75.8839 109.623V107.58C75.8839 107.562 75.8871 107.548 75.8936 107.538C75.9023 107.525 75.9175 107.514 75.9391 107.505C75.9608 107.494 75.9878 107.488 76.0203 107.486C76.0549 107.481 76.0993 107.479 76.1535 107.479C76.2054 107.479 76.2487 107.481 76.2834 107.486C76.318 107.488 76.3451 107.494 76.3646 107.505C76.3841 107.514 76.3981 107.525 76.4068 107.538C76.4176 107.548 76.423 107.562 76.423 107.58V110.503ZM79.4482 109.707C79.4482 109.856 79.42 109.99 79.3637 110.107C79.3096 110.223 79.2316 110.322 79.1299 110.402C79.0281 110.482 78.9069 110.543 78.7661 110.584C78.6254 110.625 78.4706 110.646 78.3017 110.646C78.1978 110.646 78.0982 110.637 78.0029 110.62C77.9098 110.605 77.8253 110.585 77.7496 110.561C77.6759 110.535 77.6132 110.509 77.5612 110.483C77.5092 110.455 77.4713 110.43 77.4475 110.409C77.4237 110.387 77.4064 110.357 77.3956 110.318C77.3847 110.279 77.3793 110.226 77.3793 110.159C77.3793 110.117 77.3815 110.083 77.3858 110.055C77.3901 110.026 77.3956 110.004 77.402 109.986C77.4085 109.969 77.4172 109.957 77.428 109.951C77.441 109.942 77.4551 109.938 77.4703 109.938C77.4941 109.938 77.5287 109.953 77.5742 109.983C77.6218 110.011 77.6792 110.043 77.7463 110.077C77.8156 110.112 77.8968 110.144 77.9899 110.175C78.083 110.203 78.1902 110.217 78.3114 110.217C78.4024 110.217 78.4847 110.207 78.5583 110.188C78.6319 110.168 78.6958 110.14 78.7499 110.103C78.804 110.064 78.8452 110.016 78.8733 109.957C78.9036 109.899 78.9188 109.829 78.9188 109.749C78.9188 109.667 78.8971 109.598 78.8538 109.541C78.8127 109.485 78.7575 109.435 78.6882 109.392C78.6189 109.349 78.5409 109.311 78.4543 109.278C78.3677 109.244 78.2779 109.208 78.1848 109.171C78.0938 109.134 78.004 109.093 77.9152 109.048C77.8286 109 77.7506 108.943 77.6814 108.876C77.6121 108.809 77.5558 108.728 77.5125 108.635C77.4713 108.542 77.4508 108.431 77.4508 108.301C77.4508 108.186 77.4724 108.077 77.5157 107.973C77.5612 107.867 77.6283 107.775 77.7171 107.697C77.8059 107.617 77.9163 107.553 78.0484 107.505C78.1826 107.457 78.3385 107.434 78.516 107.434C78.594 107.434 78.6719 107.44 78.7499 107.453C78.8278 107.466 78.8982 107.482 78.961 107.502C79.0238 107.521 79.0768 107.543 79.1201 107.567C79.1656 107.588 79.1992 107.608 79.2208 107.625C79.2446 107.643 79.2598 107.658 79.2663 107.671C79.275 107.684 79.2804 107.699 79.2825 107.716C79.2869 107.731 79.2901 107.751 79.2923 107.775C79.2966 107.798 79.2988 107.828 79.2988 107.862C79.2988 107.899 79.2966 107.932 79.2923 107.96C79.2901 107.986 79.2847 108.007 79.276 108.025C79.2695 108.042 79.2609 108.055 79.2501 108.064C79.2392 108.07 79.2273 108.073 79.2143 108.073C79.1948 108.073 79.1667 108.062 79.1299 108.038C79.0931 108.014 79.0454 107.989 78.987 107.963C78.9285 107.935 78.8592 107.909 78.7791 107.885C78.7012 107.861 78.6113 107.849 78.5096 107.849C78.4186 107.849 78.3385 107.86 78.2692 107.882C78.1999 107.901 78.1426 107.931 78.0971 107.969C78.0538 108.006 78.0202 108.051 77.9964 108.103C77.9747 108.155 77.9639 108.211 77.9639 108.272C77.9639 108.356 77.9856 108.427 78.0289 108.486C78.0722 108.542 78.1285 108.592 78.1978 108.635C78.267 108.679 78.3461 108.718 78.4349 108.752C78.5236 108.787 78.6135 108.823 78.7044 108.859C78.7975 108.896 78.8885 108.937 78.9772 108.983C79.0682 109.028 79.1483 109.083 79.2176 109.148C79.2869 109.213 79.3421 109.291 79.3832 109.382C79.4265 109.473 79.4482 109.581 79.4482 109.707ZM80.9201 110.503C80.9201 110.52 80.9157 110.535 80.9071 110.548C80.8984 110.559 80.8844 110.569 80.8649 110.577C80.8454 110.586 80.8183 110.593 80.7837 110.597C80.749 110.601 80.7046 110.603 80.6505 110.603C80.5985 110.603 80.5552 110.601 80.5206 110.597C80.486 110.593 80.4578 110.586 80.4362 110.577C80.4167 110.569 80.4026 110.559 80.3939 110.548C80.3874 110.535 80.3842 110.52 80.3842 110.503V107.58C80.3842 107.565 80.3874 107.551 80.3939 107.538C80.4026 107.525 80.4167 107.514 80.4362 107.505C80.4578 107.496 80.486 107.49 80.5206 107.486C80.5552 107.481 80.5985 107.479 80.6505 107.479C80.7046 107.479 80.749 107.481 80.7837 107.486C80.8183 107.49 80.8454 107.496 80.8649 107.505C80.8844 107.514 80.8984 107.525 80.9071 107.538C80.9157 107.551 80.9201 107.565 80.9201 107.58V110.503ZM80.9818 106.592C80.9818 106.718 80.958 106.804 80.9103 106.849C80.8627 106.894 80.775 106.917 80.6473 106.917C80.5217 106.917 80.4351 106.896 80.3874 106.852C80.342 106.807 80.3192 106.722 80.3192 106.599C80.3192 106.473 80.3431 106.388 80.3907 106.342C80.4383 106.297 80.526 106.274 80.6538 106.274C80.7793 106.274 80.8649 106.297 80.9103 106.342C80.958 106.386 80.9818 106.469 80.9818 106.592ZM84.6273 110.503C84.6273 110.52 84.6229 110.535 84.6143 110.548C84.6056 110.559 84.5915 110.569 84.5721 110.577C84.5526 110.586 84.5255 110.593 84.4909 110.597C84.4562 110.601 84.4129 110.603 84.3609 110.603C84.3068 110.603 84.2624 110.601 84.2278 110.597C84.1931 110.593 84.1661 110.586 84.1466 110.577C84.1271 110.569 84.113 110.559 84.1044 110.548C84.0957 110.535 84.0914 110.52 84.0914 110.503V108.791C84.0914 108.624 84.0784 108.49 84.0524 108.388C84.0264 108.287 83.9885 108.199 83.9387 108.125C83.8889 108.052 83.824 107.995 83.7439 107.957C83.6659 107.918 83.575 107.898 83.471 107.898C83.3368 107.898 83.2026 107.946 83.0683 108.041C82.9341 108.136 82.7933 108.276 82.6461 108.46V110.503C82.6461 110.52 82.6418 110.535 82.6331 110.548C82.6244 110.559 82.6104 110.569 82.5909 110.577C82.5714 110.586 82.5443 110.593 82.5097 110.597C82.475 110.601 82.4307 110.603 82.3765 110.603C82.3246 110.603 82.2813 110.601 82.2466 110.597C82.212 110.593 82.1838 110.586 82.1622 110.577C82.1427 110.569 82.1286 110.559 82.12 110.548C82.1135 110.535 82.1102 110.52 82.1102 110.503V107.58C82.1102 107.562 82.1135 107.548 82.12 107.538C82.1265 107.525 82.1394 107.514 82.1589 107.505C82.1784 107.494 82.2033 107.488 82.2336 107.486C82.2639 107.481 82.304 107.479 82.3538 107.479C82.4014 107.479 82.4404 107.481 82.4707 107.486C82.5032 107.488 82.5281 107.494 82.5454 107.505C82.5627 107.514 82.5746 107.525 82.5811 107.538C82.5898 107.548 82.5941 107.562 82.5941 107.58V107.966C82.7587 107.782 82.9222 107.648 83.0846 107.564C83.2491 107.477 83.4147 107.434 83.5815 107.434C83.7763 107.434 83.9398 107.467 84.0719 107.534C84.2061 107.599 84.3144 107.687 84.3967 107.797C84.4789 107.908 84.5374 108.038 84.5721 108.187C84.6089 108.334 84.6273 108.512 84.6273 108.72V110.503ZM88.2655 108.915C88.2655 108.999 88.2438 109.06 88.2005 109.096C88.1594 109.131 88.1117 109.148 88.0576 109.148H86.1414C86.1414 109.311 86.1576 109.457 86.1901 109.587C86.2226 109.717 86.2767 109.828 86.3525 109.921C86.4283 110.015 86.5268 110.086 86.6481 110.136C86.7693 110.186 86.9176 110.21 87.093 110.21C87.2316 110.21 87.355 110.2 87.4633 110.178C87.5715 110.154 87.6646 110.128 87.7426 110.1C87.8227 110.072 87.8876 110.047 87.9374 110.025C87.9894 110.002 88.0284 109.99 88.0544 109.99C88.0695 109.99 88.0825 109.994 88.0933 110.003C88.1063 110.009 88.1161 110.02 88.1226 110.035C88.1291 110.05 88.1334 110.072 88.1356 110.1C88.1399 110.126 88.142 110.159 88.142 110.197C88.142 110.226 88.141 110.251 88.1388 110.272C88.1366 110.292 88.1334 110.31 88.1291 110.327C88.1269 110.343 88.1215 110.357 88.1128 110.37C88.1063 110.383 88.0966 110.396 88.0836 110.409C88.0728 110.419 88.0381 110.439 87.9797 110.467C87.9212 110.493 87.8454 110.519 87.7523 110.545C87.6592 110.571 87.5509 110.594 87.4275 110.613C87.3063 110.635 87.1764 110.646 87.0378 110.646C86.7975 110.646 86.5863 110.612 86.4045 110.545C86.2248 110.478 86.0732 110.378 85.9498 110.246C85.8264 110.114 85.7333 109.948 85.6705 109.749C85.6077 109.55 85.5763 109.318 85.5763 109.054C85.5763 108.803 85.6088 108.578 85.6737 108.379C85.7387 108.177 85.8318 108.007 85.953 107.869C86.0764 107.728 86.2248 107.621 86.398 107.547C86.5712 107.471 86.765 107.434 86.9793 107.434C87.2088 107.434 87.4037 107.47 87.5639 107.544C87.7263 107.618 87.8595 107.717 87.9634 107.843C88.0673 107.966 88.1431 108.112 88.1908 108.281C88.2406 108.448 88.2655 108.627 88.2655 108.817V108.915ZM87.7263 108.755C87.7328 108.474 87.67 108.253 87.538 108.093C87.408 107.933 87.2143 107.853 86.9566 107.853C86.8245 107.853 86.7087 107.877 86.6091 107.927C86.5095 107.977 86.4261 108.043 86.359 108.125C86.2919 108.208 86.2399 108.304 86.2031 108.414C86.1663 108.523 86.1457 108.636 86.1414 108.755H87.7263ZM91.185 109.707C91.185 109.856 91.1568 109.99 91.1005 110.107C91.0464 110.223 90.9685 110.322 90.8667 110.402C90.7649 110.482 90.6437 110.543 90.5029 110.584C90.3622 110.625 90.2074 110.646 90.0385 110.646C89.9346 110.646 89.835 110.637 89.7397 110.62C89.6466 110.605 89.5622 110.585 89.4864 110.561C89.4128 110.535 89.35 110.509 89.298 110.483C89.246 110.455 89.2082 110.43 89.1843 110.409C89.1605 110.387 89.1432 110.357 89.1324 110.318C89.1215 110.279 89.1161 110.226 89.1161 110.159C89.1161 110.117 89.1183 110.083 89.1226 110.055C89.127 110.026 89.1324 110.004 89.1389 109.986C89.1454 109.969 89.154 109.957 89.1648 109.951C89.1778 109.942 89.1919 109.938 89.2071 109.938C89.2309 109.938 89.2655 109.953 89.311 109.983C89.3586 110.011 89.416 110.043 89.4831 110.077C89.5524 110.112 89.6336 110.144 89.7267 110.175C89.8198 110.203 89.927 110.217 90.0483 110.217C90.1392 110.217 90.2215 110.207 90.2951 110.188C90.3687 110.168 90.4326 110.14 90.4867 110.103C90.5408 110.064 90.582 110.016 90.6101 109.957C90.6404 109.899 90.6556 109.829 90.6556 109.749C90.6556 109.667 90.6339 109.598 90.5906 109.541C90.5495 109.485 90.4943 109.435 90.425 109.392C90.3557 109.349 90.2778 109.311 90.1912 109.278C90.1045 109.244 90.0147 109.208 89.9216 109.171C89.8306 109.134 89.7408 109.093 89.652 109.048C89.5654 109 89.4875 108.943 89.4182 108.876C89.3489 108.809 89.2926 108.728 89.2493 108.635C89.2082 108.542 89.1876 108.431 89.1876 108.301C89.1876 108.186 89.2092 108.077 89.2525 107.973C89.298 107.867 89.3651 107.775 89.4539 107.697C89.5427 107.617 89.6531 107.553 89.7852 107.505C89.9194 107.457 90.0753 107.434 90.2529 107.434C90.3308 107.434 90.4088 107.44 90.4867 107.453C90.5647 107.466 90.635 107.482 90.6978 107.502C90.7606 107.521 90.8137 107.543 90.857 107.567C90.9024 107.588 90.936 107.608 90.9576 107.625C90.9815 107.643 90.9966 107.658 91.0031 107.671C91.0118 107.684 91.0172 107.699 91.0193 107.716C91.0237 107.731 91.0269 107.751 91.0291 107.775C91.0334 107.798 91.0356 107.828 91.0356 107.862C91.0356 107.899 91.0334 107.932 91.0291 107.96C91.0269 107.986 91.0215 108.007 91.0129 108.025C91.0064 108.042 90.9977 108.055 90.9869 108.064C90.976 108.07 90.9641 108.073 90.9511 108.073C90.9317 108.073 90.9035 108.062 90.8667 108.038C90.8299 108.014 90.7823 107.989 90.7238 107.963C90.6653 107.935 90.5961 107.909 90.5159 107.885C90.438 107.861 90.3481 107.849 90.2464 107.849C90.1554 107.849 90.0753 107.86 90.006 107.882C89.9367 107.901 89.8794 107.931 89.8339 107.969C89.7906 108.006 89.757 108.051 89.7332 108.103C89.7116 108.155 89.7007 108.211 89.7007 108.272C89.7007 108.356 89.7224 108.427 89.7657 108.486C89.809 108.542 89.8653 108.592 89.9346 108.635C90.0039 108.679 90.0829 108.718 90.1717 108.752C90.2604 108.787 90.3503 108.823 90.4412 108.859C90.5343 108.896 90.6253 108.937 90.7141 108.983C90.805 109.028 90.8851 109.083 90.9544 109.148C91.0237 109.213 91.0789 109.291 91.12 109.382C91.1633 109.473 91.185 109.581 91.185 109.707ZM94.0225 109.707C94.0225 109.856 93.9944 109.99 93.9381 110.107C93.884 110.223 93.806 110.322 93.7042 110.402C93.6025 110.482 93.4812 110.543 93.3405 110.584C93.1998 110.625 93.0449 110.646 92.8761 110.646C92.7721 110.646 92.6725 110.637 92.5773 110.62C92.4842 110.605 92.3997 110.585 92.3239 110.561C92.2503 110.535 92.1875 110.509 92.1356 110.483C92.0836 110.455 92.0457 110.43 92.0219 110.409C91.9981 110.387 91.9807 110.357 91.9699 110.318C91.9591 110.279 91.9537 110.226 91.9537 110.159C91.9537 110.117 91.9558 110.083 91.9602 110.055C91.9645 110.026 91.9699 110.004 91.9764 109.986C91.9829 109.969 91.9916 109.957 92.0024 109.951C92.0154 109.942 92.0295 109.938 92.0446 109.938C92.0684 109.938 92.1031 109.953 92.1485 109.983C92.1962 110.011 92.2536 110.043 92.3207 110.077C92.39 110.112 92.4712 110.144 92.5643 110.175C92.6574 110.203 92.7645 110.217 92.8858 110.217C92.9767 110.217 93.059 110.207 93.1326 110.188C93.2063 110.168 93.2701 110.14 93.3243 110.103C93.3784 110.064 93.4195 110.016 93.4477 109.957C93.478 109.899 93.4931 109.829 93.4931 109.749C93.4931 109.667 93.4715 109.598 93.4282 109.541C93.387 109.485 93.3318 109.435 93.2625 109.392C93.1933 109.349 93.1153 109.311 93.0287 109.278C92.9421 109.244 92.8522 109.208 92.7591 109.171C92.6682 109.134 92.5783 109.093 92.4896 109.048C92.403 109 92.325 108.943 92.2557 108.876C92.1864 108.809 92.1301 108.728 92.0868 108.635C92.0457 108.542 92.0251 108.431 92.0251 108.301C92.0251 108.186 92.0468 108.077 92.0901 107.973C92.1356 107.867 92.2027 107.775 92.2915 107.697C92.3802 107.617 92.4906 107.553 92.6227 107.505C92.757 107.457 92.9129 107.434 93.0904 107.434C93.1684 107.434 93.2463 107.44 93.3243 107.453C93.4022 107.466 93.4726 107.482 93.5354 107.502C93.5982 107.521 93.6512 107.543 93.6945 107.567C93.74 107.588 93.7735 107.608 93.7952 107.625C93.819 107.643 93.8342 107.658 93.8407 107.671C93.8493 107.684 93.8547 107.699 93.8569 107.716C93.8612 107.731 93.8645 107.751 93.8666 107.775C93.871 107.798 93.8731 107.828 93.8731 107.862C93.8731 107.899 93.871 107.932 93.8666 107.96C93.8645 107.986 93.8591 108.007 93.8504 108.025C93.8439 108.042 93.8352 108.055 93.8244 108.064C93.8136 108.07 93.8017 108.073 93.7887 108.073C93.7692 108.073 93.7411 108.062 93.7042 108.038C93.6674 108.014 93.6198 107.989 93.5613 107.963C93.5029 107.935 93.4336 107.909 93.3535 107.885C93.2755 107.861 93.1857 107.849 93.0839 107.849C92.993 107.849 92.9129 107.86 92.8436 107.882C92.7743 107.901 92.7169 107.931 92.6714 107.969C92.6281 108.006 92.5946 108.051 92.5708 108.103C92.5491 108.155 92.5383 108.211 92.5383 108.272C92.5383 108.356 92.5599 108.427 92.6032 108.486C92.6465 108.542 92.7028 108.592 92.7721 108.635C92.8414 108.679 92.9204 108.718 93.0092 108.752C93.098 108.787 93.1878 108.823 93.2788 108.859C93.3719 108.896 93.4628 108.937 93.5516 108.983C93.6425 109.028 93.7227 109.083 93.7919 109.148C93.8612 109.213 93.9164 109.291 93.9576 109.382C94.0009 109.473 94.0225 109.581 94.0225 109.707ZM97.3531 108.915C97.3531 108.999 97.3314 109.06 97.2881 109.096C97.247 109.131 97.1994 109.148 97.1452 109.148H95.229C95.229 109.311 95.2453 109.457 95.2777 109.587C95.3102 109.717 95.3644 109.828 95.4401 109.921C95.5159 110.015 95.6144 110.086 95.7357 110.136C95.8569 110.186 96.0053 110.21 96.1806 110.21C96.3192 110.21 96.4426 110.2 96.5509 110.178C96.6591 110.154 96.7523 110.128 96.8302 110.1C96.9103 110.072 96.9753 110.047 97.0251 110.025C97.077 110.002 97.116 109.99 97.142 109.99C97.1571 109.99 97.1701 109.994 97.181 110.003C97.194 110.009 97.2037 110.02 97.2102 110.035C97.2167 110.05 97.221 110.072 97.2232 110.1C97.2275 110.126 97.2297 110.159 97.2297 110.197C97.2297 110.226 97.2286 110.251 97.2264 110.272C97.2243 110.292 97.221 110.31 97.2167 110.327C97.2145 110.343 97.2091 110.357 97.2004 110.37C97.194 110.383 97.1842 110.396 97.1712 110.409C97.1604 110.419 97.1258 110.439 97.0673 110.467C97.0088 110.493 96.933 110.519 96.8399 110.545C96.7468 110.571 96.6386 110.594 96.5152 110.613C96.3939 110.635 96.264 110.646 96.1254 110.646C95.8851 110.646 95.674 110.612 95.4921 110.545C95.3124 110.478 95.1608 110.378 95.0374 110.246C94.914 110.114 94.8209 109.948 94.7581 109.749C94.6953 109.55 94.6639 109.318 94.6639 109.054C94.6639 108.803 94.6964 108.578 94.7613 108.379C94.8263 108.177 94.9194 108.007 95.0407 107.869C95.1641 107.728 95.3124 107.621 95.4856 107.547C95.6588 107.471 95.8526 107.434 96.067 107.434C96.2965 107.434 96.4913 107.47 96.6516 107.544C96.814 107.618 96.9471 107.717 97.0511 107.843C97.155 107.966 97.2308 108.112 97.2784 108.281C97.3282 108.448 97.3531 108.627 97.3531 108.817V108.915ZM96.814 108.755C96.8205 108.474 96.7577 108.253 96.6256 108.093C96.4957 107.933 96.3019 107.853 96.0442 107.853C95.9122 107.853 95.7963 107.877 95.6967 107.927C95.5971 107.977 95.5138 108.043 95.4466 108.125C95.3795 108.208 95.3275 108.304 95.2907 108.414C95.2539 108.523 95.2334 108.636 95.229 108.755H96.814ZM100.007 109.707C100.007 109.856 99.9784 109.99 99.9221 110.107C99.868 110.223 99.79 110.322 99.6883 110.402C99.5865 110.482 99.4653 110.543 99.3245 110.584C99.1838 110.625 99.029 110.646 98.8601 110.646C98.7562 110.646 98.6566 110.637 98.5613 110.62C98.4682 110.605 98.3837 110.585 98.308 110.561C98.2343 110.535 98.1716 110.509 98.1196 110.483C98.0676 110.455 98.0297 110.43 98.0059 110.409C97.9821 110.387 97.9648 110.357 97.9539 110.318C97.9431 110.279 97.9377 110.226 97.9377 110.159C97.9377 110.117 97.9399 110.083 97.9442 110.055C97.9485 110.026 97.9539 110.004 97.9604 109.986C97.9669 109.969 97.9756 109.957 97.9864 109.951C97.9994 109.942 98.0135 109.938 98.0286 109.938C98.0525 109.938 98.0871 109.953 98.1326 109.983C98.1802 110.011 98.2376 110.043 98.3047 110.077C98.374 110.112 98.4552 110.144 98.5483 110.175C98.6414 110.203 98.7486 110.217 98.8698 110.217C98.9608 110.217 99.043 110.207 99.1167 110.188C99.1903 110.168 99.2542 110.14 99.3083 110.103C99.3624 110.064 99.4036 110.016 99.4317 109.957C99.462 109.899 99.4772 109.829 99.4772 109.749C99.4772 109.667 99.4555 109.598 99.4122 109.541C99.3711 109.485 99.3159 109.435 99.2466 109.392C99.1773 109.349 99.0993 109.311 99.0127 109.278C98.9261 109.244 98.8363 109.208 98.7432 109.171C98.6522 109.134 98.5624 109.093 98.4736 109.048C98.387 109 98.309 108.943 98.2398 108.876C98.1705 108.809 98.1142 108.728 98.0709 108.635C98.0297 108.542 98.0092 108.431 98.0092 108.301C98.0092 108.186 98.0308 108.077 98.0741 107.973C98.1196 107.867 98.1867 107.775 98.2755 107.697C98.3643 107.617 98.4747 107.553 98.6068 107.505C98.741 107.457 98.8969 107.434 99.0744 107.434C99.1524 107.434 99.2303 107.44 99.3083 107.453C99.3862 107.466 99.4566 107.482 99.5194 107.502C99.5822 107.521 99.6352 107.543 99.6785 107.567C99.724 107.588 99.7576 107.608 99.7792 107.625C99.803 107.643 99.8182 107.658 99.8247 107.671C99.8333 107.684 99.8388 107.699 99.8409 107.716C99.8453 107.731 99.8485 107.751 99.8507 107.775C99.855 107.798 99.8572 107.828 99.8572 107.862C99.8572 107.899 99.855 107.932 99.8507 107.96C99.8485 107.986 99.8431 108.007 99.8344 108.025C99.8279 108.042 99.8193 108.055 99.8084 108.064C99.7976 108.07 99.7857 108.073 99.7727 108.073C99.7532 108.073 99.7251 108.062 99.6883 108.038C99.6515 108.014 99.6038 107.989 99.5454 107.963C99.4869 107.935 99.4176 107.909 99.3375 107.885C99.2596 107.861 99.1697 107.849 99.0679 107.849C98.977 107.849 98.8969 107.86 98.8276 107.882C98.7583 107.901 98.7009 107.931 98.6555 107.969C98.6122 108.006 98.5786 108.051 98.5548 108.103C98.5331 108.155 98.5223 108.211 98.5223 108.272C98.5223 108.356 98.544 108.427 98.5873 108.486C98.6306 108.542 98.6869 108.592 98.7562 108.635C98.8254 108.679 98.9045 108.718 98.9932 108.752C99.082 108.787 99.1719 108.823 99.2628 108.859C99.3559 108.896 99.4469 108.937 99.5356 108.983C99.6266 109.028 99.7067 109.083 99.776 109.148C99.8453 109.213 99.9005 109.291 99.9416 109.382C99.9849 109.473 100.007 109.581 100.007 109.707Z" fill="white"/>
<path d="M15.1957 99.9756H0.486387L8.88685 86.9372H2.14602V83.3338H16.1506L7.77285 96.3494H15.1957V99.9756ZM29.4617 88.4946V94.3601C29.4617 95.6712 29.3632 96.626 29.1662 97.2247C28.954 97.8461 28.5978 98.4069 28.0977 98.9071C27.6202 99.4072 26.9912 99.7861 26.2107 100.044C25.468 100.294 24.5738 100.419 23.528 100.419C22.4898 100.419 21.6069 100.294 20.8794 100.044C20.1292 99.8013 19.485 99.4224 18.9469 98.9071C18.4544 98.4372 18.1058 97.884 17.9012 97.2474C17.6965 96.6563 17.5942 95.6939 17.5942 94.3601V88.4946H21.4591V94.6216C21.4591 95.584 21.6221 96.2736 21.9479 96.6904C22.2435 97.13 22.755 97.3497 23.4825 97.3497C24.2024 97.3497 24.7178 97.1375 25.0285 96.7132C25.3468 96.2888 25.5059 95.5916 25.5059 94.6216V88.4946H29.4617Z" fill="white"/>
<path d="M32.3718 99.9756V82.3562H36.3503V88.54C36.3503 88.8356 36.3352 89.2183 36.3049 89.6881C36.2821 90.0974 36.2518 90.4081 36.2139 90.6203C36.7217 89.7639 37.3204 89.1349 38.01 88.7333C38.7072 88.3316 39.5294 88.1308 40.4767 88.1308C41.2269 88.1308 41.8938 88.2445 42.4773 88.4718C43.0533 88.7295 43.5193 89.0781 43.8755 89.5176C44.2014 89.9572 44.4174 90.4232 44.5235 90.9158C44.6523 91.5448 44.7167 92.3746 44.7167 93.4053V99.9756H40.6586V93.8259C40.6586 92.8937 40.5108 92.2268 40.2152 91.8252C39.9197 91.4084 39.4385 91.2 38.7716 91.2C37.938 91.2 37.3241 91.5107 36.9301 92.1321C36.5436 92.7535 36.3503 93.7614 36.3503 95.1558V99.9756H32.3718ZM56.3341 94.2237C56.3341 93.3143 56.0954 92.6095 55.618 92.1094C55.133 91.5789 54.4813 91.3137 53.6628 91.3137C52.8444 91.3137 52.2002 91.5713 51.7304 92.0867C51.2453 92.6171 51.0028 93.3295 51.0028 94.2237C51.0028 95.1255 51.2453 95.8341 51.7304 96.3494C52.1926 96.8571 52.8368 97.111 53.6628 97.111C54.4813 97.111 55.1292 96.8571 55.6066 96.3494C56.0916 95.8417 56.3341 95.1331 56.3341 94.2237ZM59.8921 88.4946V99.9756H56.175V98.1113C55.6369 98.9071 55.0345 99.4906 54.3676 99.8619C53.7083 100.233 52.9353 100.419 52.0486 100.419C50.5103 100.419 49.2864 99.8581 48.377 98.7365C47.9299 98.1833 47.5889 97.5316 47.3539 96.7814C47.119 96.0311 47.0015 95.1861 47.0015 94.2464C47.0015 92.367 47.4828 90.8779 48.4452 89.7791C49.4076 88.6802 50.6959 88.1308 52.3101 88.1308C53.174 88.1308 53.9167 88.3165 54.5381 88.6878C55.1671 89.044 55.7051 89.6086 56.1523 90.3816V88.4946H59.8921ZM74.7265 88.4946V94.3601C74.7265 95.6712 74.628 96.626 74.4309 97.2247C74.2187 97.8461 73.8626 98.4069 73.3624 98.9071C72.885 99.4072 72.256 99.7861 71.4754 100.044C70.7328 100.294 69.8385 100.419 68.7927 100.419C67.7545 100.419 66.8717 100.294 66.1441 100.044C65.3939 99.8013 64.7498 99.4224 64.2117 98.9071C63.7191 98.4372 63.3705 97.884 63.1659 97.2474C62.9613 96.6563 62.859 95.6939 62.859 94.3601V88.4946H66.7239V94.6216C66.7239 95.584 66.8868 96.2736 67.2127 96.6904C67.5082 97.13 68.0198 97.3497 68.7473 97.3497C69.4672 97.3497 69.9825 97.1375 70.2932 96.7132C70.6115 96.2888 70.7707 95.5916 70.7707 94.6216V88.4946H74.7265ZM76.568 99.0207L77.4092 95.9288C78.0003 96.4517 78.652 96.8458 79.3644 97.111C80.0691 97.3914 80.7815 97.5316 81.5014 97.5316C82.0167 97.5316 82.4032 97.4445 82.6609 97.2702C82.9261 97.111 83.0588 96.8799 83.0588 96.5768C83.0588 96.069 82.5245 95.6901 81.456 95.44C81.0846 95.3567 80.8042 95.2847 80.6148 95.224C79.3795 94.8603 78.5042 94.417 77.9889 93.8941C77.4281 93.356 77.1477 92.6588 77.1477 91.8025C77.1477 90.696 77.5683 89.8056 78.4095 89.1311C79.2204 88.4643 80.3533 88.1308 81.8083 88.1308C82.5131 88.1308 83.2634 88.2142 84.0591 88.3809C84.726 88.5173 85.5027 88.7825 86.3894 89.1766L85.5482 91.9616C85.0026 91.5903 84.4531 91.3137 83.8999 91.1318C83.377 90.9423 82.8276 90.8476 82.2517 90.8476C81.7818 90.8476 81.4294 90.9196 81.1945 91.0636C80.9672 91.2 80.8535 91.4084 80.8535 91.6888C80.8535 92.0829 81.3878 92.4239 82.4563 92.7119C82.8049 92.818 82.983 92.871 82.9905 92.871C84.3849 93.2651 85.3625 93.7311 85.9233 94.2692C86.469 94.8375 86.7418 95.5764 86.7418 96.4858C86.7418 97.6604 86.2909 98.6077 85.3891 99.3276C84.4645 100.055 83.2709 100.419 81.8083 100.419C80.7929 100.419 79.8569 100.301 79.0006 100.067C78.1518 99.8392 77.341 99.4906 76.568 99.0207ZM96.8246 92.7573C96.7564 92.1208 96.5101 91.6016 96.0857 91.2C95.6613 90.7984 95.1422 90.5975 94.5284 90.5975C93.8842 90.5975 93.3613 90.7756 92.9597 91.1318C92.5429 91.5334 92.2814 92.0753 92.1754 92.7573H96.8246ZM100.815 95.0422H92.0844C92.1071 95.9364 92.3307 96.6184 92.7551 97.0883C93.1946 97.5733 93.8312 97.8158 94.6648 97.8158C95.2711 97.8158 95.7902 97.6983 96.2221 97.4634C96.6617 97.2133 96.9799 96.8723 97.177 96.4403L100.223 97.668C99.8673 98.5395 99.2231 99.214 98.291 99.6914C97.3664 100.176 96.2335 100.419 94.8921 100.419C92.8915 100.419 91.2849 99.8581 90.0724 98.7365C88.8675 97.6453 88.265 96.1865 88.265 94.3601C88.265 92.5792 88.8675 91.0901 90.0724 89.8928C91.2773 88.7181 92.8081 88.1308 94.6648 88.1308C96.5594 88.1308 98.0561 88.7257 99.1549 89.9155C99.7157 90.5293 100.132 91.2455 100.405 92.0639C100.678 92.8748 100.815 93.8031 100.815 94.8489V95.0422Z" fill="#F2FFF5"/>
<path d="M81.7082 27.5944V44.7033L77.431 59.6736L38.936 57.2294L31.6036 29.122L55.4338 0.708984L81.7082 27.5944Z" fill="white"/>
<path d="M30.3817 71.894V32.4824L40.1582 56.9237L76.209 59.9789L81.0973 54.7851V71.894H30.3817Z" fill="white"/>
<circle cx="45.6575" cy="12.9298" r="5.8048" fill="#7A7A7A"/>
<circle cx="38.9357" cy="22.7068" r="4.58274" fill="#7A7A7A"/>
<circle cx="47.7959" cy="21.1785" r="2.44413" fill="#393939"/>
<circle cx="53.9062" cy="24.8445" r="2.44413" fill="white"/>
<circle cx="57.5722" cy="15.6793" r="4.88825" fill="#393939"/>
<circle cx="62.7662" cy="24.5391" r="3.97171" fill="#393939"/>
<circle cx="68.8765" cy="15.9847" r="3.36068" fill="#7A7A7A"/>
<circle cx="74.0702" cy="19.9568" r="2.44413" fill="#7A7A7A"/>
<circle cx="70.4042" cy="26.0662" r="2.44413" fill="white"/>
<circle cx="78.9587" cy="26.0666" r="3.66619" fill="#7A7A7A"/>
<circle cx="69.182" cy="67.006" r="3.66619" fill="#393939"/>
<circle cx="43.5187" cy="65.7838" r="4.88825" fill="#393939"/>
<path d="M8.99536 16.29L20.9105 18.7342C23.0491 19.0397 27.6318 20.4451 28.8539 23.6224C30.076 26.7998 34.455 43.2773 36.4918 51.1189C37.001 53.1556 38.997 57.2903 42.9076 57.5347C46.8182 57.7791 66.1268 59.0623 75.2923 59.6733C76.4125 59.877 78.8974 59.3678 79.8751 55.7016L86.5964 33.3989L48.1014 30.6493C46.1665 30.3438 42.3577 30.5271 42.6021 33.7044C42.8465 36.8818 43.7223 40.7313 44.1297 42.2589C44.4352 43.7865 46.085 46.9638 50.24 47.4527C54.395 47.9415 64.3956 48.6747 68.8765 48.9802C70.0985 48.8784 72.4816 47.9415 72.2372 45.0085C71.9927 42.0756 69.0802 41.546 67.6544 41.6479L54.2117 40.7313" stroke="#7A7A7A" stroke-width="2.77147" stroke-linecap="round"/>
</svg>
