<svg width="101" height="93" viewBox="0 0 101 93" fill="none" xmlns="http://www.w3.org/2000/svg">
<path d="M54.0819 49.3268C55.2276 57.5029 57.4202 65.8656 62.4644 72.3352C62.8466 72.8269 63.2456 73.3071 63.6627 73.7759C69.5654 80.4151 79.6792 83.9572 87.6695 80.0692C91.6327 78.1416 94.4856 74.7377 96.3122 70.8118C97.4814 68.2976 98.2296 65.5689 98.579 62.8755C99.8306 53.2168 98.4836 43.2062 93.8018 34.7725C93.1684 33.631 92.4729 32.5169 91.7144 31.4377C84.8787 21.702 69.9722 14.6586 59.7236 24.0996C56.6813 26.9021 54.9804 30.5916 54.1531 34.6257C53.1847 39.3449 53.4115 44.5357 54.0819 49.3268Z" fill="white" stroke="#191919" stroke-width="1.04889" stroke-miterlimit="10" stroke-linejoin="round"/>
<path d="M54.1591 34.6255L54.16 34.6275C60.0137 32.1602 67.6561 31.0838 74.0019 31.3943C80.3475 31.7047 87.5787 33.5224 93.8067 34.7725C93.1733 33.6308 92.479 32.517 91.7206 31.4376C84.8849 21.7021 69.9782 14.6585 59.7298 24.0997C56.6875 26.902 54.9866 30.5915 54.1591 34.6255Z" fill="#767676" stroke="#191919" stroke-width="1.04889" stroke-miterlimit="10" stroke-linejoin="round"/>
<path d="M77.8242 38.8485C74.4204 38.9886 71.0718 40.7976 69.1407 43.6034C64.987 49.6397 66.2716 56.7667 66.2716 56.7667C66.2716 56.7667 71.6543 56.7817 74.34 55.4712C74.27 58.5147 67.889 61.3633 67.889 61.3633C67.889 61.3633 68.1142 64.5181 68.9159 65.9189C70.9637 69.4988 73.4373 73.4103 77.4494 74.3706C95.2377 78.6302 98.0275 38.0167 77.8242 38.8485Z" fill="#191919"/>
<path d="M2.96494 51.18C2.9276 59.0102 4.69036 66.9573 8.52976 73.7428C9.40069 75.2808 10.3773 76.7595 11.4645 78.163C17.3472 85.7576 26.6288 90.9157 36.2367 90.7914C45.6442 90.669 55.0138 85.0161 58.6754 76.379C58.7536 76.1954 58.8286 76.011 58.901 75.8246C61.1423 70.074 60.8572 63.6914 60.5032 57.5301C60.003 48.8128 58.8124 39.737 52.1369 33.5391C45.88 27.7303 39.9769 20.4356 31.0188 19.0951C23.0384 17.9004 14.8459 22.0613 9.91538 28.4472C8.49806 30.2825 7.32493 32.2745 6.37103 34.3737C4.00679 39.5753 2.99272 45.432 2.96494 51.18Z" fill="white" stroke="#191919" stroke-width="1.04889" stroke-miterlimit="10" stroke-linejoin="round"/>
<path d="M6.38123 34.3758L6.48543 34.4543C17.8118 33.4436 29.1373 32.4327 40.4637 31.4217C44.4288 31.0678 48.7296 31.4993 52.1472 33.541C45.8903 27.7324 39.9872 20.4375 31.0291 19.097C23.0487 17.9024 14.8561 22.0634 9.92557 28.4491C8.50825 30.2846 7.33513 32.2766 6.38123 34.3758Z" fill="#767676" stroke="#191919" stroke-width="1.04889" stroke-miterlimit="10" stroke-linejoin="round"/>
<path d="M31.6467 38.7274C27.5973 38.9874 23.659 41.2317 21.4367 44.6258C16.6549 51.9267 18.3787 60.3786 18.3787 60.3786C18.3787 60.3786 24.7897 60.2502 27.9509 58.6161C27.9501 62.2418 20.429 65.8078 20.429 65.8078C20.429 65.8078 20.7832 69.5585 21.7759 71.2046C24.3116 75.4119 27.3642 80.0022 32.1668 81.0367C53.4634 85.6243 55.6811 37.1872 31.6467 38.7274Z" fill="#191919"/>
<path d="M8.53259 73.7422C9.40353 75.2802 10.3801 76.7587 11.4673 78.1623C17.35 85.757 26.6318 90.9151 36.2395 90.7907C45.6469 90.6684 55.0166 85.0156 58.6782 76.3782C35.4999 99.5 20.4999 83.5 8.53259 73.7422Z" fill="#767676" stroke="#191919" stroke-width="1.04889" stroke-miterlimit="10" stroke-linejoin="round"/>
<path d="M62.4745 72.334C62.8568 72.8257 63.2557 73.3059 63.6728 73.7745C69.5755 80.4137 79.6894 83.9558 87.6797 80.0678C91.6428 78.1403 94.496 74.7365 96.3223 70.8105C84.9999 81.5 79.4999 83.9998 62.4745 72.334Z" fill="#767676" stroke="#191919" stroke-width="1.04889" stroke-miterlimit="10" stroke-linejoin="round"/>
<path d="M90.0667 16.1163C87.0614 10.6082 79.418 1.70132 71.4133 2.29589C63.3302 2.89628 60.3249 9.20611 59.5995 11.3092" stroke="#191919" stroke-width="1.04889" stroke-linejoin="round"/>
<path d="M2.91467 16.6875C6.6734 10.988 16.266 1.74959 26.3764 2.29881C36.5858 2.85338 40.421 9.33133 41.3504 11.4927" stroke="#191919" stroke-width="1.04889" stroke-linejoin="round"/>
</svg>
