<svg width="101" height="93" viewBox="0 0 101 93" fill="none" xmlns="http://www.w3.org/2000/svg">
<path d="M54.0818 49.3268C55.2274 57.5029 57.4201 65.8656 62.4642 72.3352C62.8465 72.8269 63.2454 73.3071 63.6625 73.7759C69.5653 80.4151 79.6791 83.9572 87.6694 80.0692C91.6326 78.1416 94.4855 74.7377 96.3121 70.8118C97.4813 68.2976 98.2295 65.5689 98.5789 62.8755C99.8304 53.2168 98.4835 43.2062 93.8017 34.7725C93.1683 33.631 92.4728 32.5169 91.7143 31.4377C84.8786 21.702 69.9721 14.6586 59.7235 24.0996C56.6812 26.9021 54.9803 30.5916 54.153 34.6257C53.1846 39.3449 53.4114 44.5357 54.0818 49.3268Z" fill="white" stroke="#191919" stroke-width="1.04889" stroke-miterlimit="10" stroke-linejoin="round"/>
<path d="M54.1589 34.6255L54.1599 34.6275C60.0136 32.1602 67.656 31.0838 74.0018 31.3943C80.3473 31.7047 87.5786 33.5224 93.8066 34.7725C93.1732 33.6308 92.4789 32.517 91.7204 31.4376C84.8848 21.7021 69.978 14.6585 59.7296 24.0997C56.6873 26.902 54.9864 30.5915 54.1589 34.6255Z" fill="#767676" stroke="#191919" stroke-width="1.04889" stroke-miterlimit="10" stroke-linejoin="round"/>
<path d="M78.7402 45.0126C75.3364 45.1527 71.9878 46.9617 70.0568 49.7675C65.903 55.8038 67.1876 62.9307 67.1876 62.9307C67.1876 62.9307 72.5703 62.9458 75.256 61.6353C75.186 64.6787 68.805 67.5273 68.805 67.5273C68.805 67.5273 69.0302 70.6822 69.832 72.0829C71.8797 75.6628 74.3534 79.5744 78.3654 80.5347C96.1537 84.7942 98.9435 44.1808 78.7402 45.0126Z" fill="#191919"/>
<path d="M2.96494 51.18C2.9276 59.0102 4.69036 66.9573 8.52976 73.7428C9.40069 75.2808 10.3773 76.7595 11.4645 78.163C17.3472 85.7576 26.6288 90.9157 36.2367 90.7914C45.6442 90.669 55.0138 85.0161 58.6754 76.379C58.7536 76.1954 58.8286 76.011 58.901 75.8246C61.1423 70.074 60.8572 63.6914 60.5032 57.5301C60.003 48.8128 58.8124 39.737 52.1369 33.5391C45.88 27.7303 39.9769 20.4356 31.0188 19.0951C23.0384 17.9004 14.8459 22.0613 9.91538 28.4472C8.49806 30.2825 7.32493 32.2745 6.37103 34.3737C4.00679 39.5753 2.99272 45.432 2.96494 51.18Z" fill="white" stroke="#191919" stroke-width="1.04889" stroke-miterlimit="10" stroke-linejoin="round"/>
<path d="M6.38135 34.3758L6.48555 34.4543C17.8119 33.4436 29.1374 32.4327 40.4638 31.4217C44.429 31.0678 48.7297 31.4993 52.1474 33.541C45.8904 27.7324 39.9873 20.4375 31.0292 19.097C23.0488 17.9024 14.8562 22.0634 9.9257 28.4491C8.50838 30.2846 7.33525 32.2766 6.38135 34.3758Z" fill="#767676" stroke="#191919" stroke-width="1.04889" stroke-miterlimit="10" stroke-linejoin="round"/>
<path d="M32.5706 46.036C28.5211 46.296 24.5829 48.5403 22.3606 51.9344C17.5788 59.2353 19.3025 67.6872 19.3025 67.6872C19.3025 67.6872 25.7135 67.5588 28.8747 65.9247C28.8739 69.5503 21.3528 73.1164 21.3528 73.1164C21.3528 73.1164 21.707 76.8671 22.6997 78.5132C25.2354 82.7205 28.288 87.3108 33.0906 88.3452C54.3872 92.9329 56.6049 44.4957 32.5706 46.036Z" fill="#191919"/>
<path d="M8.53271 73.7432C9.40365 75.2812 10.3803 76.7597 11.4674 78.1632C17.3501 85.758 26.6319 90.9161 36.2396 90.7917C45.647 90.6694 55.0167 85.0166 58.6783 76.3792C42.3163 78.6668 24.5642 77.7345 8.53271 73.7432Z" fill="#767676" stroke="#191919" stroke-width="1.04889" stroke-miterlimit="10" stroke-linejoin="round"/>
<path d="M62.4744 72.3335C62.8567 72.8253 63.2556 73.3055 63.6727 73.7741C69.5754 80.4133 79.6893 83.9554 87.6795 80.0674C91.6427 78.1399 94.4958 74.7361 96.3222 70.8101C85.6161 67.026 73.8184 71.8226 62.4744 72.3335Z" fill="#767676" stroke="#191919" stroke-width="1.04889" stroke-miterlimit="10" stroke-linejoin="round"/>
<path d="M90.0668 16.1163C87.0615 10.6082 79.4181 1.70132 71.4134 2.29589C63.3303 2.89628 60.325 9.20611 59.5996 11.3092" stroke="#191919" stroke-width="1.04889" stroke-linejoin="round"/>
<path d="M2.91479 16.6875C6.67352 10.988 16.2661 1.74959 26.3765 2.29881C36.5859 2.85338 40.4211 9.33133 41.3505 11.4927" stroke="#191919" stroke-width="1.04889" stroke-linejoin="round"/>
</svg>
