<svg width="101" height="93" viewBox="0 0 101 93" fill="none" xmlns="http://www.w3.org/2000/svg">
<path d="M54.0818 49.3268C55.2274 57.5029 57.4201 65.8656 62.4642 72.3352C62.8465 72.8269 63.2454 73.3071 63.6625 73.7759C69.5653 80.4151 79.6791 83.9572 87.6694 80.0692C91.6326 78.1416 94.4855 74.7377 96.3121 70.8118C97.4813 68.2976 98.2295 65.5689 98.5789 62.8755C99.8304 53.2168 98.4835 43.2062 93.8017 34.7725C93.1683 33.631 92.4728 32.5169 91.7143 31.4377C84.8786 21.702 69.9721 14.6586 59.7235 24.0996C56.6812 26.9021 54.9803 30.5916 54.153 34.6257C53.1846 39.3449 53.4114 44.5357 54.0818 49.3268Z" fill="white" stroke="#191919" stroke-width="1.04889" stroke-miterlimit="10" stroke-linejoin="round"/>
<path d="M54.1589 34.6255L54.1599 34.6275C60.0136 32.1602 67.656 31.0838 74.0018 31.3943C80.3473 31.7047 87.5786 33.5224 93.8066 34.7725C93.1732 33.6308 92.4789 32.517 91.7204 31.4376C84.8848 21.7021 69.978 14.6585 59.7296 24.0997C56.6873 26.902 54.9864 30.5915 54.1589 34.6255Z" fill="#767676" stroke="#191919" stroke-width="1.04889" stroke-miterlimit="10" stroke-linejoin="round"/>
<path d="M77.8242 38.8485C74.4204 38.9886 71.0718 40.7976 69.1407 43.6034C64.987 49.6397 66.2716 56.7667 66.2716 56.7667C66.2716 56.7667 71.6543 56.7817 74.34 55.4712C74.27 58.5147 67.889 61.3633 67.889 61.3633C67.889 61.3633 68.1142 64.5181 68.9159 65.9189C70.9637 69.4988 73.4373 73.4103 77.4494 74.3706C95.2377 78.6302 98.0275 38.0167 77.8242 38.8485Z" fill="#191919"/>
<path d="M54 42.4997C54.3823 42.9914 52.0002 60.6455 63.6728 73.7749C69.5755 80.4141 79.6894 83.9562 87.6796 80.0682C91.6428 78.1407 103 70.5 98 45.4998C87.2939 41.7157 67.5 41.4998 54 42.4997Z" fill="#767676" stroke="#191919" stroke-width="1.04889" stroke-miterlimit="10" stroke-linejoin="round"/>
<path d="M2.96494 51.18C2.9276 59.0102 4.69036 66.9573 8.52976 73.7428C9.40069 75.2808 10.3773 76.7595 11.4645 78.163C17.3472 85.7576 26.6288 90.9157 36.2367 90.7914C45.6442 90.669 55.0138 85.0161 58.6754 76.379C58.7536 76.1954 58.8286 76.011 58.901 75.8246C61.1423 70.074 60.8572 63.6914 60.5032 57.5301C60.003 48.8128 58.8124 39.737 52.1369 33.5391C45.88 27.7303 39.9769 20.4356 31.0188 19.0951C23.0384 17.9004 14.8459 22.0613 9.91538 28.4472C8.49806 30.2825 7.32493 32.2745 6.37103 34.3737C4.00679 39.5753 2.99272 45.432 2.96494 51.18Z" fill="white" stroke="#191919" stroke-width="1.04889" stroke-miterlimit="10" stroke-linejoin="round"/>
<path d="M6.38135 34.3758L6.48555 34.4543C17.8119 33.4436 29.1374 32.4327 40.4638 31.4217C44.429 31.0678 48.7297 31.4993 52.1474 33.541C45.8904 27.7324 39.9873 20.4375 31.0292 19.097C23.0488 17.9024 14.8562 22.0634 9.9257 28.4491C8.50838 30.2846 7.33525 32.2766 6.38135 34.3758Z" fill="#767676" stroke="#191919" stroke-width="1.04889" stroke-miterlimit="10" stroke-linejoin="round"/>
<path d="M32.5706 42.036C28.5211 42.296 24.5829 44.5403 22.3606 47.9344C17.5788 55.2353 19.3025 63.6872 19.3025 63.6872C19.3025 63.6872 25.7135 63.5588 28.8747 61.9247C28.8739 65.5503 21.3528 69.1164 21.3528 69.1164C21.3528 69.1164 21.707 72.8671 22.6997 74.5132C25.2354 78.7205 28.288 83.3108 33.0906 84.3452C54.3872 88.9329 56.6049 40.4957 32.5706 42.036Z" fill="#191919"/>
<path d="M3.5 54.5002C4.37094 56.0383 1 59.5002 11.4674 78.1624C17.3501 85.7572 26.6319 90.9153 36.2396 90.7909C45.647 90.6686 67.5 85.5 59.5 46.5C34 46.5 6.5 54.5005 3.5 54.5002Z" fill="#767676" stroke="#191919" stroke-width="1.04889" stroke-miterlimit="10" stroke-linejoin="round"/>
<path d="M90.0668 16.1163C87.0615 10.6082 79.4181 1.70132 71.4134 2.29589C63.3303 2.89628 60.325 9.20611 59.5996 11.3092" stroke="#191919" stroke-width="1.04889" stroke-linejoin="round"/>
<path d="M2.91479 16.6875C6.67352 10.988 16.2661 1.74959 26.3765 2.29881C36.5859 2.85338 40.4211 9.33133 41.3505 11.4927" stroke="#191919" stroke-width="1.04889" stroke-linejoin="round"/>
</svg>
