<svg width="701" height="525" viewBox="0 0 701 525" fill="none" xmlns="http://www.w3.org/2000/svg">
<g clip-path="url(#clip0_139_1503)">
<path d="M418.63 191.832L409.781 211.955L403.898 217.905C409.37 218.918 409.915 221.847 407.715 225.81L401.792 248.505C421.134 241.557 437.247 234.887 457.633 239.663L441.785 197.601L456.687 186.497C457.481 190.989 457.975 193.837 458.668 197.848L479.579 191.088L459.426 185.764L492.714 160.565L497.499 166.748L505.417 156.977C504.542 177.809 503.99 196.005 498.372 214.632L514.04 220.028C520.85 206.682 519.934 192.753 521.779 179.42C521.741 175.242 521.694 171.088 521.667 166.566C527.634 168.151 524.582 176.687 531.427 175.725C535.282 159.506 544.94 145.258 558.578 135.669C571.248 126.484 578.163 112.779 579.592 96.808C580.599 85.2286 571.052 74.8311 575.833 62.8282L563.206 29.3148C564.541 26.9753 566.283 23.8634 567.986 20.8061C524.324 -7.54259 515.745 19.3872 500.57 59.1229C492.04 81.5221 493.75 105.453 496.431 128.2C499.112 150.947 485.048 159.081 470.498 168.736L459.188 176.231C454.66 170.73 461.145 169.505 463.231 166.722C482.519 142.885 482.151 96.1283 462.482 71.477C454.889 61.9205 448.542 51.1156 439.875 42.6824C418.6 21.9301 392.25 30.68 382.917 61.0679C420.111 65.3614 402.348 92.5569 403.849 111.696C403.899 116.387 403.604 121.076 402.965 125.724C406.071 137.41 410.06 149.004 412.059 160.828C414.024 171.288 422.836 180.265 418.63 191.832Z" fill="#FF9900" fill-opacity="0.2"/>
<path d="M159.833 349.03C135.818 322.383 116.967 290.895 80.302 277.459C44.129 264.216 39.6652 264.98 23.5085 302.85L32.5656 304.528C42.4266 335.31 53.1082 366.522 89.2756 381.763L57.1433 393.87C31.3403 391.354 31.3258 366.464 23.2193 350.353C12.7944 329.625 -2.13971 314.15 -18.8256 299.854C-32.6499 288.014 -28.2904 277.807 -18.0151 264.173C-26.9445 261.668 -35.1275 258.283 -43.6151 257.268C-57.1808 255.651 -67.5475 262.632 -70.871 275.323C-80.774 313.313 -66.2638 375.403 -23.6363 392.742C-14.6745 396.393 -5.28347 399.064 3.88306 402.198L8.00525 402.541L17.1671 396.973L25.2215 403.461C32.3429 404.771 28.9046 412.495 32.8301 415.707L44.4755 446.616C55.683 430.635 72.1501 426.546 87.842 420.295C84.9189 409.198 73.2947 407.489 67.6019 399.692C98.145 383.632 128.089 371.971 160.223 400.35C159.709 394.216 159.503 391.658 159.234 388.505C172.316 396.732 180.107 410.946 195.279 416.509L204.66 402.993C188.51 391.927 173.945 378.709 161.369 363.704L173.287 365.981C172.232 362.386 171.37 359.517 170.188 355.53L180.198 348.664L187.862 343.042C178.086 342.792 170.615 353.433 159.833 349.03Z" fill="#FF9900" fill-opacity="0.2"/>
<path d="M-98.8724 453.75C-102.771 454.001 -103.819 450.742 -102.477 448.74C-85.3352 422.916 -91.9503 394.285 -91.9171 366.343C-91.9129 360.631 -88.6922 354.926 -86.6972 348.405C-108.891 351.337 -128.221 354.767 -136.426 380.677C-145.625 410.096 -177.198 426.124 -185.624 456.749C-188.381 466.652 -192.829 476.094 -197.189 487.519C-216.554 487.888 -233.952 509.535 -260.738 496.09C-232.165 464.522 -252.88 426.869 -241.953 392.287C-255.475 392.111 -274.879 394.392 -279.626 406.062C-293.131 439.1 -322.581 460.817 -336.118 493.028C-342.043 507.239 -347.273 521.707 -353.092 537.155C-402.747 551.871 -453.479 566.753 -504.155 581.833C-508.487 583.37 -512.726 585.161 -516.848 587.195C-514.605 594.156 -510.063 591.266 -505.675 589.932C-449.57 573.046 -393.446 556.212 -336.731 539.196C-332.38 565.686 -347.014 591.383 -335.406 616.416C-334.608 618.112 -329.894 617.853 -326.582 618.642C-315.321 588.126 -334.147 547.007 -296.478 528.402C-266.484 513.587 -233.773 504.077 -203.371 492.623L-194.699 501.334L-183.31 493.41C-177.045 520.636 -195.909 548.565 -179.19 574.288C-178.267 575.677 -174.208 575.006 -171.726 575.289C-163.665 546.558 -176.137 514.145 -151.809 490.385C-145.212 480.872 -134.225 478.769 -124.616 474.39C-122.511 472.494 -120.3 470.721 -117.992 469.079C-115.615 467.707 -113.157 466.481 -110.631 465.407L-94.6682 470.313C-95.2678 465.808 -95.6347 463.191 -95.9777 460.585C-96.858 458.302 -97.839 456.016 -98.8724 453.75Z" fill="#FF9900" fill-opacity="0.2"/>
<path d="M575.808 62.7574C571.027 74.7603 580.574 85.1578 579.567 96.7372C633.395 53.1252 687.263 9.47813 741.171 -34.204C759.829 -49.3792 778.189 -64.9213 796.587 -80.4175C799.439 -82.8096 802.137 -85.6629 799.583 -89.9512L790.213 -86.4206C768.56 -67.3224 747.44 -47.6063 725.155 -29.2878C682.211 5.9977 638.586 40.4818 595.252 75.3152C590.9 78.8117 586.692 82.5332 580.794 87.3309C578.956 78.3208 577.379 70.5304 575.808 62.7574Z" fill="#FF9900" fill-opacity="0.2"/>
<path d="M159.833 349.03C170.615 353.433 178.086 342.792 187.773 343.015L180.109 348.638C227.209 330.053 270.98 305.017 314.085 278.795C343.13 261.143 371.758 242.811 400.628 224.906C402.856 223.508 405.894 221.504 407.716 225.809C409.916 221.846 409.371 218.917 403.899 217.904L409.783 211.954C377.946 231.416 346.267 251.137 314.246 270.269C290.061 284.712 265.76 299.058 240.926 312.308C218.421 324.321 195.175 334.896 172.126 345.836C168.357 347.596 163.938 348.003 159.833 349.03Z" fill="#FF9900" fill-opacity="0.2"/>
<path d="M-98.8724 453.75C-97.9964 456.075 -96.928 458.328 -95.9405 460.631C-56.0811 445.613 -16.2043 430.589 23.7187 415.687C26.341 414.699 29.7076 415.686 32.6968 415.778C28.7713 412.565 32.1834 404.771 25.0883 403.532C23.5833 411.565 16.2762 408.968 11.3434 411.825L7.87219 402.612L3.75 402.268L2.21613 415.683L-98.8724 453.75Z" fill="#FF9900" fill-opacity="0.2"/>
<path d="M-124.515 474.392C-134.142 478.777 -145.111 480.874 -151.708 490.387C-141.689 486.672 -131.813 482.891 -124.515 474.392Z" fill="#FF9900" fill-opacity="0.2"/>
<path d="M531.401 175.655C524.556 176.617 527.608 168.08 521.641 166.495C521.668 171.017 521.716 175.172 521.753 179.35L528.076 180.821C530.086 179.903 532.681 179.106 531.401 175.655Z" fill="#FF9900" fill-opacity="0.2"/>
<path d="M418.632 191.831C422.838 180.264 414.025 171.287 412.251 160.855C410.232 148.979 406.263 137.438 403.158 125.751C402.617 149.113 412.242 170.102 418.632 191.831Z" fill="#FF9900" fill-opacity="0.2"/>
</g>
<defs>
<clipPath id="clip0_139_1503">
<rect width="701" height="525" fill="white"/>
</clipPath>
</defs>
</svg>
