<svg width="1720" height="249" fill="none" xmlns="http://www.w3.org/2000/svg"><path d="m152.173 100.848-14.727 45.333h33.708l-14.399-45.004-2.292-11.169-2.29 10.84Zm49.742 141.911-9.49-29.565H115.52l-9.49 29.565H0L94.249 6.241h121.738l91.631 236.518H201.915ZM759.202 242.759H309.938V6.241h444.683c86.067 0 117.483 20.696 117.483 64.386 0 28.25-18.326 42.704-49.742 49.274 39.27 6.898 56.941 22.338 56.941 54.202 0 48.617-43.851 68.656-120.101 68.656ZM743.821 77.197H412.696v22.337h331.125c15.708 0 19.635-5.584 19.635-11.497.328-5.584-4.254-10.84-19.635-10.84Zm-1.637 68.984H412.696v23.324h329.488c20.29 0 24.872-4.928 24.872-12.155 0-6.898-5.236-11.169-24.872-11.169ZM1031.82 249c-90.323 0-143.01-39.748-143.01-123.843C888.81 46.975 946.406 0 1033.78 0c84.43 0 141.05 46.975 141.05 125.157 0 84.095-54.32 123.843-143.01 123.843Zm0-89.022c22.25 0 36.65-12.483 36.65-34.821 0-21.352-14.4-35.477-36.65-35.477s-36.653 14.125-36.653 35.477c0 22.338 14.403 34.821 36.653 34.821ZM1324.43 249c-97.86 0-131.89-39.748-131.89-127.456V6.241h106.36v115.303c0 25.294 8.5 34.491 26.17 34.491 16.69 0 25.53-9.197 25.53-34.491V6.241h106.35v115.303c0 89.679-46.46 127.456-132.52 127.456ZM1720 97.235h-69.37v145.524H1545.9V97.235h-68.07V6.24H1720v90.994Z" fill="#fff"/></svg>