<svg width="948" height="654" fill="none" xmlns="http://www.w3.org/2000/svg"><path d="m382.823 227.009 8.848 20.124 5.884 5.95c-5.472 1.012-6.017 3.942-3.817 7.905l5.923 22.695c-19.342-6.949-35.455-13.619-55.842-8.842l15.848-42.062-14.901-11.105a2637.45 2637.45 0 0 0-1.982 11.352l-20.91-6.761 20.153-5.323-33.288-25.199-4.785 6.182-7.918-9.771c.875 20.833 1.426 39.028 7.045 57.655l-15.668 5.397c-6.81-13.347-5.894-27.276-7.739-40.608.037-4.178.085-8.333.112-12.855-5.967 1.585-2.915 10.122-9.76 9.16a68.258 68.258 0 0 0-27.151-40.056c-12.67-9.186-19.585-22.891-21.014-38.862-1.008-11.579 8.54-21.976 3.759-33.98l12.627-33.513c-1.335-2.34-3.077-5.451-4.78-8.508 43.661-28.35 52.241-1.42 67.415 38.316 8.53 22.4 6.821 46.331 4.139 69.078-2.681 22.747 11.384 30.881 25.934 40.535l11.31 7.496c4.528-5.501-1.958-6.727-4.044-9.509-19.287-23.837-18.92-70.594.749-95.245 7.594-9.557 13.941-20.362 22.608-28.795 21.275-20.752 47.625-12.002 56.958 18.385-37.194 4.294-19.431 31.489-20.932 50.628-.05 4.692.245 9.38.883 14.028-3.105 11.687-7.094 23.28-9.093 35.104-1.965 10.46-10.777 19.437-6.571 31.004ZM641.62 384.208c24.014-26.647 42.865-58.135 79.531-71.571 36.173-13.242 40.637-12.479 56.793 25.391l-9.057 1.678c-9.861 30.783-20.542 61.994-56.71 77.235l32.132 12.107c25.803-2.516 25.818-27.406 33.924-43.517 10.425-20.727 25.36-36.203 42.045-50.499 13.825-11.84 9.465-22.047-.81-35.681 8.929-2.505 17.112-5.89 25.6-6.905 13.566-1.616 23.932 5.364 27.256 18.055 9.903 37.99-4.607 100.081-47.235 117.419-8.962 3.651-18.353 6.322-27.519 9.456l-4.122.344-9.162-5.568-8.055 6.488c-7.121 1.309-3.683 9.033-7.608 12.246l-11.646 30.908c-11.207-15.981-27.674-20.069-43.366-26.321 2.923-11.097 14.547-12.806 20.24-20.603-30.543-16.06-60.488-27.721-92.621.659.514-6.135.719-8.693.989-11.846-13.082 8.228-20.873 22.441-36.045 28.004l-9.382-13.516a215.17 215.17 0 0 0 43.292-39.289l-11.918 2.278c1.055-3.596 1.916-6.465 3.099-10.452l-10.01-6.866-7.664-5.622c9.776-.25 17.247 10.391 28.029 5.988ZM900.326 488.928c3.898.251 4.946-3.008 3.604-5.01-17.142-25.824-10.527-54.455-10.56-82.397-.004-5.712-3.225-11.417-5.22-17.938 22.194 2.931 41.524 6.362 49.729 32.272 9.199 29.419 40.772 45.447 49.198 76.072 2.757 9.903 7.205 19.345 11.565 30.77 19.368.369 36.768 22.016 63.548 8.571-28.57-31.568-7.86-69.221-18.78-103.803 13.52-.176 32.92 2.105 37.67 13.775 13.5 33.038 42.95 54.755 56.49 86.966 5.93 14.211 11.16 28.679 16.97 44.127 49.66 14.716 100.39 29.598 151.07 44.678 4.33 1.537 8.57 3.327 12.69 5.362-2.24 6.96-6.78 4.071-11.17 2.737-56.11-16.886-112.23-33.72-168.95-50.736-4.35 26.49 10.29 52.187-1.32 77.22-.8 1.696-5.51 1.437-8.82 2.226-11.27-30.516 7.56-71.636-30.11-90.24-29.99-14.815-62.7-24.325-93.11-35.779l-8.668 8.711-11.389-7.924c-6.265 27.226 12.599 55.155-4.12 80.878-.923 1.389-4.982.718-7.464 1.001-8.061-28.731 4.411-61.144-19.917-84.904-6.597-9.513-17.584-11.616-27.193-15.995a73.958 73.958 0 0 0-6.624-5.311 67.582 67.582 0 0 0-7.361-3.672l-15.963 4.906c.6-4.505.967-7.122 1.31-9.728.88-2.284 1.861-4.569 2.895-6.835Z" fill="#FF9900" fill-opacity=".2"/><path d="M225.645 97.935c4.781 12.003-4.766 22.401-3.759 33.98C168.058 88.303 114.19 44.656 60.282.974 41.624-14.201 23.264-29.743 4.866-45.239c-2.852-2.393-5.55-5.246-2.996-9.534l9.37 3.53C32.892-32.144 54.012-12.428 76.298 5.89 119.24 41.176 162.867 75.66 206.2 110.493c4.353 3.497 8.56 7.218 14.459 12.016 1.837-9.01 3.415-16.801 4.986-24.574ZM641.62 384.208c-10.782 4.403-18.253-6.238-27.94-6.015l7.664 5.622c-47.1-18.584-90.871-43.62-133.976-69.843-29.045-17.651-57.673-35.984-86.543-53.888-2.228-1.399-5.266-3.402-7.088.903-2.2-3.963-1.655-6.893 3.817-7.905l-5.883-5.95c31.836 19.461 63.515 39.183 95.536 58.315 24.185 14.442 48.486 28.789 73.32 42.039 22.505 12.012 45.751 22.588 68.8 33.528 3.769 1.759 8.188 2.167 12.293 3.194ZM900.326 488.928c-.876 2.325-1.945 4.578-2.933 6.881-39.859-15.018-79.736-30.042-119.659-44.944-2.622-.988-5.989-.001-8.978.091 3.926-3.213.514-11.007 7.609-12.246 1.505 8.033 8.812 5.436 13.744 8.293l3.472-9.213 4.122-.344 1.534 13.415 101.089 38.067ZM925.968 509.569c9.627 4.386 20.596 6.483 27.193 15.996-10.02-3.715-19.895-7.496-27.193-15.996ZM270.052 210.833c6.845.962 3.793-7.575 9.76-9.16-.027 4.522-.075 8.677-.112 12.855l-6.323 1.47c-2.011-.917-4.605-1.714-3.325-5.165ZM382.822 227.009c-4.207-11.567 4.606-20.545 6.38-30.976 2.019-11.876 5.988-23.417 9.094-35.104.541 23.362-9.084 44.351-15.474 66.08Z" fill="#FF9900" fill-opacity=".2"/></svg>