<svg xmlns="http://www.w3.org/2000/svg" width="34" height="32" fill="none"><path d="M7.394 8.484A1.988 1.988 0 0 0 9.39 6.505a1.988 1.988 0 0 0-1.996-1.979 1.988 1.988 0 0 0-1.997 1.98c0 1.092.894 1.978 1.997 1.978Z" fill="#191919"/><path d="M8.54 0c.038.01.077.018.116.023A7.867 7.867 0 0 1 12.45 1.22c1.971 1.235 3.204 2.992 3.702 5.25.086.398.138.802.153 1.208.003.06.01.122.016.194h13.281c.208 5.092-3.353 11.21-10.16 12.77-2.63.603-5.22.4-7.732-.588-2.511-.989-4.52-2.6-6.03-4.817-1.51-2.217-2.24-4.681-2.234-7.37H.004c0-.14-.009-.263 0-.386a8.052 8.052 0 0 1 2.035-4.757 8.179 8.179 0 0 1 5.612-2.7c.044-.005.088-.012.131-.023h.757ZM8.2 3.386c-1.373-.01-2.52 1.101-2.53 2.457a2.51 2.51 0 0 0 3.45 2.361 2.525 2.525 0 0 0 1.378-1.34 2.479 2.479 0 0 0-.521-2.73 2.523 2.523 0 0 0-1.777-.748Z" fill="#666"/><path d="M31.073 8.363a2.485 2.485 0 0 0 2.496-2.474 2.485 2.485 0 0 0-2.496-2.474 2.485 2.485 0 0 0-2.497 2.474 2.485 2.485 0 0 0 2.497 2.474Z" fill="#191919"/><path fill-rule="evenodd" clip-rule="evenodd" d="m21.884 19.651-2.226.849v6.682c-.203.035-.927-.005-1.653-.046-.534-.03-1.07-.059-1.4-.059C14.656 27.077 13 29.5 13 29.5l8.884-1.109v-8.74Zm-9.377.733L10.28 19v8.183c-.203.035-.926-.005-1.653-.046-.533-.03-1.069-.059-1.4-.059-1.948 0-3.528 1.314-3.528 1.314h8.807v-8.008Z" fill="#666"/><path d="M12.507 28.392H3.7v.525l1.8.583L6 31l3-1.5h2.5l1-.5.007-.608ZM21.884 28.391 13 29.5l.078 2.5L15 31.5l3.5-2.5 3.384 1v-1.609Z" fill="#666"/></svg>