<svg width="35" height="22" fill="none" xmlns="http://www.w3.org/2000/svg"><path d="M8.38 9.362a1.988 1.988 0 0 0 1.997-1.98 1.988 1.988 0 0 0-1.996-1.978 1.988 1.988 0 0 0-1.997 1.979c0 1.093.894 1.979 1.997 1.979Z" fill="#191919"/><path d="M9.526.878c.039.01.078.018.117.023a7.866 7.866 0 0 1 3.794 1.196c1.971 1.235 3.204 2.991 3.702 5.25.087.397.138.801.153 1.207.003.06.01.123.016.195H30.59c.208 5.092-3.353 11.21-10.16 12.77-2.63.603-5.22.4-7.732-.588-2.511-.989-4.52-2.6-6.03-4.818-1.51-2.217-2.24-4.68-2.234-7.37H.991c0-.139-.009-.262 0-.385A8.052 8.052 0 0 1 3.027 3.6 8.179 8.179 0 0 1 8.637.9c.045-.004.089-.012.132-.022h.757Zm-.338 3.386c-1.373-.01-2.52 1.101-2.53 2.457a2.51 2.51 0 0 0 3.45 2.361 2.523 2.523 0 0 0 1.378-1.34 2.481 2.481 0 0 0-.521-2.73 2.523 2.523 0 0 0-1.777-.748Z" fill="#666"/><path d="M32.06 9.24a2.485 2.485 0 0 0 2.496-2.473 2.485 2.485 0 0 0-2.496-2.474 2.485 2.485 0 0 0-2.497 2.474A2.485 2.485 0 0 0 32.06 9.24Z" fill="#191919"/><path fill-rule="evenodd" clip-rule="evenodd" d="m22.87 20.53-2.225.848-7.976-4.35c-.203.034-.927-.006-1.653-.046-.534-.03 6.57-1.165 6.238-1.165-1.947 0-.767.768-.767.768l-1.593 1.652 7.976 2.292Zm-9.376.731-2.226-1.383 1.548-.246c-.203.035 2.453-3.032 1.726-3.072-.533-.03-1.069-.06-1.4-.06-1.948 0-3.528 1.315-3.528 1.315l3.011 1.136.231-1.136.638 3.446Z" fill="#666"/><path d="m12.856 17.815-.23 1.136-3.012-1.136h4.223H10.4 12.856ZM14.894 18.237l1.593-1.652.078 2.5 1.922-.5 1.13-2.013-4.723 3.273v-1.608Z" fill="#666"/></svg>