<svg width="1920" height="1080" fill="none" xmlns="http://www.w3.org/2000/svg"><g filter="url(#a)"><path fill="#F3F3F3" d="M0 0h1920v1080H0z"/><path d="M1222.48 552c.77 2.315.2 4.159-.25 6.488-2.69 15.301 1.18 30.527 9.97 43.308 1.88 2.633 3.82 5.167 5.94 7.616.25.286.49.572.75.867 8.14 9.336 17.8 17.2 28.83 22.91-.28-.247-.55-.495-.84-.75-6.43-6.081-13.12-15.202-13.75-24.321-.03-1.311-.01-2.615.01-3.925.01-.449.02-.899.02-1.362.01-1.092.04-2.185.06-3.277h1.16c.15.351.29.702.45 1.064 5.15 11.276 16.11 17.013 26.37 22.944 8.68 5.048 16.86 10.258 24.21 17.166.41.355.81.71 1.23 1.076 5.65 5.161 9.96 13.285 10.44 20.965.36 10.261.36 10.261-1.81 15.074-.38.86-.38.86-.78 1.737-3.41 6.944-8.9 14.538-16.04 17.98h-2.32c-.12-.682-.24-1.363-.36-2.066-.7-2.779-2.08-4.798-4.28-6.633-1.37-.863-1.37-.863-2.9-1.159-1.25.628-1.25.628-2.35 1.739-7.36 6.174-15.51 7.592-24.9 6.959-7.59-.849-14.62-3.083-20.88-7.539v-1.159l2.08-.238c4.92-.628 9.49-1.446 14.05-3.459l1.12-.492c2.68-1.259 5.74-2.936 7.11-5.67-.36-.098-.71-.196-1.07-.297-3.62-1.041-7.05-2.325-10.5-3.835-.52-.228-1.05-.456-1.59-.691-1.61-.706-3.22-1.419-4.82-2.136l-1.48-.659c-25.32-11.414-50.43-29.69-61.15-56.173-1.23-3.344-1.29-6.344-1.16-9.859 1.7 1.619 3.05 3.285 4.38 5.219 14.95 20.787 38.82 33.055 63.52 37.91 1.79.288 3.37.454 5.17.365-.58-.422-1.15-.843-1.75-1.278-17.8-13.134-33.74-28.983-38.27-51.495-.12-.561-.24-1.121-.36-1.699-2.6-14.107-.2-28.67 6.74-41.215Z" fill="#273F4D"/><path d="m1319.91 587.375 1 .72c.45.313.89.625 1.36.947.65.465.65.465 1.32.938 3.82 2.17 7.91 2.316 12.19 2.614 10.6.745 10.6.745 13.71 3.009 1.16 1.631 1.16 1.631 1.45 3.697.08 2.082.08 2.082 1.7 3.262.49.347.98.693 1.48 1.051 1.54 2.051 1.5 4.493 1.16 6.959-.87 1.74-.87 1.74-1.74 2.899l-.94-1.341c-2.02-2.287-3.79-3.16-6.81-3.552-2.57.311-4.59 1.136-6.74 2.574-1.38 2.754-.24 6.233.66 9.006.85 2.31 1.78 4.59 2.71 6.869l1.86 4.653c.15.375.3.749.45 1.135 5.16 13.01 7.66 25.771 2.11 39.147-5.42 11.784-15.84 19.506-26.96 25.504-13.04 7.042-19.95 20.225-24.18 34.117-.24.837-.49 1.674-.73 2.512-.29 1.001-.29 1.001-.6 2.023-3.59 14.488-1.51 30.44 5.75 43.41 1.61 2.585 3.37 4.976 5.29 7.34-8.31-2.751-14.74-11.772-18.52-19.283-2.97-6.292-4.2-11.682-4.17-18.629v-1.595c0-3.122.2-6.118.65-9.207-10.55 26.151-7.49 54.254 2.9 80.03a152.11 152.11 0 0 0 2.9 6.123c.19.467.39.934.58 1.416-.19.382-.38.765-.58 1.159-8.12-12.034-14.29-24.798-17.97-38.854-.13-.479-.26-.958-.39-1.451-5.36-20.429-6.66-43.306 3.87-62.341-.68-.064-.68-.064-1.35.689-6.49 6.972-9.87 16.044-13.15 24.828h-.58c-.98-12.804 5.49-25.732 13.63-35.267 1.93-2.223 3.92-4.388 5.9-6.56 4.72-5.209 8.03-9.647 8.88-16.745 2.07 1.116 3.4 2.059 4.64 4.059.3 1.495.3 1.495.4 3.045l.12 1.568.06 1.187c8.2-1.147 14.57-5.596 19.61-12.106 2.13-2.993 3.9-5.969 5.33-9.352.23-.488.45-.976.69-1.479 3.01-7.382 2.66-17.199-.11-24.617-.77-1.704-1.53-3.395-2.38-5.058-.62-2.266-.4-3.911-.13-6.222.24-2.591.28-5.165.31-7.765l.03-1.571c.03-2.166.06-4.332.08-6.498.15-14.964.15-14.964 4.08-21.273.34-.55.67-1.099 1.02-1.665 1.05-1.558 2.17-3.012 3.37-4.461-.23-.281-.46-.562-.7-.851-2.65-3.355-4.52-6.337-4.52-10.747Z" fill="#273F4D"/><path d="M1391.24 561.278c5.07 4.714 8.13 11.528 10.44 17.978.18.492.37.984.56 1.49 3.08 9.796 1.61 20.898-1.72 30.406-.36 1.048-.36 1.048-.72 2.118-3.26 8.426-8.89 15.81-14.84 22.526-1.31 1.448-1.31 1.448-2.42 3.192 11.63-4.446 22.16-10.066 31.26-18.682 1.22-1.036 1.22-1.036 2.96-1.615.4-.765.78-1.541 1.16-2.32.79-.955 1.6-1.896 2.42-2.827 4.41-5.317 7.03-11.532 9.17-18.05 2.65 2.227 2.96 5.424 3.48 8.698 1.01 12.263-2.72 22.316-10.53 31.654-11.05 12.687-26.63 21.526-42.24 27.498 1.31 2.073 2.29 2.794 4.64 3.48 1.9.136 3.79.109 5.69.072l1.55-.015c1.26-.014 2.52-.035 3.78-.057-7.54 6.334-18.06 9.544-27.84 8.699-2.21-.598-4.27-1.408-6.38-2.32-.57-.191-1.14-.383-1.74-.58-.19.288-.39.576-.59.872-2.82 3.941-6.04 7.993-11 8.987-.97.013-1.94.014-2.9 0 .14-.33.29-.659.44-.998 1.42-3.218 2.8-6.448 4.15-9.694.49-1.153.98-2.3 1.49-3.444 3.68-9.628 2.12-21.661-1.44-31.098-.36-.621-.36-.621-.72-1.255-.64-1.526-.36-2.407.14-3.964 3.58-6.081 9.58-10.438 15.18-14.535 5.03-3.698 9.12-7.133 10.91-13.302h.58c.45 8.254-1.17 14.606-5.8 21.458-.38.574-.76 1.148-1.16 1.739 11.59-7.996 20.6-16.937 26.1-30.156.2-.474.41-.947.62-1.436 3.1-8.379 2.36-18.284-1.13-26.424-.86-1.826-1.78-3.598-2.74-5.372-.81-1.563-.81-1.563-.81-2.723Z" fill="#273F4D"/><path d="M1253.8 600.134c1.2 1.561 2.28 3.157 3.33 4.82 5.34 7.955 13.8 12.766 21.97 17.398 9.66 5.481 19 11.066 26.89 18.956l1.15 1.011c5.46 4.871 9.48 13.188 9.94 20.451.36 10.26.36 10.26-1.81 15.073-.39.86-.39.86-.78 1.738-3.32 6.745-8.92 14.873-16.04 17.98-1.32-.198-1.32-.198-2.32-.58l1.09-.145c1.3-.307 1.3-.307 1.77-1.414.21-.442.41-.885.62-1.341.5-.538 1.01-1.076 1.52-1.631 1.51-1.726 1.51-1.726 1.71-3.733-.86-5.688-3.68-10.454-7.87-14.353-2.54-1.38-4.71-1.297-7.54-1.16l-1.74.58c-16.37 1.428-33.19-3.03-45.93-13.606-.51-.442-.51-.442-1.04-.892.29-.574.29-.574.58-1.16.62.224 1.25.448 1.89.679 11.95 4.185 27.49 8.975 39.86 3.96.58-.382 1.15-.765 1.74-1.16l-.85-.512c-5.49-3.288-10.89-6.59-15.96-10.506-.51-.381-1.02-.761-1.54-1.153-3.1-2.395-6.04-4.905-8.32-8.126v-1.16c1.49.738 2.96 1.511 4.41 2.334 5.22 2.904 10.04 5.018 15.88 6.365l1.96.501c3.57.888 7.04 1.47 10.72 1.697 1.24.122 1.24.122 2.4.702v-1.16c-.96-.383-1.91-.766-2.9-1.16v-1.16c-.3-.121-.61-.242-.92-.367-1.98-1.124-3.49-2.638-5.13-4.2-.65-.615-1.3-1.23-1.96-1.844l-.94-.887c-.83-.75-1.71-1.444-2.59-2.13-.6-.5-.6-.5-1.22-1.01v-1.16c-.57-.192-1.14-.383-1.74-.58-.89-.99-.89-.99-1.77-2.211-.3-.399-.59-.797-.89-1.207-1.24-1.855-1.98-3.021-1.98-5.281h1.16c.29.467.58.933.87 1.414 4.42 6.923 12.58 10.522 19.5 14.389 5.5 3.082 10.87 6.308 16.17 9.714-1.38-7.308-8.41-13.171-14.14-17.242l-1.06-.755c-3.95-2.771-8.08-5.224-12.24-7.665-13.47-7.947-13.47-7.947-16.82-12.038-.94-1.116-1.94-2.083-3-3.076-2.83-2.797-5.97-6.376-6.2-10.455.05-.763.05-.763.11-1.542ZM1342.42 603.468l2.11-.045c2.79.259 4.66 1.27 6.88 2.945 1.3 1.736 1.39 3.231 1.55 5.364l-1-.634c-2.84-1.711-4.87-2.823-8.27-2.266-3.13 1.12-3.13 1.12-5.22 3.48-.24 5.234 2.02 9.98 3.95 14.715l1.86 4.653c.22.562.22.562.45 1.136 5.33 13.427 7.35 25.713 1.98 39.506-.71 1.462-.71 1.462-1.87 2.042.03-.702.05-1.403.07-2.125.28-14.266-4.33-27.507-11.48-39.739-3.44-5.929-6.24-12.462-4.43-19.386.41-1.254.85-2.48 1.35-3.702h1.16c.1-.323.21-.646.32-.978 2.42-3.881 6.25-4.91 10.59-4.966Z" fill="#fff" fill-opacity=".47"/><path d="M1364.56 625.649h1.16c.38 5.993-1.63 9.816-5.22 14.498 5 .178 9.24.23 13.92-1.739-.09 3.671-2.13 5.682-4.64 8.119-2.11 1.739-2.11 1.739-3.48 1.739v1.16l.94.435c1.38.725 1.38.725 2.8 1.812 2.82 1.954 6.33 2.641 9.6 3.552-1.58 1.576-3.25 1.717-5.36 2.103l-1.25.23c-9.74 1.672-9.74 1.672-13.11-.013-.12.653-.12.653-.26 1.318-1.38 6.315-4.22 11.651-9.02 16.08h-1.16c.28-1.663.66-3.106 1.28-4.683 1.95-5.157 2.47-9.805 2.46-15.325 0-.643-.01-1.286-.01-1.949-.06-3.511-.44-6.567-1.41-9.939-.07-2.198.11-3.466 1.5-5.201 2.31-2.361 4.84-4.475 7.34-6.631 1.85-1.678 3.13-3.196 3.92-5.566Z" fill="#fff" fill-opacity=".47"/><path d="M1317.01 615.792h.58c.04.555.08 1.111.13 1.683.88 9.579 4.5 17.563 8.54 26.212 6.33 13.662 6.33 13.662 6.41 20.238.02.533.05 1.065.08 1.613.42 12.533-6.55 22.985-14.58 32.023-.39-.192-.77-.383-1.16-.58.2-.247.39-.495.6-.75 6.52-8.413 11.81-17.576 11.72-28.427.01-.514.01-1.028.01-1.558-.01-5.447-1.06-10.272-3.13-15.296-.17-.437-.34-.874-.52-1.324-.57-1.421-1.15-2.84-1.72-4.258l-1.89-4.7c-.4-1-.8-2-1.21-2.998-.98-2.439-1.91-4.873-2.7-7.38-.19 1.914-.39 3.828-.58 5.799h-.58v-20.297ZM1292.07 703.939h.58c-.65 7.53-5.04 13.622-8.93 19.866-11.56 18.531-12.98 34.282-9.05 55.524l.66 3.62c.17.92.34 1.84.5 2.759-1.72-2.156-2.47-4.284-3.18-6.922-.13-.456-.25-.912-.38-1.382-4.1-15.812-4.68-32.281 3.74-46.833 2.19-3.64 4.56-7.098 7.15-10.466 3.76-4.9 7.02-10.255 8.91-16.166ZM1218.42 576.937h.58c.13.716.26 1.432.39 2.17 4.33 23.527 15.71 41.845 35.46 55.552a58.855 58.855 0 0 0 7.65 4.329c-1.74.58-1.74.58-2.98.108-.71-.381-.71-.381-1.44-.769-.53-.283-1.06-.566-1.6-.858l-1.7-.946c-.87-.475-.87-.475-1.75-.961-4.78-2.701-9.05-5.687-13.15-9.332-.77-.684-.77-.684-1.56-1.382-11.75-11.111-19.37-27.638-19.96-43.859-.01-1.354.01-2.7.06-4.052ZM1191.75 622.171c2.07 1.732 4.07 3.458 5.94 5.4 12.31 12.444 29.29 22.31 46.25 26.496 1.1.312 2.2.626 3.3.942 3.12.85 6.27 1.433 9.46 1.957v.58c-4.38.321-8.48-.163-12.76-1.015l-1.42-.276c-19.75-4.127-38.86-16.631-50.77-32.924v-1.16Z" fill="#fff"/><path d="M1318.17 616.951c1.03 1.551 1.84 3.103 2.64 4.779 2.82 5.836 6.18 11.149 9.83 16.492 6.42 9.432 11.94 18.569 11.3 30.342-.02.492-.05.984-.07 1.491-.45 4.136-1.9 7.611-3.66 11.34-.34.733-.34.733-.69 1.48-1.72 3.514-1.72 3.514-3.69 4.827.98-3.067 2.17-6.031 3.4-9.002 2.84-6.956 2.87-15.889.08-22.894-2.96-6.446-6.49-12.485-10.44-18.362-3.72-5.635-8.7-13.592-8.7-20.493ZM1428.93 608.253h.58c-.54 10.732-7.19 20.45-14.92 27.553a119.958 119.958 0 0 1-4.79 3.763c-.45.35-.9.699-1.37 1.06-8.28 6.159-18.24 9.897-28.21 12.278.74-1.471 1.24-1.532 2.74-2.125.45-.182.9-.363 1.37-.55l1.47-.587c10.81-4.446 20.16-10.075 28.64-18.195.5-.479 1-.957 1.52-1.45.45-.478.91-.957 1.38-1.45.34-.346.68-.692 1.04-1.049 5.24-5.527 8.52-11.945 10.55-19.248ZM1399.36 589.694h.58c.63 2.569.68 5.09.69 7.721 0 .418.01.836.02 1.267.03 10.423-5.56 19.578-12.56 26.895-4.26 4.034-9.04 7.259-14.25 9.931v-1.16c1.04-.775 2.08-1.547 3.13-2.313 9.73-7.51 19.06-18.236 21.23-30.742.49-3.856.84-7.725 1.16-11.599ZM1256.12 609.412c.36.371.71.742 1.08 1.124.61.592 1.21 1.184 1.82 1.776.35.359.69.719 1.05 1.089 5.87 5.711 13.28 9.505 20.27 13.658.54.317 1.07.635 1.62.962 1.02.608 2.05 1.213 3.08 1.815.46.271.91.543 1.39.823.4.237.81.474 1.23.719.93.651.93.651 1.51 1.811-11.57-1.35-24.34-11.477-31.39-20.261-1.66-2.178-1.66-2.178-1.66-3.516ZM1282.21 681.902c.39.192.77.383 1.16.58-5.02 5.82-10.92 8.635-18.55 9.279-4.59.318-10.01.29-13.92-2.32l1-.016c16.28-.167 16.28-.167 30.31-7.523ZM1373.84 613.472c.29.574.29.574.58 1.16-3.12 4.499-6.41 7.409-10.98 10.402-6.54 4.273-6.54 4.273-9.9 11.055h-.58c-.33-4.892-.33-4.892 1.46-7.184 3.75-4.055 7.88-7.087 12.63-9.851 2.67-1.578 4.68-3.313 6.79-5.582ZM1364.56 663.345l1.27.978c6.67 4.336 14.21 5.102 21.93 5.981-1.63 1.633-2.86 1.342-5.09 1.38-5.95-.011-10.59-.281-15.5-3.954-1.41-1.451-2.06-2.453-2.61-4.385ZM1336.73 594.914c4.02.168 7.52.791 11.02 2.9.19.382.38.765.57 1.16-5.82.367-5.82.367-8.08-1.124-.39-.395-.79-.79-1.19-1.196-1.27-.452-1.27-.452-2.32-.58v-1.16Z" fill="#fff"/><path d="M1678.52 843.435c-1.07 1.373-1.13 2.749-1.38 4.425-1.85 10.937-8.1 20.252-17.08 26.745-1.9 1.321-3.8 2.561-5.82 3.702-.23.133-.47.266-.71.403-7.71 4.331-16.09 7.309-24.87 8.51.24-.1.48-.201.74-.305 5.78-2.551 12.46-7.085 15.07-13.067.33-.876.64-1.756.93-2.645.1-.303.21-.607.32-.919.25-.739.5-1.479.74-2.219-.26-.091-.51-.183-.78-.277-.18.2-.37.401-.56.608-6.16 6.351-14.9 7.588-23.23 9.121-7.05 1.317-13.8 2.863-20.39 5.751l-1.09.429c-5.03 2.12-9.88 6.553-12.04 11.603-2.7 6.816-2.7 6.816-2.39 10.574l.1 1.354c.64 5.489 2.51 11.91 6.49 15.936.52.183 1.03.366 1.56.555.25-.43.49-.86.74-1.303 1.13-1.703 2.55-2.729 4.46-3.438 1.14-.251 1.14-.251 2.23-.086.69.722.69.722 1.17 1.734 3.47 5.914 8.61 8.82 15.09 10.643 5.3 1.244 10.56 1.425 15.84-.074.1-.257.19-.515.28-.78-.44-.217-.89-.435-1.34-.659-3.16-1.6-6.04-3.244-8.62-5.689-.21-.198-.42-.396-.64-.599-1.5-1.488-3.16-3.349-3.42-5.516l.79.056c2.68.166 5.29.123 7.97-.067l1.24-.084c1.25-.089 2.5-.184 3.76-.282l1.15-.09c19.76-1.617 41.03-7.899 54.58-23.146 1.63-1.954 2.39-3.959 3.14-6.354-1.53.681-2.84 1.479-4.2 2.461-15.03 10.404-34.02 12.942-51.8 10.295-1.27-.235-2.37-.501-3.56-.991.49-.146.97-.292 1.48-.442 15.12-4.574 29.63-11.42 38.07-25.478.21-.349.43-.698.65-1.057 5.13-8.867 6.99-19.238 5.33-29.338Z" fill="#0E1E27"/><path d="m1604.52 843.906-.85.246c-.37.103-.75.206-1.14.312l-1.11.313c-3.09.546-5.88-.336-8.83-1.16-7.31-2.036-7.31-2.036-9.94-1.257-1.17.82-1.17.82-1.86 2.14-.56 1.38-.56 1.38-1.93 1.787l-1.25.351c-1.52 1.011-2.08 2.664-2.44 4.403.16 1.379.16 1.379.47 2.368.32-.224.63-.447.96-.677 1.9-1.055 3.31-1.218 5.43-.758 1.66.824 2.82 1.862 3.92 3.345.27 2.182-1.33 4.249-2.6 5.899-1.13 1.35-2.3 2.662-3.47 3.973-.79.893-1.58 1.789-2.36 2.685-.19.216-.38.432-.58.655-6.59 7.516-11.32 15.502-10.79 25.827.82 9.225 5.98 16.914 12.03 23.612 7.09 7.858 8.58 18.381 8.1 28.738-.04.621-.08 1.243-.11 1.864l-.08 1.505c-1.06 10.606-6.27 20.838-14.26 27.826a52.012 52.012 0 0 1-5.32 3.669c6.25.14 12.73-4.39 17.08-8.537 3.5-3.521 5.62-6.853 7.26-11.534.13-.353.25-.707.39-1.071a46.45 46.45 0 0 0 1.76-6.351c.84 20.119-7.95 38.289-21.11 53.141-1.11 1.17-2.26 2.31-3.42 3.42l-.73.82c.04.3.08.6.11.92 8.35-6.15 15.55-13.263 21.4-21.836.2-.292.4-.583.6-.884 8.5-12.459 14.85-27.537 12.33-42.861.47.119.47.119.74.785 2.69 6.243 2.8 13.156 2.9 19.851.13.046.26.091.39.139 3.73-8.379 2.47-18.626-.72-26.986-.77-1.958-1.59-3.891-2.4-5.828-1.93-4.633-3.1-8.411-1.97-13.39-1.65.257-2.78.572-4.09 1.62-.56.935-.56.935-1 1.953-.22.508-.22.508-.45 1.027-.16.387-.16.387-.33.783-5.24-2.733-8.46-7.252-10.29-12.838-.72-2.523-1.2-4.949-1.35-7.566-.03-.383-.07-.766-.11-1.16-.25-5.686 2.33-12.207 5.97-16.533.92-.964 1.84-1.917 2.81-2.833.96-1.376 1.21-2.535 1.58-4.155.46-1.799 1.05-3.54 1.65-5.297.12-.351.23-.702.36-1.063.49-1.465.99-2.93 1.49-4.392 3.48-10.102 3.48-10.102 2.35-15.287-.09-.449-.18-.899-.28-1.362-.33-1.3-.74-2.548-1.2-3.808.22-.134.44-.268.67-.406 2.59-1.622 4.56-3.18 5.62-6.147Z" fill="#0E1E27"/><path d="M1562.78 809.276c-4.54 1.956-8.23 5.808-11.33 9.595-.24.286-.48.573-.73.868-4.42 5.851-6.09 13.672-6.12 20.865l-.02 1.598c.17 6.447 2.19 12.763 4.58 18.703.54 1.289.54 1.289.87 2.728-6.76-5.776-12.5-12.076-16.56-20.051-.57-.987-.57-.987-1.6-1.794-.09-.611-.16-1.224-.22-1.838-.31-.833-.63-1.66-.96-2.483-1.69-4.632-1.97-9.44-1.85-14.338-2.31.866-3.29 2.941-4.42 5.019-3.61 8.008-3.51 15.663-.49 23.814 4.39 11.179 12.76 20.857 21.83 28.61-1.38 1.08-2.21 1.332-3.96 1.23-1.31-.363-2.57-.833-3.84-1.313-.35-.126-.69-.253-1.04-.383-.85-.31-1.69-.625-2.53-.942 3.55 6.066 9.86 10.742 16.64 12.516 1.64.129 3.22.077 4.85-.033l1.31.026c.06.241.13.482.19.73.95 3.323 2.15 6.821 5.25 8.679.65.239 1.3.472 1.95.694l-.06-.778c-.18-2.504-.34-5.008-.47-7.515-.05-.892-.11-1.782-.18-2.672-.16-7.357 3.76-15.079 8.42-20.574.39-.334.39-.334.78-.674.8-.873.82-1.531.86-2.698-.96-4.949-3.95-9.316-6.74-13.413-2.49-3.691-4.42-6.98-4.15-11.56l-.39-.138c-2.28 5.445-2.71 10.105-1.24 15.822.12.478.24.955.37 1.448-5.88-8.153-9.81-16.325-10.34-26.533-.02-.368-.05-.735-.07-1.114-.08-6.379 2.78-12.866 7.08-17.506a73.74 73.74 0 0 1 3.14-2.956c.91-.858.91-.858 1.19-1.639Z" fill="#0E1E27"/><path d="M1645.93 868.316a44.704 44.704 0 0 0-3.39 2.445c-5.5 4.072-12.34 5.284-18.94 6.444-7.82 1.374-15.44 2.895-22.63 6.313-.51.2-.51.2-1.02.404-4.84 1.971-9.54 6.602-11.58 11.378-2.7 6.815-2.7 6.815-2.39 10.574l.1 1.354c.62 5.333 2.45 12.142 6.49 15.935.94.184.94.184 1.7.166a74.31 74.31 0 0 0-.7-.358c-.8-.518-.8-.518-.85-1.376-.03-.347-.06-.693-.1-1.05-.2-.482-.41-.965-.63-1.462-.6-1.52-.6-1.52-.25-2.919 1.93-3.622 4.97-6.152 8.73-7.772 2.04-.319 3.48.256 5.34 1.025.52.399.52.399 1.04.806 10.66 4.88 23.05 5.909 34.15 1.844.45-.174.45-.174.92-.351l-.12-.919-1.44.003c-9.03-.044-20.63-.542-27.76-6.878-.29-.395-.58-.79-.89-1.197l.7-.139c4.48-.898 8.9-1.826 13.25-3.246.43-.135.86-.27 1.31-.409 2.66-.868 5.24-1.853 7.55-3.473.09-.257.18-.515.27-.78-1.18.138-2.35.306-3.53.512-4.2.703-7.95.974-12.2.48l-1.44-.131c-2.62-.258-5.09-.696-7.61-1.425-.87-.215-.87-.215-1.79-.103.09-.257.18-.515.28-.78l2.23-.086c.09-.258.18-.515.27-.78l.72-.025c1.59-.284 2.97-.94 4.45-1.598.58-.259 1.17-.516 1.76-.773.27-.122.55-.245.84-.371.74-.306 1.5-.561 2.26-.811.52-.193.52-.193 1.06-.39.09-.257.18-.515.27-.78l1.31.026c.84-.452.84-.452 1.73-1.062l.88-.599c1.28-.951 2.05-1.56 2.6-3.08-.26-.091-.52-.183-.78-.277-.31.245-.61.49-.93.742-4.63 3.6-10.98 4.069-16.56 5.012a224.21 224.21 0 0 0-13.2 2.664c2.68-4.586 8.81-6.847 13.64-8.213.3-.084.59-.168.89-.254 3.32-.919 6.69-1.58 10.07-2.227 10.97-2.12 10.97-2.12 14.2-4.07.9-.526 1.8-.938 2.76-1.35 2.57-1.205 5.54-2.861 6.67-5.549.14-.526.14-.526.29-1.064ZM1585.52 849.345c-.46-.177-.93-.354-1.41-.537-1.94-.495-3.44-.261-5.33.335-1.29.856-1.71 1.84-2.33 3.236l.82-.188c2.33-.469 3.96-.733 6.11.458 1.84 1.502 1.84 1.502 2.68 3.59-1.09 3.578-3.75 6.23-6.18 8.954-.79.893-1.58 1.788-2.36 2.684-.29.325-.29.325-.58.655-6.8 7.757-11.1 15.538-10.79 26.101.12 1.153.12 1.153.77 1.82.15-.476.3-.953.46-1.444 3.22-9.665 9.5-17.468 17.24-23.983 3.73-3.165 7.17-6.891 7.62-11.982.02-.941.02-1.871-.02-2.811-.26-.092-.52-.184-.78-.278 0-.243.01-.486.01-.736-.69-3.189-3.03-4.8-5.93-5.874Z" fill="#fff" fill-opacity=".31"/><path d="M1565.31 858.964c-.25-.092-.51-.184-.78-.278-1.69 3.94-1.25 6.993.04 11.002-3.4-1.077-6.27-2.058-8.94-4.502-.82 2.491.07 4.332 1.18 6.572 1 1.675 1 1.675 1.92 2.003-.09.258-.18.515-.28.78l-.74.067c-1.1.158-1.1.158-2.31.551-2.37.637-4.89.259-7.31.09.68 1.437 1.77 1.932 3.11 2.699.25.149.51.298.78.452 6.15 3.457 6.15 3.457 8.82 3.13l-.14.949c-.58 4.578.05 8.848 2.22 12.975.25.092.51.184.78.278.21-1.184.3-2.247.26-3.454-.08-3.938.68-7.189 2.01-10.898.16-.433.31-.865.47-1.311.89-2.346 1.88-4.31 3.33-6.348.58-1.46.76-2.357.24-3.856-.99-2.141-2.18-4.17-3.35-6.219-.84-1.571-1.34-2.899-1.31-4.682Z" fill="#fff" fill-opacity=".31"/><path d="M1599.66 863.717a9.888 9.888 0 0 0-.39-.139c-.16.363-.32.726-.49 1.101-2.89 6.231-7.23 10.737-12.02 15.588-7.53 7.673-7.53 7.673-9.15 12.08-.15.351-.29.702-.45 1.064-3.28 8.33-1.09 17.03 2.15 25.033l.92-.113c-.08-.213-.15-.427-.23-.647-2.37-7.221-3.74-14.653-1.08-21.93.12-.347.24-.694.37-1.051 1.31-3.661 3.17-6.654 5.76-9.54.23-.252.45-.504.68-.764.72-.82 1.45-1.637 2.17-2.453a6588.375 6588.375 0 0 0 3.93-4.438c1.24-1.405 2.45-2.82 3.58-4.316l-1 4.04.39.138c1.61-4.505 3.21-9.011 4.86-13.653ZM1595.34 928.981l-.39-.138c-1.37 5.221.12 10.369 1.25 15.502 3.34 15.231.53 26.168-7.21 39.515-.44.759-.87 1.518-1.31 2.278-.33.578-.66 1.157-1 1.735 1.68-1.037 2.69-2.289 3.81-3.893.19-.277.38-.554.58-.84 6.54-9.653 10.88-20.594 8.7-32.398a77.888 77.888 0 0 0-2.31-8.752c-1.36-4.198-2.27-8.58-2.12-13.009ZM1675.28 861.182l-.39-.139c-.25.451-.51.902-.78 1.367-8.54 14.789-20.58 24.388-37.15 28.881a42.24 42.24 0 0 1-6.18 1.08c1.03.807 1.03.807 1.98.786l1.15-.174 1.28-.193 1.37-.228 1.4-.23c3.87-.672 7.45-1.659 11.09-3.128.68-.276.68-.276 1.38-.557 10.56-4.661 19.65-13.954 23.92-24.724.33-.909.65-1.818.93-2.741ZM1682.4 897.995c-1.81.67-3.57 1.352-5.29 2.21-11.26 5.424-25.05 7.995-37.46 6.751-.81-.053-1.63-.105-2.44-.156-2.3-.175-4.56-.537-6.83-.948-.05.129-.09.257-.14.39 2.87 1.265 5.74 1.919 8.82 2.372l1.02.153c14.28 1.952 30.12-1.884 42.04-9.992.09-.257.18-.515.28-.78Z" fill="#fff"/><path d="M1598.61 864.219c-1.07.795-1.98 1.647-2.93 2.581-3.29 3.251-6.82 6.021-10.56 8.741-6.57 4.808-12.48 9.632-14.86 17.705-.11.337-.21.674-.31 1.021-.69 2.89-.54 5.576-.26 8.504l.12 1.162c.31 2.775.31 2.775 1.33 4.13.07-2.298-.02-4.577-.14-6.871-.25-5.359 1.88-11.374 5.43-15.418 3.53-3.629 7.35-6.846 11.42-9.853 3.84-2.901 9.1-7.06 10.76-11.702ZM1526.18 831.851l-.39-.139c-2.2 7.35-.06 15.478 3.44 22.107a77.984 77.984 0 0 0 2.33 3.679c.21.343.43.686.66 1.04 4.1 6.125 9.9 11.024 16.04 15.013-.15-1.166-.47-1.326-1.34-2.086-.26-.23-.52-.46-.78-.697-.43-.37-.43-.37-.86-.748-6.2-5.578-11.14-11.602-14.9-19.094-.23-.442-.45-.885-.68-1.34-.19-.431-.38-.861-.58-1.305-.15-.315-.29-.63-.45-.954-2.2-4.974-2.87-10.077-2.49-15.476ZM1550.52 826.447l-.39-.139c-1.05 1.577-1.69 3.26-2.32 5.029-.1.279-.21.559-.31.847-2.52 7.005-.95 14.501 2.01 21.099 1.89 3.732 4.34 7.047 7.2 10.091.09-.258.19-.515.28-.78-.51-.771-1.03-1.54-1.55-2.305-4.75-7.381-8.45-16.83-6.92-25.762.59-2.712 1.28-5.399 2-8.08ZM1642.15 874.003l-1 .495c-.55.254-1.1.508-1.64.761-.32.159-.65.317-.98.481-5.31 2.436-11.2 3.215-16.9 4.334l-1.32.261c-.83.164-1.67.325-2.5.483-.38.073-.75.146-1.13.221l-1 .19c-.79.213-.79.213-1.46.855 8.11 1.862 19.12-1.894 25.97-6.115 1.64-1.066 1.64-1.066 1.96-1.966ZM1607.24 916.519l-.92.112c1.99 5.117 5.28 8.423 10.27 10.684 3.01 1.313 6.66 2.59 9.91 1.772l-.67-.252c-10.91-4.009-10.91-4.009-18.59-12.316ZM1561.99 848.55c-.33.318-.33.318-.67.642 1.02 3.773 2.54 6.52 4.9 9.626 3.37 4.439 3.37 4.439 4.01 9.806.13.045.25.091.39.138 1.4-3.209 1.4-3.209.74-5.18-1.55-3.626-3.61-6.654-6.14-9.651-1.42-1.7-2.35-3.347-3.23-5.381ZM1556.29 884.32l-1.09.355c-5.52 1.319-10.78.03-16.18-1.227.71 1.49 1.6 1.587 3.1 2.148 4 1.416 7.19 2.346 11.37 1.05 1.3-.638 1.97-1.158 2.8-2.326ZM1591.4 844.952c-2.75-.85-5.25-1.269-8.11-.687-.22.211-.44.423-.67.641 3.83 1.641 3.83 1.641 5.71 1.179l1.09-.518c.96-.001.96-.001 1.7.165.09-.257.18-.515.28-.78Z" fill="#fff"/><path d="M1586.37 198.872c.58 2.9-.38 5.032-1.27 7.766-5.51 18.002-3.12 36.89 5.55 53.57 1.88 3.447 3.83 6.782 6.01 10.043.26.381.51.762.77 1.154 8.41 12.44 18.86 23.335 31.27 31.842-.3-.339-.59-.677-.89-1.026-6.83-8.271-13.52-20.235-12.93-31.297.17-1.58.37-3.146.61-4.718a523.757 523.757 0 0 1 .77-5.569l1.4.172c.12.445.25.89.38 1.348 4.52 14.328 16.84 22.857 28.3 31.517 9.7 7.363 18.76 14.845 26.57 24.247.44.487.87.975 1.32 1.477 6.02 7.047 10 17.458 9.44 26.768-1.09 12.395-1.09 12.395-4.42 17.859l-1.19 1.975c-5.15 7.842-12.87 16.161-21.97 19.238l-2.79-.345c-.04-.838-.09-1.675-.13-2.539-.42-3.446-1.79-6.079-4.16-8.613-1.52-1.243-1.52-1.243-3.31-1.826-1.6.57-1.6.57-3.09 1.742-9.77 6.331-19.78 6.824-30.99 4.666-8.99-2.15-17.12-5.882-23.99-12.173.06-.46.12-.92.18-1.395l2.54.024c6.01-.024 11.63-.327 17.41-2.071.46-.14.93-.28 1.42-.425 3.4-1.115 7.34-2.677 9.39-5.762l-1.24-.515c-4.2-1.791-8.13-3.846-12.05-6.174-.6-.352-1.2-.705-1.81-1.068-1.84-1.088-3.66-2.185-5.49-3.287-.83-.5-.83-.5-1.67-1.011-28.76-17.494-56.25-43.21-65.2-76.657-.99-4.204-.61-7.821.07-12.029 1.81 2.201 3.18 4.405 4.5 6.929 14.88 27.223 41.77 45.53 70.75 55.043 2.11.612 3.98 1.046 6.16 1.207l-1.91-1.797c-19.45-18.443-36.26-39.877-38.37-67.625-.06-.692-.11-1.384-.18-2.097-1.03-17.354 4.03-34.511 14.24-48.568Z" fill="#446779"/><path d="M1698.28 255.907c.36.335.73.67 1.1 1.015.49.443.98.885 1.49 1.341.72.656.72.656 1.45 1.325 4.27 3.177 9.18 3.962 14.28 4.958 12.63 2.472 12.63 2.472 16.03 5.656 1.15 2.134 1.15 2.134 1.19 4.662-.2 2.517-.2 2.517 1.57 4.176.54.49 1.07.981 1.63 1.486 1.54 2.695 1.13 5.626.36 8.542-1.31 1.963-1.31 1.963-2.52 3.228l-.94-1.753c-2.09-3.051-4.09-4.365-7.67-5.285-3.13-.009-5.68.683-8.49 2.092-2.06 3.108-1.21 7.461-.54 10.931.68 2.905 1.46 5.784 2.24 8.664.52 1.956 1.03 3.914 1.54 5.873.13.472.25.945.38 1.433 4.27 16.414 5.38 32.134-3.28 47.395-8.28 13.366-21.96 21.104-36.23 26.663-16.73 6.53-27 21.357-34.15 37.437-.42.97-.84 1.941-1.25 2.913-.51 1.16-.51 1.16-1.02 2.344-6.48 16.891-6.35 36.385.45 53.064 1.56 3.349 3.31 6.486 5.27 9.615-9.59-4.546-15.97-16.351-19.4-25.946-2.64-8.01-3.31-14.675-2.25-23.026.08-.634.16-1.267.23-1.919.47-3.755 1.16-7.328 2.17-10.975-16.59 29.881-17.08 64.137-8.42 96.683.79 2.622 1.66 5.213 2.57 7.795.17.591.33 1.181.49 1.79-.28.431-.57.863-.87 1.308-7.98-15.682-13.5-31.95-15.84-49.404-.08-.595-.16-1.19-.25-1.802-3.4-25.368-1.57-53.076 13.92-74.403-.8-.179-.8-.179-1.71.629-8.84 7.419-14.26 17.828-19.52 27.903l-.7-.086c.73-15.544 10.44-30.13 21.64-40.388 2.65-2.387 5.37-4.695 8.08-7.011 6.45-5.564 11.09-10.409 13.17-18.819 2.32 1.649 3.79 2.982 4.98 5.572.13 1.843.13 1.843.03 3.721l-.1 1.903-.1 1.437c10.03-.16 18.36-4.563 25.39-11.643 3-3.282 5.58-6.598 7.8-10.454.34-.554.69-1.107 1.04-1.677 4.72-8.431 5.76-20.289 3.54-29.623-.67-2.164-1.34-4.311-2.12-6.439-.4-2.816.11-4.761.78-7.501.67-3.081 1.1-6.17 1.53-9.292.08-.623.17-1.245.26-1.886.36-2.6.72-5.201 1.07-7.803 2.41-17.975 2.41-17.975 8.07-24.978.48-.611.97-1.223 1.47-1.852 1.49-1.717 3.06-3.299 4.72-4.863-.24-.372-.48-.745-.72-1.129-2.69-4.429-4.49-8.293-3.84-13.597Z" fill="#446779"/><path d="M1787.95 235.132c5.41 6.424 8.07 15.074 9.88 23.174.15.619.3 1.238.46 1.876 2.25 12.241-1.18 25.373-6.59 36.313l-1.19 2.439c-5.16 9.651-13.04 17.694-21.19 24.887-1.79 1.546-1.79 1.546-3.39 3.478 14.65-3.617 28.15-8.81 40.38-17.819 1.61-1.064 1.61-1.064 3.79-1.503.6-.86 1.18-1.735 1.74-2.617a176.06 176.06 0 0 1 3.34-3.039c6.1-5.739 10.17-12.824 13.72-20.345 2.84 3.072 2.75 6.963 2.89 10.979-.62 14.898-6.59 26.435-17.38 36.503-15.17 13.615-35.23 21.928-54.89 26.79 1.27 2.688 2.34 3.701 5.06 4.875 2.27.446 4.54.695 6.84.934l1.87.212c1.51.17 3.03.333 4.54.493-10 6.498-23.13 8.793-34.77 6.322-2.57-1.048-4.93-2.33-7.32-3.739-.67-.315-1.33-.631-2.01-.956l-.85.96c-3.97 4.321-8.44 8.716-14.57 9.172-1.16-.129-2.32-.27-3.48-.432.22-.374.44-.749.68-1.134a659.05 659.05 0 0 0 6.44-11.041c.75-1.315 1.52-2.62 2.29-3.921 5.86-11.032 5.78-25.737 2.89-37.616-.33-.8-.33-.8-.67-1.616-.54-1.931-.08-2.949.75-4.748 5.22-6.779 13.08-11.127 20.43-15.222 6.6-3.699 12.02-7.223 15.1-14.375l.7.086c-.7 9.992-3.58 17.392-10.17 24.944-.55.634-1.09 1.267-1.65 1.92 15.12-7.894 27.29-17.307 35.87-32.387.31-.54.63-1.079.96-1.635 4.97-9.617 5.56-21.639 2.57-31.949-.76-2.323-1.61-4.592-2.5-6.869-.74-1.999-.74-1.999-.57-3.394Z" fill="#446779"/><path d="M1616.87 261.422c1.21 2.057 2.28 4.137 3.3 6.294 5.24 10.361 14.69 17.405 23.83 24.191 10.8 8.03 21.21 16.136 29.52 26.799.62.687.62.687 1.24 1.387 5.84 6.671 9.44 17.271 8.91 26.075-1.09 12.394-1.09 12.394-4.42 17.859-.59.977-.59.977-1.19 1.975-5 7.619-12.95 16.56-21.97 19.238-1.56-.434-1.56-.434-2.7-1.043l1.32-.012c1.62-.175 1.62-.175 2.35-1.436l.94-1.522c.69-.572 1.37-1.145 2.07-1.735 2.07-1.852 2.07-1.852 2.61-4.236-.18-6.968-2.86-13.12-7.33-18.433-2.85-2.037-5.47-2.26-8.89-2.516l-2.18.439c-19.9-.717-39.47-8.581-53.21-23.195l-1.13-1.229.87-1.309 2.18 1.1c13.75 6.809 31.72 14.881 47.35 10.691.75-.375 1.49-.75 2.27-1.137-.32-.245-.63-.49-.96-.743-6.11-4.771-12.12-9.546-17.63-15.01-.55-.533-1.11-1.066-1.67-1.615-3.38-3.342-6.54-6.798-8.81-11.011.06-.46.11-.921.17-1.395 1.69 1.11 3.34 2.257 4.97 3.463 5.85 4.269 11.32 7.528 18.15 10.018l2.28.893c4.17 1.601 8.25 2.816 12.64 3.635 1.47.332 1.47.332 2.78 1.202.06-.46.12-.92.18-1.395-1.1-.602-2.19-1.205-3.32-1.826.06-.46.12-.921.17-1.395l-1.06-.579c-2.2-1.645-3.8-3.692-5.54-5.814l-2.07-2.508-1-1.208c-.89-1.026-1.85-1.991-2.81-2.948-.65-.69-.65-.69-1.31-1.395.06-.46.12-.921.17-1.395l-2-.956c-.93-1.323-.93-1.323-1.81-2.924-.29-.522-.59-1.045-.89-1.584-1.21-2.414-1.92-3.927-1.59-6.644l1.4.172c.27.604.55 1.208.83 1.83 4.29 8.983 13.56 14.525 21.32 20.206a381.669 381.669 0 0 1 17.99 14.087c-.57-8.994-8.15-17.091-14.44-22.839-.38-.352-.77-.704-1.16-1.067-4.34-3.92-8.94-7.484-13.58-11.038-15.02-11.561-15.02-11.561-18.44-16.98-.97-1.483-2.02-2.794-3.16-4.147-2.98-3.785-6.22-8.555-5.9-13.496.18-.91.18-.91.36-1.839ZM1722.96 278.613l2.55.26c3.32.727 5.42 2.222 7.83 4.565 1.31 2.282 1.2 4.094 1.08 6.683-.37-.3-.73-.601-1.11-.911-3.17-2.481-5.44-4.12-9.62-3.956-3.93.881-3.93.881-6.8 3.408-1.06 6.26.95 12.304 2.57 18.286.52 1.957 1.03 3.915 1.54 5.873.19.71.19.71.38 1.433 4.41 16.941 5.01 32.018-3.5 47.81-1.06 1.652-1.06 1.652-2.54 2.177.12-.84.25-1.681.39-2.547 2.46-17.114-1.11-33.726-7.9-49.5-3.26-7.644-5.64-15.915-2.44-23.975a67.69 67.69 0 0 1 2.17-4.252l1.4.173c.17-.372.35-.745.53-1.129 3.48-4.308 8.25-4.975 13.47-4.398Z" fill="#fff"/><path d="M1746.29 308.584c.46.056.93.113 1.4.172-.43 7.264-3.42 11.562-8.43 16.661 5.98.957 11.08 1.65 16.99-.023-.65 4.402-3.4 6.518-6.78 9.075-2.8 1.779-2.8 1.779-4.45 1.575-.05.46-.11.92-.17 1.395.35.219.71.437 1.07.663 1.55 1.077 1.55 1.077 3.09 2.595 3.11 2.769 7.22 4.117 11.02 5.7-2.13 1.661-4.16 1.581-6.76 1.731l-1.53.092c-11.97.562-11.97.562-15.77-1.965-.25.765-.25.765-.51 1.547-2.6 7.388-6.81 13.385-13.24 17.997l-1.39-.173c.57-1.96 1.25-3.637 2.22-5.442 3.12-5.912 4.44-11.425 5.24-18.065.1-.775.19-1.549.29-2.346.44-4.232.44-7.965-.22-12.163.23-2.655.64-4.153 2.57-6.033 3.13-2.496 6.49-4.662 9.82-6.883 2.48-1.742 4.24-3.377 5.54-6.11ZM1690.57 289.655l.7.087c-.03.674-.07 1.348-.1 2.043-.36 11.653 2.8 21.792 6.37 32.796 5.59 17.374 5.59 17.374 4.7 25.294-.04.644-.09 1.288-.14 1.952-1.35 15.136-11.29 26.67-22.3 36.345-.43-.287-.86-.575-1.31-.87.28-.269.55-.537.83-.813 9.1-9.149 16.83-19.381 18.33-32.446.09-.618.17-1.235.25-1.871.79-6.554.24-12.514-1.49-18.863-.14-.551-.29-1.102-.44-1.67-.47-1.794-.95-3.586-1.43-5.377-.53-1.978-1.05-3.955-1.57-5.933-.33-1.263-.67-2.525-1.01-3.787-.82-3.078-1.57-6.143-2.15-9.277-.52 2.273-1.03 4.546-1.56 6.888l-.7-.086c1-8.056 1.99-16.112 3.02-24.412ZM1647.47 391.96l.7.086c-1.91 8.959-8.09 15.634-13.71 22.564-16.65 20.568-20.71 39.3-19.13 65.434.08 1.484.17 2.968.25 4.452.07 1.131.13 2.262.2 3.393-1.76-2.85-2.34-5.521-2.81-8.801-.08-.567-.16-1.133-.25-1.717-2.58-19.627-.82-39.52 11.46-55.771 3.18-4.051 6.54-7.858 10.16-11.524 5.26-5.333 9.97-11.288 13.13-18.116ZM1577.78 228.262l.7.086c.04.88.09 1.76.14 2.667 1.71 28.941 12.67 52.664 34.38 72.087a71.345 71.345 0 0 0 8.56 6.345c-2.18.439-2.18.439-3.6-.313-.8-.564-.8-.564-1.62-1.139l-1.79-1.27c-.95-.688-.95-.688-1.91-1.391-.97-.7-.97-.7-1.95-1.415-5.36-3.961-10.04-8.186-14.44-13.181-.82-.937-.82-.937-1.66-1.893-12.49-15.112-19.2-36.122-17.49-55.719.19-1.629.41-3.246.68-4.864ZM1538.97 278.695c2.23 2.391 4.38 4.765 6.34 7.38 12.95 16.796 31.91 31.188 51.69 38.745 1.27.539 2.55 1.08 3.82 1.623 3.63 1.486 7.33 2.657 11.09 3.762l-.09.697c-5.31-.266-10.16-1.457-15.19-3.118-.55-.179-1.1-.358-1.66-.542-23.14-7.902-44.27-25.783-56.18-47.152.06-.46.12-.92.18-1.395Z" fill="#fff"/><path d="M1691.79 291.221c1.02 2.019 1.75 4.006 2.47 6.141 2.53 7.438 5.78 14.328 9.37 21.297 6.32 12.299 11.6 24.109 9.08 38.173-.1.588-.2 1.176-.31 1.782-1.16 4.907-3.42 8.871-6.09 13.095l-1.05 1.676c-2.59 3.97-2.59 3.97-5.16 5.256 1.64-3.542 3.51-6.929 5.44-10.318 4.45-7.945 5.8-18.685 3.49-27.525-2.59-8.191-5.94-15.981-9.82-23.636-3.63-7.33-8.44-17.642-7.42-25.941ZM1826.3 297.235l.7.086c-2.25 12.827-11.69 23.526-22.05 30.919a144.09 144.09 0 0 1-6.32 3.812c-.6.354-1.19.707-1.8 1.072-10.88 6.175-23.41 9.19-35.76 10.571 1.1-1.66 1.71-1.659 3.61-2.148l1.73-.459 1.86-.486c13.66-3.739 25.74-9.12 37.14-17.625.68-.5 1.35-1.001 2.05-1.517.62-.508 1.24-1.016 1.87-1.539.47-.365.93-.73 1.41-1.107 7.13-5.868 12.03-13.098 15.56-21.579ZM1793.49 270.515l.7.086c.38 3.184.07 6.224-.32 9.388-.05.504-.11 1.008-.16 1.527-1.52 12.541-9.6 22.72-19.11 30.479-5.71 4.219-11.95 7.385-18.61 9.825.06-.46.11-.92.17-1.395a709.62 709.62 0 0 1 4.11-2.316c12.82-7.586 25.63-19.099 30.1-33.817 1.17-4.564 2.17-9.165 3.12-13.777ZM1618.28 272.925c.38.499.76.998 1.14 1.513l1.92 2.405c.36.485.73.969 1.11 1.468 6.21 7.741 14.55 13.406 22.34 19.441.6.461 1.19.922 1.8 1.397 1.15.884 2.29 1.765 3.44 2.641a470.14 470.14 0 0 0 2.92 2.244c1.03.923 1.03.923 1.55 2.404-13.72-3.345-27.56-17.424-34.73-29.037-1.69-2.868-1.69-2.868-1.49-4.476ZM1638.89 363.992c.43.287.86.574 1.3.87-6.9 6.252-14.42 8.76-23.69 8.399-5.57-.299-12.08-1.14-16.4-4.86l1.21.13c19.6 2.22 19.6 2.22 37.58-4.539ZM1759.27 295.319c.26.734.26.734.52 1.482-4.42 4.947-8.81 7.957-14.75 10.877-8.5 4.167-8.5 4.167-13.55 11.824l-.69-.086c.32-5.933.32-5.933 2.81-8.423 5.12-4.32 10.53-7.353 16.66-9.97 3.44-1.501 6.12-3.288 9-5.704ZM1740.69 353.92c.45.451.91.901 1.38 1.366 7.38 6.207 16.33 8.248 25.48 10.454-2.2 1.722-3.63 1.189-6.33.903-7.15-.899-12.69-1.914-18.04-7.06-1.49-1.957-2.11-3.257-2.49-5.663ZM1717.39 267.477c4.81.8 8.93 2.07 12.82 5.126.17.489.35.977.52 1.481-7.05-.425-7.05-.425-9.55-2.554-.42-.533-.83-1.066-1.26-1.616-1.46-.731-1.46-.731-2.7-1.042.05-.461.11-.921.17-1.395Z" fill="#fff"/><path d="M1493.73 852.624c-30.92-15.821-65.97-21.887-96.24-38.744-29.55-16.454-50.52-41.465-64.61-71.955m-2.49-169.324c26.63-37.188 73.36-55.95 112.62-75.682C1483.66 476.492 1569 442 1601.5 403" stroke="#FF9900" stroke-width="3" stroke-linecap="round" stroke-linejoin="round" stroke-dasharray="57 57"/></g><defs><filter id="a" x="-78.8" y="-78.8" width="2077.6" height="1237.6" filterUnits="userSpaceOnUse" color-interpolation-filters="sRGB"><feFlood flood-opacity="0" result="BackgroundImageFix"/><feGaussianBlur in="BackgroundImageFix" stdDeviation="39.4"/><feComposite in2="SourceAlpha" operator="in" result="effect1_backgroundBlur_153_883"/><feBlend in="SourceGraphic" in2="effect1_backgroundBlur_153_883" result="shape"/></filter></defs></svg>