<svg width="140" height="127" fill="none" xmlns="http://www.w3.org/2000/svg"><g clip-path="url(#a)" stroke="#fff"><path stroke-width="2.632" d="M6.112 31.975h102.351v90.161H6.112z"/><path fill="#fff" stroke-width="2.913" d="M1.558 26.483h8.353v8.353H1.558zM104.662 26.483h8.353v8.353h-8.353zM1.558 117.398h8.353v8.353H1.558zM104.662 117.398h8.353v8.353h-8.353z"/></g><path fill-rule="evenodd" clip-rule="evenodd" d="M21.78 45.404c8.73-8.748 22.883-8.748 31.613 0l4.117 4.127 4.118-4.127c8.73-8.748 22.883-8.748 31.613 0 8.729 8.749 8.729 22.933 0 31.682l-35.73 35.808-35.73-35.808c-8.73-8.749-8.73-22.933 0-31.682Z" fill="#F24E1E" stroke="#fff" stroke-width="2.632"/><path d="M137.899 10.337V2m0 0h-8.337m8.337 0-10.197 10.197-10.197 10.198m0-8.338v8.338m0 0h8.337" stroke="#fff" stroke-width="2.632"/><defs><clipPath id="a"><path fill="#fff" transform="translate(.101 25.026)" d="M0 0h114.474v101.974H0z"/></clipPath></defs></svg>