<svg width="1920" height="946" fill="none" xmlns="http://www.w3.org/2000/svg"><path d="M1372.17.777c79.08 0 156.6 18.631 233.35 55.117l3.88.774c56.59 21.738 106.21 53.566 148.07 96.26 41.86 42.697 75.97 89.273 101.56 140.508 40.31 79.183 60.46 163.019 60.46 253.068 0 80.734-17.05 156.808-49.61 228.23-29.13 66.864-70.62 123.954-125.08 171.266h-547.83c-23.49-24.57-41.84-52.418-55.04-83.549-13.18-41.92-19.38-74.521-19.38-96.26 0-62.101 20.15-113.334 60.47-153.703 42.63-40.367 89.15-60.549 140.31-60.549 16.29 0 46.52 6.985 90.71 21.735 36.43 16.301 68.99 24.844 98.45 24.844 36.44 0 65.12-10.87 85.28-32.606 20.16-21.734 30.23-49.682 30.23-82.287 0-31.051-10.07-62.102-30.23-93.152-27.13-49.682-66.67-88.498-117.84-115.668-51.16-27.17-105.43-41.143-162.02-41.143-41.87 0-84.5 8.539-126.37 24.842-47.29 24.062-82.95 48.906-106.98 74.521-31.01 32.606-55.04 72.196-71.32 117.996-14.73 45.801-21.708 93.157-21.708 140.508 0 53.563 10.848 110.233 32.558 170.782 27.13 64.433 65.12 123.429 112.41 176.216 2.13 2.487 4.29 4.977 6.47 7.473h-97.87c-16.27-17.225-30.46-32.652-42.72-46.285-27.903-31.051-52.712-65.209-74.418-101.695-49.615-87.719-74.424-181.649-74.424-280.239 0-53.562 8.527-110.23 27.135-170.781 38.761-107.904 102.331-193.295 192.257-255.397C1164.41 31.051 1264.42.778 1372.17.778ZM1001.87 946c-38.697-80.268-89.694-148.234-152.984-205.424-62.018-55.117-131.79-82.287-208.539-82.287-34.883 0-70.546 6.211-106.981 19.408-62.021 18.631-113.185 58.998-153.499 121.1-28.135 45.076-45.65 94.244-53.139 147.203h675.142Z" fill="#1E1E1E"/><path d="M188.906 946c13.659-51.641 34.383-98.896 62.271-141.77 55.042-82.285 122.488-145.941 203.114-189.412 38.761-18.63 72.871-34.158 104.657-46.578 41.864-16.301 75.973-31.828 101.556-46.574 58.918-27.172 103.108-66.764 134.892-117.996 31.787-51.236 46.515-105.576 46.515-162.244 0-45.801-10.853-86.944-32.559-123.43C756.634 38.815 680.661 0 581.431 0c-71.325 0-144.972 21.736-219.395 65.984-72.872 44.25-134.89 102.471-183.73 176.217-56.593 75.301-100.782 172.334-131.792 291.108C15.504 652.08 0 777.838 0 909.807 0 921.961.133 934.025.4 946h188.506Z" fill="#1E1E1E"/></svg>