<svg width="829" height="1055" fill="none" xmlns="http://www.w3.org/2000/svg"><g filter="url(#a)"><path fill="#F3F3F3" d="M0 0h829v1055H0z"/><path d="M131.482 527c.771 2.315.201 4.159-.254 6.488-2.692 15.301 1.18 30.527 9.972 43.308 1.884 2.633 3.82 5.167 5.939 7.616l.749.867c8.142 9.336 17.802 17.2 28.827 22.91l-.831-.75c-6.433-6.081-13.123-15.202-13.757-24.321a96.895 96.895 0 0 1 .018-3.925l.016-1.362c.013-1.092.034-2.185.056-3.277h1.16l.451 1.064c5.152 11.276 16.108 17.013 26.368 22.944 8.687 5.048 16.864 10.258 24.214 17.166l1.23 1.076c5.646 5.161 9.957 13.285 10.442 20.965.362 10.261.362 10.261-1.813 15.074l-.775 1.737c-3.417 6.944-8.9 14.538-16.043 17.98h-2.319l-.363-2.066c-.696-2.779-2.08-4.798-4.277-6.633-1.375-.863-1.375-.863-2.899-1.159-1.249.628-1.249.628-2.356 1.739-7.356 6.174-15.507 7.592-24.901 6.959-7.583-.849-14.615-3.083-20.877-7.539v-1.159l2.084-.238c4.918-.628 9.49-1.446 14.045-3.459l1.121-.492c2.678-1.259 5.74-2.936 7.107-5.67l-1.066-.297c-3.621-1.041-7.047-2.325-10.496-3.835l-1.59-.691a743.505 743.505 0 0 1-4.826-2.136l-1.474-.659c-25.32-11.414-50.434-29.69-61.157-56.173-1.232-3.344-1.287-6.344-1.16-9.859 1.705 1.619 3.053 3.285 4.386 5.219 14.946 20.787 38.818 33.055 63.519 37.91 1.788.288 3.365.454 5.165.365l-1.744-1.278c-17.8-13.134-33.738-28.983-38.271-51.495l-.36-1.699c-2.602-14.107-.197-28.67 6.74-41.215Z" fill="#273F4D"/><path d="m228.909 562.375.999.72 1.357.947 1.326.938c3.816 2.17 7.913 2.316 12.194 2.614 10.597.745 10.597.745 13.7 3.009 1.16 1.631 1.16 1.631 1.45 3.697.086 2.082.086 2.082 1.704 3.262l1.486 1.051c1.538 2.051 1.497 4.493 1.16 6.959-.87 1.74-.87 1.74-1.74 2.899l-.942-1.341c-2.022-2.287-3.793-3.16-6.815-3.552-2.57.311-4.589 1.136-6.741 2.574-1.377 2.754-.236 6.233.665 9.006.851 2.31 1.776 4.59 2.706 6.869.623 1.55 1.242 3.101 1.86 4.653l.453 1.135c5.161 13.01 7.66 25.771 2.113 39.147-5.423 11.784-15.841 19.506-26.965 25.504-13.038 7.042-19.953 20.225-24.179 34.117-.244.837-.486 1.674-.727 2.512l-.6 2.023c-3.593 14.488-1.514 30.44 5.744 43.41 1.616 2.585 3.371 4.976 5.294 7.34-8.315-2.751-14.74-11.772-18.521-19.283-2.971-6.292-4.197-11.682-4.168-18.629l-.007-1.595c.005-3.122.204-6.118.659-9.207-10.558 26.151-7.49 54.254 2.9 80.03a143.058 143.058 0 0 0 2.897 6.123l.583 1.416-.58 1.159c-8.128-12.034-14.291-24.798-17.978-38.854l-.385-1.451c-5.359-20.429-6.66-43.306 3.865-62.341-.68-.064-.68-.064-1.341.689-6.491 6.972-9.873 16.044-13.157 24.828h-.58c-.977-12.804 5.497-25.732 13.628-35.267 1.929-2.223 3.921-4.388 5.908-6.56 4.717-5.209 8.028-9.647 8.88-16.745 2.064 1.116 3.399 2.059 4.639 4.059.297 1.495.297 1.495.399 3.045l.115 1.568.066 1.187c8.195-1.147 14.569-5.596 19.609-12.106 2.13-2.993 3.901-5.969 5.328-9.352l.688-1.479c3.008-7.382 2.663-17.199-.108-24.617-.766-1.704-1.533-3.395-2.383-5.058-.616-2.266-.397-3.911-.125-6.222.237-2.591.277-5.165.31-7.765l.025-1.571c.034-2.166.065-4.332.086-6.498.151-14.964.151-14.964 4.08-21.273l1.013-1.665c1.051-1.558 2.177-3.012 3.373-4.461l-.7-.851c-2.652-3.355-4.52-6.337-4.52-10.747Z" fill="#273F4D"/><path d="M300.24 536.278c5.075 4.714 8.131 11.528 10.438 17.978l.562 1.49c3.084 9.796 1.608 20.898-1.722 30.406l-.722 2.118c-3.253 8.426-8.887 15.81-14.831 22.526-1.315 1.448-1.315 1.448-2.424 3.192 11.63-4.446 22.157-10.066 31.261-18.682 1.214-1.036 1.214-1.036 2.954-1.615.403-.765.786-1.541 1.16-2.32.795-.955 1.606-1.896 2.428-2.827 4.41-5.317 7.029-11.532 9.17-18.05 2.643 2.227 2.96 5.424 3.48 8.698 1.006 12.263-2.72 22.316-10.532 31.654-11.049 12.687-26.637 21.526-42.241 27.498 1.312 2.073 2.289 2.794 4.639 3.48 1.9.136 3.788.109 5.691.072l1.553-.015a593.98 593.98 0 0 0 3.775-.057c-7.536 6.334-18.054 9.544-27.836 8.699-2.216-.598-4.277-1.408-6.379-2.32l-1.74-.58-.598.872c-2.811 3.941-6.033 7.993-11.001 8.987-.966.013-1.933.014-2.899 0l.442-.998a504.276 504.276 0 0 0 4.155-9.694c.483-1.153.981-2.3 1.485-3.444 3.678-9.628 2.12-21.661-1.443-31.098l-.711-1.255c-.643-1.526-.368-2.407.131-3.964 3.587-6.081 9.586-10.438 15.187-14.535 5.028-3.698 9.115-7.133 10.91-13.302h.58c.445 8.254-1.17 14.606-5.8 21.458l-1.159 1.739c11.585-7.996 20.599-16.937 26.096-30.156l.618-1.436c3.101-8.379 2.367-18.284-1.126-26.424a104.357 104.357 0 0 0-2.745-5.372c-.806-1.563-.806-1.563-.806-2.723Z" fill="#273F4D"/><path d="M162.797 575.134a64.024 64.024 0 0 1 3.334 4.82c5.342 7.955 13.796 12.766 21.965 17.398 9.662 5.481 19.004 11.066 26.894 18.956l1.155 1.011c5.453 4.871 9.478 13.188 9.937 20.451.362 10.26.362 10.26-1.814 15.073l-.774 1.738c-3.321 6.745-8.927 14.873-16.043 17.98-1.323-.198-1.323-.198-2.32-.58l1.087-.145c1.303-.307 1.303-.307 1.776-1.414l.616-1.341 1.523-1.631c1.502-1.726 1.502-1.726 1.703-3.733-.853-5.688-3.673-10.454-7.865-14.353-2.541-1.38-4.714-1.297-7.539-1.16l-1.74.58c-16.368 1.428-33.194-3.03-45.929-13.606l-1.044-.892.58-1.16 1.896.679c11.945 4.185 27.483 8.975 39.858 3.96l1.74-1.16-.857-.512c-5.489-3.288-10.89-6.59-15.961-10.506l-1.531-1.153c-3.106-2.395-6.044-4.905-8.328-8.126v-1.16a86.547 86.547 0 0 1 4.418 2.334c5.221 2.904 10.032 5.018 15.88 6.365l1.955.501c3.575.888 7.041 1.47 10.719 1.697 1.244.122 1.244.122 2.404.702v-1.16l-2.9-1.16v-1.16l-.927-.367c-1.974-1.124-3.487-2.638-5.126-4.2a1146.536 1146.536 0 0 0-2.897-2.731c-.831-.75-1.712-1.444-2.596-2.13l-1.212-1.01v-1.16l-1.74-.58c-.89-.99-.89-.99-1.776-2.211l-.89-1.207c-1.235-1.855-1.973-3.021-1.973-5.281h1.159l.87 1.414c4.419 6.923 12.574 10.522 19.5 14.389a313.157 313.157 0 0 1 16.165 9.714c-1.376-7.308-8.406-13.171-14.14-17.242l-1.061-.755c-3.95-2.771-8.078-5.224-12.236-7.665-13.472-7.947-13.472-7.947-16.822-12.038-.942-1.116-1.935-2.083-3.004-3.076-2.829-2.797-5.967-6.376-6.2-10.455l.111-1.542ZM251.417 578.468l2.113-.045c2.794.259 4.663 1.27 6.875 2.945 1.302 1.736 1.395 3.231 1.559 5.364l-.999-.634c-2.847-1.711-4.872-2.823-8.28-2.266-3.127 1.12-3.127 1.12-5.219 3.48-.237 5.234 2.02 9.98 3.951 14.715.622 1.55 1.241 3.102 1.859 4.653l.454 1.136c5.326 13.427 7.348 25.713 1.982 39.506-.707 1.462-.707 1.462-1.867 2.042l.061-2.125c.288-14.266-4.324-27.507-11.478-39.739-3.442-5.929-6.233-12.462-4.424-19.386.408-1.254.847-2.48 1.343-3.702h1.16l.326-.978c2.412-3.881 6.25-4.91 10.584-4.966Z" fill="#fff" fill-opacity=".47"/><path d="M273.562 600.649h1.16c.381 5.993-1.632 9.816-5.219 14.498 4.997.178 9.241.23 13.918-1.739-.092 3.671-2.13 5.682-4.639 8.119-2.108 1.739-2.108 1.739-3.48 1.739v1.16l.942.435c1.378.725 1.378.725 2.791 1.812 2.827 1.954 6.336 2.641 9.605 3.552-1.575 1.576-3.247 1.717-5.364 2.103l-1.244.23c-9.74 1.672-9.74 1.672-13.109-.013l-.258 1.318c-1.384 6.315-4.221 11.651-9.021 16.08h-1.16a22.51 22.51 0 0 1 1.271-4.683c1.957-5.157 2.478-9.805 2.463-15.325l-.005-1.949c-.064-3.511-.447-6.567-1.409-9.939-.078-2.198.106-3.466 1.493-5.201 2.311-2.361 4.844-4.475 7.344-6.631 1.85-1.678 3.131-3.196 3.921-5.566Z" fill="#fff" fill-opacity=".47"/><path d="M226.008 590.792h.58l.131 1.683c.886 9.579 4.498 17.563 8.538 26.212 6.337 13.662 6.337 13.662 6.409 20.238l.086 1.613c.42 12.533-6.551 22.985-14.584 32.023l-1.16-.58.598-.75c6.522-8.413 11.819-17.576 11.725-28.427l.014-1.558c-.016-5.447-1.069-10.272-3.131-15.296l-.528-1.324c-.569-1.421-1.144-2.84-1.719-4.258-.63-1.566-1.258-3.133-1.886-4.7-.401-1-.803-2-1.208-2.998-.983-2.439-1.909-4.873-2.705-7.38l-.58 5.799h-.58v-20.297ZM201.073 678.939h.579c-.654 7.53-5.038 13.622-8.935 19.866-11.552 18.531-12.98 34.282-9.042 55.524l.657 3.62.503 2.759c-1.724-2.156-2.476-4.284-3.19-6.922l-.375-1.382c-4.103-15.812-4.68-32.281 3.737-46.833a110.982 110.982 0 0 1 7.149-10.466c3.765-4.9 7.025-10.255 8.917-16.166ZM127.423 551.937h.58l.385 2.17c4.334 23.527 15.711 41.845 35.458 55.552a59.065 59.065 0 0 0 7.651 4.329c-1.74.58-1.74.58-2.98.108l-1.435-.769-1.603-.858-1.703-.946-1.741-.961c-4.786-2.701-9.051-5.687-13.155-9.332l-1.557-1.382c-11.753-11.111-19.375-27.638-19.964-43.859-.007-1.354.009-2.7.064-4.052ZM100.746 597.171c2.07 1.732 4.07 3.458 5.944 5.4 12.307 12.444 29.292 22.31 46.249 26.496 1.1.312 2.199.626 3.298.942 3.12.85 6.271 1.433 9.46 1.957v.58c-4.381.321-8.473-.163-12.758-1.015l-1.415-.276c-19.751-4.127-38.862-16.631-50.778-32.924v-1.16Z" fill="#fff"/><path d="M227.168 591.951c1.034 1.551 1.84 3.103 2.646 4.779 2.818 5.836 6.179 11.149 9.829 16.492 6.419 9.432 11.941 18.569 11.302 30.342l-.077 1.491c-.45 4.136-1.903 7.611-3.657 11.34l-.695 1.48c-1.721 3.514-1.721 3.514-3.69 4.827.981-3.067 2.173-6.031 3.408-9.002 2.838-6.956 2.862-15.889.071-22.894-2.951-6.446-6.486-12.485-10.435-18.362-3.716-5.635-8.702-13.592-8.702-20.493ZM337.934 583.253h.58c-.546 10.732-7.191 20.45-14.924 27.553a115.887 115.887 0 0 1-4.793 3.763l-1.366 1.06c-8.281 6.159-18.241 9.897-28.21 12.278.735-1.471 1.234-1.532 2.741-2.125l1.365-.55 1.475-.587c10.812-4.446 20.156-10.075 28.634-18.195l1.522-1.45 1.378-1.45 1.039-1.049c5.244-5.527 8.526-11.945 10.559-19.248ZM308.358 564.694h.58c.634 2.569.687 5.09.689 7.721l.021 1.267c.028 10.423-5.56 19.578-12.562 26.895-4.251 4.034-9.041 7.259-14.244 9.931v-1.16a442.59 442.59 0 0 1 3.128-2.313c9.727-7.51 19.057-18.236 21.228-30.742.495-3.856.846-7.725 1.16-11.599ZM165.117 584.412l1.088 1.124 1.812 1.776 1.055 1.089c5.869 5.711 13.277 9.505 20.27 13.658l1.616.962c1.024.608 2.05 1.213 3.078 1.815l1.391.823 1.228.719c.938.651.938.651 1.518 1.811-11.574-1.35-24.339-11.477-31.389-20.261-1.667-2.178-1.667-2.178-1.667-3.516ZM191.214 656.902l1.16.58c-5.022 5.82-10.923 8.635-18.557 9.279-4.589.318-10.005.29-13.919-2.32l1.006-.016c16.276-.167 16.276-.167 30.31-7.523ZM282.841 588.472l.58 1.16c-3.117 4.499-6.415 7.409-10.982 10.402-6.535 4.273-6.535 4.273-9.895 11.055h-.58c-.337-4.892-.337-4.892 1.455-7.184 3.751-4.055 7.88-7.087 12.632-9.851 2.666-1.578 4.675-3.313 6.79-5.582ZM273.562 638.345l1.269.978c6.673 4.336 14.209 5.102 21.928 5.981-1.633 1.633-2.857 1.342-5.092 1.38-5.947-.011-10.59-.281-15.495-3.954-1.416-1.451-2.058-2.453-2.61-4.385ZM245.727 569.914c4.025.168 7.524.791 11.018 2.9l.58 1.16c-5.823.367-5.823.367-8.083-1.124l-1.196-1.196c-1.265-.452-1.265-.452-2.319-.58v-1.16Z" fill="#fff"/><path d="M587.522 818.435c-1.074 1.373-1.132 2.749-1.383 4.425-1.852 10.937-8.102 20.252-17.076 26.745-1.898 1.321-3.807 2.561-5.819 3.702l-.711.403c-7.712 4.331-16.093 7.309-24.876 8.51l.739-.305c5.783-2.551 12.467-7.085 15.076-13.067.329-.876.634-1.756.928-2.645l.315-.919c.253-.739.5-1.479.747-2.219l-.78-.277-.559.608c-6.165 6.351-14.908 7.588-23.23 9.121-7.052 1.317-13.8 2.863-20.398 5.751l-1.085.429c-5.033 2.12-9.878 6.553-12.043 11.603-2.7 6.816-2.7 6.816-2.389 10.574l.106 1.354c.636 5.489 2.506 11.91 6.487 15.936l1.56.555.739-1.303c1.133-1.703 2.547-2.729 4.465-3.438 1.132-.251 1.132-.251 2.228-.086.689.722.689.722 1.168 1.734 3.47 5.914 8.614 8.82 15.084 10.643 5.305 1.244 10.57 1.425 15.849-.074l.277-.78-1.345-.659c-3.157-1.6-6.037-3.244-8.619-5.689l-.637-.599c-1.5-1.488-3.158-3.349-3.423-5.516l.788.056c2.685.166 5.298.123 7.979-.067l1.235-.084c1.253-.089 2.505-.184 3.757-.282l1.15-.09c19.765-1.617 41.034-7.899 54.587-23.146 1.629-1.954 2.385-3.959 3.141-6.354-1.535.681-2.841 1.479-4.2 2.461-15.031 10.404-34.026 12.942-51.804 10.295-1.272-.235-2.373-.501-3.562-.991l1.479-.442c15.118-4.574 29.634-11.42 38.072-25.478l.649-1.057a44.243 44.243 0 0 0 5.334-29.338Z" fill="#0E1E27"/><path d="m513.516 818.906-.845.246-1.139.312-1.116.313c-3.087.546-5.877-.336-8.829-1.16-7.306-2.036-7.306-2.036-9.936-1.257-1.171.82-1.171.82-1.86 2.14-.557 1.38-.557 1.38-1.927 1.787l-1.251.351c-1.526 1.011-2.083 2.664-2.447 4.403.169 1.379.169 1.379.476 2.368l.955-.677c1.908-1.055 3.308-1.218 5.435-.758 1.655.824 2.815 1.862 3.918 3.345.267 2.182-1.333 4.249-2.603 5.899-1.126 1.35-2.294 2.662-3.465 3.973-.79.893-1.577 1.789-2.365 2.685l-.577.655c-6.586 7.516-11.322 15.502-10.793 25.827.827 9.225 5.987 16.914 12.034 23.612 7.084 7.858 8.58 18.381 8.097 28.738-.036.621-.074 1.243-.112 1.864l-.081 1.505c-1.051 10.606-6.269 20.838-14.257 27.826-1.705 1.351-3.458 2.54-5.318 3.669 6.252.14 12.734-4.39 17.075-8.537 3.505-3.521 5.62-6.853 7.264-11.534l.386-1.071a44.799 44.799 0 0 0 1.761-6.351c.842 20.119-7.95 38.289-21.11 53.14a101.183 101.183 0 0 1-3.414 3.426l-.731.813.112.919c8.349-6.15 15.55-13.26 21.395-21.833l.607-.884c8.496-12.459 14.848-27.537 12.324-42.861.473.119.473.119.738.785 2.697 6.243 2.8 13.156 2.906 19.851l.39.139c3.723-8.379 2.463-18.626-.724-26.986-.766-1.958-1.587-3.891-2.404-5.828-1.926-4.633-3.091-8.411-1.964-13.39-1.656.257-2.78.572-4.093 1.62-.558.935-.558.935-.997 1.953l-.453 1.027-.329.783c-5.238-2.733-8.46-7.252-10.292-12.838-.716-2.523-1.195-4.949-1.345-7.566l-.109-1.16c-.256-5.686 2.326-12.207 5.966-16.533.923-.964 1.844-1.917 2.814-2.833.957-1.376 1.203-2.535 1.574-4.155.461-1.799 1.049-3.54 1.65-5.297l.359-1.063c.496-1.465.993-2.93 1.498-4.392 3.481-10.102 3.481-10.102 2.348-15.287l-.282-1.362a41.12 41.12 0 0 0-1.202-3.808l.675-.406c2.587-1.622 4.557-3.18 5.613-6.147Z" fill="#0E1E27"/><path d="M471.78 784.276c-4.543 1.956-8.23 5.808-11.326 9.595l-.735.868c-4.42 5.851-6.085 13.672-6.121 20.865l-.021 1.598c.171 6.447 2.193 12.763 4.584 18.703.538 1.289.538 1.289.866 2.728-6.759-5.776-12.495-12.076-16.556-20.051-.569-.987-.569-.987-1.6-1.794a47.26 47.26 0 0 1-.225-1.838 90.822 90.822 0 0 0-.957-2.483c-1.693-4.632-1.967-9.44-1.847-14.338-2.311.866-3.29 2.941-4.424 5.019-3.612 8.008-3.512 15.663-.493 23.814 4.396 11.179 12.765 20.857 21.832 28.61-1.379 1.08-2.209 1.332-3.954 1.23-1.31-.363-2.574-.833-3.845-1.313l-1.041-.383c-.843-.31-1.685-.625-2.526-.942 3.553 6.066 9.86 10.742 16.643 12.516 1.633.129 3.214.077 4.846-.033l1.309.026.194.73c.947 3.323 2.144 6.821 5.248 8.679.647.239 1.297.472 1.951.694l-.059-.778a362.873 362.873 0 0 1-.474-7.515 139.82 139.82 0 0 0-.175-2.672c-.169-7.357 3.76-15.079 8.416-20.574l.779-.674c.797-.873.823-1.531.86-2.698-.957-4.949-3.949-9.316-6.736-13.413-2.497-3.691-4.424-6.98-4.154-11.56l-.39-.138c-2.276 5.445-2.71 10.105-1.236 15.822l.364 1.448c-5.879-8.153-9.802-16.325-10.336-26.533l-.072-1.114c-.079-6.379 2.785-12.866 7.084-17.506a75.383 75.383 0 0 1 3.132-2.956c.917-.858.917-.858 1.195-1.639Z" fill="#0E1E27"/><path d="M554.933 843.316a46.065 46.065 0 0 0-3.397 2.445c-5.497 4.072-12.336 5.284-18.94 6.444-7.811 1.374-15.433 2.895-22.629 6.313l-1.019.404c-4.835 1.971-9.533 6.602-11.58 11.378-2.7 6.815-2.7 6.815-2.389 10.574l.105 1.354c.619 5.333 2.445 12.142 6.488 15.935.937.184.937.184 1.699.166l-.697-.358c-.803-.518-.803-.518-.856-1.376l-.094-1.05-.633-1.462c-.598-1.52-.598-1.52-.252-2.919 1.935-3.622 4.973-6.152 8.727-7.772 2.04-.319 3.481.256 5.349 1.025l1.031.806c10.669 4.88 23.055 5.909 34.153 1.844l.916-.351-.112-.919-1.438.003c-9.038-.044-20.636-.542-27.76-6.878l-.893-1.197.699-.139c4.479-.898 8.903-1.826 13.252-3.246l1.306-.409c2.663-.868 5.24-1.853 7.547-3.473l.278-.78a61.589 61.589 0 0 0-3.53.512c-4.208.703-7.95.974-12.206.48l-1.435-.131c-2.618-.258-5.089-.696-7.617-1.425-.866-.215-.866-.215-1.785-.103l.277-.78 2.229-.086.277-.78.711-.025c1.598-.284 2.978-.94 4.454-1.598a549.93 549.93 0 0 1 1.757-.773l.846-.371a32.046 32.046 0 0 1 2.256-.811l1.057-.39.278-.78 1.309.026c.836-.452.836-.452 1.724-1.062l.888-.599c1.275-.951 2.051-1.56 2.592-3.08l-.781-.277-.923.742c-4.63 3.6-10.977 4.069-16.562 5.012a223.555 223.555 0 0 0-13.2 2.664c2.676-4.586 8.809-6.847 13.64-8.213l.895-.254c3.32-.919 6.684-1.58 10.065-2.227 10.965-2.12 10.965-2.12 14.198-4.07.901-.526 1.801-.938 2.757-1.35 2.573-1.205 5.54-2.861 6.674-5.549l.294-1.064ZM494.522 824.345l-1.411-.537c-1.941-.495-3.441-.261-5.33.335-1.291.856-1.712 1.84-2.332 3.236l.823-.188c2.325-.469 3.954-.733 6.112.458 1.836 1.502 1.836 1.502 2.678 3.59-1.094 3.578-3.748 6.23-6.18 8.954-.79.893-1.578 1.788-2.365 2.684l-.577.655c-6.798 7.757-11.099 15.538-10.791 26.101.126 1.153.126 1.153.767 1.82l.468-1.444c3.221-9.665 9.494-17.468 17.234-23.983 3.735-3.165 7.176-6.891 7.617-11.982.026-.941.024-1.871-.017-2.811l-.78-.278.015-.736c-.694-3.189-3.029-4.8-5.931-5.874Z" fill="#fff" fill-opacity=".31"/><path d="m474.314 833.964-.78-.278c-1.69 3.94-1.251 6.993.04 11.002-3.404-1.077-6.271-2.058-8.946-4.502-.817 2.491.073 4.332 1.177 6.572 1.001 1.675 1.001 1.675 1.925 2.003l-.278.78-.738.067c-1.1.158-1.1.158-2.311.551-2.37.637-4.894.259-7.312.09.683 1.437 1.774 1.932 3.105 2.699l.782.452c6.152 3.457 6.152 3.457 8.821 3.13l-.142.949c-.58 4.578.051 8.848 2.219 12.975l.78.278c.216-1.184.3-2.247.266-3.454-.081-3.938.681-7.189 2.013-10.898l.469-1.311c.884-2.346 1.873-4.31 3.328-6.348.579-1.46.758-2.357.241-3.856-.99-2.141-2.188-4.17-3.353-6.219-.843-1.571-1.342-2.899-1.306-4.682Z" fill="#fff" fill-opacity=".31"/><path d="m508.664 838.717-.39-.139-.491 1.101c-2.889 6.231-7.231 10.737-12.019 15.588-7.533 7.673-7.533 7.673-9.156 12.08l-.444 1.064c-3.283 8.33-1.096 17.03 2.144 25.033l.919-.113-.222-.647c-2.374-7.221-3.743-14.653-1.082-21.93l.364-1.051c1.314-3.661 3.178-6.654 5.767-9.54l.673-.764c.722-.82 1.449-1.637 2.175-2.453.799-.903 1.597-1.806 2.394-2.71.509-.577 1.019-1.153 1.53-1.728 1.245-1.405 2.451-2.82 3.587-4.316l-.998 4.04.39.138 4.859-13.653ZM504.336 903.981l-.39-.138c-1.362 5.221.128 10.369 1.255 15.502 3.334 15.231.524 26.168-7.21 39.515l-1.309 2.278-.999 1.735c1.676-1.037 2.691-2.289 3.803-3.893l.584-.84c6.545-9.653 10.875-20.594 8.698-32.398a79.39 79.39 0 0 0-2.304-8.752c-1.36-4.198-2.271-8.58-2.128-13.009ZM584.282 836.182a77.56 77.56 0 0 0-.39-.139l-.778 1.367c-8.549 14.789-20.587 24.388-37.152 28.881-2.04.515-4.088.872-6.183 1.08 1.032.807 1.032.807 1.979.786l1.15-.174 1.283-.193 1.372-.228 1.401-.23c3.867-.672 7.45-1.659 11.084-3.128l1.377-.557c10.567-4.661 19.65-13.954 23.93-24.724.329-.909.64-1.818.927-2.741ZM591.398 872.995c-1.806.67-3.565 1.352-5.291 2.21-11.257 5.424-25.045 7.995-37.454 6.751-.814-.053-1.629-.105-2.444-.156-2.302-.175-4.561-.537-6.832-.948l-.139.39c2.871 1.265 5.739 1.919 8.825 2.372l1.018.153c14.274 1.952 30.123-1.884 42.04-9.992l.277-.78Z" fill="#fff"/><path d="M507.605 839.219c-1.066.795-1.98 1.647-2.923 2.581-3.293 3.251-6.826 6.021-10.561 8.741-6.576 4.808-12.478 9.632-14.866 17.705l-.305 1.021c-.688 2.89-.542 5.576-.255 8.504l.113 1.162c.317 2.775.317 2.775 1.327 4.13.074-2.298-.018-4.577-.138-6.871-.243-5.359 1.879-11.374 5.433-15.418 3.529-3.629 7.352-6.846 11.415-9.853 3.85-2.901 9.108-7.06 10.76-11.702ZM435.179 806.851l-.39-.139c-2.203 7.35-.059 15.478 3.442 22.107a83.061 83.061 0 0 0 2.324 3.679l.665 1.04c4.096 6.125 9.901 11.024 16.037 15.013-.142-1.166-.464-1.326-1.335-2.086l-.787-.697-.852-.748c-6.208-5.578-11.146-11.602-14.905-19.094l-.677-1.34-.579-1.305-.449-.954c-2.204-4.974-2.875-10.077-2.494-15.476ZM459.515 801.447l-.39-.139c-1.041 1.577-1.68 3.26-2.311 5.029l-.318.847c-2.515 7.005-.947 14.501 2.012 21.099 1.894 3.732 4.343 7.047 7.204 10.091l.278-.78c-.514-.771-1.03-1.54-1.551-2.305-4.745-7.381-8.454-16.83-6.92-25.762.59-2.712 1.28-5.399 1.996-8.08ZM551.15 849.003l-1 .495-1.644.761-.971.481c-5.315 2.436-11.207 3.215-16.905 4.334l-1.317.261c-.835.164-1.67.325-2.505.483l-1.133.221-.999.19c-.786.213-.786.213-1.454.855 8.109 1.862 19.12-1.894 25.965-6.115 1.643-1.066 1.643-1.066 1.963-1.966ZM516.243 891.519l-.919.112c1.985 5.117 5.28 8.423 10.262 10.684 3.01 1.313 6.66 2.59 9.918 1.772l-.673-.252c-10.908-4.009-10.908-4.009-18.588-12.316ZM470.988 823.55l-.668.642c1.02 3.773 2.542 6.52 4.898 9.626 3.373 4.439 3.373 4.439 4.009 9.806l.39.138c1.398-3.209 1.398-3.209.742-5.18-1.553-3.626-3.604-6.654-6.139-9.651-1.416-1.7-2.352-3.347-3.232-5.381ZM465.291 859.32l-1.088.355c-5.527 1.319-10.779.03-16.182-1.227.708 1.49 1.601 1.587 3.095 2.148 4.003 1.416 7.191 2.346 11.37 1.05 1.3-.638 1.971-1.158 2.805-2.326ZM500.398 819.952c-2.747-.85-5.251-1.269-8.106-.687l-.667.641c3.828 1.641 3.828 1.641 5.706 1.179l1.091-.518c.959-.001.959-.001 1.699.165l.277-.78Z" fill="#fff"/><path d="M495.369 173.872c.584 2.9-.376 5.032-1.27 7.766-5.513 18.002-3.121 36.89 5.552 53.57 1.875 3.447 3.826 6.782 6.011 10.043l.772 1.154c8.403 12.44 18.851 23.335 31.262 31.842l-.888-1.026c-6.832-8.271-13.522-20.235-12.928-31.297.167-1.58.375-3.146.605-4.718l.222-1.635c.179-1.312.366-2.623.555-3.934l1.395.172.384 1.348c4.52 14.328 16.843 22.857 28.301 31.517 9.696 7.363 18.756 14.845 26.569 24.247l1.319 1.477c6.023 7.047 10 17.458 9.44 26.768-1.09 12.395-1.09 12.395-4.423 17.859l-1.19 1.975c-5.143 7.842-12.866 16.161-21.969 19.238l-2.79-.345-.129-2.539c-.423-3.446-1.787-6.079-4.157-8.613-1.525-1.243-1.525-1.243-3.315-1.826-1.595.57-1.595.57-3.092 1.742-9.765 6.331-19.779 6.824-30.983 4.666-8.994-2.15-17.119-5.882-23.988-12.173l.173-1.395 2.542.024c6.007-.024 11.628-.327 17.406-2.071l1.422-.425c3.408-1.115 7.34-2.677 9.39-5.762l-1.238-.515c-4.199-1.791-8.129-3.846-12.053-6.174l-1.809-1.068a819.57 819.57 0 0 1-5.486-3.287l-1.675-1.011c-28.755-17.494-56.241-43.21-65.199-76.657-.984-4.204-.605-7.821.071-12.029 1.81 2.201 3.183 4.405 4.498 6.929 14.885 27.223 41.771 45.53 70.757 55.043 2.107.612 3.98 1.046 6.158 1.207l-1.908-1.797c-19.455-18.443-36.266-39.877-38.369-67.625l-.18-2.097c-1.032-17.354 4.026-34.511 14.235-48.568Z" fill="#446779"/><path d="m607.284 230.907 1.094 1.015 1.491 1.341 1.455 1.325c4.267 3.177 9.172 3.962 14.277 4.958 12.634 2.472 12.634 2.472 16.03 5.656 1.152 2.134 1.152 2.134 1.194 4.662-.207 2.517-.207 2.517 1.564 4.176l1.63 1.486c1.545 2.695 1.132 5.626.36 8.542-1.305 1.963-1.305 1.963-2.523 3.228a936.9 936.9 0 0 1-.934-1.753c-2.091-3.051-4.092-4.365-7.667-5.285-3.138-.009-5.689.683-8.491 2.092-2.066 3.108-1.211 7.461-.54 10.931.68 2.905 1.454 5.784 2.233 8.664.518 1.956 1.032 3.914 1.544 5.873l.377 1.433c4.272 16.414 5.379 32.134-3.281 47.395-8.275 13.366-21.954 21.104-36.225 26.663-16.728 6.53-27.006 21.357-34.154 37.437-.418.97-.835 1.941-1.249 2.913l-1.023 2.344c-6.476 16.891-6.347 36.385.453 53.064 1.558 3.349 3.313 6.486 5.275 9.615-9.591-4.546-15.977-16.351-19.407-25.946-2.638-8.01-3.311-14.675-2.242-23.026l.229-1.919c.47-3.755 1.154-7.328 2.162-10.975-16.589 29.881-17.078 64.137-8.416 96.683.789 2.622 1.66 5.213 2.574 7.795l.489 1.79-.87 1.308c-7.985-15.682-13.498-31.95-15.842-49.404l-.248-1.802c-3.407-25.368-1.568-53.076 13.921-74.403-.807-.179-.807-.179-1.715.629-8.844 7.419-14.261 17.828-19.517 27.903l-.698-.086c.73-15.544 10.439-30.13 21.637-40.388 2.651-2.387 5.368-4.695 8.081-7.011 6.448-5.564 11.091-10.409 13.171-18.819 2.316 1.649 3.782 2.982 4.976 5.572.134 1.843.134 1.843.026 3.721l-.094 1.903-.097 1.437c10.026-.16 18.354-4.563 25.383-11.643 3.007-3.282 5.581-6.598 7.799-10.454l1.049-1.677c4.714-8.431 5.76-20.289 3.53-29.623-.667-2.164-1.338-4.311-2.113-6.439-.404-2.816.104-4.761.775-7.501.67-3.081 1.102-6.17 1.528-9.292l.264-1.886c.363-2.6.723-5.201 1.069-7.803 2.408-17.975 2.408-17.975 8.072-24.978l1.466-1.852c1.495-1.717 3.066-3.299 4.72-4.863l-.715-1.129c-2.69-4.429-4.493-8.293-3.837-13.597Z" fill="#446779"/><path d="M696.954 210.132c5.403 6.424 8.065 15.074 9.881 23.174l.454 1.876c2.252 12.241-1.175 25.373-6.594 36.313l-1.184 2.439c-5.165 9.651-13.039 17.694-21.188 24.887-1.796 1.546-1.796 1.546-3.39 3.478 14.65-3.617 28.146-8.81 40.377-17.819 1.615-1.064 1.615-1.064 3.793-1.503a81.306 81.306 0 0 0 1.74-2.617 150.026 150.026 0 0 1 3.342-3.039c6.093-5.739 10.168-12.824 13.713-20.345 2.846 3.072 2.752 6.963 2.891 10.979-.614 14.898-6.59 26.435-17.374 36.503-15.177 13.615-35.239 21.928-54.894 26.79 1.27 2.688 2.337 3.701 5.062 4.875 2.264.446 4.539.695 6.833.934l1.87.212c1.516.17 3.032.333 4.549.493-10.006 6.498-23.134 8.793-34.773 6.322-2.575-1.048-4.934-2.33-7.327-3.739l-2.006-.956-.849.96c-3.967 4.321-8.445 8.716-14.567 9.172-1.164-.129-2.327-.27-3.487-.432l.68-1.134a608.143 608.143 0 0 0 6.439-11.041c.752-1.315 1.522-2.62 2.299-3.921 5.854-11.032 5.771-25.737 2.89-37.616l-.669-1.616c-.546-1.931-.084-2.949.747-4.748 5.219-6.779 13.082-11.127 20.427-15.222 6.598-3.699 12.024-7.223 15.1-14.375l.698.086c-.692 9.992-3.58 17.392-10.167 24.944l-1.653 1.92c15.123-7.894 27.294-17.307 35.871-32.387l.958-1.635c4.975-9.617 5.566-21.639 2.575-31.949-.761-2.323-1.609-4.592-2.502-6.869-.738-1.999-.738-1.999-.565-3.394Z" fill="#446779"/><path d="M525.875 236.422c1.209 2.057 2.276 4.137 3.293 6.294 5.241 10.361 14.694 17.405 23.829 24.191 10.805 8.03 21.21 16.136 29.526 26.799l1.239 1.387c5.835 6.671 9.438 17.271 8.909 26.075-1.09 12.394-1.09 12.394-4.423 17.859l-1.19 1.975c-4.996 7.619-12.949 16.56-21.969 19.238-1.562-.434-1.562-.434-2.704-1.043l1.33-.012c1.612-.175 1.612-.175 2.346-1.436l.94-1.522 2.074-1.735c2.063-1.852 2.063-1.852 2.604-4.236-.18-6.968-2.863-13.12-7.325-18.433-2.851-2.037-5.476-2.26-8.894-2.516l-2.179.439c-19.898-.717-39.473-8.581-53.216-23.195l-1.123-1.229.87-1.309 2.179 1.1c13.745 6.809 31.72 14.881 47.349 10.691l2.265-1.137-.955-.743c-6.111-4.771-12.117-9.546-17.633-15.01l-1.67-1.615c-3.38-3.342-6.54-6.798-8.807-11.011l.173-1.395a103.851 103.851 0 0 1 4.965 3.463c5.848 4.269 11.32 7.528 18.152 10.018l2.277.893c4.168 1.601 8.25 2.816 12.64 3.635 1.478.332 1.478.332 2.786 1.202l.173-1.395-3.315-1.826.173-1.395-1.06-.579c-2.208-1.645-3.803-3.692-5.541-5.814a985.632 985.632 0 0 0-2.077-2.508l-1.001-1.208c-.888-1.026-1.844-1.991-2.806-2.948l-1.307-1.395.172-1.395-2.006-.956c-.923-1.323-.923-1.323-1.807-2.924l-.891-1.584c-1.21-2.414-1.924-3.927-1.588-6.644l1.395.172.836 1.83c4.285 8.983 13.557 14.525 21.312 20.206a380.338 380.338 0 0 1 17.998 14.087c-.569-8.994-8.152-17.091-14.442-22.839l-1.165-1.067c-4.338-3.92-8.937-7.484-13.576-11.038-15.021-11.561-15.021-11.561-18.441-16.98-.966-1.483-2.018-2.794-3.155-4.147-2.987-3.785-6.228-8.555-5.902-13.496l.363-1.839ZM631.961 253.613l2.548.26c3.322.727 5.419 2.222 7.831 4.565 1.308 2.282 1.197 4.094 1.077 6.683l-1.107-.911c-3.17-2.481-5.44-4.12-9.622-3.956-3.926.881-3.926.881-6.794 3.408-1.063 6.26.944 12.304 2.562 18.286a1750.13 1750.13 0 0 1 1.545 5.873l.377 1.433c4.409 16.941 5.013 32.018-3.493 47.81-1.067 1.652-1.067 1.652-2.549 2.177l.39-2.547c2.469-17.114-1.11-33.726-7.895-49.5-3.257-7.644-5.642-15.915-2.437-23.975a67.639 67.639 0 0 1 2.166-4.252l1.395.173.538-1.129c3.479-4.308 8.247-4.975 13.468-4.398Z" fill="#fff"/><path d="m655.294 283.584 1.395.172c-.433 7.264-3.423 11.562-8.433 16.661 5.984.957 11.08 1.65 16.998-.023-.657 4.402-3.407 6.518-6.788 9.075-2.793 1.779-2.793 1.779-4.443 1.575l-.173 1.395 1.069.663c1.549 1.077 1.549 1.077 3.087 2.595 3.11 2.769 7.228 4.117 11.024 5.7-2.129 1.661-4.161 1.581-6.765 1.731l-1.53.092c-11.963.562-11.963.562-15.764-1.965l-.507 1.547c-2.604 7.388-6.81 13.385-13.241 17.997l-1.395-.173a27.236 27.236 0 0 1 2.225-5.442c3.121-5.912 4.438-11.425 5.241-18.065l.285-2.346c.445-4.232.439-7.965-.217-12.163.233-2.655.643-4.153 2.569-6.033 3.131-2.496 6.492-4.662 9.819-6.883 2.475-1.742 4.242-3.377 5.544-6.11ZM599.568 264.655l.698.087-.092 2.043c-.36 11.653 2.797 21.792 6.369 32.796 5.59 17.374 5.59 17.374 4.698 25.294l-.137 1.952c-1.359 15.136-11.297 26.67-22.303 36.345l-1.309-.87.831-.813c9.096-9.149 16.829-19.381 18.331-32.446l.248-1.871c.791-6.554.242-12.514-1.491-18.863l-.438-1.67a1090.16 1090.16 0 0 0-1.434-5.377c-.525-1.978-1.047-3.955-1.569-5.933a1005.78 1005.78 0 0 0-1.007-3.787c-.819-3.078-1.571-6.143-2.156-9.277l-1.56 6.888-.698-.086 3.019-24.412ZM556.468 366.96l.697.086c-1.907 8.959-8.086 15.634-13.701 22.564-16.65 20.568-20.71 39.3-19.134 65.434l.252 4.452.194 3.393c-1.752-2.85-2.339-5.521-2.806-8.801l-.246-1.717c-2.583-19.627-.826-39.52 11.461-55.771a134.62 134.62 0 0 1 10.155-11.524c5.257-5.333 9.974-11.288 13.128-18.116ZM486.778 203.262l.697.086.14 2.667c1.714 28.941 12.672 52.664 34.384 72.087a71.552 71.552 0 0 0 8.557 6.345c-2.179.439-2.179.439-3.6-.313l-1.612-1.139-1.799-1.27-1.907-1.391-1.952-1.415c-5.355-3.961-10.039-8.186-14.434-13.181l-1.666-1.893c-12.483-15.112-19.192-36.122-17.487-55.719.192-1.629.411-3.246.679-4.864ZM447.967 253.695c2.231 2.391 4.38 4.765 6.346 7.38 12.95 16.796 31.911 31.188 51.682 38.745 1.277.539 2.552 1.08 3.827 1.623 3.626 1.486 7.329 2.657 11.086 3.762l-.086.697c-5.317-.266-10.167-1.457-15.193-3.118l-1.661-.542c-23.14-7.902-44.265-25.783-56.174-47.152l.173-1.395Z" fill="#fff"/><path d="M600.793 266.221c1.013 2.019 1.751 4.006 2.471 6.141 2.521 7.438 5.774 14.328 9.369 21.297 6.318 12.299 11.6 24.109 9.08 38.173l-.315 1.782c-1.155 4.907-3.42 8.871-6.084 13.095l-1.056 1.676c-2.593 3.97-2.593 3.97-5.157 5.256 1.637-3.542 3.511-6.929 5.438-10.318 4.448-7.945 5.806-18.685 3.491-27.525-2.591-8.191-5.944-15.981-9.819-23.636-3.632-7.33-8.444-17.642-7.418-25.941ZM735.301 272.235l.697.086c-2.252 12.827-11.69 23.526-22.047 30.919a140.237 140.237 0 0 1-6.325 3.812l-1.8 1.072c-10.876 6.175-23.411 9.19-35.755 10.571 1.104-1.66 1.713-1.659 3.613-2.148l1.724-.459 1.861-.486c13.664-3.739 25.74-9.12 37.145-17.625l2.046-1.517 1.872-1.539 1.407-1.107c7.128-5.868 12.03-13.098 15.562-21.579ZM702.494 245.515l.697.086c.38 3.184.068 6.224-.32 9.388l-.163 1.527c-1.516 12.541-9.599 22.72-19.109 30.479-5.713 4.219-11.953 7.385-18.609 9.825l.173-1.395a533.276 533.276 0 0 1 4.106-2.316c12.816-7.586 25.633-19.099 30.104-33.817 1.168-4.564 2.167-9.165 3.121-13.777ZM527.283 247.925l1.141 1.513 1.915 2.405 1.108 1.468c6.209 7.741 14.554 13.406 22.347 19.441l1.8 1.397c1.141.884 2.285 1.765 3.432 2.641l1.551 1.196 1.37 1.048c1.031.923 1.031.923 1.556 2.404-13.719-3.345-27.565-17.424-34.737-29.037-1.682-2.868-1.682-2.868-1.483-4.476ZM547.886 338.992l1.309.87c-6.905 6.252-14.421 8.76-23.699 8.399-5.566-.299-12.076-1.14-16.395-4.86l1.212.13c19.6 2.22 19.6 2.22 37.573-4.539ZM668.269 270.319l.525 1.482c-4.419 4.947-8.818 7.957-14.756 10.877-8.495 4.167-8.495 4.167-13.545 11.824l-.697-.086c.321-5.933.321-5.933 2.817-8.423 5.115-4.32 10.532-7.353 16.658-9.97 3.442-1.501 6.116-3.288 8.998-5.704ZM649.689 328.92l1.381 1.366c7.381 6.207 16.33 8.248 25.483 10.454-2.207 1.722-3.635 1.189-6.329.903-7.152-.899-12.696-1.914-18.048-7.06-1.488-1.957-2.11-3.257-2.487-5.663ZM626.389 242.477c4.816.8 8.932 2.07 12.82 5.126l.525 1.481c-7.057-.425-7.057-.425-9.554-2.554l-1.26-1.616c-1.455-.731-1.455-.731-2.704-1.042l.173-1.395Z" fill="#fff"/><path d="M402.73 827.624c-30.916-15.821-65.966-21.887-96.24-38.744-29.551-16.454-50.515-41.465-64.612-71.955m-2.485-169.324c26.628-37.188 73.356-55.95 112.619-75.682C392.659 451.492 478.001 417 510.501 378" stroke="#FF9900" stroke-width="3" stroke-linecap="round" stroke-linejoin="round" stroke-dasharray="57 57"/></g><defs><filter id="a" x="-78.8" y="-78.8" width="986.6" height="1212.6" filterUnits="userSpaceOnUse" color-interpolation-filters="sRGB"><feFlood flood-opacity="0" result="BackgroundImageFix"/><feGaussianBlur in="BackgroundImageFix" stdDeviation="39.4"/><feComposite in2="SourceAlpha" operator="in" result="effect1_backgroundBlur_153_883"/><feBlend in="SourceGraphic" in2="effect1_backgroundBlur_153_883" result="shape"/></filter></defs></svg>