<svg width="1494" height="319" fill="none" xmlns="http://www.w3.org/2000/svg"><path d="M108.49 314.481V54.619H.065V.854h277.784v53.765H168.976V314.48H108.49Zm207.554 0V.854h58.246v122.315c13.441-22.402 38.531-37.188 67.654-37.188 53.764 0 77.958 35.844 77.958 85.128v143.372h-58.245V177.829c0-29.122-12.993-44.804-35.395-44.804h-3.584c-26.883 0-48.388 25.539-48.388 56.901v124.555h-58.246Zm322.134 4.481c-40.324 0-73.479-25.538-73.479-65.862 0-48.388 37.636-70.342 81.992-73.926l56.452-4.929v-5.376c0-20.162-13.889-35.844-35.843-35.844h-3.584c-21.954 0-34.947 13.89-36.291 26.883H569.18c4.48-42.116 40.323-73.927 96.328-73.927s94.088 28.227 94.088 80.647v98.569c0 13.441 0 33.603 2.241 49.284h-54.661c-1.344-6.72-2.24-17.025-2.688-27.33-13.442 19.266-37.188 31.811-66.31 31.811Zm-16.13-69.894c0 13.889 12.097 22.85 27.779 22.85h3.584c25.986 0 49.732-19.714 49.732-48.837v-6.272l-48.388 4.928c-14.785 1.344-32.707 8.961-32.707 27.331Zm195.853 65.413V90.461h58.245v32.708c13.441-22.402 38.532-37.188 67.654-37.188 53.765 0 77.96 35.844 77.96 85.128v143.372h-58.246V177.829c0-29.122-12.993-44.804-35.395-44.804h-3.585c-26.882 0-48.388 25.539-48.388 56.901v124.555h-58.245Zm261.649 0V.854h58.24v172.943l81.1-83.335h71.24l-86.03 89.16 90.51 134.859h-68.55l-62.28-93.192-25.99 26.435v66.757h-58.24Zm320.44 4.481c-60.49 0-97.23-29.123-97.23-78.407h59.59c0 20.162 15.24 33.603 37.64 33.603h3.58c17.92 0 30.47-8.513 30.47-21.954 0-11.649-7.62-18.37-23.75-22.402l-29.12-7.169c-47.04-11.649-69.45-31.362-69.45-67.654 0-40.323 34.06-68.998 90.06-68.998 58.25 0 91.85 29.123 91.85 76.167h-58.25c-2.24-19.266-13.44-31.363-33.6-31.363h-3.58c-15.69 0-29.13 6.273-29.13 21.954 0 12.097 11.2 18.37 29.57 22.85l30.02 7.617c43.01 10.753 62.73 31.363 62.73 66.758 0 38.083-30.92 68.998-91.4 68.998Z" fill="#fff"/></svg>