<svg width="378" height="412" fill="none" xmlns="http://www.w3.org/2000/svg"><g clip-path="url(#a)"><path d="M139.583 227.156c7.754 1.55 15.431-4.174 17.147-12.786 1.715-8.612-3.18-16.85-10.934-18.401-7.753-1.55-15.43 4.174-17.146 12.786-1.716 8.612 3.179 16.85 10.933 18.401Z" fill="#fff"/><path d="M160.959 161.909c.254.135.517.251.787.347 9.37 2.427 17.914 7.512 24.801 14.761 11.923 12.506 17.837 28.081 17.789 46.581a61.464 61.464 0 0 1-.819 9.729c-.072.473-.121.98-.192 1.556l100.499 18.244c-6.535 40.421-48.279 84.056-98.6 86.781-19.447 1.052-37.342-4.188-53.451-15.509-16.109-11.322-27.711-26.849-34.843-46.444-7.132-19.595-8.399-40.04-4.135-61.225l-24.21-4.841c.218-1.092.353-2.079.605-3.033 3.72-13.71 11.374-25.875 21.786-34.631 10.412-8.757 23.008-13.621 35.861-13.849a44.987 44.987 0 0 1 7.836.466c.319.024.64.025.961.002l5.325 1.065Zm-7.692 26.212c-9.644-2.012-19.453 5.13-21.658 15.801-2.282 10.972 3.751 21.502 13.479 23.53 2.325.49 4.732.466 7.085-.069 2.353-.536 4.605-1.574 6.629-3.053a20.283 20.283 0 0 0 5.163-5.572 21.991 21.991 0 0 0 2.913-7.242c.537-2.582.61-5.236.217-7.81a20.42 20.42 0 0 0-2.51-7.188c-1.264-2.173-2.914-4.032-4.856-5.473a16.555 16.555 0 0 0-6.462-2.924Z" fill="#666"/><path fill-rule="evenodd" clip-rule="evenodd" d="M102.815 255.966c5.859 1.786 15.318 3.725 15.966 9.675l-2.931-17.275c-.159 2.992-6.052 6.496-10.049 5.199-21.041-6.814-38.199-18.145-45.58-40.375-5.348-16.121-3.361-32.15 1.556-47.975 4.576-14.698 11.832-28.145 19.837-41.217a9.286 9.286 0 0 1 3.443-3.649 9.262 9.262 0 0 1 4.835-1.322c.346-.006.69-.022 1.034-.039.411-.021.823-.041 1.237-.041 34.901.19 69.797-.355 104.694-.899 36.201-.566 72.403-1.131 108.614-.876 4.69.034 8.006 1.331 9.823 5.882 10.197 25.756 17.157 52.138 14.035 80.17-2.078 18.68-8.097 35.745-23.245 48.259-.437.359-.924.659-1.552 1.046l-.001.001c-.367.226-.669.388-1.15.702l-2.276 10.243c.341-2.641 2.097-5.392 4.434-7.111 18.316-13.584 25.186-32.981 27.253-54.539 2.634-27.372-3.52-53.39-13.853-78.566l-.064-.154c-2.401-5.842-2.401-5.842 4.049-5.842h52.234c3.384 0 7.029-.159 6.359-4.926-1.089-7.86-.425-15.642.239-23.424.284-3.335.568-6.67.715-10.011a192.126 192.126 0 0 0-.761-30.66c-.949-8.05-.255-16.06.439-24.072.435-5.021.87-10.043.901-15.074.068-4.3-1.045-5.985-5.678-5.916-11.525.159-23.073-.137-34.61-.444-10.442-.285-20.88-.76-31.317-1.235-19.994-.91-39.989-1.819-60.013-1.393-14.153.304-28.305.664-42.458 1.025C156.935 2.457 104.89 3.782 52.818 2.315c-8.542-.237-17.016.552-25.488 1.34-4.514.42-9.028.841-13.552 1.106l-.317.017c-1.804.094-2.93.153-2.544 3.112 1.135 8.85.704 17.793 0 26.678-.877 10.8-1.44 21.622-2.005 32.442-.846 16.235-1.692 32.468-3.593 48.626-.466 3.971.829 5.404 4.905 5.268 16.016-.512 32.039-.909 48.063-1.306 5.334-.132 10.669-.264 16.003-.401.418-.011.863-.085 1.311-.159 1.304-.215 2.633-.434 3.402.853.764 1.279-.124 2.334-.978 3.349-.3.357-.598.71-.817 1.065A188.906 188.906 0 0 0 61.8 154.59c-6.518 16.621-10.436 33.731-7.03 51.615 5.19 26.882 22.96 42.138 48.045 49.761ZM357.387 76.683c-.829-1.774.727-3.105 2.271-4.05 1.493-.909 3.01-1.778 4.526-2.647 4.046-2.318 8.091-4.636 11.667-7.705 1.737-2.298 4.088-2.48 4.201.5l.004.061c.509 9.434 1.024 18.947-1.764 28.21-1.181 4.095-4.269 6.473-7.676 8.646-2.31 1.452-4.731 2.716-7.153 3.981-4.733 2.471-9.471 4.946-13.4 8.829-1.734 1.723-4.044 1.48-6.368 1.234-1.357-.143-2.72-.287-3.976-.04h-20.803c-.711-1.595.253-2.19 1.119-2.725.228-.141.448-.277.63-.426 1.928-1.56 3.87-3.099 5.815-4.634l1.214-.958.133-.105c3.381-2.667 6.763-5.334 10.086-8.091a23.746 23.746 0 0 1 13.729-5.984c2.748-.228 5.075-.808 5.019-4.55-.057-3.744 3.088-5.37 6.063-6.701.469-.214.939-.426 1.408-.638 4.524-2.044 9.005-4.069 12.843-7.326v-3.14c-1.392.716-2.782 1.439-4.172 2.162-3.734 1.941-7.47 3.884-11.26 5.7-.297.14-.62.39-.958.651-1.054.816-2.243 1.737-3.198-.254ZM44.903 38.163c-.114-4.983 2.067-7.793 7.438-7.793 2.574-.025 5.146-.159 7.715-.307.367-.02.734-.042 1.1-.063 4.27-.25 8.527-.497 12.76-.302 29.815 1.364 59.61.888 89.401.413 12.971-.207 25.941-.414 38.912-.47l5.78-.03c45.364-.244 90.725-.488 136.002 1.225l.358.013c7.958.293 8.105.298 9.089 8.258 1.597 12.508.832 25.016.067 37.518v.007c-.15 2.437-.299 4.873-.43 7.31-.094 2.32-1.404 2.432-2.966 2.565-.145.013-.292.025-.441.04-3.153.309-6.304.687-9.455 1.065-6.243.75-12.487 1.499-18.751 1.71l-19.438.68c-45.519 1.598-91.046 3.195-136.583 4.122-35.234.726-70.393-1.892-105.528-4.508-3.364-.25-6.727-.5-10.09-.748-7.222-.535-8.301-1.923-7.779-9.34.318-4.44.758-8.87 1.197-13.3.925-9.328 1.85-18.655 1.642-28.065Zm2.033-20.41C53.85 10.938 61.834 5.091 74.063 6.479c-1.58 1.3-3.121 2.59-4.64 3.861-7.995 6.695-15.35 12.854-24.35 17.003-2.57 1.192-4.51 3.293-6.49 5.438-1.8 1.948-3.633 3.932-6 5.302-4.4 2.52-8.517 5.566-12.714 8.67-1.828 1.351-3.67 2.714-5.557 4.049-1.635-3.72.034-5.95 1.964-8.032a46.796 46.796 0 0 1 9.8-7.668c7.744-4.835 14.353-10.933 20.86-17.349ZM299.6 113.452c7.619-13.094 25.185-22.81 35.78-19.454-2.468 1.977-4.897 3.948-7.308 5.903-5.122 4.154-10.162 8.241-15.312 12.186-2.976 2.286-6.373 1.949-9.814 1.609-1.115-.111-2.235-.222-3.346-.244Zm-237.2-17.087c3.248-2.947 7.529-3.038 11.991-1.559-1.213 3.502-3.66 5.298-6.002 7.018l-.14.104c-1.16.889-2.39 1.714-3.618 2.538-2.403 1.614-4.803 3.226-6.682 5.312-5.212 5.802-11.298 7.656-18.838 5.881-.55-1.003.153-1.496.87-1.999.185-.13.372-.261.538-.401 2.95-2.49 6.07-4.761 9.2-7.018l.627-.451c4.142-2.984 8.283-5.968 12.054-9.425ZM43.097 8.845c3.69-3.208 7.677-3.06 12.889-2.764-5.727 4.061-10.813 8.685-15.848 13.264-7.814 7.105-15.507 14.1-25.292 18.715-.988-3.527.567-6.143 3.463-8.566l1.94-1.586c7.68-6.274 15.37-12.557 22.848-19.063ZM9.781 116.683c-1.896-2.082-.204-4.05 1.42-5.267 5.127-3.827 10.283-7.567 15.449-11.314 2.774-2.013 5.551-4.027 8.328-6.058l.149-.11c5.677-4.18 5.702-4.198 12.558-1.13a7493.242 7493.242 0 0 0-32.873 23.208l-.016.011c-1.62 1.135-3.419 2.395-5.015.66Zm157.35-91.763c-3.487 2.73-8.074 2.23-12.9 1.308 5.435-6.234 11.724-10.89 17.946-15.496 2.111-1.563 4.215-3.12 6.275-4.73 2.739-2.145 6.022-1.259 9.954-.197l.731.196a889.988 889.988 0 0 0-6.664 5.86c-5.149 4.56-10.125 8.967-15.342 13.06Zm75.341-20.534v.011c-3.959 2.38-7.456 5.506-10.988 8.663-6.921 6.188-13.977 12.497-24.917 13.544 1.727-3.546 3.935-5.334 6.004-7.009.394-.319.782-.633 1.161-.955a248.322 248.322 0 0 1 3.769-3.112c3.585-2.922 7.18-5.851 10.21-9.265 3.005-3.386 6.748-2.847 10.577-2.296 1.394.201 2.799.403 4.184.419Zm-20.121.477.738 1.411v.012a4218.86 4218.86 0 0 0-4.565 3.873c-5.891 5.002-11.771 9.994-17.737 14.886-1.834 1.504-3.942 1.37-6.199 1.227-1.123-.072-2.283-.145-3.464-.02.778-2.923 2.59-4.658 4.335-6.328a47.39 47.39 0 0 0 1.161-1.136c1.923-1.975 4.027-3.737 6.138-5.503 2.751-2.302 5.513-4.614 7.897-7.42 1.71-2.013 4.625-1.645 7.565-1.274 1.415.178 2.836.357 4.131.272Zm-78.328 106.689a153.183 153.183 0 0 0 20.076-12.468c2.718-2.05 5.996-1.631 9.328-1.206 1.846.236 3.708.474 5.502.296v.01c-4.285 4.186-9.341 7.01-14.387 9.829-3.486 1.947-6.967 3.892-10.186 6.281-2.187 1.615-5.196 1.279-8.241.94-1.524-.17-3.057-.341-4.5-.269-.352-1.942.999-2.661 2.101-3.247.105-.056.208-.111.307-.166ZM195.598 6.433c2.498-1.98 6.189-2.411 10.538-.603-4.95 4.145-9.401 8.419-13.779 12.624-2.22 2.133-4.422 4.247-6.661 6.318-2.575 2.362-6.084 1.947-10.146 1.466a82.75 82.75 0 0 0-3.107-.327l-.01.01v-.011h.01c5.501-6.078 11.484-10.594 17.322-15 1.969-1.486 3.921-2.96 5.833-4.477Zm-44.478 97.338a81.552 81.552 0 0 0-14.762 9.249c-3.231 2.639-6.879 2.199-10.571 1.755l-.009-.001-.581-.07c-1.378-.162-2.758-.303-4.122-.262l-.013.011v-.011h.013c4.515-4.343 9.796-7.335 15.07-10.323 3.185-1.805 6.368-3.608 9.377-5.707 2.088-1.464 4.814-1.222 7.795-.957 1.606.142 3.286.291 4.979.184-1.975 3.469-4.598 4.812-7.175 6.131l-.001.001Zm94.112-96.484c3.69-3.083 7.528-4.676 12.774-3.334v.012c-9.447 12.582-26.809 23.208-34.928 21.228.87-2.044 2.56-3.132 4.204-4.19.653-.42 1.298-.836 1.882-1.305 2.323-1.862 4.708-3.649 7.093-5.436 3.035-2.274 6.069-4.548 8.975-6.975Zm8.607 15.085c-3.986 3.345-8.585 4.414-14.626 2.719l2.318-1.93c7.441-6.193 14.403-11.989 21.392-17.774a9.596 9.596 0 0 1 2.498-1.274c2.192-.865 5.451-1.457 6.427 0 1.186 1.763-.503 3.037-2.004 4.17-.426.32-.838.631-1.164.938-4.803 4.539-9.777 8.896-14.841 13.15Zm48.033 3.845c6.177-8.043 13.217-13.97 20.337-19.658 2.028-1.616 4.683-.877 7.411-.118.556.155 1.116.31 1.673.447-2.459 2.067-4.592 4.607-6.737 7.16-5.54 6.595-11.158 13.285-22.684 12.17Zm-100.574 74.744c4.951-4.016 9.914-5.939 16.886-3.55-2.903 1.81-5.653 3.872-8.387 5.923-8.541 6.405-16.94 12.704-29.438 10.903 1.166-2.036 2.988-2.829 4.764-3.603.784-.341 1.559-.679 2.265-1.118 1.584-.983 3.225-1.896 4.865-2.809 3.145-1.751 6.292-3.503 9.045-5.746Zm67.678-75.358a231.9 231.9 0 0 1 25.31-19.807c2.444-1.685 5.267-1.072 9.176-.225.577.125 1.178.256 1.805.385-4.409 2.289-8.089 5.448-11.721 8.565-6.854 5.883-13.535 11.617-24.616 11.082h.046Zm14.727 87.371h-.011.011c3.236-2.269 5.964-5.271 8.691-8.272 5.817-6.402 11.631-12.8 22.377-12.08-.61 2.297-2.173 3.475-3.656 4.591-.478.36-.948.714-1.374 1.097-2.812 2.558-5.674 5.033-8.534 7.506-2.417 2.09-4.833 4.18-7.216 6.317-2.198 1.981-4.587 1.585-7.035 1.18a36.373 36.373 0 0 0-1.616-.243 12.128 12.128 0 0 0-1.637-.096Zm-250.996 2.207c-3.338 2.856-7.8 2.082-12.275 1.138 5.646-2.838 10.612-6.744 15.615-10.68 6.712-5.28 13.493-10.614 22.073-13.495a6.278 6.278 0 0 1-3.054 5.813c-2.588 2.003-5.212 3.957-7.836 5.91-4.917 3.661-9.836 7.323-14.523 11.314ZM140.275 6.763c-9.697 11.115-28.388 21.092-36.336 19.147 3.956-3.617 8.365-6.457 12.735-9.273 3.37-2.17 6.717-4.327 9.816-6.813 4.247-3.425 8.596-4.05 13.785-3.06Zm-50.791 94.619c4.61-6.78 10.287-6.53 16.964-4.312-1.358 2.676-3.747 4.099-6.071 5.483-.512.305-1.02.608-1.514.922l-1.132.704c-3.77 2.337-7.467 4.631-10.564 8.033-3.213 3.504-7.494 3.936-12.49 2.799 1.093-2.623 2.955-4.027 4.83-5.44l.45-.34c.868-.665 1.789-1.298 2.715-1.931l.185-.127c2.512-1.715 5.037-3.44 6.627-5.791Zm-17.42 10.25c-3.974 4.118-8.448 5.199-14.443 3.959h.011c1.696-3.042 4.01-4.71 6.29-6.355l.003-.002c.269-.194.537-.387.804-.583a82.011 82.011 0 0 1 2.877-1.979c2.692-1.797 5.401-3.606 7.218-6.053 3.838-5.153 8.04-6.928 14.33-4.55-1.26 2.658-3.525 4.49-5.775 6.31-.282.228-.565.457-.845.686-1.205.996-2.457 1.941-3.707 2.884-2.366 1.787-4.727 3.569-6.762 5.683ZM357.15 39.425c-.193-4.812 3.066-7.497 6.813-9.624 1.214-.704 2.478-1.316 3.736-1.925 1.12-.542 2.235-1.082 3.304-1.682 1.409-.785 2.774-1.645 4.289-2.6.768-.485 1.574-.994 2.445-1.53h.011c1.431 8.124-.079 11.332-6.597 14.847a97.669 97.669 0 0 0-9.323 5.324c-4.008 2.788-4.565 0-4.678-2.81Zm-196.514-31.9c2.93-2.252 6.234-1.945 11.287-.511-5.284 3.2-9.513 6.909-13.596 10.49-2.682 2.353-5.301 4.65-8.115 6.71-3.758 2.765-7.858 3.983-13.149 1.707 2.512-1.963 4.97-3.893 7.394-5.795 5.496-4.314 10.813-8.487 16.179-12.6Zm6.348 102.992a170.706 170.706 0 0 0 18.679-11.57c2.831-2.119 6.01-2.11 9.563-2.102 1.579.005 3.232.009 4.961-.173-5.147 4.829-10.863 7.896-16.423 10.88-3.898 2.092-7.72 4.143-11.216 6.731-1.8 1.333-4.135 1.134-6.689.917-1.588-.135-3.259-.278-4.939-.064 1.148-2.335 2.904-3.128 4.535-3.866.531-.24 1.049-.474 1.529-.753Zm-78.147-84.38v-.01c2.218-1.758 4.352-3.674 6.488-5.59 7.849-7.045 15.714-14.104 27.782-13.353-3.581 2.08-6.898 4.633-10.216 7.187-7.138 5.494-14.278 10.99-24.054 11.767ZM296.557 94.84c-14.943 15.62-20.405 18.908-31.363 18.51v-.012c9.595-11.49 24.777-20.34 31.363-18.498ZM38.374 38.38c1.998-1.218 3.134-1.32 3.134.125-.08 3.982-1.5 5.847-3.645 7.338-3.47 2.417-6.933 4.843-10.396 7.27A5271.556 5271.556 0 0 1 17.07 60.38c-.141.105-.286.22-.432.338-.889.714-1.873 1.505-2.974.401a3.246 3.246 0 0 1-.205-3.743 7.532 7.532 0 0 1 1.92-2.707 256 256 0 0 1 22.994-16.291Zm-.682 43.697c2.124 3.037.307 5.051-1.737 6.598-6.211 4.695-12.485 9.295-18.84 13.955l-.009.007c-2.204 1.616-4.419 3.24-6.644 4.878-.987-4.414.012-7.93 3.384-10.262 1.745-1.181 3.472-2.384 5.2-3.585 6.007-4.182 12.005-8.357 18.646-11.591ZM90.256 7.57C77.47 19.334 62.674 27.275 55.396 25.91 79.897 4.816 83.885 5.877 89.932 7.485l.323.086Zm267.983 48.384c-1.34-2.628-1.76-6.109 1.476-8.134 3.915-2.434 7.889-4.731 11.936-7.06l.806-.463.005-.003c1.285-.739 2.577-1.482 3.877-2.235 2.918 7.145-.488 10.774-5.428 13.618a43.825 43.825 0 0 1-6.994 3.686c-.506.166-1.043.54-1.591.924-1.407.984-2.885 2.018-4.087-.333ZM153.482 5.285l1.374 2.56c-4.132 1.937-7.591 5.034-11.05 8.13-6.086 5.45-12.173 10.9-21.926 10.037 3.301-2.24 6.407-4.811 9.513-7.383 6.701-5.548 13.406-11.098 22.089-13.345Zm-49.407 1.023 1.056 1.718a1037.15 1037.15 0 0 0-6.522 4.924h-.002c-5.41 4.107-10.822 8.215-16.413 12.038-3.123 2.15-7.086 1.639-12.594.797 4.33-2.43 8.28-5.125 12.121-7.744 7.251-4.946 14.106-9.62 22.354-11.733Zm173.848-.842a5.461 5.461 0 0 1 2.555-1.012c.178-.03.36-.06.546-.093 2.265-.39 5.059-.872 5.972 1.23.602 1.388-.933 2.272-2.411 3.123-.557.32-1.106.637-1.529.973-2.391 1.89-4.802 3.752-7.212 5.613l-.001.001c-2.959 2.285-5.916 4.568-8.832 6.9-2.869 2.329-6.032 3.58-11.332 3.108l-.023.02v-.022l.023.002c4.573-4.073 8.833-7.875 12.958-11.557l.014-.013c3.143-2.806 6.208-5.541 9.272-8.273Zm-42.139 108.02c4.713-8.464 21.428-19.328 28.388-17.645v.069c-1.713 1.534-3.382 3-5.01 4.431-3.261 2.865-6.359 5.586-9.32 8.424-4.031 3.925-8.38 6.428-14.058 4.721ZM36.864 59.96c2.339-1.32 3.474-1.07 3.474.614v.034c-.136 3.231-.965 4.95-2.657 6.018a1590.189 1590.189 0 0 1-21.575 14.346c-.177.117-.362.254-.553.396-1.02.76-2.206 1.643-3.24.07a2.837 2.837 0 0 1 .977-4.004c4.178-2.43 7.858-5.513 11.536-8.595 3.828-3.207 7.653-6.413 12.037-8.88ZM276.22 99.414c-5.587 4.482-11.253 8.85-17.124 12.946-2.23 1.554-5.093 1.977-8.892.761l-.033.024v-.034l.033.01c3.048-2.182 5.701-4.827 8.325-7.442 5.845-5.825 11.539-11.5 21.098-11.578.081 2.708-1.526 3.906-2.914 4.94-.169.126-.334.25-.493.373Zm11.117-73.47c4.871-8.1 23.596-21 29.387-19.476v.034c-3.98 2.201-6.964 5.614-9.902 8.976-5.034 5.758-9.935 11.364-19.485 10.466Zm-148.14 72.662v.011l-.013-.005a175.175 175.175 0 0 0-24.764 15.364c-2.318 1.767-5.221 1.472-8.453 1.144a78.806 78.806 0 0 0-1.881-.177c3.001-3.488 6.479-5.424 9.863-7.307.855-.476 1.704-.949 2.537-1.442.94-.566 1.919-1.092 2.9-1.62 2.194-1.18 4.395-2.365 6.184-4 3.87-3.524 7.785-4.3 13.614-1.962l.013-.006Zm219.587-87.258c4.304-4.585 7.052-5.188 13.99-3.174-3.501 2.272-6.558 5.032-9.568 7.75-5.641 5.093-11.118 10.038-19.048 11.351v-.011c3.068-3.107 5.907-6.28 8.714-9.418l.001-.001.002-.002c1.962-2.194 3.91-4.37 5.909-6.495Zm-243.749 85.92a13.048 13.048 0 0 1 7.697.724l-.034-.012c-4.292 1.853-8.101 4.603-11.908 7.351-6.035 4.357-12.067 8.712-20.012 9.486 1.522-3.424 4.394-5.119 7.279-6.746a50.961 50.961 0 0 0 10.219-7.042 13.065 13.065 0 0 1 6.759-3.76ZM38.26 75.83a24.386 24.386 0 0 1-3.929 3.22c-2.265 1.582-4.569 3.109-6.888 4.645-5.25 3.478-10.58 7.01-15.731 11.373l-.034-.012c-.954-3.981-.432-6.564 2.055-8.202 6.948-4.707 13.993-9.276 21.03-13.84l.727-.472c.133-.087.271-.185.413-.285.928-.657 2.008-1.42 2.993-.067a2.928 2.928 0 0 1-.636 3.64ZM245.32 94.952a7.46 7.46 0 0 1 4.341 1.117l-.034-.011c-1.765 1.47-3.533 2.92-5.293 4.364-4.4 3.61-8.759 7.186-12.943 10.948-3.418 3.026-6.848 3.14-11.844 1.4 7.824-5.518 14.762-10.728 21.575-16.246a7.463 7.463 0 0 1 4.198-1.572ZM40.384 6.627c-13.797.17-26.265 10.66-24.982 20.75l24.982-20.75Zm315.05 21.32c.294-.48.649-.92 1.056-1.309 4.651-4.589 9.739-8.631 14.949-12.771 2.307-1.833 4.639-3.686 6.967-5.613 2.259 5.46.159 8.35-3.327 11.08-2.467 1.93-5.232 3.364-7.993 4.797-3.264 1.693-6.523 3.384-9.279 5.886-.601.557-1.351.967-1.975.478a1.888 1.888 0 0 1-.398-2.549ZM40.725 53.04c-.25.29-.56.524-.91.685-4.488 2.693-8.638 5.864-12.801 9.138l-1.787 1.409c-3.94 3.112-7.938 6.27-12.289 9.157-1.033-4.449.307-6.986 3.248-8.578 4.46-2.421 8.562-5.384 12.663-8.347 2.779-2.007 5.557-4.013 8.446-5.851.243-.155.493-.392.754-.637.848-.8 1.799-1.697 2.902-.182a2.687 2.687 0 0 1-.226 3.206ZM356.706 6.365c-5.416 10.262-17.578 21.001-24.686 20.478 3.267-2.454 5.803-5.486 8.306-8.48 4.342-5.192 8.586-10.266 16.38-11.998Zm20.814 44.767c1.681 2.787 1.533 5.12-1.056 6.883-.832.563-1.661 1.133-2.49 1.703l-.002.001c-5.045 3.468-10.113 6.95-16.051 9.217v-.011c-1.295-5.154 1.192-7.43 4.769-9.067a61.644 61.644 0 0 0 14.83-8.726Zm-1.294 47.61c1.737 8.669-8.506 15.563-20.962 14.54 2.859-3.192 6.501-4.963 10.109-6.716 4.043-1.966 8.044-3.91 10.853-7.812v-.012ZM14.755 14.647a24.426 24.426 0 0 1 .113-4.778c.389-1.86 1.898-1.915 3.33-1.968.286-.01.568-.02.838-.045.146-.012.304-.034.467-.057.79-.11 1.701-.238 1.974.705.361 1.218-.489 1.769-1.314 2.304-.315.204-.627.406-.866.643-.297.28-.563.601-.834.929-.827.998-1.707 2.062-3.708 2.267Zm362.672 95.582a2.6 2.6 0 0 1 .286.982c-.274 2.38-1.798 2.447-3.567 2.525-.429.019-.872.038-1.316.092.92-2.276 1.794-3.994 3.952-4.392.265.219.485.489.645.793ZM234.705 96.194c-9.769-.963-16 4.439-22.247 9.855-2.982 2.585-5.967 5.173-9.343 7.073 10.589 1.097 17.352-4.862 24.124-10.83 2.429-2.14 4.859-4.281 7.466-6.098Zm84.892-69.499c9.65.863 13.959-5.216 18.282-11.315 2.173-3.065 4.35-6.136 7.211-8.332-9.787-.115-14.674 6.257-19.584 12.659-1.875 2.445-3.753 4.894-5.909 6.988Z" fill="#767676"/><path fill-rule="evenodd" clip-rule="evenodd" d="m172.443 25.91-.01.011v-.011h.01Zm-51.368 88.532-.013.011v-.011h.013Zm134.604-89.133-.023.02v-.022l.023.002Zm-5.475 87.812-.033.024v-.034l.033.01ZM139.197 98.606v.011l-.013-.005.013-.006Z" fill="#767676"/><path d="M242.492 349.972c-2.271 7.259-2.87 21.755-2.052 28.808.363 3.163 3.202 3.334 5.677 3.481 4.429.262 7.109 2.139 6.916 6.974-.148 3.584 1.442 4.869 5.144 4.551 3.906-.341 7.948-.467 11.798.876 2.566.887 5.155 1.695 5.598 4.823.522 3.675-1.465 6.246-4.474 7.816-6.881 3.595-14.489 4.232-22.029 4.289-5.065 0-10.129-.967-15.194-1.536a6.463 6.463 0 0 1-2.214-.443c-8.482-4.324-3.724-12.913-6.029-19.261-1.136-3.128.397-6.052 4.019-6.951 3.168-.785 4.145-2.582 3.736-5.768-.624-4.858-.92-9.761-1.34-14.641-.113-1.377-.17-2.799-2.169-2.435-4.542.853-4.882-2.355-5.291-5.461-.295-2.195-.545-4.22-3.702-3.333-8.732 2.457-17.612 1.741-26.435.819-3.077-.318-5.212-.25-5.155 3.606.057 3.857-2.101 5.017-5.519 4.483-3.418-.535-4.371 1.49-4.792 4.175-.545 3.549-.851 7.144-1.51 10.671-.568 2.981-.375 5.006 3.202 5.916 2.85.739 3.089 3.515 2.862 6.098-.398 4.71-.909 9.419-1.272 14.129-.238 3.118-2.112 4.631-4.792 5.609-8.766 3.22-17.725 5.142-27.139 4.653-4.179-.216-7.415-1.581-8.664-5.836-1.306-4.437 1.703-6.61 4.849-8.567a19.179 19.179 0 0 1 5.019-2.548c4.179-1.138 6.347-3.083 5.95-7.964-.352-4.471 2.407-7.133 7.006-6.939 4.27.182 6.257-1.525 6.563-5.814.227-2.992 1.079-5.938 1.59-8.919.591-3.413 1.976-6.678-3.236-8.521-3.27-1.137.743-7.592 1.947-10.254 1.862 1.388-.57 6.829-.369 8.297l10.288 2.799c3.168.853 5.099 0 5.212-3.618.125-4.107 2.521-4.835 6.155-4.334 9.742 1.331 19.474 1.809 29.069-1.138 3.872-1.217 5.837.444 5.678 4.448-.159 4.005 1.374 5.12 5.098 3.413a13.85 13.85 0 0 1 3.872-.523c1.011.353 5.595-7.079 6.129-5.93Z" fill="#767676"/><path d="M122.981 308.565c-3.667-3.208-4.746-8.1-7.687-11.786 0-1.137.102-2.275.182-3.982 4.394 2.128 8.448 4.255 12.615 6.11 39.164 17.394 79.487 22.753 121.399 11.717a98.192 98.192 0 0 0 31.613-14.789c2.146-1.502 4.383-2.867 6.586-4.3.329 6.985-3.838 11.82-7.949 16.712-1.816-1.82-3.168.079-4.542.739-7.948 3.971-15.965 7.611-24.652 9.761a181.34 181.34 0 0 1-64.316 4.551c-18.781-2.105-37.109-5.688-54.585-13.197-2.475-1.149-5.302-3.845-8.664-1.536Z" fill="#D0AB2E"/><path d="M373.148 91.069c.386-3.584.136-5.2-4.167-2.822-12.627 6.986-25.459 13.561-34.407 25.472h-3.963a5.689 5.689 0 0 1 2.124-4.436c9.504-8.021 18.259-17.065 30.193-21.695a30.654 30.654 0 0 0 8.199-4.972c3.883-3.23 3.077-7.167.704-11.024v-3.14c2.112-2.514 4.258-5.04-1.136-6.143 1.76-2.275 4.111-2.48 4.27.523.431 9.42.976 18.954-1.817 28.237Z" fill="#767676"/><path d="M9.565 14.642a24.426 24.426 0 0 1 0-4.779c.466-2.275 2.544-1.865 4.168-2.013.851-.068 2.112-.444 2.441.648.5 1.684-1.317 2.094-2.18 2.947-1.09 1.126-1.771 2.923-4.429 3.197ZM367.641 113.822c.919-2.275 1.794-3.982 3.951-4.391a2.566 2.566 0 0 1 .931 1.774c-.363 2.947-2.623 2.332-4.882 2.617Z" fill="#3F0F03"/><path d="M122.981 308.565c3.407-2.276 6.189.386 8.755 1.501 17.476 7.531 35.803 11.092 54.585 13.197a181.342 181.342 0 0 0 64.316-4.551c8.687-2.15 16.715-5.79 24.652-9.761 1.317-.66 2.669-2.559 4.542-.739-9.232 13.447-20.439 24.698-35.201 32.025-2.271 1.137-3.849 2.468-2.839 5.244 1.965 5.45-.216 8.715-5.394 10.432a13.856 13.856 0 0 0-3.872.524c-3.724 1.649-5.28.603-5.098-3.413.181-4.016-1.772-5.688-5.678-4.448-9.595 3.003-19.304 2.525-29.069 1.137-3.634-.5-6.03.228-6.155 4.335-.113 3.663-2.044 4.471-5.212 3.618l-10.288-2.799c-.136-.546-.556-1.217-.374-1.627 3.838-8.43-2.271-9.659-8.029-11.968-16.635-6.644-30.42-16.894-39.641-32.707Z" fill="#D0AB2E"/><path d="M89.485 46.988H77v-3.322h28.98v2.864H93.036l3.093 32.988-3.666.344-2.978-32.874ZM125.567 60.962h-10.882v18.442l-3.551.343V43.666h3.436v13.63h11.798l2.635 1.26 2.291 20.848-3.666.229-2.061-18.671ZM155.119 62.451l3.665 15.578-3.436 1.26-2.062-9.736c-.267 1.069-.687 2.176-1.26 3.322a13.17 13.17 0 0 1-2.062 3.15 10.216 10.216 0 0 1-2.921 2.29c-1.107.573-2.367.86-3.779.86-2.52 0-4.449-.802-5.785-2.406-1.298-1.642-1.947-3.894-1.947-6.758 0-1.642.248-3.34.744-5.097.497-1.795 1.241-3.417 2.234-4.868a12.903 12.903 0 0 1 3.723-3.608c1.527-.955 3.302-1.432 5.326-1.432 1.184 0 2.214.267 3.093.802a7.403 7.403 0 0 1 2.29 1.89 9.408 9.408 0 0 1 1.432 2.462c.344.84.592 1.604.745 2.291Zm-6.987-3.322a6.06 6.06 0 0 0-.802-.171 4.532 4.532 0 0 0-.745-.058 5.171 5.171 0 0 0-3.207 1.088c-.916.688-1.699 1.566-2.348 2.635a14.932 14.932 0 0 0-1.432 3.494c-.305 1.26-.458 2.424-.458 3.493 0 1.68.363 3.035 1.088 4.066.726 1.031 1.871 1.547 3.436 1.547 1.07 0 2.062-.344 2.979-1.031a10.034 10.034 0 0 0 2.348-2.692 13.59 13.59 0 0 0 1.489-3.493c.382-1.299.573-2.501.573-3.609 0-1.221-.249-2.29-.745-3.207-.458-.954-1.184-1.642-2.176-2.062ZM178.715 60.733h-11.111V79.06l-2.863.344V54.777l2.749-.573v2.864l13.287-.802 1.718 3.436 1.718 18.67-3.665 1.032-1.833-18.671ZM191.315 66.861l14.089-12.657 2.519 3.322-7.559 7.216 10.538 12.485-2.291 3.207-11.226-12.886-4.696 4.468v7.731l-3.436.458V42.291l2.062-.687v25.257ZM241.37 83.183l-4.925-.343V63.138l-8.82-20.617 3.436-1.948 8.591 18.327 10.194-16.38 3.093 1.719-11.569 19.014v19.93ZM265.883 59.244c-2.1 0-3.761.649-4.983 1.947-1.184 1.298-1.775 3.38-1.775 6.243 0 1.107.152 2.214.458 3.322a10.66 10.66 0 0 0 1.317 2.92 8.03 8.03 0 0 0 2.062 2.177 4.746 4.746 0 0 0 2.692.802c1.03 0 1.966-.249 2.806-.745a7.196 7.196 0 0 0 2.119-1.89 9.446 9.446 0 0 0 1.317-2.635c.344-.992.516-1.947.516-2.863 0-3.36-.611-5.746-1.833-7.16-1.184-1.412-2.749-2.118-4.696-2.118Zm-.344-3.895c1.909 0 3.532.344 4.868 1.031a8.76 8.76 0 0 1 3.265 2.864c.84 1.184 1.45 2.577 1.832 4.18.382 1.566.573 3.265.573 5.098-.076 2.062-.42 3.856-1.031 5.383-.573 1.49-1.336 2.73-2.291 3.723-.954.993-2.042 1.718-3.264 2.177a9.535 9.535 0 0 1-3.723.744c-1.718 0-3.226-.344-4.524-1.03a10.098 10.098 0 0 1-3.208-2.75c-.84-1.184-1.489-2.52-1.947-4.009-.42-1.527-.63-3.13-.63-4.81 0-1.795.229-3.456.687-4.983.497-1.566 1.165-2.902 2.005-4.01.878-1.145 1.928-2.023 3.15-2.634 1.26-.65 2.673-.974 4.238-.974ZM279.742 55.35l3.208.801c-.344 1.947-.63 3.818-.859 5.613a47.784 47.784 0 0 0-.287 5.04c0 1.45.077 2.749.229 3.894.191 1.146.497 2.138.917 2.978.42.84.973 1.49 1.661 1.948.725.42 1.622.63 2.691.63.726 0 1.413-.191 2.062-.573.687-.42 1.298-1.088 1.833-2.005.572-.916 1.031-2.119 1.374-3.608.344-1.527.573-3.417.688-5.67l.229-8.132 3.207.229V79.06l-2.864.344-.114-4.353c-.497 1.756-1.394 3.093-2.692 4.009-1.298.878-2.806 1.317-4.525 1.317-1.412 0-2.634-.324-3.665-.973-1.031-.611-1.89-1.47-2.577-2.578-.649-1.107-1.146-2.443-1.489-4.009-.306-1.565-.458-3.283-.458-5.154 0-1.718.114-3.59.343-5.613.267-2.062.63-4.295 1.088-6.7ZM311.929 78.373l-3.092 4.238-4.811-4.926 3.207-4.009 4.696 4.697Zm-1.833-8.133H305.4V41.146h4.696V70.24Z" fill="#fff"/><path d="M158.478 145.62c14.762 3.168 30.091 16.495 26.685 22.183-3.974 3.982-4.542 1.707-7.949 1.707-9.084-.569-10.787-.569-14.194 5.119-3.974 6.636-7.585 8.123-21.575 10.808-3.974.763-13.377-.841-16.34-2.696-2.964-1.855-4.803-3.299-7.347-1.047a28.55 28.55 0 0 0-4.712 6.337c-3.316 5.279-6.382 10.728-9.789 15.927-4.212 6.451-10.617 8.76-18.02 8.851-1.965 0-3.884-.182-4.872-2.173-1.135-2.207.454-3.47 1.874-4.778 8.47-7.793 14.523-17.395 20.292-27.201 4.11-7.008 8.062-14.107 12.365-21.001 5.028-8.055 24.278-16.18 43.582-12.036Z" fill="#F8CF43"/></g><defs><clipPath id="a"><path fill="#fff" transform="translate(.072)" d="M0 0h377.856v412H0z"/></clipPath></defs></svg>