<svg width="104" height="100" fill="none" xmlns="http://www.w3.org/2000/svg"><g filter="url(#a)"><path d="M77.633 61.184c0 17.121-11.085 31.654-26.47 36.812.81.046 1.627.073 2.448.079a49.036 49.036 0 0 0 45.585-29.85 49.049 49.049 0 0 0 .348-37.532A49.04 49.04 0 0 0 54.521 0C30.467-.177 9.99 17.485 6.008 40.431c6.881-10.857 19.004-18.064 32.809-18.064 21.438 0 38.816 17.379 38.816 38.817Z" fill="#fff" fill-opacity=".5"/><path fill-rule="evenodd" clip-rule="evenodd" d="M51.162 97.996A38.775 38.775 0 0 1 38.817 100C17.379 100 0 82.621 0 61.184c0-7.633 2.203-14.75 6.008-20.753a47.58 47.58 0 0 0-.699 7.767C5.06 74.723 25.374 96.511 51.162 97.996Z" fill="#191919"/><path d="M77.633 61.184c0-21.438-17.378-38.817-38.816-38.817-13.805 0-25.928 7.207-32.81 18.064a47.58 47.58 0 0 0-.698 7.767C5.06 74.723 25.374 96.511 51.162 97.996c15.386-5.158 26.471-19.69 26.471-36.812Z" fill="#191919"/><path fill-rule="evenodd" clip-rule="evenodd" d="M5.309 48.198c.02-2.642.26-5.237.699-7.767A38.634 38.634 0 0 0 0 61.184C0 82.62 17.38 100 38.817 100c4.316 0 8.467-.704 12.345-2.004C25.374 96.51 5.06 74.723 5.31 48.198Z" fill="#666"/><path fill-rule="evenodd" clip-rule="evenodd" d="M37.654 53.96A3.382 3.382 0 0 1 40.02 53c.888 0 1.74.346 2.367.96L55.02 66.349c.31.306.557.668.725 1.067a3.231 3.231 0 0 1 0 2.514c-.169.399-.415.76-.726 1.066-.312.305-.68.547-1.087.712a3.406 3.406 0 0 1-2.564 0 3.356 3.356 0 0 1-1.086-.713L40.02 60.93 29.76 70.996a3.352 3.352 0 0 1-1.087.737 3.406 3.406 0 0 1-2.59.023 3.355 3.355 0 0 1-1.1-.717 3.281 3.281 0 0 1-.732-1.079 3.231 3.231 0 0 1 .021-2.54c.176-.401.43-.764.75-1.067L37.654 53.96Z" fill="#fff"/></g><defs><filter id="a" x="-4" y="-4" width="111.104" height="108" filterUnits="userSpaceOnUse" color-interpolation-filters="sRGB"><feFlood flood-opacity="0" result="BackgroundImageFix"/><feGaussianBlur in="BackgroundImageFix" stdDeviation="2"/><feComposite in2="SourceAlpha" operator="in" result="effect1_backgroundBlur_223_903"/><feBlend in="SourceGraphic" in2="effect1_backgroundBlur_223_903" result="shape"/></filter></defs></svg>