<svg width="67" height="40" viewBox="0 0 67 40" fill="none" xmlns="http://www.w3.org/2000/svg">
<path d="M54.2516 19.1051L52.5646 5.401L49.4033 5.79012L49.4046 5.78792L43.2759 2.33883C42.6222 1.97098 41.8719 1.81091 41.1249 1.87993L31.4479 2.77492C30.8616 2.82913 30.2968 3.02276 29.8005 3.33967C29.3043 3.65658 28.891 4.08756 28.5952 4.59667L21.7746 16.3363C21.271 17.2032 21.6663 18.3149 22.6042 18.6692L22.8832 18.7745C23.42 18.9772 23.9716 19.0946 24.523 19.1405L23.6588 19.8932L21.9297 21.3996L17.0121 25.5944C16.1367 26.357 16.0458 27.6839 16.8083 28.5593L17.3072 29.1307C18.2865 30.2537 19.991 30.3703 21.1161 29.3907L22.9956 31.5465C23.6066 32.2482 24.5019 32.5586 25.362 32.4528C25.8967 32.3871 26.3993 32.1619 26.8043 31.8066L28.6817 33.9624C29.295 34.666 30.1901 34.9743 31.0502 34.8685C31.5848 34.8034 32.0875 34.579 32.4928 34.2243L33.5131 35.1061C34.4927 36.2311 36.1991 36.3474 37.3242 35.3678L38.7112 34.1578L50.3715 25.0766L50.3841 25.0651L54.9846 25.0605L54.2516 19.1051Z" fill="#F29F5C"/>
<path d="M49.2542 21.5347L49.2416 21.5463L37.5814 30.6274L36.1944 31.8375C35.0694 32.817 33.3628 32.7007 32.3833 31.5757L31.363 30.694C30.9577 31.0487 30.455 31.2731 29.9204 31.3381C29.0603 31.444 28.1653 31.1356 27.5519 30.4321L25.6745 28.2762C25.2694 28.6314 24.7669 28.8566 24.2321 28.9224C23.372 29.0283 22.4768 28.718 21.8657 28.0161L19.9863 25.8604C19.023 26.6991 17.6362 26.7318 16.6422 26.0195C16.1325 26.7882 16.1732 27.83 16.8087 28.5595L17.3075 29.1309C18.2868 30.2539 19.9913 30.3705 21.1164 29.3909L22.9959 31.5467C23.6069 32.2484 24.5022 32.5588 25.3623 32.453C25.897 32.3872 26.3996 32.1621 26.8047 31.8067L28.6821 33.9628C29.2953 34.6663 30.1904 34.9746 31.0505 34.8688C31.5852 34.8037 32.0878 34.5793 32.4932 34.2246L33.5134 35.1064C34.493 36.2314 36.1994 36.3477 37.3245 35.3682L38.7115 34.1581L50.3718 25.0769L50.3844 25.0654L54.9849 25.0609L54.4759 20.9263L49.2542 21.5347Z" fill="#D37D42"/>
<path d="M51.3777 27.4624L45.1303 22.0756L43.393 20.5788L42.1499 19.5081L36.805 14.9009L37.4222 9.6464C37.6311 7.86926 36.5123 6.20549 34.7877 5.72829L23.1366 2.50438C22.5386 2.33891 21.9018 2.38477 21.3336 2.63422C20.7655 2.88367 20.3007 3.32145 20.0178 3.87372L18.5526 6.73379L12.2633 6.30692L10.6523 20.0202L9.95215 25.9797L16.0741 26.3869L16.0868 26.3984L28.8764 37.4227L30.2701 38.6251C31.4005 39.5985 33.1063 39.4726 34.0796 38.3422L35.9449 36.1779C36.3521 36.5304 36.8561 36.752 37.3911 36.8141C38.2517 36.9153 39.1452 36.6019 39.7545 35.895L41.62 33.7288C42.027 34.0818 42.5309 34.3042 43.066 34.3669C43.9266 34.4681 44.8202 34.1528 45.4273 33.4475L47.2947 31.2814C48.4252 32.2547 50.129 32.1287 51.1021 31.0002L51.5978 30.426C52.3556 29.5466 52.2573 28.2202 51.3777 27.4624Z" fill="#F9C295"/>
<path d="M51.3778 27.4621L49.4748 25.8213C50.0933 26.6414 50.0806 27.8082 49.3826 28.6183L48.8564 29.2278C47.8234 30.4257 46.0147 30.5596 44.8146 29.5263L42.8322 31.8258C42.1876 32.5743 41.2391 32.909 40.3254 32.8017C39.7574 32.7351 39.2225 32.499 38.7904 32.1242L36.81 34.424C36.1632 35.1744 35.2149 35.5069 34.3012 35.3997C33.7332 35.3338 33.1983 35.0985 32.766 34.7243L30.7858 37.0219C30.4271 37.439 29.9552 37.7432 29.4272 37.8977L30.2702 38.625C31.4006 39.5983 33.1064 39.4725 34.0798 38.3421L35.945 36.1778C36.3523 36.5302 36.8562 36.7519 37.3913 36.814C38.2519 36.9151 39.1453 36.6018 39.7547 35.8949L41.6202 33.7286C42.0272 34.0817 42.531 34.304 43.0662 34.3668C43.9268 34.468 44.8203 34.1526 45.4275 33.4474L47.2949 31.2813C48.4254 32.2546 50.1292 32.1285 51.1023 31.0001L51.598 30.4258C52.3557 29.5463 52.2574 28.2199 51.3778 27.4621Z" fill="#E59F6A"/>
<path d="M47.9274 30.5601L44.5041 27.6084C44.3081 27.4443 44.0554 27.3639 43.8006 27.3845C43.5458 27.4052 43.3094 27.5254 43.1425 27.719C42.9756 27.9126 42.8915 28.1641 42.9086 28.4192C42.9256 28.6743 43.0424 28.9124 43.2336 29.0821L46.6508 32.0285L47.2949 31.2814C47.5445 31.4956 47.8311 31.6622 48.1406 31.7731C48.2504 31.5774 48.2891 31.3497 48.2503 31.1286C48.2114 30.9076 48.0973 30.7067 47.9274 30.5601ZM42.4541 34.2193C42.6885 33.8218 42.6134 33.3018 42.2515 32.9897L39.1763 30.3383C38.9803 30.1741 38.7276 30.0937 38.4728 30.1144C38.218 30.1351 37.9816 30.2552 37.8147 30.4488C37.6477 30.6425 37.5637 30.894 37.5808 31.1491C37.5978 31.4041 37.7146 31.6422 37.9058 31.8119L40.981 34.4633L40.9849 34.4663L41.6202 33.7285C41.8662 33.9412 42.1487 34.1075 42.4541 34.2193Z" fill="#E59F6A"/>
<path d="M16.3931 26.3733L15.6521 27.3518C14.8452 28.4173 15.0548 29.9353 16.1203 30.7424C17.1859 31.5493 18.7039 31.3397 19.5109 30.2741L20.252 29.2956C21.0589 28.23 20.8493 26.7121 19.7837 25.905C18.7181 25.0981 17.2 25.3077 16.3931 26.3733ZM20.9065 28.4314L19.5109 30.2741C18.704 31.3397 18.9136 32.8577 19.9792 33.6647C21.0447 34.4716 22.5627 34.262 23.3698 33.1965L24.7653 31.3537C25.5722 30.2881 25.3626 28.7702 24.2971 27.9631C23.2314 27.1562 21.7134 27.3658 20.9065 28.4314Z" fill="#F29F5C"/>
<path d="M25.2718 30.6848L23.3698 33.1963C22.5629 34.2618 22.7725 35.7798 23.8381 36.5869C24.9037 37.3938 26.4216 37.1842 27.2287 36.1186L29.1306 33.6072C29.9375 32.5416 29.7279 31.0236 28.6624 30.2166C27.5968 29.4095 26.0788 29.6193 25.2718 30.6848Z" fill="#F29F5C"/>
<path d="M29.2406 33.4613L27.2283 36.1183C26.4213 37.1839 26.6309 38.7019 27.6965 39.5089C28.7621 40.3158 30.28 40.1062 31.0871 39.0407L33.0994 36.3836C33.9063 35.318 33.6967 33.8001 32.6311 32.993C31.5655 32.1861 30.0475 32.3957 29.2406 33.4613ZM49.4044 5.78792L43.2757 2.33883C42.6219 1.97098 41.8717 1.81091 41.1247 1.87993L31.4477 2.77492C30.8614 2.82913 30.2965 3.02276 29.8003 3.33967C29.3041 3.65658 28.8908 4.08756 28.595 4.59667L21.7744 16.3363C21.2707 17.2033 21.6661 18.3149 22.604 18.6692L22.883 18.7745C25.3832 19.7188 28.2066 18.9152 29.8349 16.7962L32.4481 13.3952C32.4481 13.3952 38.7298 20.6684 45.6458 12.1746" fill="#F29F5C"/>
<path d="M66.4034 26.8936L63.1979 0.854402C63.1823 0.727607 63.1419 0.605127 63.079 0.493957C63.016 0.382786 62.9318 0.285103 62.8311 0.206486C62.7304 0.127869 62.6152 0.0698574 62.4921 0.0357649C62.369 0.00167243 62.2403 -0.00783392 62.1136 0.00778986L54.6179 0.930542C52.6711 1.17024 51.2823 2.94907 51.522 4.89575L54.096 25.8049C54.3175 27.6048 55.8547 28.9277 57.6241 28.9277C57.7683 28.9277 57.9145 28.9189 58.0612 28.9009L65.5568 27.9781C65.8129 27.9465 66.0459 27.8145 66.2046 27.6112C66.3634 27.4078 66.4349 27.1497 66.4034 26.8936Z" fill="#5C9CEE"/>
<path d="M66.4038 26.8931L66.0519 24.0348C65.9706 24.1549 65.8645 24.2562 65.7407 24.3319C65.6169 24.4076 65.4784 24.4559 65.3344 24.4736L57.477 25.4409C57.325 25.4596 57.1719 25.469 57.0187 25.469C55.6957 25.469 54.4971 24.7631 53.834 23.6738L54.0963 25.8042C54.3178 27.6041 55.855 28.927 57.6243 28.927C57.7686 28.927 57.9148 28.9182 58.0615 28.9002L65.5571 27.9775C65.6839 27.9618 65.8064 27.9214 65.9176 27.8585C66.0287 27.7955 66.1264 27.7113 66.2051 27.6106C66.2837 27.5099 66.3417 27.3947 66.3758 27.2716C66.4099 27.1485 66.4194 27.0199 66.4038 26.8931Z" fill="#3580D3"/>
<path d="M11.7928 0.930083L4.29716 0.00733148C4.17036 -0.0083273 4.04172 0.0011537 3.91859 0.0352323C3.79546 0.069311 3.68025 0.127319 3.57955 0.205943C3.47885 0.284566 3.39462 0.382263 3.33169 0.49345C3.26876 0.604637 3.22836 0.727135 3.21279 0.853943L0.00729042 26.8933C-0.0242279 27.1494 0.0472598 27.4075 0.206028 27.6108C0.364797 27.8142 0.597842 27.9461 0.853902 27.9777L8.34953 28.9004C8.49637 28.9185 8.64229 28.9273 8.78665 28.9273C10.5559 28.9273 12.0932 27.6042 12.3147 25.8044L14.8887 4.89529C15.1284 2.94862 13.7396 1.16979 11.7928 0.930083Z" fill="#ED5575"/>
<path d="M0.00728489 26.8931L0.359186 24.0348C0.440539 24.1549 0.546667 24.2562 0.670435 24.3319C0.794204 24.4076 0.932742 24.4559 1.07674 24.4736L8.93413 25.4409C9.08796 25.4598 9.24115 25.469 9.39239 25.469C10.7154 25.469 11.9141 24.7631 12.5771 23.6738L12.3149 25.8042C12.0933 27.6041 10.5561 28.927 8.78678 28.927C8.64254 28.927 8.49636 28.9182 8.34966 28.9002L0.854026 27.9775C0.727227 27.9618 0.604742 27.9214 0.493565 27.8585C0.382388 27.7955 0.284697 27.7113 0.206069 27.6106C0.127442 27.5099 0.0694175 27.3947 0.03531 27.2716C0.00120246 27.1485 -0.00832049 27.0199 0.00728489 26.8931Z" fill="#CC3A60"/>
<path d="M60.1847 24.6043C61.2233 24.6043 62.0652 23.7624 62.0652 22.7238C62.0652 21.6852 61.2233 20.8433 60.1847 20.8433C59.1461 20.8433 58.3042 21.6852 58.3042 22.7238C58.3042 23.7624 59.1461 24.6043 60.1847 24.6043Z" fill="#EBEEF2"/>
<path d="M6.12076 24.6043C7.15934 24.6043 8.00128 23.7624 8.00128 22.7238C8.00128 21.6852 7.15934 20.8433 6.12076 20.8433C5.08217 20.8433 4.24023 21.6852 4.24023 22.7238C4.24023 23.7624 5.08217 24.6043 6.12076 24.6043Z" fill="#EBEEF2"/>
</svg>
