<svg width="36" height="40" viewBox="0 0 36 40" fill="none" xmlns="http://www.w3.org/2000/svg">
<path d="M35.2519 34.9973C35.5424 34.7079 35.5274 34.2331 35.2195 33.9624L33.3659 32.3331L27.5456 27.2168L25.2759 25.2216C24.6464 24.6682 24.1601 23.9707 23.8586 23.1887C23.5571 22.4066 23.4493 21.5631 23.5444 20.7304L24.0862 15.9868C24.323 13.9133 24.0018 11.8141 23.1556 9.90639L18.9293 0.376708C18.6524 -0.247667 17.7192 -0.0500885 17.7192 0.633036V22.7678C17.7192 24.6608 18.3825 26.494 19.5939 27.9486L22.5415 31.4882L27.4931 37.4343L29.3938 39.7403C29.6598 40.0629 30.1456 40.0866 30.4417 39.7915L35.2519 34.9973ZM0.207608 34.9986C-0.081923 34.709 -0.0666106 34.2349 0.240967 33.9646L2.0955 32.3343L7.91581 27.2179L10.1855 25.2228C10.815 24.6694 11.3013 23.9719 11.6028 23.1898C11.9044 22.4077 12.0122 21.5643 11.9171 20.7315L11.3753 15.9879C11.1384 13.9144 11.4597 11.8153 12.3058 9.90756L16.5208 0.377958C16.7978 -0.246417 17.7192 -0.0488385 17.7192 0.634286V22.769C17.7192 24.662 17.0674 26.4952 15.8561 27.9498L12.9142 31.4894L7.96838 37.4355L6.04542 39.7447C5.77846 40.0652 5.29378 40.0872 4.99886 39.7922L0.207608 34.9986Z" fill="#EFBBAB"/>
<path d="M21.8164 27.4454C20.6051 25.9908 19.9533 24.1576 19.9533 22.2646L18.9176 0.378169C18.6415 -0.244408 17.7247 -0.0496428 17.7193 0.628638C17.7141 -0.0496428 16.7972 -0.244486 16.521 0.378169L15.4853 22.2646C15.4853 24.1576 14.8335 25.9908 13.6222 27.4454L4.10059 38.8933L4.99926 39.7924C5.29426 40.0875 5.77879 40.0655 6.04582 39.7449L15.8564 27.9501C17.0619 26.5026 17.7127 24.6803 17.719 22.7972H17.7197C17.726 24.6803 18.3768 26.5027 19.5823 27.9501L29.3929 39.7449C29.6599 40.0655 30.1446 40.0875 30.4395 39.7924L31.3381 38.8933L21.8164 27.4454Z" fill="#EDA08E"/>
<path d="M10.3489 35.2172L4.58295 29.4513C3.85256 28.7209 3.85256 27.5365 4.58295 26.8061C5.31334 26.0757 6.49772 26.0757 7.22811 26.8061L12.9941 32.572C13.7244 33.3024 13.7244 34.4868 12.9941 35.2172C12.2637 35.9477 11.0794 35.9477 10.3489 35.2172Z" fill="#FFDB6C"/>
<path d="M12.9938 32.5723L10.5202 30.0986C11.2506 30.829 11.2506 32.0134 10.5202 32.7438C9.78977 33.4742 8.60539 33.4742 7.875 32.7438L10.3487 35.2175C11.0791 35.9479 12.2634 35.9479 12.9938 35.2175C13.7242 34.4871 13.7242 33.3028 12.9938 32.5723Z" fill="#FFB04C"/>
<path d="M7.70339 37.8622L1.93744 32.0963C1.20705 31.3659 1.20705 30.1815 1.93744 29.4511C2.66783 28.7207 3.85221 28.7207 4.5826 29.4511L10.3485 35.2171C11.0789 35.9475 11.0789 37.1318 10.3485 37.8622C9.61816 38.5928 8.43386 38.5928 7.70339 37.8622Z" fill="#FFDB6C"/>
<path d="M10.3483 35.2173L7.87465 32.7437C8.60504 33.474 8.60504 34.6584 7.87465 35.3888C7.14426 36.1192 5.95988 36.1192 5.22949 35.3888L7.70317 37.8625C8.43356 38.5929 9.61794 38.5929 10.3483 37.8625C11.0789 37.1321 11.0789 35.9478 10.3483 35.2173Z" fill="#FFB04C"/>
<path d="M24.6627 35.2172L30.4286 29.4513C31.159 28.7209 31.159 27.5365 30.4286 26.8061C29.6982 26.0757 28.5139 26.0757 27.7835 26.8061L22.0175 32.572C21.2871 33.3024 21.2871 34.4868 22.0175 35.2172C22.7479 35.9477 23.9321 35.9477 24.6627 35.2172Z" fill="#FFDB6C"/>
<path d="M22.0176 32.5723L24.4913 30.0986C23.7609 30.829 23.7609 32.0134 24.4913 32.7438C25.2216 33.4742 26.406 33.4742 27.1364 32.7438L24.6627 35.2175C23.9323 35.9479 22.748 35.9479 22.0176 35.2175C21.2871 34.4871 21.2871 33.3028 22.0176 32.5723Z" fill="#FFB04C"/>
<path d="M27.3082 37.8622L33.0741 32.0963C33.8045 31.3659 33.8045 30.1815 33.0741 29.4511C32.3437 28.7207 31.1594 28.7207 30.429 29.4511L24.663 35.2171C23.9326 35.9475 23.9326 37.1318 24.663 37.8622C25.3934 38.5928 26.5776 38.5928 27.3082 37.8622Z" fill="#FFDB6C"/>
<path d="M24.6631 35.2173L27.1368 32.7437C26.4064 33.474 26.4064 34.6584 27.1368 35.3888C27.8672 36.1192 29.0516 36.1192 29.782 35.3888L27.3083 37.8625C26.5779 38.5929 25.3935 38.5929 24.6631 37.8625C23.9326 37.1321 23.9326 35.9478 24.6631 35.2173Z" fill="#FFB04C"/>
<path d="M20.8527 14.994C20.7604 14.994 20.669 14.9756 20.5839 14.9397C20.4988 14.9038 20.4218 14.8512 20.3574 14.785C20.293 14.7188 20.2426 14.6404 20.2091 14.5543C20.1755 14.4683 20.1596 14.3764 20.1622 14.2841C20.1734 13.8852 20.1575 13.486 20.1144 13.0893C19.828 10.4575 18.3745 8.43348 17.2057 7.19887C17.1433 7.13303 17.0946 7.05555 17.0622 6.97086C17.0298 6.88617 17.0144 6.79593 17.0169 6.70529C17.0193 6.61465 17.0397 6.52538 17.0766 6.44259C17.1136 6.3598 17.1666 6.28511 17.2324 6.22278C17.2982 6.16043 17.3757 6.11167 17.4604 6.07927C17.5451 6.04687 17.6353 6.03147 17.726 6.03395C17.8166 6.03643 17.9059 6.05674 17.9887 6.09373C18.0715 6.13071 18.1462 6.18364 18.2085 6.24949C20.0938 8.24098 21.2276 10.5544 21.4872 12.9399C21.5368 13.3961 21.5555 13.8613 21.5425 14.3229C21.5374 14.5025 21.4626 14.6731 21.3338 14.7984C21.205 14.9237 21.0324 14.9938 20.8527 14.994Z" fill="#EDA08E"/>
<path d="M14.5845 14.994C14.4048 14.9939 14.2322 14.9237 14.1034 14.7984C13.9745 14.6731 13.8997 14.5025 13.8946 14.3229C13.8816 13.8613 13.9003 13.3961 13.9499 12.9399C14.2095 10.5544 15.3433 8.2409 17.2286 6.24949C17.2909 6.18364 17.3656 6.13071 17.4484 6.09373C17.5312 6.05674 17.6205 6.03643 17.7111 6.03395C17.8018 6.03147 17.892 6.04687 17.9767 6.07927C18.0614 6.11167 18.1389 6.16043 18.2047 6.22278C18.2706 6.28511 18.3235 6.3598 18.3605 6.44259C18.3975 6.52538 18.4178 6.61465 18.4202 6.70529C18.4227 6.79593 18.4073 6.88617 18.3749 6.97086C18.3425 7.05555 18.2938 7.13303 18.2314 7.19887C17.0626 8.43348 15.6092 10.4575 15.3227 13.0893C15.2797 13.486 15.2638 13.8852 15.2749 14.2841C15.2775 14.3764 15.2616 14.4683 15.2281 14.5543C15.1945 14.6403 15.1441 14.7188 15.0797 14.7849C15.0153 14.8511 14.9383 14.9037 14.8533 14.9396C14.7682 14.9755 14.6768 14.994 14.5845 14.994Z" fill="#EDA08E"/>
</svg>
