<svg width="42" height="40" viewBox="0 0 42 40" fill="none" xmlns="http://www.w3.org/2000/svg">
<path d="M40.6712 33.6973L37.9943 31.656L31.5627 26.7516L29.0547 24.8391C28.359 24.3087 27.8216 23.6401 27.4884 22.8904C27.1552 22.1407 27.0361 21.3322 27.1412 20.5339L27.7399 15.9868C28.0017 13.9992 27.6466 11.987 26.7116 10.1582L22.0413 1.02322C21.7353 0.424726 20.7042 0.614069 20.7042 1.26888V22.4868C20.7042 24.3013 21.4372 26.0586 22.7758 27.453L26.0329 30.846L31.5045 36.5458L34.1529 39.333L40.6712 33.6973ZM0.762695 33.6984L3.43957 31.6572L9.87117 26.7528L12.3792 24.8403C13.0749 24.3098 13.6122 23.6412 13.9454 22.8916C14.2786 22.1419 14.3978 21.3334 14.2927 20.5351L13.694 15.988C13.4322 14.0003 13.7872 11.9882 14.7223 10.1594L19.3799 1.02455C19.6859 0.426053 20.7042 0.615397 20.7042 1.27021V22.4881C20.7042 24.3027 19.9839 26.0599 18.6454 27.4543L15.3946 30.8473L9.92925 36.5472L7.2549 39.333L0.762695 33.6984Z" fill="#EFBBAB"/>
<path d="M19.3798 1.02317L18.2353 22.0031C18.2353 23.8176 17.5151 25.5749 16.1765 26.9693L12.9257 30.3623L7.46038 36.0621L5.65479 37.9431L7.2549 39.3317L9.92925 36.5459L15.3946 30.8461L18.6454 27.453C19.9839 26.0586 20.7042 24.3014 20.7042 22.4868V1.26883C20.7041 0.614178 19.6858 0.424678 19.3798 1.02317Z" fill="#EDA08E"/>
<path d="M22.0285 1.02317L23.173 22.0031C23.173 23.8176 23.8932 25.5749 25.2318 26.9693L28.4826 30.3623L33.9479 36.0621L35.7535 37.9431L34.1534 39.3317L31.4791 36.5459L26.0137 30.8461L22.7629 27.453C21.4244 26.0586 20.7041 24.3014 20.7041 22.4868V1.26883C20.7042 0.614178 21.7225 0.424678 22.0285 1.02317Z" fill="#EDA08E"/>
<path d="M12.5594 34.4193L6.18783 28.8922C5.38075 28.1921 5.38075 27.0568 6.18783 26.3566C6.99491 25.6565 8.30373 25.6565 9.11081 26.3566L15.4824 31.8838C16.2895 32.5839 16.2895 33.7193 15.4824 34.4194C14.6751 35.1195 13.3665 35.1195 12.5594 34.4193Z" fill="#FFDB6C"/>
<path d="M15.4826 31.8839L12.7492 29.5127C13.5562 30.2128 13.5562 31.3482 12.7492 32.0483C11.9421 32.7484 10.6333 32.7484 9.82617 32.0483L12.5596 34.4195C13.3667 35.1196 14.6755 35.1196 15.4826 34.4195C16.2897 33.7194 16.2897 32.5841 15.4826 31.8839Z" fill="#FFB04C"/>
<path d="M9.63703 36.9545L3.26547 31.4274C2.45839 30.7273 2.45839 29.5919 3.26547 28.8918C4.07255 28.1917 5.38137 28.1917 6.18845 28.8918L12.56 34.4189C13.3671 35.119 13.3671 36.2544 12.56 36.9545C11.7528 37.6548 10.4441 37.6548 9.63703 36.9545Z" fill="#FFDB6C"/>
<path d="M12.5597 34.4195L9.8263 32.0483C10.6334 32.7485 10.6334 33.8838 9.8263 34.5839C9.01922 35.2841 7.7104 35.2841 6.90332 34.5839L9.63676 36.9551C10.4438 37.6552 11.7527 37.6552 12.5597 36.9551C13.3668 36.255 13.3668 35.1197 12.5597 34.4195Z" fill="#FFB04C"/>
<path d="M28.3769 34.4194L34.7485 28.8922C35.5556 28.1921 35.5556 27.0568 34.7485 26.3566C33.9414 25.6565 32.6326 25.6565 31.8255 26.3566L25.4539 31.8838C24.6469 32.5839 24.6469 33.7193 25.4539 34.4194C26.2611 35.1196 27.5698 35.1196 28.3769 34.4194Z" fill="#FFDB6C"/>
<path d="M25.4541 31.8839L28.1876 29.5127C27.3805 30.2128 27.3805 31.3482 28.1876 32.0483C28.9947 32.7484 30.3035 32.7484 31.1106 32.0483L28.3771 34.4195C27.5701 35.1196 26.2612 35.1196 25.4542 34.4195C24.6468 33.7194 24.6468 32.5841 25.4541 31.8839Z" fill="#FFB04C"/>
<path d="M31.2998 36.9545L37.6713 31.4274C38.4784 30.7273 38.4784 29.5919 37.6713 28.8918C36.8643 28.1917 35.5554 28.1917 34.7484 28.8918L28.3768 34.4189C27.5697 35.119 27.5697 36.2544 28.3768 36.9545C29.1839 37.6548 30.4926 37.6548 31.2998 36.9545Z" fill="#FFDB6C"/>
<path d="M28.3768 34.4195L31.1102 32.0483C30.3032 32.7485 30.3032 33.8838 31.1102 34.5839C31.9173 35.2841 33.2261 35.2841 34.0332 34.5839L31.2998 36.9551C30.4927 37.6552 29.1839 37.6552 28.3768 36.9551C27.5697 36.255 27.5697 35.1197 28.3768 34.4195Z" fill="#FFB04C"/>
<path d="M41.175 33.1999L38.7067 31.3178C38.9243 30.9659 39.0397 30.5707 39.0397 30.1601C39.0397 29.5044 38.7453 28.8879 38.2109 28.4244C37.6764 27.9606 36.9658 27.7054 36.21 27.7054C36.178 27.7054 36.1463 27.7065 36.1145 27.7074C36.1155 27.6797 36.1169 27.6522 36.1169 27.6245C36.1169 26.9688 35.8224 26.3525 35.288 25.8887C34.7535 25.425 34.0428 25.1698 33.287 25.1698C32.5981 25.1698 31.9472 25.3825 31.4326 25.7711L29.5585 24.3419C28.9554 23.8819 28.4896 23.3021 28.2007 22.6521C27.9118 22.0021 27.8084 21.3011 27.8994 20.609L28.4981 16.0618C28.7747 13.9571 28.3988 11.8265 27.4093 9.88984L22.7388 0.754654C22.4559 0.2017 21.782 -0.0969997 21.0999 0.0284479C20.9626 0.0537779 20.83 0.0959383 20.7064 0.153661C20.5829 0.0958134 20.4505 0.0535205 20.3133 0.0280574C19.6354 -0.0965311 18.9648 0.202325 18.6822 0.755279L14.025 9.8896C13.0354 11.8263 12.6595 13.9569 12.936 16.0616L13.5348 20.6087C13.6257 21.3009 13.5224 22.0019 13.2335 22.6519C12.9446 23.3019 12.4787 23.8817 11.8757 24.3417L9.74258 25.9681L9.65073 25.8885C9.11622 25.4248 8.40558 25.1695 7.64974 25.1695C6.8939 25.1695 6.18317 25.425 5.64884 25.8885C5.11433 26.3522 4.81997 26.9686 4.81997 27.6243C4.81997 27.652 4.82132 27.6795 4.82231 27.7072C4.79061 27.7063 4.75883 27.7051 4.72686 27.7051C3.97102 27.7051 3.26029 27.9606 2.72596 28.4241C2.19145 28.8877 1.89709 29.5041 1.89709 30.1599C1.89709 30.6692 2.07556 31.1545 2.4053 31.5632L0.259246 33.1997C0.183994 33.257 0.122507 33.3267 0.0782956 33.4047C0.0340845 33.4827 0.0080154 33.5675 0.00157695 33.6542C-0.00486149 33.7409 0.00845685 33.8279 0.0407713 33.9102C0.0730858 33.9924 0.123764 34.0684 0.189911 34.1337C0.261443 34.2045 0.349613 34.2612 0.4485 34.3C0.547386 34.3388 0.654699 34.3588 0.763231 34.3586C0.948579 34.3587 1.1276 34.3002 1.26668 34.1939L3.45325 32.5265L8.54867 36.9466L6.66851 38.9081C6.60286 38.9747 6.55312 39.052 6.52219 39.1355C6.49126 39.219 6.47976 39.307 6.48834 39.3943C6.49693 39.4817 6.52544 39.5667 6.57221 39.6444C6.61898 39.7221 6.68309 39.791 6.76081 39.8471C6.83853 39.9031 6.92831 39.9452 7.02494 39.9709C7.12157 39.9966 7.22312 40.0054 7.3237 39.9968C7.42428 39.9882 7.52188 39.9623 7.61084 39.9207C7.6998 39.8791 7.77834 39.8225 7.8419 39.7543L9.69639 37.8196C10.1232 38.0314 10.6066 38.1425 11.0984 38.1417C11.8542 38.1417 12.565 37.8863 13.0994 37.4227C13.6756 36.9228 13.9502 36.2592 13.9245 35.6029C13.9567 35.6039 13.989 35.605 14.0212 35.605C14.7459 35.605 15.4706 35.3657 16.0222 34.8872C16.5567 34.4235 16.8511 33.8071 16.8511 33.1514C16.8511 32.4956 16.5566 31.8792 16.0222 31.4156L15.9192 31.3262C15.9412 31.3082 15.962 31.289 15.9814 31.2688L19.2318 27.8764C19.8454 27.2372 20.3404 26.5227 20.7081 25.7612C21.0791 26.5258 21.5784 27.2385 22.1897 27.8764L25.2817 31.0973L24.9146 31.4158C24.38 31.8794 24.0858 32.4958 24.0858 33.1516C24.0858 33.8072 24.3802 34.4236 24.9146 34.8874C25.4663 35.3659 26.1909 35.6051 26.9155 35.6051C26.9478 35.6051 26.98 35.604 27.0123 35.6031C26.9866 36.2595 27.2611 36.923 27.8375 37.4229C28.3892 37.9015 29.1138 38.1407 29.8385 38.1407C30.4586 38.1413 31.0617 37.9647 31.5546 37.6383L33.5643 39.7526C33.6359 39.828 33.7258 39.8887 33.8277 39.9304C33.9296 39.972 34.0408 39.9935 34.1534 39.9934C34.2981 39.9933 34.4397 39.9576 34.5619 39.8904C34.684 39.8231 34.7816 39.7272 34.8432 39.6136C34.9049 39.5001 34.9281 39.3738 34.9101 39.2493C34.8921 39.1247 34.8337 39.0072 34.7417 38.9104L32.6551 36.7155L37.7164 32.3251L40.1677 34.1942C40.3068 34.3006 40.4858 34.3591 40.6712 34.3589C40.8262 34.3589 40.9776 34.3179 41.1051 34.2413C41.2326 34.1648 41.3303 34.0564 41.385 33.9305C41.4397 33.8046 41.4489 33.6673 41.4114 33.5368C41.3739 33.4063 41.2914 33.2888 41.175 33.1999ZM12.0202 36.4869C11.8994 36.5922 11.7557 36.6758 11.5975 36.7326C11.4392 36.7895 11.2695 36.8186 11.0982 36.8182C10.9269 36.8186 10.7572 36.7895 10.599 36.7327C10.4407 36.6758 10.297 36.5923 10.1762 36.4869V36.4869L3.8047 30.9597C3.68325 30.8549 3.58697 30.7303 3.52141 30.593C3.45586 30.4557 3.42235 30.3085 3.42282 30.1599C3.42282 29.8578 3.55843 29.5737 3.8047 29.3602C4.05098 29.1465 4.37847 29.0288 4.72668 29.0288C5.07489 29.0288 5.40238 29.1464 5.64866 29.3602L9.47155 32.6763L12.0202 34.8872L12.0208 34.8877C12.5285 35.3289 12.5283 36.0461 12.0202 36.4869ZM14.9432 33.9512C14.4349 34.3923 13.6078 34.3924 13.0992 33.9512L6.72767 28.4241C6.60623 28.3193 6.50994 28.1946 6.44439 28.0573C6.37884 27.9201 6.34533 27.7729 6.34579 27.6243C6.34579 27.3222 6.4814 27.0381 6.72776 26.8245C6.84855 26.7191 6.99224 26.6356 7.15049 26.5787C7.30875 26.5219 7.47844 26.4928 7.64974 26.4932C7.99804 26.4932 8.32553 26.6109 8.57172 26.8246L14.9433 32.3517C15.0647 32.4565 15.161 32.5811 15.2265 32.7184C15.2921 32.8557 15.3256 33.0029 15.3251 33.1515C15.3251 33.4535 15.1894 33.7375 14.9432 33.9512ZM18.0587 27.0298L14.8395 30.3897L10.8238 26.9062L12.8832 25.3359C13.6711 24.7348 14.2797 23.9773 14.6572 23.128C15.0346 22.2788 15.1697 21.3629 15.051 20.4585L14.4522 15.9115C14.2065 14.0407 14.5406 12.147 15.4202 10.4257L19.9414 1.55866V6.87402C17.9999 8.73199 16.8287 10.8661 16.5528 13.0647C16.4979 13.5048 16.4774 13.9477 16.4917 14.3903C16.4945 14.4771 16.517 14.5627 16.5579 14.642C16.5988 14.7214 16.6573 14.793 16.7301 14.8527C16.8029 14.9124 16.8885 14.9591 16.9821 14.9901C17.0757 15.0211 17.1755 15.0359 17.2756 15.0334C17.3758 15.031 17.4744 15.0115 17.5659 14.976C17.6574 14.9406 17.7399 14.8898 17.8087 14.8266C17.8776 14.7635 17.9314 14.6892 17.9672 14.608C18.0029 14.5268 18.0199 14.4403 18.0171 14.3534C18.0047 13.9706 18.0225 13.5852 18.0698 13.208C18.2804 11.5297 19.0617 10.1098 19.9413 8.99835V22.4865C19.9412 24.1516 19.2727 25.7649 18.0587 27.0298ZM23.3622 27.0293C22.1389 25.7532 21.4686 24.1462 21.4672 22.4865L21.4673 8.96648C22.3573 10.0825 23.1517 11.5136 23.3644 13.2079C23.4118 13.5854 23.4296 13.9709 23.4172 14.3532C23.4143 14.4417 23.4319 14.5298 23.469 14.6122C23.5061 14.6947 23.5618 14.7699 23.633 14.8333C23.7041 14.8968 23.7893 14.9472 23.8833 14.9816C23.9773 15.016 24.0783 15.0336 24.1803 15.0336C24.3789 15.0335 24.5696 14.9662 24.7119 14.8461C24.8542 14.726 24.937 14.5624 24.9426 14.3903C24.9569 13.9477 24.9363 13.5019 24.8814 13.0646C24.6043 10.8564 23.424 8.71339 21.4673 6.84972V1.53257L26.0142 10.4262C26.8936 12.1473 27.2276 14.0408 26.9818 15.9113L26.3831 20.4584C26.2642 21.3627 26.3993 22.2786 26.7768 23.1279C27.1542 23.9772 27.7629 24.7347 28.5509 25.3358L30.3455 26.7042L26.365 30.1571L23.3622 27.0293ZM25.9934 33.9513C25.872 33.8465 25.7757 33.7218 25.7101 33.5845C25.6446 33.4473 25.6111 33.3001 25.6115 33.1515C25.6115 32.8493 25.7471 32.5652 25.9934 32.3517L32.3649 26.8245C32.4857 26.7191 32.6294 26.6356 32.7877 26.5787C32.9459 26.5219 33.1156 26.4928 33.2869 26.4932C33.6352 26.4932 33.9627 26.6109 34.2089 26.8246C34.3303 26.9294 34.4266 27.054 34.4921 27.1913C34.5577 27.3286 34.5912 27.4758 34.5908 27.6244C34.5908 27.9265 34.4552 28.2106 34.2089 28.4241L27.8374 33.9513C27.3291 34.3921 26.5019 34.3923 25.9934 33.9513ZM30.7443 36.4995C30.2705 36.9425 29.4196 36.9233 28.9165 36.4868C28.4081 36.0458 28.4081 35.3281 28.9165 34.8872L35.288 29.3602C35.5422 29.1396 35.8761 29.0294 36.21 29.0294C36.5439 29.0294 36.8777 29.1396 37.1319 29.3602C37.2534 29.4649 37.3497 29.5896 37.4152 29.7269C37.4808 29.8641 37.5143 30.0114 37.5138 30.1599C37.5138 30.462 37.3782 30.7462 37.1319 30.9597C37.1319 30.9598 30.8816 36.3711 30.7443 36.4995Z" fill="black"/>
</svg>
