<svg width="40" height="40" viewBox="0 0 40 40" fill="none" xmlns="http://www.w3.org/2000/svg">
<path d="M32.26 27.6695C32.144 27.5055 32.1167 27.2951 32.1906 27.0993L32.2008 27.072C33.1559 24.5383 33.5572 21.8294 33.3777 19.1275C33.1487 15.683 32.8313 10.9043 32.6534 8.21659C32.5759 7.04626 31.6384 6.11752 30.4574 6.05004L30.4058 6.0471C29.2689 5.98208 28.262 6.77497 28.0586 7.89544L27.0638 13.376C27.055 13.4247 27.0293 13.4688 26.9913 13.5005C26.9533 13.5322 26.9054 13.5496 26.8559 13.5496C26.4352 13.8052 26.0333 14.0904 25.6531 14.4029L25.6177 14.3546L16.6582 1.68598C15.8871 0.595677 14.3804 0.278583 13.2694 1.01955C12.1167 1.78831 11.832 3.35084 12.6268 4.47465L11.448 2.80788C10.6664 1.70273 9.13691 1.4405 8.03184 2.22204C6.92669 3.00358 6.66446 4.53308 7.446 5.63815L9.02608 7.87234C8.24453 6.76727 6.71503 6.50496 5.60997 7.2865C4.50482 8.06804 4.24258 9.59754 5.02413 10.7026L7.41782 14.0872C6.63628 12.9821 5.10685 12.7199 4.00171 13.5014C2.89656 14.283 2.63433 15.8125 3.41587 16.9176L15.2802 33.6935C16.0538 34.7873 17.0933 35.6693 18.3123 36.266L19.4422 36.8191L21.4656 39.6802C21.5438 39.7907 21.6502 39.8783 21.7737 39.9337C21.8972 39.9892 22.0334 40.0104 22.168 39.9954L38.8092 38.1292C39.1624 38.0895 39.3436 37.6857 39.1385 37.3955L32.26 27.6695Z" fill="#FFEFE7"/>
<path d="M14.6283 3.60058C14.3352 3.18796 14.1778 2.69431 14.1781 2.18819C14.1778 1.61193 14.3804 1.05395 14.7504 0.61216C14.202 0.583735 13.6602 0.741077 13.2124 1.05874C12.5367 1.53589 12.1763 2.29251 12.1763 3.06182C12.1763 3.55088 12.3224 4.04471 12.6264 4.47422L19.9369 14.812C20.9361 14.2378 21.2246 12.9284 20.5592 11.9875L14.6283 3.60058ZM15.7521 17.3844C16.7564 16.7525 17.0246 15.4072 16.3395 14.4384L9.29354 4.47517C9.00043 4.06226 8.84311 3.56835 8.84338 3.06198C8.84338 2.6146 8.96644 2.1708 9.20176 1.78408C8.78019 1.82599 8.37678 1.97688 8.03119 2.22193C7.35556 2.69908 6.99512 3.45648 6.99512 4.22501C6.99512 4.71407 7.1412 5.20868 7.44527 5.6382L15.7521 17.3844ZM27.0943 29.3098L31.3695 26.8415V23.4075L25.6812 14.379C25.6725 14.3861 25.6634 14.3928 25.6548 14.3999L25.6175 14.3546L24.7331 13.1041L24.7317 13.104C23.6805 13.9512 22.7799 14.9699 22.0681 16.1172C21.0796 17.7111 20.4726 19.5419 20.3127 21.4115L20.1929 22.8109L20.383 25.7088C20.3844 25.7311 20.386 25.7532 20.3876 25.7755C20.6246 29.0635 24.2394 30.9581 27.0943 29.3098Z" fill="#FFE0D1"/>
<path d="M33.3773 19.128C33.552 21.7599 33.1764 24.3989 32.2737 26.876L24.1916 30.9067L24.1767 30.89C22.8732 29.423 22.0957 27.5634 21.9674 25.6051L21.7852 22.8268L21.8947 21.547C22.036 19.8949 22.5672 18.3253 23.4175 16.9542C24.0145 15.9927 24.7687 15.1281 25.6548 14.4001C26.0319 14.0913 26.432 13.8062 26.8552 13.5498C26.9175 13.512 26.9711 13.4614 27.0125 13.4013C27.0538 13.3412 27.0819 13.273 27.0949 13.2013L28.058 7.89545C28.2612 6.77522 29.2687 5.98209 30.4056 6.04719L30.4572 6.05037C31.6378 6.11785 32.5754 7.04595 32.6532 8.21699C32.8311 10.9045 33.1478 15.6832 33.3773 19.128Z" fill="#FFEFE7"/>
<path d="M7.03778 9.89883C6.74456 9.48597 6.58723 8.99203 6.58762 8.48564C6.58762 7.8898 6.80436 7.30142 7.21657 6.84419C6.64583 6.79855 6.07722 6.95512 5.61029 7.28649C4.93466 7.76444 4.57422 8.52105 4.57422 9.28957C4.57383 9.79596 4.73116 10.2899 5.02438 10.7028L11.9982 20.5641C12.912 19.7903 13.0826 18.4464 12.3912 17.4688L7.03778 9.89883Z" fill="#FFE0D1"/>
<path d="M8.10297 36.0527C8.08614 36.0527 8.06923 36.052 8.05216 36.0506C3.22135 35.6422 -0.376729 31.38 0.0315877 26.5491L0.0579461 26.2375C0.0856541 25.9099 0.373691 25.6676 0.701424 25.6944C0.858782 25.7077 1.0044 25.783 1.10625 25.9037C1.20811 26.0244 1.25785 26.1806 1.24455 26.338L1.21819 26.6494C0.865291 30.8258 3.97598 34.5109 8.15251 34.8639C8.30561 34.8766 8.44784 34.9481 8.54948 35.0633C8.65112 35.1785 8.7043 35.3285 8.6979 35.482C8.69151 35.6355 8.62603 35.7806 8.51516 35.887C8.40429 35.9933 8.2566 36.0527 8.10297 36.0527Z" fill="#97C9F9"/>
<path d="M8.39699 32.5721C8.38024 32.5721 8.36325 32.5714 8.34618 32.57C5.43469 32.3239 3.26616 29.755 3.51219 26.8435L3.53855 26.5323C3.54511 26.4543 3.56697 26.3785 3.60286 26.309C3.63876 26.2395 3.68799 26.1778 3.74774 26.1273C3.8075 26.0769 3.87661 26.0387 3.95113 26.015C4.02565 25.9913 4.10411 25.9824 4.18203 25.9891C4.33937 26.0024 4.48498 26.0777 4.58683 26.1983C4.68868 26.319 4.73844 26.4752 4.72516 26.6325L4.6988 26.9438C4.5081 29.2009 6.18924 31.1925 8.44645 31.3832C8.6038 31.3965 8.74942 31.4718 8.85128 31.5925C8.95313 31.7132 9.00288 31.8694 8.98958 32.0267C8.97707 32.1753 8.90924 32.3138 8.7995 32.4148C8.68977 32.5158 8.54612 32.5719 8.39699 32.5721ZM26.5846 6.62786C26.4267 6.62786 26.2752 6.56513 26.1636 6.45346C26.0519 6.34179 25.9892 6.19034 25.9892 6.03242V5.93985C25.9892 3.32132 23.8587 1.19089 21.2401 1.19089C20.9113 1.19089 20.6447 0.92437 20.6447 0.595446C20.6447 0.266521 20.9113 0 21.2401 0C24.5154 0 27.18 2.66458 27.18 5.93985V6.03242C27.18 6.36134 26.9135 6.62786 26.5846 6.62786ZM23.0913 6.62786C22.9334 6.62786 22.7819 6.56513 22.6703 6.45346C22.5586 6.34179 22.4959 6.19034 22.4959 6.03242V5.93985C22.4959 5.24738 21.9326 4.68417 21.2401 4.68417C20.9113 4.68417 20.6447 4.41765 20.6447 4.08873C20.6447 3.7598 20.9113 3.49328 21.2401 3.49328C22.5892 3.49328 23.6868 4.59081 23.6868 5.93985V6.03242C23.6868 6.36134 23.4202 6.62786 23.0913 6.62786Z" fill="#97C9F9"/>
<path d="M24.8476 39.6947L21.8484 35.2831C21.6499 35.002 21.3869 34.7725 21.0815 34.6138L20.9044 34.5217C19.2975 33.6856 17.9134 32.4779 16.8673 30.9991L4.5392 13.5676C4.47639 13.478 4.41961 13.3843 4.36922 13.2871C4.24076 13.3478 4.1178 13.4195 4.00171 13.5014C2.89656 14.2829 2.63433 15.8124 3.41587 16.9176L15.2802 33.6934C16.0538 34.7873 17.0933 35.6693 18.3123 36.266L19.4422 36.819L21.4656 39.6801C21.5438 39.7907 21.6502 39.8782 21.7737 39.9337C21.8972 39.9891 22.0334 40.0104 22.168 39.9953L24.8476 39.6947Z" fill="#FFE0D1"/>
</svg>
