<svg width="62" height="40" viewBox="0 0 62 40" fill="none" xmlns="http://www.w3.org/2000/svg">
<path d="M61.123 18.1539L53.1042 0.826519C53.0262 0.656214 52.9151 0.503156 52.7773 0.376281C52.6395 0.249407 52.4778 0.151259 52.3016 0.0875703C51.944 -0.043255 51.5581 -0.0268702 51.2175 0.132691L46.6064 2.26371C45.9011 2.59657 45.5917 3.44164 45.9166 4.14757L46.1217 4.59071C43.3678 5.16279 42.3304 5.33079 41.9509 5.3681C40.6009 5.49981 38.829 5.26928 36.9532 5.02541C33.6959 4.60218 30.328 4.16445 28.1652 5.43918L26.5934 6.36504C24.2318 4.52265 20.974 4.54924 17.8213 4.57609C16.9343 4.58365 16.0243 4.59071 15.1485 4.55466L15.3364 4.14857L15.3369 4.14757C15.6618 3.44151 15.3524 2.59644 14.6433 2.26194L10.0384 0.133699C9.86946 0.0542324 9.68642 0.00921431 9.49993 0.00127248C9.31344 -0.00666935 9.12723 0.0226247 8.95219 0.0874443C8.77617 0.151046 8.61457 0.24905 8.47682 0.375746C8.33907 0.502441 8.22792 0.65529 8.14984 0.825384L0.130176 18.1549C-0.197139 18.866 0.114296 19.7105 0.823374 20.0369L5.43163 22.1702C5.61679 22.2557 5.8183 22.2999 6.02223 22.2999C6.55876 22.2999 7.07488 21.9949 7.31712 21.4771L7.47341 21.1394C8.76931 22.086 9.25266 23.4066 9.75844 24.7979C10.2477 26.144 10.7549 27.5306 12.03 28.5379L11.755 29.0083C10.9137 30.4455 11.4003 32.3016 12.8406 33.1465C13.3018 33.4164 13.8265 33.5585 14.3608 33.5583C14.8255 33.5583 15.2845 33.4507 15.7008 33.2469C15.7567 34.2259 16.2852 35.1598 17.1928 35.6894C17.6527 35.9604 18.1766 36.1034 18.7104 36.1035C18.9683 36.1035 19.2281 36.0702 19.485 36.0031C19.6807 35.952 19.8708 35.8817 20.0527 35.7932C20.0644 35.9934 20.0959 36.1941 20.148 36.393C20.3533 37.177 20.8488 37.8321 21.5427 38.237C22.0034 38.5077 22.528 38.6505 23.0623 38.6507C23.3204 38.6507 23.5803 38.6174 23.837 38.5503C24.4464 38.3924 24.9905 38.0466 25.3923 37.562C25.6127 38.3007 26.0917 38.9189 26.7569 39.3089C27.2173 39.5788 27.7414 39.7209 28.275 39.7206C29.1542 39.7206 30.0153 39.3365 30.6029 38.6386L32.1138 39.5364C32.6244 39.8401 33.2075 40.0002 33.8016 40C34.9341 40 36.0386 39.4205 36.6564 38.3784C37.1132 37.6066 37.2199 36.7236 37.0256 35.914L37.0365 35.9205C37.5451 36.2248 38.1267 36.3856 38.7195 36.3858C38.9983 36.3856 39.276 36.3505 39.5462 36.2816C40.407 36.0625 41.1293 35.5233 41.5799 34.7636C42.0287 34.0071 42.1543 33.1152 41.9335 32.2523C41.9043 32.1385 41.8692 32.0262 41.8284 31.9159C41.9668 31.9337 42.1063 31.9433 42.2466 31.9433C42.5267 31.943 42.8056 31.9078 43.0769 31.8383C43.9364 31.619 44.6577 31.0812 45.1079 30.3238C45.5578 29.567 45.6843 28.6752 45.464 27.8127C45.4237 27.6546 45.372 27.4996 45.3094 27.3489C45.3849 27.3541 45.4605 27.357 45.5359 27.357C46.6686 27.357 47.7754 26.7769 48.3963 25.7342C48.8216 25.0177 48.9556 24.1795 48.7799 23.3596C50.8392 22.918 52.4944 22.209 53.8094 21.2021L53.9377 21.4794C54.1793 21.9954 54.6949 22.3 55.2316 22.3C55.4359 22.3 55.6378 22.2557 55.8233 22.1701L60.4297 20.0377C61.1396 19.7109 61.4511 18.8664 61.1232 18.1543L61.123 18.1539Z" fill="#F6DCCD"/>
<path d="M32.8971 33.0727C32.6916 32.2855 32.1952 31.6282 31.4997 31.2224C30.5917 30.6898 29.5143 30.6903 28.6306 31.1274C28.5777 30.1449 28.0493 29.2054 27.1394 28.6716C26.4458 28.2647 25.6329 28.1532 24.8499 28.3577C24.6528 28.4093 24.4613 28.4803 24.2782 28.5697C24.222 27.5909 23.6935 26.6575 22.7863 26.128C21.8801 25.5963 20.8073 25.5931 19.9266 26.0238C19.9146 25.8215 19.8827 25.6209 19.8313 25.4249C19.6261 24.6407 19.1305 23.9857 18.4366 23.5806C16.9966 22.7384 15.1388 23.2235 14.2953 24.6619L11.7553 29.0079C10.914 30.4451 11.4006 32.3013 12.841 33.1462C13.3021 33.4161 13.8268 33.5582 14.3611 33.558C14.8258 33.558 15.2848 33.4503 15.7011 33.2465C15.7571 34.2256 16.2855 35.1595 17.1931 35.6891C17.653 35.9601 18.177 36.103 18.7107 36.1031C18.9686 36.1031 19.2285 36.0699 19.4853 36.0028C19.681 35.9517 19.8711 35.8813 20.053 35.7928C20.0647 35.9931 20.0962 36.1938 20.1483 36.3926C20.3536 37.1767 20.8492 37.8317 21.543 38.2367C22.0037 38.5074 22.5283 38.6502 23.0626 38.6503C23.3207 38.6503 23.5806 38.6171 23.8373 38.55C24.4467 38.392 24.9908 38.0462 25.3926 37.5616C25.6131 38.3003 26.092 38.9185 26.7572 39.3086C27.2176 39.5785 27.7417 39.7206 28.2753 39.7202C29.3156 39.7202 30.332 39.1845 30.8981 38.2246L32.5841 35.3612C32.991 34.6699 33.1021 33.8572 32.8973 33.0726L32.8971 33.0727Z" fill="#EFC1B1"/>
<path d="M19.8309 25.4258C19.6257 24.6416 19.1301 23.9866 18.4361 23.5815C18.291 23.4968 18.139 23.4243 17.9818 23.3647C18.2668 23.706 18.4729 24.106 18.5855 24.5361C18.7909 25.321 18.6796 26.1356 18.2722 26.8304L15.7327 31.1719C15.1707 32.1329 14.1561 32.6693 13.1152 32.6693C12.7548 32.6693 12.3918 32.6034 12.043 32.4703C12.2675 32.7406 12.5374 32.9697 12.8407 33.1473C13.3018 33.4171 13.8265 33.5593 14.3608 33.559C15.4017 33.559 16.4163 33.0226 16.9783 32.0616L19.5178 27.72C19.9253 27.0255 20.0365 26.2106 19.8311 25.4258H19.8309ZM22.7859 26.129C22.6426 26.0452 22.4927 25.9733 22.3377 25.914C23.128 26.8641 23.2844 28.2476 22.6256 29.3765L20.0854 33.7191C19.6778 34.4141 19.0222 34.9093 18.2391 35.1142C17.9824 35.1814 17.7224 35.2145 17.4645 35.2145C17.0984 35.2141 16.7354 35.1461 16.3939 35.0141C16.6185 35.2844 16.8887 35.5133 17.1924 35.6902C17.6523 35.9611 18.1763 36.1041 18.71 36.1042C18.9679 36.1042 19.2278 36.0709 19.4846 36.0039C20.2678 35.7989 20.9233 35.3038 21.3309 34.6088L23.8711 30.2662C24.7121 28.825 24.225 26.9687 22.7859 26.129ZM27.1389 28.6724C26.9946 28.5879 26.8436 28.5156 26.6873 28.4561C27.4791 29.4079 27.6366 30.7923 26.9786 31.9198L24.4346 36.2662C24.0294 36.9605 23.3746 37.4561 22.591 37.661C22.3343 37.7282 22.0743 37.7613 21.8163 37.7613C21.4521 37.7613 21.092 37.6936 20.7503 37.5633C20.9729 37.8325 21.241 38.0606 21.5423 38.2374C22.003 38.5081 22.5276 38.6509 23.0619 38.651C23.32 38.651 23.5799 38.6177 23.8367 38.5507C24.6202 38.3458 25.275 37.8501 25.6802 37.1559L28.2242 32.8095C29.0634 31.3716 28.5765 29.5156 27.139 28.6722L27.1389 28.6724ZM32.8966 33.0734C32.6912 32.2862 32.1947 31.6289 31.4993 31.2231C31.354 31.1381 31.2019 31.0655 31.0445 31.0059C31.3311 31.349 31.5383 31.7512 31.651 32.1837C31.8558 32.9683 31.7445 33.781 31.3378 34.4723L29.6518 37.3357C29.0858 38.2956 28.0693 38.8314 27.029 38.8314C26.6713 38.8314 26.3114 38.7665 25.9654 38.6353C26.1881 38.904 26.4557 39.1322 26.7564 39.3094C27.2168 39.5793 27.7409 39.7214 28.2745 39.7211C29.3148 39.7211 30.3312 39.1853 30.8973 38.2254L32.5833 35.362C32.9901 34.6707 33.1013 33.858 32.8965 33.0734H32.8966Z" fill="#E5AFA1"/>
<path d="M61.1226 18.1539L53.1038 0.826504C53.0258 0.656199 52.9147 0.503141 52.7769 0.376266C52.6391 0.249392 52.4774 0.151244 52.3012 0.0875552C51.9437 -0.0432701 51.5578 -0.0268852 51.2171 0.132676L46.6061 2.26369C45.9008 2.59655 45.5913 3.44162 45.9163 4.14755L53.9371 21.479C54.1787 21.995 54.6943 22.2996 55.2309 22.2996C55.4353 22.2996 55.6372 22.2553 55.8227 22.1697L60.429 20.0373C61.139 19.7105 61.4504 18.866 61.1226 18.1539Z" fill="#8AC9FE"/>
<path d="M61.1226 18.1539L53.1038 0.826504C53.0258 0.656199 52.9146 0.503141 52.7768 0.376266C52.639 0.249392 52.4773 0.151244 52.3012 0.0875552C51.9436 -0.0432701 51.5577 -0.0268852 51.217 0.132676L51.1943 0.143137C51.283 0.244924 51.3568 0.358828 51.4134 0.481418L59.4322 17.8088C59.76 18.5209 59.4486 19.3654 58.7386 19.6922L54.1567 21.8134C54.291 21.9659 54.4563 22.0881 54.6415 22.172C54.8266 22.2558 55.0275 22.2993 55.2308 22.2996C55.4351 22.2996 55.637 22.2553 55.8225 22.1697L60.4289 20.0373C61.1388 19.7105 61.4503 18.866 61.1224 18.1539H61.1226Z" fill="#60B7FF"/>
<path d="M14.6435 2.26194L10.0385 0.133699C9.86959 0.0542324 9.68655 0.00921431 9.50006 0.00127248C9.31357 -0.00666935 9.12736 0.0226247 8.95231 0.0874443C8.7763 0.151046 8.6147 0.24905 8.47695 0.375746C8.3392 0.502441 8.22804 0.65529 8.14997 0.825384L0.130176 18.1549C-0.197139 18.866 0.114296 19.7105 0.823374 20.0369L5.43163 22.1702C5.61679 22.2557 5.8183 22.2999 6.02223 22.2999C6.55876 22.2999 7.07488 21.9949 7.31712 21.4771L15.3365 4.1487L15.337 4.14769C15.662 3.44164 15.3525 2.59644 14.6435 2.26194Z" fill="#8AC9FE"/>
<path d="M14.6438 2.26187L14.5073 2.19873C14.4861 2.28607 14.4569 2.37266 14.4181 2.4571L14.4175 2.45811L6.39814 19.7865C6.15577 20.3043 5.63965 20.6093 5.10324 20.6093C4.90486 20.6093 4.70383 20.5676 4.51264 20.4796L0.0418909 18.41C-0.117418 19.0572 0.197924 19.7486 0.823692 20.0366L5.43194 22.1699C5.61711 22.2553 5.81861 22.2996 6.02255 22.2996C6.55908 22.2996 7.0752 21.9946 7.31744 21.4768L15.3369 4.14838L15.3374 4.14737C15.6623 3.44132 15.3529 2.59637 14.6438 2.26187Z" fill="#60B7FF"/>
<path d="M46.095 25.6068C45.5031 25.607 44.922 25.4476 44.4132 25.1452L39.1711 22.0331C38.9671 21.9156 38.7251 21.8831 38.4974 21.9428C38.2697 22.0024 38.0746 22.1494 37.9545 22.3518C37.8343 22.5542 37.7987 22.7958 37.8554 23.0242C37.9121 23.2527 38.0565 23.4496 38.2573 23.5724L43.8536 26.8947C44.3624 27.1971 44.9435 27.3565 45.5354 27.3563C46.6681 27.3563 47.7749 26.7762 48.3958 25.7336C48.6824 25.2516 48.84 24.7038 48.8532 24.1432C48.2177 25.085 47.1683 25.6066 46.095 25.6066V25.6068ZM43.6359 30.0881C43.3646 30.1576 43.0857 30.1929 42.8056 30.1931C42.2149 30.1931 41.6351 30.0332 41.1279 29.7304L36.3028 26.8703C36.0985 26.7492 35.8546 26.7143 35.6245 26.7731C35.3945 26.8319 35.1973 26.9797 35.0762 27.1839C34.9552 27.3881 34.9202 27.6321 34.979 27.8621C35.0379 28.0921 35.1857 28.2894 35.3899 28.4104L40.5683 31.4799C41.0755 31.7828 41.6552 31.9427 42.246 31.9426C42.5261 31.9423 42.805 31.9071 43.0763 31.8376C43.9358 31.6183 44.6571 31.0805 45.1073 30.3231C45.3949 29.8405 45.5533 29.292 45.5672 28.7303C45.1137 29.4049 44.4347 29.8842 43.6359 30.088V30.0881ZM40.1053 34.5315C39.8351 34.6005 39.5574 34.6355 39.2786 34.6357C38.6905 34.6357 38.1123 34.4782 37.5956 34.1704L33.4366 31.7049C33.0538 31.4779 32.5713 31.5699 32.2947 31.9005C32.5788 32.2423 32.7842 32.6424 32.8964 33.0725C32.9347 33.2192 32.9619 33.3668 32.9782 33.5145L37.0358 35.92C37.5444 36.2244 38.126 36.3852 38.7187 36.3854C38.9976 36.3851 39.2753 36.3501 39.5454 36.2811C40.4062 36.0621 41.1286 35.5229 41.5791 34.7631C41.8655 34.2813 42.0233 33.7339 42.0371 33.1736C41.5833 33.8489 40.9041 34.3283 40.1051 34.5316L40.1053 34.5315ZM34.3608 38.2499C33.7668 38.2501 33.1837 38.09 32.6731 37.7864L31.5487 37.1181L30.8973 38.2243C30.8108 38.3702 30.7122 38.5086 30.6025 38.638L32.1135 39.5359C32.6241 39.8395 33.2071 39.9997 33.8012 39.9994C34.9338 39.9994 36.0382 39.4199 36.656 38.3779C36.9429 37.8943 37.1013 37.3455 37.1165 36.7835C36.484 37.7273 35.4355 38.2498 34.3608 38.2498V38.2499Z" fill="#F1CBBC"/>
<path d="M46.1214 4.59082C43.3676 5.1629 42.3302 5.3309 41.9507 5.36821C40.6007 5.49992 38.8288 5.2694 36.953 5.02552C33.6957 4.60229 30.3278 4.16457 28.165 5.43929L19.7381 10.4032C19.0118 10.8327 18.5554 11.4997 18.4182 12.3311C18.2889 13.1054 18.5357 13.7763 19.1321 14.2715C20.6849 15.5606 24.3775 15.3501 26.3412 14.6317L30.8596 12.7956C31.5639 12.5389 32.3501 12.4072 32.9759 12.7322L33.4924 13.0388L33.4928 13.039L33.4937 13.0395L47.235 21.1953C47.9903 21.6436 48.528 22.3648 48.7487 23.226C48.76 23.2704 48.7698 23.3148 48.7794 23.3593C50.8387 22.9177 52.4938 22.2089 53.809 21.2024L46.1214 4.59082Z" fill="#EFC1B1"/>
<path d="M51.7961 20.5119C50.9151 21.0215 49.8225 20.9958 48.9473 20.4764L33.4937 11.3043L33.4928 11.3038L33.4924 11.3036L32.9759 10.9971C32.3501 10.672 31.5639 10.8039 30.8596 11.0605L26.3412 12.8966C24.3775 13.615 20.6849 13.8253 19.1321 12.5363C18.8745 12.3225 18.6824 12.0757 18.5574 11.8021C18.4945 11.9736 18.4479 12.1506 18.4182 12.3309C18.2889 13.1053 18.5357 13.7762 19.1321 14.2714C20.6849 15.5605 24.3775 15.35 26.3412 14.6316L30.8596 12.7955C31.5639 12.5387 32.3501 12.407 32.9759 12.7321L33.4924 13.0386L33.4928 13.0389L33.4937 13.0394L47.235 21.1951C47.9903 21.6434 48.528 22.3646 48.7487 23.2258C48.76 23.2702 48.7698 23.3147 48.7794 23.3592C50.8387 22.9175 52.4938 22.2087 53.809 21.2022L53.0674 19.5998C52.693 19.9373 52.26 20.2438 51.7961 20.5121V20.5119Z" fill="#E5AFA1"/>
<path d="M4.8286 18.4365C5.38546 18.4365 5.83689 17.9851 5.83689 17.4282C5.83689 16.8713 5.38546 16.4199 4.8286 16.4199C4.27174 16.4199 3.82031 16.8713 3.82031 17.4282C3.82031 17.9851 4.27174 18.4365 4.8286 18.4365Z" fill="#60B7FF"/>
<path d="M56.4253 18.437C56.9821 18.437 57.4336 17.9856 57.4336 17.4287C57.4336 16.8718 56.9821 16.4204 56.4253 16.4204C55.8684 16.4204 55.417 16.8718 55.417 17.4287C55.417 17.9856 55.8684 18.437 56.4253 18.437Z" fill="#60B7FF"/>
</svg>
